<?xml version="1.0" encoding="utf-8"?>
<!-- Generator: Adobe Illustrator 23.0.3, SVG Export Plug-In . SVG Version: 6.00 Build 0)  -->
<svg version="1.1" id="Capa_1" xmlns="http://www.w3.org/2000/svg" xmlns:xlink="http://www.w3.org/1999/xlink" x="0px" y="0px"
	 viewBox="0 0 457.6 476.2" style="enable-background:new 0 0 457.6 476.2;" xml:space="preserve">
<style type="text/css">
	.st0{opacity:0.8;}
	.st1{fill:none;stroke:#FFFFFF;stroke-width:8;stroke-linecap:round;stroke-linejoin:round;stroke-miterlimit:10;}
	.st2{fill:#FFFFFF;}
</style>
<g class="st0">
	<g>
		<path class="st1" d="M415.6,129.1c17.3,30.9,27.1,66.5,27.1,104.4c0,118.1-95.8,213.9-213.9,213.9S14.9,351.6,14.9,233.4
			S110.7,19.5,228.8,19.5c47.8,0,92,15.7,127.7,42.3"/>
		<g>
			<path class="st2" d="M365.4,92.5c0.7,5.3,3.1,10.1,6.8,13.9l-5.9,8.2l5.6,4l5.8-8c4.6,2.6,9.8,3.6,15,2.9
				c13.3-1.8,22.7-14,20.9-27.3c-1.5-11.6-11-20.2-22.3-21.1c-1.6-0.1-3.3-0.1-5,0.1c-6.4,0.9-12.2,4.2-16.1,9.3
				C366.3,79.7,364.6,86,365.4,92.5z M375.7,78.7c2.8-3.7,6.9-6.1,11.6-6.7c9.5-1.3,18.3,5.5,19.6,15c1.3,9.5-5.5,18.3-15,19.6
				c-1.2,0.2-2.4,0.2-3.6,0.1c-3.3-0.3-6.5-1.5-9.3-3.6c-3.7-2.8-6.1-6.9-6.7-11.6C371.6,87,372.8,82.4,375.7,78.7z"/>
		</g>
	</g>
</g>
</svg>
