<?xml version="1.0" encoding="utf-8"?>
<!-- Generator: Adobe Illustrator 23.0.6, SVG Export Plug-In . SVG Version: 6.00 Build 0)  -->
<svg version="1.1" id="Capa_1" xmlns="http://www.w3.org/2000/svg" xmlns:xlink="http://www.w3.org/1999/xlink" x="0px" y="0px"
	 viewBox="0 0 973 1873" style="enable-background:new 0 0 973 1873;" xml:space="preserve">
<style type="text/css">
	.st0{fill:#F7F3F0;}
	.st1{clip-path:url(#SVGID_2_);fill:#C4BCB7;}
	.st2{fill:#FCD24C;}
	.st3{fill:none;}
	.st4{fill:#347B98;}
	.st5{font-family:'MerriweatherSans-Bold';}
	.st6{font-size:25px;}
	.st7{fill:#FFFFFF;}
	.st8{fill:#50B6D6;}
	.st9{font-family:'MerriweatherSans-Regular';}
	.st10{font-size:15px;}
	.st11{font-size:18px;}
	.st12{fill:none;stroke:#C4BCB7;stroke-width:5;stroke-miterlimit:10;}
	.st13{fill:none;stroke:#C4BCB7;stroke-width:5;stroke-miterlimit:10;stroke-dasharray:12.8182,12.8182;}
	.st14{fill:none;stroke:#C4BCB7;stroke-width:5;stroke-miterlimit:10;stroke-dasharray:12.4444,12.4444;}
	.st15{fill:none;stroke:#C4BCB7;stroke-width:5;stroke-miterlimit:10;stroke-dasharray:11.7143,11.7143;}
	.st16{font-size:48px;}
	.st17{font-family:'MerriweatherSans-Light';}
	.st18{fill:none;stroke:#C4BCB7;stroke-width:5;stroke-miterlimit:10;stroke-dasharray:11.7619,11.7619;}
	.st19{fill:none;stroke:#C4BCB7;stroke-width:5;stroke-miterlimit:10;stroke-dasharray:12.7273,12.7273;}
	.st20{fill:none;stroke:#C4BCB7;stroke-width:5;stroke-miterlimit:10;stroke-dasharray:13.1111,13.1111;}
	.st21{fill:none;stroke:#C4BCB7;stroke-width:5;stroke-miterlimit:10;stroke-dasharray:11.4615,11.4615;}
	.st22{fill:none;stroke:#C4BCB7;stroke-width:5;stroke-miterlimit:10;stroke-dasharray:12.4762,12.4762;}
	.st23{fill:none;stroke:#C4BCB7;stroke-width:5;stroke-miterlimit:10;stroke-dasharray:11.3636,11.3636;}
	.st24{fill:none;stroke:#C4BCB7;stroke-width:5;stroke-miterlimit:10;stroke-dasharray:12.5714,12.5714;}
	.st25{fill:none;stroke:#C4BCB7;stroke-width:5;stroke-miterlimit:10;stroke-dasharray:14,14;}
	.st26{fill:none;stroke:#C4BCB7;stroke-width:5;stroke-miterlimit:10;stroke-dasharray:11.4118,11.4118;}
	.st27{opacity:0.4;}
	.st28{fill:#959595;}
	.st29{fill:#424242;}
	.st30{fill:#9F9F9F;}
	.st31{fill:#8B8B8B;}
	.st32{fill:#DFDFDF;}
	.st33{fill:#969696;}
	.st34{fill:#E1E1E1;}
	.st35{fill:#E3E3E3;}
	.st36{fill:#929292;}
	.st37{fill:#DADADA;}
	.st38{fill:#909090;}
	.st39{opacity:0.6;}
	.st40{fill:#787878;}
	.st41{fill:#949494;}
	.st42{fill:#7C7C7C;}
	.st43{fill:#DEDEDE;}
	.st44{fill:#535353;}
	.st45{fill:#DDDDDD;}
	.st46{fill:#6E6E6E;}
	.st47{fill:#6D6D6D;}
	.st48{fill:#6F6F6F;}
	.st49{fill:#6C6C6C;}
	.st50{fill:#4A4A4A;}
	.st51{fill:#464646;}
	.st52{fill:#939393;}
	.st53{fill:#777777;}
	.st54{fill:#7A7A7A;}
	.st55{fill:#434343;}
	.st56{fill:#454545;}
	.st57{fill:#9A9A9A;}
	.st58{fill:#C8C8C8;}
	.st59{fill:#BABABA;}
	.st60{fill:#696969;}
	.st61{fill:#676767;}
	.st62{fill:#D6D6D6;}
	.st63{fill:#989898;}
	.st64{fill:#919191;}
	.st65{fill:#494949;}
	.st66{fill:#C9C9C9;}
	.st67{fill:#CBCBCB;}
	.st68{fill:#BFBFBF;}
	.st69{fill:#474747;}
	.st70{fill:#525252;}
	.st71{fill:#B8B8B8;}
	.st72{fill:#484848;}
	.st73{fill:#A8A8A8;}
	.st74{fill:#4C4C4C;}
	.st75{fill:#E2E2E2;}
	.st76{fill:#979797;}
	.st77{fill:#616161;}
	.st78{fill:#4B4B4B;}
	.st79{fill:#A9A9A9;}
</style>
<path class="st0" d="M904.6,1856H69.4c-29.5,0-53.4-23.9-53.4-53.4V70.4C16,40.9,39.9,17,69.4,17h835.2c29.5,0,53.4,23.9,53.4,53.4
	v1732.2C958,1832.1,934.1,1856,904.6,1856z"/>
<g>
	<defs>
		<path id="SVGID_1_" d="M904.6,1856H69.4c-29.5,0-53.4-23.9-53.4-53.4V70.4C16,40.9,39.9,17,69.4,17h835.2
			c29.5,0,53.4,23.9,53.4,53.4v1732.2C958,1832.1,934.1,1856,904.6,1856z"/>
	</defs>
	<clipPath id="SVGID_2_">
		<use xlink:href="#SVGID_1_"  style="overflow:visible;"/>
	</clipPath>
	<rect x="3" y="-16" class="st1" width="983" height="147"/>
	<rect x="-8" y="1748" class="st1" width="983" height="147"/>
</g>
<rect x="181" y="203" class="st3" width="203" height="118.7"/>
<text transform="matrix(1 0 0 1 186.9906 224.9078)"><tspan x="0" y="0" class="st4 st5 st6">¿A quién afecta </tspan><tspan x="50.8" y="30" class="st4 st5 st6">la violación  </tspan><tspan x="24.8" y="60" class="st4 st5 st6">del derecho a </tspan><tspan x="38.1" y="90" class="st4 st5 st6">la memoria?</tspan></text>
<rect x="597" y="513.4" class="st3" width="158.8" height="87.1"/>
<text transform="matrix(1 0 0 1 596.9999 533.6646)"><tspan x="0" y="0" class="st4 st5 st6">La memoria </tspan><tspan x="0" y="30" class="st4 st5 st6">más allá de </tspan><tspan x="0" y="60" class="st4 st5 st6">los archivos</tspan></text>
<rect x="192" y="806.7" class="st3" width="166" height="57.1"/>
<text transform="matrix(1 0 0 1 206.5481 826.9603)"><tspan x="0" y="0" class="st4 st5 st6">La memoria </tspan><tspan x="-8.6" y="30" class="st4 st5 st6">en el mundo</tspan></text>
<rect x="533" y="1128.9" class="st3" width="227.3" height="58.9"/>
<text transform="matrix(1 0 0 1 533.0002 1150.7869)"><tspan x="0" y="0" class="st4 st5 st6">¿Qué acciones ha  </tspan><tspan x="0" y="30" class="st4 st5 st6">tomado México?</tspan></text>
<g>
	<circle class="st2" cx="806" cy="557" r="37"/>
	<path class="st7" d="M822,568.4v7.4h-30l-1.3-4.5c5.1-2.8,9.6-6,13.6-9.6c4-3.5,6-7,6-10.4c0-1.8-0.5-3.3-1.6-4.4
		c-1-1.1-2.6-1.7-4.7-1.7c-1.8,0-3.6,0.4-5.4,1.2c-1.8,0.8-3.2,1.8-4.3,3l-3.4-5.6c0.9-0.9,2.1-1.8,3.5-2.7s3.1-1.6,5-2.2
		c1.9-0.6,4-0.9,6.2-0.9c3.4,0,6.1,0.5,8.2,1.6s3.7,2.5,4.6,4.2c1,1.7,1.4,3.6,1.4,5.7c0,3.5-1.2,6.8-3.7,10
		c-2.5,3.2-6,6.1-10.5,8.9H822z"/>
</g>
<g>
	<circle class="st4" cx="143" cy="835.2" r="37"/>
	<path class="st7" d="M153.3,835.4c1.5,1.1,2.7,2.4,3.4,3.9c0.7,1.5,1.1,3.1,1.1,4.7c0,2.8-0.8,5.3-2.5,7.5s-4,4-7,5.3
		s-6.5,1.9-10.4,1.9c-1.4,0-2.6-0.1-3.7-0.2c-1.1-0.2-1.9-0.3-2.4-0.4c-0.5-0.1-1.2-0.4-2.2-0.7l0-6c2.1,0.4,3.9,0.7,5.5,0.7
		c2.5,0,4.7-0.3,6.7-0.9c2-0.6,3.5-1.5,4.6-2.7c1.1-1.2,1.7-2.7,1.7-4.4c0-2.2-0.7-4-2-5.3c-1.3-1.3-3.5-2-6.4-2l-4.1,1.1l-1.2-5.8
		c1.3-0.3,2.7-0.6,3.9-1.1c1.3-0.4,2.3-0.8,3.2-1.3c3-1.7,4.5-3.9,4.5-6.6c0-1.6-0.6-2.7-1.7-3.5c-1.1-0.7-2.6-1.1-4.4-1.1
		c-2,0-3.6,0.3-5,0.8c-1.4,0.5-2.7,1.3-4,2.1l-2.7-5.7c0.6-0.6,1.6-1.3,2.9-2c1.4-0.7,2.9-1.3,4.7-1.7c1.8-0.5,3.5-0.7,5.3-0.7
		c3.1,0,5.7,0.4,7.8,1.3c2.1,0.9,3.7,2.1,4.8,3.7c1.1,1.6,1.6,3.5,1.6,5.6c0,2.6-0.7,4.9-2.2,6.8c-1.5,1.9-3.4,3.4-5.7,4.5
		C149.8,833.7,151.7,834.4,153.3,835.4z"/>
</g>
<g>
	<circle class="st2" cx="806" cy="1159.3" r="37"/>
	<path class="st7" d="M824.5,1173.3h-6.8v11h-8.8v-11h-19.1l-2.2-3.9l16.4-35.2h2.1l7.1,3.6l-13.5,24.9l-2.2,3.7h11.4l1.1-12h7.7v12
		h6.8V1173.3z"/>
</g>
<g>
	<circle class="st4" cx="141" cy="1488.8" r="37"/>
	<path class="st7" d="M127,1505.6c1.1,0,1.8,0,2.3,0c3.2,0,6-0.4,8.5-1.3c2.5-0.9,4.4-2.1,5.8-3.7c1.4-1.6,2.1-3.4,2.1-5.5
		c0-2.2-0.6-3.8-1.9-4.8c-1.3-1-3.4-1.5-6.4-1.5c-1.1,0-2.4,0.2-3.8,0.6c-1.4,0.4-3,0.9-4.9,1.6l-1.5-0.9l1.9-24.7h24.8l-0.8,7.8
		h-17.4l-1,9.8c1.6-0.4,2.9-0.6,4.1-0.8c1.1-0.2,2.3-0.3,3.3-0.3c2.7,0,5,0.5,7,1.6c1.9,1.1,3.4,2.6,4.4,4.5c1,1.9,1.5,4.2,1.5,6.8
		c0,3.3-1,6.2-3,8.9c-2,2.7-4.8,4.8-8.5,6.3c-3.7,1.6-7.9,2.3-12.7,2.3c-1.8,0-3.1-0.1-4-0.4L127,1505.6z"/>
</g>
<text transform="matrix(1 0 0 1 210.709 1491.563)"><tspan x="0" y="0" class="st4 st5 st6">Monumentos y  </tspan><tspan x="-21.8" y="30" class="st4 st5 st6">antimonumentos</tspan></text>
<rect x="585" y="159.8" class="st3" width="262" height="269.2"/>
<text transform="matrix(1 0 0 1 585 174.3984)"><tspan x="0" y="0" class="st4 st9 st10">Cuando se viola el </tspan><tspan x="135.9" y="0" class="st4 st5 st11">derecho a la </tspan><tspan x="0" y="21.6" class="st4 st5 st11">memoria</tspan><tspan x="82.6" y="21.6" class="st4 st9 st10"> no solo se vulnera a las </tspan><tspan x="0" y="39.6" class="st4 st9 st10">víctimas de la represión y a sus </tspan><tspan x="0" y="57.6" class="st4 st9 st10">familiares, sino a la sociedad en su </tspan><tspan x="0" y="75.6" class="st4 st9 st10">conjunto</tspan><tspan x="0" y="111.6" class="st4 st9 st10">La falta de información nos afecta a </tspan><tspan x="0" y="129.6" class="st4 st9 st10">todos, por ende, pensar la historia y </tspan><tspan x="0" y="147.6" class="st4 st9 st10">buscar diversas visiones para </tspan><tspan x="0" y="165.6" class="st4 st9 st10">explicar las causas de la violencia </tspan><tspan x="0" y="183.6" class="st4 st9 st10">actual es tarea de todos.</tspan></text>
<rect x="123" y="454.6" class="st3" width="280" height="246.4"/>
<text transform="matrix(1 0 0 1 131.8188 469.2246)"><tspan x="0" y="0" class="st4 st9 st10">El </tspan><tspan x="18.2" y="0" class="st4 st5 st11">derecho a la memoria</tspan><tspan x="219.2" y="0" class="st4 st9 st10"> abarca </tspan><tspan x="26.2" y="18" class="st4 st9 st10">también las expresiones orales. El </tspan><tspan x="14.1" y="36" class="st4 st9 st10">ejemplo más visible pertenece a los </tspan><tspan x="-2.7" y="54" class="st4 st9 st10">pueblos indígenas, cuyas acciones por </tspan><tspan x="33" y="72" class="st4 st9 st10">preservar la memoria a través de </tspan><tspan x="-7.2" y="90" class="st4 st9 st10">mitos, rituales, ofrendas, arquitectura, </tspan><tspan x="180.3" y="108" class="st4 st9 st10">gastronomía</tspan><tspan x="8.7" y="144" class="st4 st9 st10">La memoria no sólo se encuentra en </tspan><tspan x="12.7" y="162" class="st4 st9 st10">los archivos, sino también en la voz </tspan><tspan x="129.5" y="180" class="st4 st9 st10">viva de los pueblos.</tspan></text>
<g>
	<g>
		<line class="st12" x1="409" y1="264" x2="415" y2="264"/>
		<line class="st13" x1="427.8" y1="264" x2="549.6" y2="264"/>
		<polyline class="st12" points="556,264 562,264 562,270 		"/>
		<line class="st14" x1="562" y1="282.4" x2="562" y2="375.8"/>
		<polyline class="st12" points="562,382 562,388 568,388 		"/>
		<line class="st15" x1="579.7" y1="388" x2="808.1" y2="388"/>
		<line class="st12" x1="814" y1="388" x2="820" y2="388"/>
	</g>
</g>
<g>
	<circle class="st4" cx="143" cy="264" r="37"/>
	<path class="st7" d="M132.1,255.2l-0.8-5.4c1.2-0.3,2.7-0.9,4.4-1.6c1.7-0.7,3.3-1.5,4.8-2.4c1.5-0.8,2.7-1.6,3.4-2.2l4.5,0.7
		l-0.1,36.7h-9.4v-27.2C137.6,254.1,135.3,254.6,132.1,255.2z"/>
</g>
<text transform="matrix(1 0 0 1 219.7537 95.9485)"><tspan x="0" y="0" class="st4 st5 st16">Derecho</tspan><tspan x="200.6" y="0" class="st2 st17 st16"> </tspan><tspan x="216" y="0" class="st7 st17 st16">a la</tspan><tspan x="298.9" y="0" class="st2 st17 st16"> </tspan><tspan x="314.3" y="0" class="st2 st5 st16">memoria</tspan></text>
<rect x="531" y="699.9" class="st3" width="361" height="270.7"/>
<text transform="matrix(1 0 0 1 531 714.4854)"><tspan x="0" y="0" class="st4 st9 st10">El </tspan><tspan x="18.2" y="0" class="st4 st5 st11">derecho a la memoria</tspan><tspan x="219.2" y="0" class="st4 st9 st10"> se estableció por </tspan><tspan x="0" y="18" class="st4 st9 st10">primera vez en la Organización de las Naciones </tspan><tspan x="0" y="36" class="st4 st9 st10">Unidas para la Educación, la Ciencia y la Cultura </tspan><tspan x="0" y="54" class="st4 st9 st10">(UNESCO) como una medida contra la </tspan><tspan x="0" y="72" class="st4 st9 st10">impunidad, a favor de la justicia y por la </tspan><tspan x="0" y="90" class="st4 st9 st10">reparación integral del daño.</tspan><tspan x="0" y="126" class="st4 st9 st10">Se definió a la memoria como un patrimonio de </tspan><tspan x="0" y="144" class="st4 st9 st10">los pueblos que los Estados tienen la obligación </tspan><tspan x="0" y="162" class="st4 st9 st10">de preservar en archivos, garantizando en todo </tspan><tspan x="0" y="180" class="st4 st9 st10">momento el acceso a la información, con el </tspan><tspan x="0" y="198" class="st4 st9 st10">objetivo de conocer los hechos, pues esto </tspan><tspan x="0" y="216" class="st4 st9 st10">permite evitar la recurrencia de violaciones de los </tspan><tspan x="0" y="234" class="st4 st9 st10">derechos fundamentales y que se cometan </tspan><tspan x="0" y="252" class="st4 st9 st10">crímenes de lesa humanidad.</tspan></text>
<g>
	<g>
		<line class="st12" x1="170" y1="678" x2="176" y2="678"/>
		<line class="st18" x1="187.8" y1="678" x2="417.1" y2="678"/>
		<polyline class="st12" points="423,678 429,678 429,672 		"/>
		<line class="st14" x1="429" y1="659.6" x2="429" y2="566.2"/>
		<polyline class="st12" points="429,560 429,554 435,554 		"/>
		<line class="st19" x1="447.7" y1="554" x2="568.6" y2="554"/>
		<line class="st12" x1="575" y1="554" x2="581" y2="554"/>
	</g>
</g>
<g>
	<g>
		<line class="st12" x1="377" y1="834" x2="383" y2="834"/>
		<line class="st20" x1="396.1" y1="834" x2="494.4" y2="834"/>
		<polyline class="st12" points="501,834 507,834 507,840 		"/>
		<line class="st21" x1="507" y1="851.5" x2="507" y2="983.3"/>
		<polyline class="st12" points="507,989 507,995 513,995 		"/>
		<line class="st15" x1="524.7" y1="995" x2="753.1" y2="995"/>
		<line class="st12" x1="759" y1="995" x2="765" y2="995"/>
	</g>
</g>
<rect x="103.3" y="1058" class="st3" width="288.7" height="239"/>
<text transform="matrix(1 0 0 1 117.5688 1070.1049)"><tspan x="0" y="0" class="st4 st9 st10">Reforma a la Ley General de Archivos, </tspan><tspan x="62" y="18" class="st4 st9 st10">Ley General de Transparencia </tspan><tspan x="-7.7" y="36" class="st4 st9 st10"> Ley de Protección de Datos Personales </tspan><tspan x="3.3" y="54" class="st4 st9 st10">en Posesión de los Sujetos Obligados. </tspan><tspan x="-9.7" y="90" class="st4 st9 st10">Se ha generado una Comisión Ejecutiva </tspan><tspan x="11.7" y="108" class="st4 st9 st10">de Atención a Víctimas (CEAV) , que </tspan><tspan x="-11.9" y="126" class="st4 st9 st10">hacen parte de un proyecto de apertura </tspan><tspan x="7.4" y="144" class="st4 st9 st10">de la información pública y, en casos </tspan><tspan x="-10.4" y="162" class="st4 st9 st10">concretos, busca la reparación del daño </tspan><tspan x="77.7" y="180" class="st4 st9 st10">que causaron los gobiernos </tspan><tspan x="182.9" y="198" class="st4 st9 st10">precedentes.</tspan></text>
<g>
	<g>
		<line class="st12" x1="142" y1="1299" x2="148" y2="1299"/>
		<line class="st22" x1="160.5" y1="1299" x2="403.8" y2="1299"/>
		<polyline class="st12" points="410,1299 416,1299 416,1293 		"/>
		<line class="st23" x1="416" y1="1281.6" x2="416" y2="1173.7"/>
		<polyline class="st12" points="416,1168 416,1162 422,1162 		"/>
		<line class="st24" x1="434.6" y1="1162" x2="503.7" y2="1162"/>
		<line class="st12" x1="510" y1="1162" x2="516" y2="1162"/>
	</g>
</g>
<rect x="534.9" y="1365.9" class="st3" width="350.6" height="324"/>
<text transform="matrix(1 0 0 1 534.8691 1377.9736)"><tspan x="0" y="0" class="st4 st9 st10">Definir qué debe pasar a la historia es una lucha </tspan><tspan x="0" y="18" class="st4 st9 st10">constante entre “lo permitido” y las expresiones </tspan><tspan x="0" y="36" class="st4 st9 st10">que buscan romper el orden para llamar la </tspan><tspan x="0" y="54" class="st4 st9 st10">atención de hechos que no deben caer en el </tspan><tspan x="0" y="72" class="st4 st9 st10">olvido.</tspan><tspan x="0" y="108" class="st4 st9 st10">Los 43 estudiantes desaparecidos de </tspan><tspan x="0" y="126" class="st4 st9 st10">Ayotzinapa, los muertos de la mina de Pasta de </tspan><tspan x="0" y="144" class="st4 st9 st10">Conchos, la Guardería ABC, los feminicidios y la </tspan><tspan x="0" y="162" class="st4 st9 st10">Masacre de 1968, han modificado el paisaje </tspan><tspan x="0" y="180" class="st4 st9 st10">urbano para hacer presentes las atrocidades del </tspan><tspan x="0" y="198" class="st4 st9 st10">pasado y repensarnos como sociedad. </tspan><tspan x="0" y="234" class="st4 st9 st10">Junto a éstos antimonumentos conviven </tspan><tspan x="0" y="252" class="st4 st9 st10">diariamente los monumentos históricos </tspan><tspan x="0" y="270" class="st4 st9 st10">protegidos por la Ley, recordándonos que la </tspan><tspan x="0" y="288" class="st4 st9 st10">historia se construye de diversas formas.</tspan></text>
<g>
	<g>
		<line class="st12" x1="427" y1="1498" x2="433" y2="1498"/>
		<line class="st25" x1="447" y1="1498" x2="496" y2="1498"/>
		<polyline class="st12" points="503,1498 509,1498 509,1504 		"/>
		<line class="st26" x1="509" y1="1515.4" x2="509" y2="1692.3"/>
		<polyline class="st12" points="509,1698 509,1704 515,1704 		"/>
		<line class="st15" x1="526.7" y1="1704" x2="755.1" y2="1704"/>
		<line class="st12" x1="761" y1="1704" x2="767" y2="1704"/>
	</g>
</g>
<g class="st27">
	<path d="M398.6,978.4c0,2.3,0,4.5,0,6.8c7.1,0,14.1,0,21.2,0c0,1.7,0.1,3.3,0,4.9c-0.1,1.1-1.2,1.8-2.5,1.8c-6.1,0-12.3,0-18.4,0
		c-2.1,0-4.2,0-6.3-0.1c-1.9,0-2.9-1-2.9-2.9c0-4.8,0-9.7,0-14.5c0-1.9,1-2.8,2.8-2.8c8.2,0,16.4,0,24.6,0c1.8,0,2.7,1,2.8,2.8
		c0,0.9,0,1.8,0,2.7c0.1,0.9-0.3,1.1-1.1,1.1c-6.2,0-12.4,0-18.6,0C399.7,978.3,399.2,978.4,398.6,978.4z"/>
	<path d="M384.3,944.5c-7.9,0-15.7,0-23.9,0c0.5,0.4,0.7,0.5,0.9,0.7c1.3,0.8,2.6,1.4,3.8,2.3c1.6,1.1,3.2,1.4,5.1,1.3
		c4.6-0.1,9.3,0,14.1,0c0,1.5,0,3,0,4.5c-0.4,0-0.8,0-1.1,0c-4.9,0-9.7,0-14.6,0c-0.5,0-1.1,0.2-1.6,0.4c-2,1.1-4,2.3-6,3.7
		c7.8,0,15.5,0,23.2,0c0.5,2.4-0.5,3.8-2.7,3.8c-8.2,0-16.3,0-24.5,0c-1.8,0-2.8-1-2.8-2.8c0-4.7,0-9.4,0-14.2
		c0-2.4,0.8-3.2,3.2-3.2c8,0,16.1,0,24.1,0C383.6,941,384.6,942.2,384.3,944.5z M361.7,953.6c-0.9-1.6-0.3-2.5,1-3.4
		c-1.8,0.4-2.5-0.5-2.8-2c-0.2,1.7-1.2,2.3-2.8,2.2c1.6,0.7,1.7,1.9,1.1,3.3C359.4,952.3,360.5,952.4,361.7,953.6z"/>
	<path d="M348.1,979c0,1.9,0,3.7,0,5.5c-0.4,0-0.9,0.1-1.3,0.1c-4.4,0-8.8,0-13.2,0c-1,0-1.2,0.3-1.2,1.2c0.1,2,0,4,0,6.1
		c-1.8,0-3.6,0-5.6,0c0-0.6,0-1.2,0-1.9c0-1.4,0-2.8,0-4.2c0-0.9-0.2-1.2-1.1-1.2c-2.2,0.1-4.4,0-6.5,0c-0.4,0-0.8,0-1.3,0
		c0-1.8,0-3.6,0-5.5c1,0,2,0,3,0c1.7,0,3.3,0,5,0c0.7,0,0.9-0.2,0.9-0.9c0-2.1,0-4.2,0-6.4c1.9,0,3.6,0,5.5,0c0,2.4,0,4.8,0,7.2
		C337.7,979,342.9,979,348.1,979z"/>
	<path d="M426,985.1c0-2.2,0-4.4,0-6.6c10.1,0,20,0,30.1,0c0,2.2,0,4.4,0,6.6C446.1,985.1,436.1,985.1,426,985.1z"/>
	<path d="M374.5,992c0-6.8,0-13.5,0-20.2c2.7,0,5.3-0.1,7.9,0c1.3,0,2.1,1.2,2.1,2.7c0,3.3,0,6.6,0,9.9c0,1.6,0,3.2,0,4.8
		c0,1.8-1,2.8-2.9,2.8C379.2,992,376.9,992,374.5,992z"/>
	<path d="M435.9,941c0,0.8,0.1,1.5,0.1,2.1c0,5.6,0,11.3,0,16.9c0,1-0.3,1.3-1.2,1.2c-2-0.1-4.1,0-6.1,0c-1.7,0-2.7-1-2.7-2.7
		c0-4.9,0-9.8,0-14.7c0-1.7,1-2.7,2.7-2.8C431,941,433.4,941,435.9,941z"/>
	<path d="M446.3,941c2.5,0,5,0,7.5,0c1.3,0,2.3,1.1,2.3,2.4c0,5.1,0,10.1,0,15.2c0,1.6-1,2.5-2.5,2.5c-2.2,0-4.4,0-6.6,0
		c-0.5,0-0.8-0.1-0.8-0.7c0-6.4,0-12.7,0-19.1C446.1,941.3,446.2,941.3,446.3,941z"/>
	<path d="M338.2,961.2c0-6.8,0-13.4,0-20.2c2.7,0,5.3-0.1,7.9,0c1.2,0,2.1,1.1,2.1,2.4c0,5.1,0,10.2,0,15.4c0,1.4-1,2.4-2.4,2.4
		c-2.2,0-4.4,0-6.6,0C338.9,961.2,338.6,961.2,338.2,961.2z"/>
	<path d="M369.2,916.9c-4.6,0-9.3,0-13.9,0c-0.8,0-1.1-0.2-1.1-1c0.1-0.9,0-1.9,0-2.8c0-1.8,1-2.7,2.8-2.8c1.6,0,3.3,0,4.9,0
		c6.4,0,12.9,0,19.3,0c2.4,0,3.3,0.9,3.3,3.2c0,1.1,0.3,2.6-0.3,3.2c-0.5,0.6-2,0.2-3.1,0.2C377.1,916.9,373.2,916.9,369.2,916.9z"
		/>
	<path d="M327.9,961.2c-2.6,0-5.1,0-7.6,0c-1.3,0-2.3-1.1-2.3-2.4c0-5.1,0-10.2,0-15.4c0-1.3,0.9-2.3,2.1-2.4c2.6-0.1,5.1,0,7.8,0
		C327.9,947.8,327.9,954.4,327.9,961.2z"/>
	<path d="M364.1,991.9c-2.6,0-5.1,0-7.6,0c-1.3,0-2.3-1-2.3-2.3c0-5.2,0-10.4,0-15.6c0-1.3,1-2.2,2.2-2.2c2.3-0.1,4.6,0,7,0
		c0.8,0,0.7,0.6,0.7,1.1c0,4.2,0,8.4,0,12.6c0,1.8,0,3.6,0,5.3C364.1,991.1,364.1,991.5,364.1,991.9z"/>
	<path d="M354.2,923.9c0.5,0,0.9,0,1.3,0c9.2,0,18.4,0,27.7,0c1,0,1.4,0.3,1.3,1.3c-0.1,0.9,0,1.9,0,2.8c-0.1,1.5-1,2.5-2.5,2.5
		c-8.4,0-16.8,0-25.2,0c-1.5,0-2.5-0.9-2.5-2.4C354.2,926.7,354.2,925.4,354.2,923.9z"/>
	<path d="M327.4,910.3c0,6.8,0,13.4,0,20.2c-0.8,0-1.6,0-2.4,0c-1.5,0-3,0-4.5,0c-1.6,0-2.7-1-2.7-2.6c0-5,0-9.9,0-14.9
		c0-1.5,0.9-2.6,2.3-2.7C322.6,910.2,325,910.3,327.4,910.3z"/>
	<path d="M338.7,910.3c2.4,0,4.7-0.1,7,0c1.5,0,2.4,1.1,2.4,2.6c0,5,0,10,0,14.9c0,1.6-1,2.6-2.6,2.6c-2,0-4.1,0-6.1,0
		c-0.6,0-0.9-0.1-0.9-0.8c0-6.3,0-12.6,0-19C338.6,910.7,338.7,910.6,338.7,910.3z"/>
	<path d="M456,974.9c-0.4,0-0.8,0-1.1,0c-9.2,0-18.4,0-27.7,0c-1.3,0-1.6-0.4-1.1-1.7c0.5-1,1.3-1.5,2.4-1.5c1.7,0,3.4,0,5.1,0
		c6.5,0,13.1,0,19.6,0C455.3,971.7,456.3,972.8,456,974.9z"/>
	<path d="M456,988.8c0.4,1.7-0.6,3-2.3,3.1c-1.1,0.1-2.3,0-3.4,0c-7.2,0-14.4,0-21.6,0c-2,0-3-1.2-2.6-3.1
		C436.1,988.8,446,988.8,456,988.8z"/>
	<path d="M393.5,941c7.4,0,14.8,0,22.6,0c-1.8,1.2-3.3,2.2-4.8,3.2c-2,1.3-3.9,2.5-5.9,3.7c-0.3,0.2-0.9,0.2-1.1,0.1
		c-3.6-2.2-7.2-4.5-10.8-6.8C393.4,941.2,393.4,941.1,393.5,941z"/>
	<path d="M393.5,960.9c3.6-2.3,7.2-4.5,10.8-6.8c0.2-0.1,0.6-0.1,0.9,0c3.5,2.2,6.9,4.4,10.4,6.7c0.1,0.1,0.1,0.2,0.3,0.3
		c-7.5,0-14.8,0-22.2,0C393.6,961.1,393.5,961,393.5,960.9z"/>
	<path d="M408.9,951.1c3.7-2.4,7.3-4.6,11-7c0,4.7,0,9.2,0,13.9C416.2,955.7,412.6,953.5,408.9,951.1z"/>
	<path d="M389.7,944.2c3.7,2.3,7.1,4.6,10.8,6.9c-3.6,2.3-7.2,4.6-10.8,6.9C389.7,953.4,389.7,948.9,389.7,944.2z"/>
	<path d="M335.2,953.7c-0.3,0-0.8-0.1-1.5-0.1c0,0.9,0,1.7,0,2.6c-0.4,0-0.7,0-1.2,0c0-0.8,0-1.7,0-2.5c-0.7,0-1.2,0.1-1.8,0.1
		c-0.3-1.1-0.4-2.2-0.7-3.2c-0.3-1-0.9-1.9-1.3-2.9c1.4,0,1.9,0.4,2.1,1.6c0.2,1,0.5,2,0.8,3.3c0.3-0.3,0.7-0.5,0.8-0.7
		c0.3-1.7,0-3-0.6-3.2c0.4-0.8,0.8-1.6,1.3-2.4c0.4,0.8,0.8,1.6,1.2,2.3c-1.1,1-0.4,2.3-0.6,3.4c0,0.2,0.5,0.4,0.9,0.8
		c0.3-1.5,0.3-2.8,0.8-3.9c0.2-0.6,1.2-0.9,1.9-1.2C336.6,949.5,335.9,951.5,335.2,953.7z"/>
	<path d="M332.9,919.9c-0.8,0-1.6,0-2.4,0c-0.5-1.9-0.3-2.5,0.5-2.5c0.1,0.7,0.2,1.3,0.3,1.9c0.3,0,0.7,0,0.8-0.1
		c0.1-0.5,0.1-1,0.2-1.8C333,916.9,333,917.5,332.9,919.9z"/>
	<ellipse cx="333.7" cy="918.6" rx="0.2" ry="1.6"/>
	<path d="M361.7,953.6c-1.2-1.1-2.3-1.2-3.5,0c0.6-1.4,0.5-2.6-1.1-3.3c1.6,0.1,2.6-0.5,2.8-2.2c0.4,1.5,1.1,2.4,2.8,2
		C361.5,951,360.8,952,361.7,953.6z"/>
	<path d="M435.9,910.6c0,0.8,0.1,1.5,0.1,2.1c0,5.6,0,11.3,0,16.9c0,1-0.3,1.3-1.2,1.2c-2-0.1-4.1,0-6.1,0c-1.7,0-2.7-1-2.7-2.7
		c0-4.9,0-9.8,0-14.7c0-1.7,1-2.7,2.7-2.8C431,910.6,433.4,910.6,435.9,910.6z"/>
	<path d="M446.3,910.6c2.5,0,5,0,7.5,0c1.3,0,2.3,1.1,2.3,2.4c0,5.1,0,10.1,0,15.2c0,1.6-1,2.5-2.5,2.5c-2.2,0-4.4,0-6.6,0
		c-0.5,0-0.8-0.1-0.8-0.7c0-6.4,0-12.7,0-19.1C446.1,910.9,446.2,910.8,446.3,910.6z"/>
	<path d="M417.6,910.2c-2,0-2.6,0.1-4.5,0.1c-3.8,0-7.7,0-11.5,0c-3.7,0-6,0-9.7,0c-2.1,0-2.2,2.9-2.2,3.5c0,3.2,0,10.4,0,13.7
		c0,2.1,0.9,3,3,3c4,0,8.1,0,12.1,0c4.1,0,8.2,0,12.3,0c1.7,0,2.7-1,2.7-2.7c0-3.3,0-10.6,0.1-13.9
		C419.9,913.1,420.2,910.2,417.6,910.2z M394.7,917c-1.5-0.6-2.1-2.3-1.6-3.7c0.6-1.5,2-2.2,3.7-1.7c-2,0.7-2.8,1.6-2.4,3
		c0.3,1.4,1.5,1.9,3.5,1.5C397.3,917.2,396,917.6,394.7,917z M397.1,915.1c-0.6,0-1.3-0.6-1.3-1.3c0-0.7,0.8-1.4,1.3-1.3
		c0.5,0,1,0.7,1.7,1.3C398.1,914.3,397.6,915.1,397.1,915.1z"/>
</g>
<g class="st39">
	<g>
		<path class="st32" d="M255.6,414.5c-0.1-1-0.2-2.1-0.3-3.1c-0.1-0.6-0.3-1.6-0.6-1.7c-0.5-0.2-1.2,0.3-1.9,0.5
			c-1.7-1.3-3.6-0.7-5.4-0.4c-1.7-0.3-2.4-1.2-2.2-3c0.9-6,1.6-12,2.5-18c0.3-1.8,1-3.6,1.6-5.3c0.4-1.2,0.5-1.9-1-1.8
			c-1.6,0.1-2.1-0.9-2-2.3c0.1-2.8,0.2-5.6,0.4-8.4c0.2-2.6,1.2-4.7,3.9-5.7c0.6-0.2,1-0.8,1.5-1.2c0.5,0,1-0.1,1.4-0.1
			c1.7,2.7,2,2.8,4.2,0.4c0,0,0.1-0.1,0.2-0.1c1.1,0.2,2.1,0.3,3.2,0.5c-0.1,0.2-0.3,0.7-0.3,0.7c3.3,1.3,3.8,4.4,4.1,7.3
			c0.3,2.2-0.1,4.6-0.4,6.8c-0.2,1.3-0.8,2.6-2.5,2.5c-1.2,0-1.1,0.8-0.9,1.6c0.8,4.6,1.8,9.2,2.4,13.8c0.4,3.1,0.3,6.3,0.6,9.5
			c0.1,1.7-0.4,2.6-2.3,2.5c-0.3,0-0.7,0.2-1,0.3c-1-0.1-2-0.2-3-0.3c-1.5-0.2-2.2,0.4-2.1,2C255.8,412.4,255.6,413.5,255.6,414.5z
			 M256.7,377.4c0.4,1.5,1.1,1.7,2.4,0.8c1.3-1,1.5-2.1,0.9-3.4c0.5-2.8,0.4-2.9-2.4-2.7c-1.7,0.1-3.5,0.2-5.2,0.2
			c-1.1,0-1.5,0.4-1.3,1.5c0.5,3.6-0.4,2.9,3.4,3.5C255.2,377.3,256,377.3,256.7,377.4z M252.2,381.8c0,0.2,0,0.4,0,0.6
			c2.2,0,4.4,0,6.6,0c0-0.2,0-0.3,0-0.5C256.7,381.6,254.5,380.8,252.2,381.8z"/>
		<path class="st29" d="M261.1,364.7c-1.1-0.2-2.1-0.3-3.2-0.5c-0.2-0.3-0.6-0.9-0.6-1c1.5-2-0.2-3.7-0.3-5.7
			c-1.4,1.5-2.7,2.9-3.9,4.2c0.1,0.8,0.2,1.5,0.4,2.2c-0.5,0-1,0.1-1.4,0.1c-1.5-0.9-3.1-1.8-4.6-2.8c-0.4-0.3-0.6-1.4-0.4-1.8
			c1.3-1.9,2.6-3.9,4.3-5.4c2.4-2.2,5.9-1.9,8.2,0.4c2.6,2.6,3.8,5.9,4.1,9.7C262.8,364.3,262,364.5,261.1,364.7z"/>
		<path class="st28" d="M247.4,409.8c1.8-0.3,3.7-0.9,5.4,0.4c-1.2,7-2.4,14-3.6,21c-0.6,0-1.2,0-1.8-0.1
			C247.4,423.9,247.4,416.9,247.4,409.8z"/>
		<path class="st33" d="M255.6,414.5c0-1,0.1-2,0-3c-0.1-1.6,0.6-2.2,2.1-2c1,0.1,2,0.2,3,0.3c-1,7.1-1.9,14.2-2.9,21.3
			c-1.4,0.3-1.8-0.4-1.8-1.7c0-1.1-0.2-2.3-0.3-3.4C255.7,422.1,255.7,418.3,255.6,414.5z"/>
		<path class="st34" d="M255.7,425.9c0.1,1.1,0.3,2.3,0.3,3.4c0,1.3,0.5,1.9,1.8,1.7c0.2,0.7,0.3,1.5,0.5,2.3
			c-1.3,0.4-2.3,0.3-2.4-1.4C255.8,430,255.8,428,255.7,425.9z"/>
		<path class="st32" d="M247.4,431c0.6,0,1.2,0,1.8,0.1c-0.4,2.4-0.6,2.7-2.8,2.2C246.7,432.5,247.1,431.8,247.4,431z"/>
		<path class="st40" d="M256.7,377.4c-0.7-0.1-1.4-0.1-2.2-0.2c-3.8-0.6-2.9,0.1-3.4-3.5c-0.2-1.1,0.2-1.5,1.3-1.5
			c1.7,0,3.5-0.1,5.2-0.2c2.7-0.2,2.9-0.1,2.4,2.7c-0.6,0.3-1.3,0.6-2.1,1C257.7,376,257.2,376.7,256.7,377.4z"/>
		<path class="st41" d="M253.5,363.9c-0.1-0.7-0.2-1.4-0.4-2.2c1.2-1.3,2.5-2.7,3.9-4.2c0.1,2,1.8,3.7,0.3,5.7
			c-0.1,0.1,0.4,0.7,0.6,1c-0.1,0-0.1,0-0.2,0.1C255.5,366.6,255.2,366.6,253.5,363.9z"/>
		<path class="st33" d="M256.7,377.4c0.5-0.7,1-1.3,1.2-1.7c0.9-0.4,1.5-0.7,2.1-1c0.5,1.4,0.4,2.5-0.9,3.4
			C257.8,379.1,257.1,378.9,256.7,377.4z"/>
		<path class="st42" d="M252.2,381.8c2.2-1,4.4-0.3,6.7,0.2c0,0.2,0,0.3,0,0.5c-2.2,0-4.4,0-6.6,0
			C252.3,382.3,252.3,382,252.2,381.8z"/>
	</g>
	<g>
		<path class="st40" d="M319.5,379.7c-0.3-1.2-0.6-2.5-0.9-3.7c-0.8-7.4-0.7-14.8,0.9-22.1c0.4-2.2,1-4.2,3.3-5.1
			c0.3,0.7,0.9,1.4,1,2.1c0.3,2.4,0.4,4.9,0.5,7.3c2.2-3.7,2.8-7.6,2.6-11.7c0.8-0.3,1.5-0.6,2.3-0.9c2.3,1.5,4.6,1.9,6.9,0
			c0.4,0.1,0.9,0.3,1.3,0.4c5,1.7,8.6,4.2,8.6,10.3c0,3.9,1.3,7.8,0.9,11.6c-0.4,4.3-1.9,8.4-3,12.6c-1.1-0.1-2.1-0.3-3.2-0.4
			c-0.8-0.3-1.5-0.8-2.3-0.8c-5.4-0.4-10.8-0.7-16.1-1C321.3,378.8,320.4,379.2,319.5,379.7z M342.5,372.3c0.1-0.8,0.3-1.6,0.3-2.4
			c0.1-1.7,0-3.3,0-5c0-4.4,0-8.7,0-13.1c-0.3,0-0.5,0-0.8,0c0,5.4,0,10.8,0,16.2c0,1.3,0,2.6,0,3.9c-1.8,2.2-1.5,4.4-0.6,6.1
			C341.7,376.4,342.1,374.4,342.5,372.3z M324.1,361c-0.2,0-0.4-0.1-0.6-0.1c-0.4,5-0.9,10-1.3,14.9c0.2,0,0.3,0,0.5,0
			C323.1,370.9,323.6,366,324.1,361z M335.6,368.7c-0.2-0.1-0.5-0.3-0.7-0.4c-1.3,2-2.5,4-3.8,6c0.2,0.1,0.5,0.3,0.7,0.4
			C333.1,372.7,334.4,370.7,335.6,368.7z"/>
		<path class="st29" d="M322.2,378.3c5.4,0.3,10.8,0.6,16.1,1c0.8,0.1,1.6,0.5,2.3,0.8c-1.7,3.1-1.4,4.1,1.4,4.5c0,2.5,0,5,0,7.5
			c0,2.6,0,5.2,0,7.8c-0.7,9.2-1.4,18.4-2.2,27.6c-0.3,3-0.4,2.9,1.5,5.2c-0.4,0.1-0.6,0.2-0.9,0.2c-0.9,0-1.8,0-3,0
			c-0.4-4-0.9-7.8-1.3-11.7c-1.1-11.1-2.2-22.2-3.3-33.3c-0.1-0.6-0.5-1.2-0.8-1.8c-0.4,0.6-0.9,1.2-1,1.8
			c-3.1,14.2-6.1,28.4-9.1,42.6c-0.2,0.7-0.4,1.5-0.6,2.3c-1.3,0-2.6,0-3.9,0c2.7-1.5,2.3-4.2,2.4-6.6c0.6-12,1.1-24,1.6-36
			c0.1-0.9,0.3-1.8,0.4-2.7c0.1-1.4-0.2-3.1,0.5-4.2C323.4,381.5,323,380,322.2,378.3z"/>
		<path class="st41" d="M336,345.7c-2.3,1.9-4.6,1.5-6.9,0c-0.2-1.6,0-3.4-0.7-4.7c-0.9-1.6-0.9-2.9-0.2-4.4c0.4,0.5,0.7,1,1.3,1.9
			c0.7-2.3,1.8-3.4,4.1-3.3c2.5,0.2,1.9,2.3,3,4.2c0.3-0.6,0.5-1,0.7-1.4c0.6,1.4,0.5,2.6-0.6,3.7
			C335.5,342.7,335.3,344.2,336,345.7z"/>
		<path class="st43" d="M319.4,354c-1.6,7.3-1.7,14.7-0.9,22.1c-1.8,0.8-2.9,0-3.1-1.8C314.9,367.1,315.4,360.2,319.4,354z"/>
		<path class="st44" d="M337.3,337.9c-0.2,0.4-0.4,0.8-0.7,1.4c-1.1-1.9-0.5-4-3-4.2c-2.4-0.2-3.4,0.9-4.1,3.3
			c-0.6-0.8-0.9-1.4-1.3-1.9c-0.5-1.5-0.5-2.9,1-3.8c1.7-1.1,3.5-2.3,5.7-1.3C338.3,332.8,338.4,333.1,337.3,337.9z"/>
		<path class="st45" d="M326.8,346.6c0.1,4.1-0.4,8-2.6,11.7c-0.2-2.4-0.3-4.9-0.5-7.3c-0.1-0.7-0.6-1.4-1-2.1
			C324.1,348.1,325.5,347.3,326.8,346.6z"/>
		<path class="st28" d="M342.1,399.9c0-2.6,0-5.2,0-7.8c0-2.5,0-5,0-7.5c-2.8-0.4-3-1.4-1.4-4.5c1.1,0.1,2.1,0.3,3.2,0.4
			c-1.4,2.2-1.4,4.6-1.4,7C342.4,391.7,342.2,395.8,342.1,399.9z"/>
		<path class="st41" d="M322.2,378.3c0.8,1.7,1.2,3.2,0,5.1c-0.7,1.1-0.3,2.8-0.5,4.2c-0.1,0.9-0.2,1.8-0.4,2.7
			c0-0.6-0.2-1.2-0.1-1.8c0.4-3.1,0-6.1-1.9-8.8C320.4,379.2,321.3,378.8,322.2,378.3z"/>
		<path class="st46" d="M342,371.9c0-1.3,0-2.6,0-3.9c0-5.4,0-10.8,0-16.2c0.3,0,0.5,0,0.8,0c0,4.4,0,8.7,0,13.1c0,1.7,0,3.3,0,5
			c0,0.8-0.2,1.6-0.3,2.4C342.3,372.2,342.2,372,342,371.9z"/>
		<path class="st47" d="M324.1,361c-0.5,5-1,9.9-1.5,14.9c-0.2,0-0.3,0-0.5,0c0.4-5,0.9-10,1.3-14.9
			C323.7,360.9,323.9,361,324.1,361z"/>
		<path class="st48" d="M335.6,368.7c-1.3,2-2.5,4-3.8,6c-0.2-0.1-0.5-0.3-0.7-0.4c1.3-2,2.5-4,3.8-6
			C335.2,368.4,335.4,368.5,335.6,368.7z"/>
		<path class="st49" d="M342,371.9c0.2,0.2,0.3,0.3,0.5,0.5c-0.4,2.1-0.8,4.1-1,5.7C340.5,376.3,340.2,374,342,371.9z"/>
	</g>
	<g>
		<path class="st29" d="M287.7,360.9c0.8-0.4,1.6-0.8,2.4-1.3c1.4-0.3,2.8-0.5,4.1-0.8c1.1,1.5,2.2,1.6,3.3-0.1
			c1.5,0.5,3.1,1.1,4.6,1.6c0.4,0.2,0.8,0.3,1.1,0.5c0,2,0.1,4.1,0.1,6.1c-0.7,1.9-1.4,3.9-2.1,5.8c-0.6,1.9-1.4,3.8,0.1,5.7
			c-0.9,1.7-0.7,3.1,1.3,3.8c0.3,0.1,0.4,0.5,0.6,0.8c1.8,6.5-0.1,12.7-1.6,18.9c-2.2,0-4.4,0.1-6.6,0.1c-0.9,0-1.8,0-2.8,0
			c-2.1,0-4.1-0.1-6.2-0.1c0.1-5.2,0.2-10.5,0.4-15.7c0.1-1.2,0.8-2.5,1.2-3.7c1.7-0.9,3.3-1.8,2-4.2c1.6-1.8,0.7-3.7,0.4-5.6
			c-0.8-2-1.6-3.9-2.4-5.9C287.7,365,287.7,363,287.7,360.9z"/>
		<path class="st28" d="M295.1,402.2c2.2,0,4.4-0.1,6.6-0.1c-0.9,3.3-1,6.6-0.5,10c0.2,1.3,0,2.6-0.2,3.9c-1,4.9-2.2,9.8-3.3,14.7
			c-0.7-0.1-1.4-0.3-2.1-0.4c0-8.4-0.1-16.8-0.2-25.2C295.4,404.1,295.2,403.2,295.1,402.2z"/>
		<path class="st28" d="M286.1,402.1c2.1,0,4.1,0.1,6.2,0.1c-2.3,9.6-4.7,19.2-7,28.8c-1.5-2.1-1.5,0.3-2.2,0.7
			c0.3-5.3,0.5-10.5,0.8-15.8c0.1-1.4,0.5-2.8,0.7-4.2C285.1,408.6,285.6,405.3,286.1,402.1z"/>
		<path class="st40" d="M302.2,360.5c-1.5-0.5-3.1-1.1-4.6-1.6c0.2-0.9,0.2-1.9,0.6-2.7c1.5-2.8,1.6-2.7-0.7-4.9
			c-0.7,1.2-1.3,2.6-2.2,3.5c-1.3,1.3-1.7,2.5-1,4.2c-1.4,0.3-2.8,0.5-4.1,0.8c-0.2-1.3-0.3-2.6-0.6-3.8c-0.5-2.9-0.4-5.6,1.7-7.9
			c1.6-1.7,3.6-2.5,5.9-1.9c2.3,0.6,3.6,2.2,4,4.5c0.4,2.4,0.5,4.9,0.8,7.3C302.1,358.7,302.1,359.6,302.2,360.5z"/>
		<path class="st28" d="M289.7,378.6c1.2,2.3-0.3,3.3-2,4.2c-2.6-3.4-5.1-6.8-7.7-10.2c-1.2-1.5-1-2.7,0.3-4c2.5-2.5,5-5.1,7.5-7.7
			c0,2.1,0,4.1,0,6.2c-0.8,1.1-1.7,2.2-2.5,3.3c-1,0.4-1.7,1-1.1,2.1c1.2,2.3,2.6,4.5,3.8,6.6C288.6,378.9,289.2,378.7,289.7,378.6z
			"/>
		<path class="st28" d="M303.3,383.2c-0.2-0.3-0.3-0.7-0.6-0.8c-2-0.8-2.2-2.1-1.3-3.8c0.5,0.2,1,0.4,1.6,0.6
			c1.2-2.1,2.5-4.2,3.6-6.3c0.7-1.3,0.5-2.2-1.1-2.5c-0.7-1.1-1.4-2.2-2.1-3.4c0-2-0.1-4.1-0.1-6.1c2.7,2.9,5.5,5.7,8.1,8.7
			c0.4,0.5,0.2,1.9-0.3,2.5c-2,2.9-4.3,5.7-6.4,8.6C304.2,381.6,303.8,382.4,303.3,383.2z"/>
		<path class="st50" d="M283.1,431.8c0.6-0.5,0.6-2.9,2.2-0.7c-0.1,3.2-0.1,3.2-4.8,2.6C281.5,433,282.3,432.4,283.1,431.8z"/>
		<path class="st51" d="M295.6,430.3c0.7,0.1,1.4,0.3,2.1,0.4c0.5,1,1,2,1.5,3.1c-0.9,0-2.1,0-3.6,0
			C295.6,432.6,295.6,431.4,295.6,430.3z"/>
		<path class="st52" d="M294.2,358.9c-0.7-1.6-0.3-2.9,1-4.2c1-1,1.5-2.3,2.2-3.5c2.3,2.2,2.2,2.2,0.7,4.9c-0.4,0.8-0.4,1.8-0.6,2.7
			C296.5,360.5,295.4,360.4,294.2,358.9z"/>
		<path class="st53" d="M290.1,372.9c-1.6-0.9-3.2-1.7-4.9-2.6c0.8-1.1,1.7-2.2,2.5-3.3C288.5,369,289.3,371,290.1,372.9z"/>
		<path class="st40" d="M305.4,370.5c-1.4,0.8-2.8,1.6-4.1,2.4c0.7-1.9,1.4-3.9,2.1-5.8C304.1,368.2,304.8,369.3,305.4,370.5z"/>
	</g>
	<g>
		<path class="st32" d="M418.1,353.7c4.6,0.4,7.8-1.8,10.4-5.3c1.8-2.4,3.5-4.7,5.3-7c0.4,0.6,0.8,1.1,1.2,1.7
			c0.1,0.4,0.3,0.9,0.1,1.2c-2,4-3.3,8.7-6.3,11.8c-3.9,4-6,8.1-6.3,13.6c-0.1,2.5-0.3,4.8,0.9,7c0.9,1.8,1.2,3.5-0.3,5.1
			c-0.4,0.4-0.4,1.1-0.5,1.7c-4.9-0.1-9.9-0.3-14.8-0.4c-0.8-2.6-1.6-5.1-2.4-7.9c-0.6,0.1-1.5,0.3-2.4,0.4
			c-2.3,0.3-3.3-0.4-2.9-2.7c0.5-3.3,1.6-6.5,2.3-9.8c1.2-5.7,5.6-7.9,10.4-9.7c0.3,1.4,0.9,2.5,2.5,2.6
			C416.8,356,417.5,354.9,418.1,353.7z M412.8,370.7c0.8-1.2,1.5-2.4,2.4-3.8c-2.1-0.4-3.5-0.6-5.1-0.9c-0.2,0.8-0.5,1.5-0.7,2.2
			c-2,1.1-3.5,2.6-4.1,5.1c2-0.3,3.7-0.4,5.3-0.9C411.5,372.2,412.1,371.3,412.8,370.7z M407.8,359.2c-0.5,2.6-1.1,5.5-1.7,8.8
			C407.9,364.8,408.5,360.6,407.8,359.2z M421.3,381.6c0-0.1,0-0.1,0-0.2c-4.2,0-8.4,0-12.6,0c0,0.1,0,0.1,0,0.2
			C412.9,381.6,417.1,381.6,421.3,381.6z"/>
		<path class="st54" d="M407.8,383c4.9,0.1,9.9,0.3,14.8,0.4c1,6.9-0.1,13.7-1,20.5c-1.1,8.7-2.4,17.4-3.6,26.1
			c-0.6-0.1-1.3-0.3-1.9-0.4c-0.5-2.8-0.9-5.5-1.4-8.3c-0.2,0-0.4,0-0.6,0c-0.3,2.9-0.6,5.8-1,8.7c-0.6-0.1-1.3-0.3-1.9-0.4
			c-1.6-7.1-1.2-14.2-0.6-21.4c0.5-6.7,0.2-13.4-1.8-19.9C408.2,386.6,408.1,384.8,407.8,383z M418.1,401.2c-1,4.6-2.1,9.1-3.1,13.7
			c0.2,0,0.4,0.1,0.5,0.1c1-4.5,2-8.9,3-13.4c0.4-2.7,0.8-5.4,1.2-8c0.5-3-1.2-6.3,1-9.2c-1.6,0.7-1.7,1.9-1.8,3.4
			C418.7,392.2,418.4,396.7,418.1,401.2z"/>
		<path class="st28" d="M418.1,353.7c-0.6,1.2-1.3,2.3-2.9,2.2c-1.6-0.1-2.2-1.2-2.5-2.6c0-0.3,0-0.6,0.1-0.9c0.8-1.3,1-2.5-0.3-3.7
			c-0.3-0.3-0.1-1.1-0.2-1.6c0.5,0.1,1.1,0,1.5,0.3c0.8,0.7,1.4,1.5,2.1,2.3c0.2-0.1,0.4-0.1,0.6-0.2c-1.8-2.8-0.9-4.9,1.5-6.5
			c0.4,1.3,0.7,2.7,1.4,3.9c0.8,1.6,0.6,3.6-0.7,5C418.4,352.3,418.3,353.1,418.1,353.7z"/>
		<path class="st55" d="M418.1,343c-2.4,1.6-3.3,3.7-1.5,6.5c-0.2,0.1-0.4,0.1-0.6,0.2c-0.7-0.8-1.3-1.6-2.1-2.3
			c-0.3-0.3-1-0.2-1.5-0.3c0,0.5-0.1,1.3,0.2,1.6c1.3,1.2,1,2.4,0.3,3.7c-1.4-1.8-2.9-3.6-4.2-5.6c-0.9-1.4-0.5-2.9,1.1-3.5
			c2.3-0.9,4.6-1.8,6.9-2.3C418.3,340.6,418.9,341.4,418.1,343z"/>
		<path class="st56" d="M416.1,429.6c0.6,0.1,1.3,0.3,1.9,0.4c0.9,0.9,1.7,1.9,2.5,2.8c-3,0-6.3,0-10,0c0.2-1.1,0.4-2.1,0.6-3.2
			c0.6,0.1,1.3,0.3,1.9,0.4c0.6,0.7,1.2,1.5,2.1,2.6C415.6,431.2,415.9,430.4,416.1,429.6z"/>
		<path class="st57" d="M435,343c-0.4-0.6-0.8-1.1-1.2-1.7c0.6-1.3,1.2-2.7,1.8-4C436,339.3,436.6,341.3,435,343z"/>
		<path class="st33" d="M412.8,370.7c-0.7,0.6-1.3,1.5-2.1,1.7c-1.6,0.5-3.3,0.6-5.3,0.9c0.6-2.6,2.1-4,4.1-5.1c1,0.4,2,0.8,3.2,1.2
			C412.7,369.7,412.7,370.2,412.8,370.7z"/>
		<path class="st54" d="M412.8,370.7c-0.1-0.5-0.1-1-0.2-1.3c-1.1-0.4-2.2-0.8-3.2-1.2c0.2-0.7,0.4-1.4,0.7-2.2
			c1.5,0.3,3,0.5,5.1,0.9C414.3,368.3,413.6,369.5,412.8,370.7z"/>
		<path class="st58" d="M407.8,359.2c0.7,1.4,0.1,5.6-1.7,8.8C406.7,364.7,407.3,361.8,407.8,359.2z"/>
		<ellipse class="st59" cx="415" cy="381.5" rx="8.9" ry="0.1"/>
		<path class="st60" d="M418.1,401.2c0.3-4.5,0.6-9,0.8-13.4c0.1-1.4,0.2-2.7,1.8-3.4c-2.2,2.9-0.5,6.1-1,9.2
			c-0.4,2.7-0.8,5.4-1.2,8C418.4,401.4,418.2,401.3,418.1,401.2z"/>
		<path class="st61" d="M418.1,401.2c0.1,0.1,0.3,0.3,0.4,0.4c-1,4.5-2,8.9-3,13.4c-0.2,0-0.4-0.1-0.5-0.1
			C416,410.3,417.1,405.7,418.1,401.2z"/>
	</g>
	<g>
		<path class="st29" d="M381.3,392.5c4.3,11.3,6.4,23,8.1,34.8c0.3,2.1,0.9,3.6,3.4,3.2c0.2,0,0.5,0.1,1.4,0.4
			c-2.2,0.6-3.8,1.1-5.6,1.6c-4.7-12.2-7.8-25-16.2-35.4c-0.1,0.1-0.3,0.3-0.4,0.5C367.6,409,361,419,354.3,429
			c-0.9,1.4-1.3,2.6,0.4,3.7c-0.1,0.2-0.3,0.3-0.4,0.5c-1.3-0.6-2.5-1.3-3.6-1.8c2.8-6.5,5.3-12.8,8.3-18.8
			c2.2-4.5,2.7-9.2,3.4-13.9c0.2-1.4,0.3-2.7,0.5-4.1c0.5-0.4,1.1-1.1,1.7-1.2c4-0.7,7.9-1.2,11.9-1.8
			C378,391.9,379.7,392.2,381.3,392.5z"/>
		<path class="st30" d="M385.5,372.2c-1.8,0.9-3.6,1.8-5.5,2.6c-1.7,0.6-2.2,1.6-1.5,3.2c0.2,2.7,0.4,5.3,0.5,8
			c0,0.8-0.3,1.6-0.4,2.3c-0.6,0.3-1.2,0.6-1.8,0.9c-0.8-1.5-1.8-2.9-2.4-4.5c-1.8-4.7-1.8-4.7-6.8-3.9c-0.7,0.1-1.6-0.2-2.4-0.4
			c0.1-1.7,0.4-3.5,0.4-5.2c0-2.8-0.1-5.5-0.4-8.3c-0.1-0.9-0.7-1.9-1.3-2.6c-2-2.3-2.1-2.6-0.2-4.9c0.4-0.4,0.6-1.3,0.5-1.8
			c-0.5-1.3-0.1-1.8,1.1-2c2,0.4,4.1,0.8,6.1,1.2c1.1,0.7,2.3,1.4,3.4,2.1c0.6,0.4,1.1,0.8,1.7,1.3c0.4,1,0.6,2,1.2,2.9
			c1.4,2.4,2.2,4.8,1.1,7.7c1.9,0,3.5,0,5.1,0C384.4,371.4,384.9,371.8,385.5,372.2z M375.3,365.2c0,3.3,0,7.2,0,11.2
			C375.4,372.4,376.7,368.4,375.3,365.2z M371.6,377.4c0.2-0.1,0.3-0.1,0.5-0.2c-0.9-2.5-1.8-5.1-2.6-7.6c-0.2,0.1-0.3,0.1-0.5,0.2
			C369.9,372.3,370.8,374.9,371.6,377.4z"/>
		<path class="st32" d="M365.3,380.5c0.8,0.1,1.6,0.5,2.4,0.4c5-0.8,5-0.8,6.8,3.9c0.6,1.6,1.6,3,2.4,4.5c-0.1,0.8-0.3,1.6-0.4,2.3
			c-4,0.6-7.9,1.1-11.9,1.8c-0.6,0.1-1.1,0.8-1.7,1.2c-0.7-3.7-1.4-7.4-2-11.2c-0.1-0.5,0.9-1.2,1.5-1.6
			C363.3,381.3,364.3,380.9,365.3,380.5z"/>
		<path class="st55" d="M371.4,356.9c-2-0.4-4.1-0.8-6.1-1.2c0.3-1.8,0.4-3.7,1.1-5.4c1.4-3.8,4.2-5.6,7.2-5.3
			c3.6,0.4,6.6,3.2,7.4,6.8c0.8,3.8-0.6,6.4-4.5,8.4c-0.6-0.4-1.1-0.8-1.7-1.3c0.4-0.7,0.7-1.6,1.3-2c2.5-1.5,3.2-3.9,2-6.3
			C375.9,352.8,373.6,354.9,371.4,356.9z"/>
		<path class="st32" d="M378.6,388.3c0.2-0.8,0.5-1.6,0.4-2.3c-0.1-2.7-0.3-5.3-0.5-8c0.6,0.2,1.3,0.6,1.8,0.5
			c1.7-0.3,2.2,0.4,2.3,2c0.2,2,0.4,4,0.9,5.9c0.7,2.4,0.2,4.1-2.3,4.9C380.4,390.3,379.5,389.3,378.6,388.3z"/>
		<path class="st28" d="M378.6,388.3c0.9,1,1.8,2,2.8,3c0,0.4,0,0.8,0,1.2c-1.6-0.3-3.3-0.6-4.9-0.9c0.1-0.8,0.3-1.6,0.4-2.3
			C377.4,388.9,378,388.6,378.6,388.3z"/>
		<path class="st62" d="M386,367.7c0.5-0.9,1-1.8,1.5-2.7c0.2,0,0.4,0.1,0.6,0.1c-0.4,1.8-0.9,3.6-1.3,5.5c-0.3-0.2-0.9-0.4-0.9-0.7
			C385.8,369.2,385.9,368.4,386,367.7z"/>
		<path class="st63" d="M386,367.7c-0.1,0.7-0.2,1.5-0.1,2.2c0,0.3,0.6,0.5,0.9,0.7c-0.4,0.5-0.9,1.1-1.3,1.6
			c-0.5-0.4-1.1-0.9-1.6-1.3C384.5,369.9,385.2,368.8,386,367.7z"/>
		<path class="st52" d="M371.4,356.9c2.3-2.1,4.5-4.1,6.7-6.1c1.2,2.4,0.5,4.8-2,6.3c-0.6,0.4-0.9,1.3-1.3,2
			C373.6,358.3,372.5,357.6,371.4,356.9z"/>
		<path class="st64" d="M375.3,365.2c1.4,3.2,0.1,7.2,0,11.2C375.3,372.4,375.3,368.5,375.3,365.2z"/>
		<path class="st38" d="M371.6,377.4c-0.9-2.5-1.8-5.1-2.7-7.6c0.2-0.1,0.3-0.1,0.5-0.2c0.9,2.5,1.8,5.1,2.6,7.6
			C372,377.3,371.8,377.4,371.6,377.4z"/>
	</g>
	<g>
		<path class="st32" d="M173,381c-0.1-1.5-0.1-3.1-0.4-4.6c-0.1-0.4-0.6-0.8-1-1.2c2.1-0.4,2.8-1.2,2.6-3.3c-0.4-4.2-1-8.3-1.3-12.4
			c-0.2-3.8,2.6-5.6,6.2-4c0.3,0.1,0.7,0.3,1.3,0.6c-0.6-2.7-2.8-2.8-4.6-3.5c0.4-0.2,0.8-0.3,1.2-0.5c1.6,0,3.2,0,4.1,1.7
			c1.3,2.1,2.5,4.1,3.8,6.2c0.1,1.5,0.7,3,0.3,4.4c-0.6,2.4-0.6,4.6,0.1,6.9c0.1,0.3,0.1,0.5,0.2,0.8c1.3,3.4,1.1,6.6-1.5,9.4
			c-0.5,0-1.1,0-1.6-0.1c-0.5-4.2-1.1-8.4-1.6-12.6c-0.2,0-0.4,0.1-0.7,0.1c0.6,4.2,1.3,8.4,1.9,12.6c-0.6,0.6-1.1,1.3-1.9,2.1
			c-0.3-1-0.5-1.5-0.7-2.1c-0.3-0.8-0.5-1.6-0.8-2.4c-0.3-0.7-1.1-1.3-1-1.9c0.2-2.7-1.3-4.7-2.2-6.9c0-2.6,0-5.2,0-7.8
			c-0.1,0-0.3,0-0.4,0c0,2.7,0,5.5,0,8.2c0.3,0.8,0.7,1.6,1,2.4c0.3,1,0.6,2,0.9,3c0.3,1,0.8,2.1,1,3.1c0.1,0.6,0,1.2-0.1,1.8
			C176.3,381,174.7,381,173,381z"/>
		<path class="st55" d="M185,359.9c-1.3-2.1-2.5-4.1-3.8-6.2c0.4-1.6,0.3-3.3,2.6-3.7c0.3,0,0.7-0.7,0.8-1.1c0.1-2,0.3-4,0.2-6
			c-0.1-1.7-1.6-1.7-2.3-0.7c-0.8,1-1.1,2.6-1.1,3.9c-0.1,4-0.5,4.7-4.2,5.9c-0.4,0.2-0.8,0.3-1.2,0.5c-0.6,0.3-1.1,0.5-1.7,0.8
			c-2.2-3.9-2.3-7.8,0.1-11.6c1.3-2,3.2-3.4,5.6-3.8c3.5-0.6,6.4,1.3,6.5,4.8c0.2,3.5,1.1,6.7,2.6,9.8
			C191,356.6,189.4,359.2,185,359.9z"/>
		<path class="st28" d="M175,415.2c1.1-7.5,0.9-15.1,0.5-22.7c2.5,0.1,5,0.3,7.5,0.4c-1.1,8-2.2,15.9-3.3,23.9c-0.9,0-1.8,0-2.6,0
			C175.7,417,175,416.5,175,415.2z"/>
		<path class="st40" d="M183,392.9c-2.5-0.1-5-0.3-7.5-0.4c-0.8-3.8-1.6-7.7-2.5-11.5c1.6,0,3.2,0,4.9,0c0.6,0.2,1.1,0.3,1.7,0.5
			c0.2,0.6,0.4,1.1,0.7,2.1c0.8-0.9,1.4-1.5,1.9-2.1c0.1,0,0.2-0.1,0.4-0.1c0.5,0,1.1,0,1.6,0.1C183.7,385.2,183.4,389.1,183,392.9z
			"/>
		<path class="st30" d="M174.2,353.3c0.6-0.3,1.1-0.5,1.7-0.8c1.8,0.7,3.9,0.8,4.6,3.5c-0.6-0.2-0.9-0.4-1.3-0.6
			c-3.6-1.5-6.4,0.2-6.2,4c0.2,4.2,0.9,8.3,1.3,12.4c0.2,2.1-0.5,3-2.6,3.3c-2.9-0.5-3.3-0.7-3.2-3.7c0.1-4,0.4-8.1,0.8-12.1
			c0.1-0.9,0.8-1.7,1.2-2.5c-0.9,5.4-0.1,10.8,0.4,16.1c0.1-4.7,0.1-9.4,0-14.1c0-0.7-0.3-1.3-0.4-2
			C171.7,355.7,173,354.5,174.2,353.3z"/>
		<path class="st32" d="M175,415.2c0,1.3,0.7,1.8,2,1.7c0.9-0.1,1.8,0,2.6,0c-0.4,3.6-0.9,7.2-1.3,10.8c-0.6,0-1.3,0-1.9,0
			c-0.5-3.4-1-6.9-1.5-10.3C174.8,416.6,175,415.9,175,415.2z"/>
		<path class="st65" d="M176.4,427.7c0.6,0,1.3,0,1.9,0c0.9,1.1,1.7,2.1,2.5,3.1c-1.4,0-3.1,0-5,0
			C176,429.6,176.2,428.6,176.4,427.7z"/>
		<path class="st41" d="M177.1,352c3.7-1.1,4.1-1.8,4.2-5.9c0-1.3,0.4-2.9,1.1-3.9c0.7-1,2.1-1,2.3,0.7c0.1,2,0,4-0.2,6
			c0,0.4-0.5,1-0.8,1.1c-2.2,0.3-2.2,2.1-2.6,3.7C180.3,352,178.7,351.9,177.1,352z"/>
		<path class="st66" d="M182.5,381.3c-0.1,0-0.2,0.1-0.4,0.1c-0.6-4.2-1.3-8.4-1.9-12.6c0.2,0,0.4-0.1,0.7-0.1
			C181.4,372.9,182,377.1,182.5,381.3z"/>
		<path class="st67" d="M179.6,381.4c-0.6-0.2-1.1-0.3-1.7-0.5c0-0.6,0.2-1.2,0.1-1.8c-0.2-1.1-0.7-2.1-1-3.1c-0.3-1-0.6-2-0.9-3
			c-0.3-0.8-0.6-1.6-1-2.4c0.1-0.1,0.3-0.3,0.4-0.4c0.9,2.3,2.4,4.3,2.2,6.9c-0.1,0.6,0.7,1.2,1,1.9
			C179.1,379.8,179.3,380.6,179.6,381.4z"/>
		<path class="st68" d="M175.5,370.2c-0.1,0.1-0.3,0.3-0.4,0.4c0-2.7,0-5.5,0-8.2c0.1,0,0.3,0,0.4,0
			C175.5,365,175.5,367.6,175.5,370.2z"/>
		<path class="st41" d="M170.5,356.9c0.1,0.7,0.4,1.3,0.4,2c0,4.7,0,9.4,0,14.1C170.4,367.7,169.6,362.3,170.5,356.9
			C170.5,356.9,170.5,356.9,170.5,356.9z"/>
	</g>
	<g>
		<path class="st69" d="M444.1,428.8c0.6,0.4,1.1,0.8,1.7,1.3c0.3,1,0.5,1.9,0.8,2.9c-1.4,0.5-2.6-0.6-3.4-1.8
			C442.8,430.8,443.7,429.6,444.1,428.8z"/>
		<g>
			<path class="st70" d="M471.7,392.9c3.5,11.7,7,23.3,10.5,35c0.2,0.5-0.1,1.1-0.2,1.7c-0.7,0.2-1.4,0.3-2.1,0.5
				c-0.6-0.6-1.4-1.1-1.7-1.8c-2.2-4.9-4.3-9.8-6.6-14.7c-2.3-5-4.8-9.8-7.3-14.7c-0.2,0-0.4,0-0.6,0.1c-0.5,1.3-1.2,2.5-1.6,3.9
				c-3.1,9.7-9.5,17.6-14.9,26c-0.3,0.5-1.1,0.8-1.6,1.2c-0.6-0.4-1.1-0.8-1.7-1.3c0.2-0.8,0.4-1.7,0.8-2.5
				c2.4-5.6,5.1-11.1,7.2-16.9c1.4-4,1.9-8.3,2.7-12.4c0.6-3,0.9-6,1.4-9c3.5-0.2,7-0.4,10.4-0.4c0.8,0,1.5,0.8,2.3,1.2
				c0.4,0.7,0.8,1.5,1.3,2.2C470.6,391.7,471.2,392.3,471.7,392.9z"/>
			<path class="st71" d="M468.8,388.8c-0.8-0.4-1.5-1.2-2.3-1.2c-3.5,0-7,0.2-10.4,0.4c0-2.1,0-4.1,0-6.2c0.2-1.1,0.4-2.3,0.5-3.4
				c0.2-4.2,0.2-8.4,0.5-12.6c0.2-3.9,2.5-5.3,6.2-4c0.3,0.1,0.7,0.1,1.2,0.2c-1-2.6-2.9-2.7-5-2.5c1.4-0.4,2.7-0.9,4.1-1.3
				c0.5,0.4,1.1,0.8,1.6,1.2c1.2,2.2,2.3,4.4,3.6,6.5c1.1,1.8,1.2,3.6,0.7,5.7c-0.4,1.6-0.3,3.5,0.1,5.2c0.7,3.3,1.7,6.6,2.5,9.9
				c0.2,0.6-0.1,1.3-0.1,2C470.8,388.8,469.8,388.8,468.8,388.8z M465.6,381.8c0.2-0.1,0.3-0.2,0.5-0.2c-1.8-4.4-3.6-8.8-5.4-13.2
				c-0.2,0.1-0.3,0.1-0.5,0.2C462,373,463.8,377.4,465.6,381.8z"/>
			<path class="st30" d="M463.5,358.2c-1.4,0.4-2.7,0.9-4.1,1.3c-3.6,2-6.5,4.5-6.5,9.1c-0.6-0.4-1.1-1-1.8-1.2
				c-4.4-1.8-5.9-5.9-3.7-10.1c0.6-1.1,1.3-2.2,2.2-3c3.2-2.9,6.5-5.7,9.9-8.3c2-1.6,4.4-2.3,7-1.3c1,0.4,2.1,1.1,2.7,2
				c1,1.2,1.3,2.6-0.3,3.7c-1.4,0.7-2.9,1.3-4.3,2.1c-0.4,0.2-0.7,0.8-0.8,1.3C463.6,355.3,463.6,356.8,463.5,358.2z"/>
			<path class="st55" d="M452.8,368.6c0-4.6,2.9-7.1,6.5-9.1c2.1-0.3,4-0.1,5,2.5c-0.6-0.1-0.9-0.1-1.2-0.2c-3.7-1.3-5.9,0.1-6.2,4
				c-0.3,4.2-0.3,8.4-0.5,12.6c0,1.1-0.3,2.3-0.5,3.4c-3.2-0.6-3.3-0.6-3.4-3.8C452.6,374.8,452.8,371.7,452.8,368.6z M454.7,365.8
				c0.1,0,0.1,0,0.2,0c0,4.7,0,9.5,0,14.2c0.2,0,0.3,0,0.5,0C455.1,375.3,454.9,370.5,454.7,365.8z"/>
			<path class="st33" d="M463.5,358.2c0.1-1.5,0.1-3,0.3-4.4c0.1-0.5,0.4-1.1,0.8-1.3c1.4-0.8,2.9-1.4,4.3-2.1c0,1.4,0.1,2.7,0,4.1
				c0,1.2-0.5,1.8-1.8,2.4c-0.9,0.4-1.3,1.7-2,2.6C464.6,359,464,358.6,463.5,358.2z"/>
			<path class="st33" d="M468.8,388.8c1,0,2-0.1,3-0.1c1,0.9,2,1.9,3.4,3.1c-1.6,0.5-2.5,0.8-3.4,1c-0.5-0.6-1.1-1.2-1.6-1.9
				C469.6,390.3,469.2,389.5,468.8,388.8z"/>
			<path class="st72" d="M480,430.1c0.7-0.2,1.4-0.3,2.1-0.5c1.2,0.5,2.4,0.9,4,1.5c-1.9,0.5-3.6,1-5.4,1.5
				C480.3,431.6,480.2,430.9,480,430.1z"/>
			<path class="st73" d="M465.6,381.8c-1.8-4.4-3.6-8.8-5.4-13.2c0.2-0.1,0.3-0.1,0.5-0.2c1.8,4.4,3.6,8.8,5.4,13.2
				C465.9,381.6,465.8,381.7,465.6,381.8z"/>
			<path class="st74" d="M454.7,365.8c0.2,4.7,0.4,9.5,0.7,14.2c-0.2,0-0.3,0-0.5,0c0-4.7,0-9.5,0-14.2
				C454.8,365.8,454.7,365.8,454.7,365.8z"/>
		</g>
	</g>
	<g>
		<path class="st29" d="M217.6,426.3c-0.1-10.8-0.2-21.6-0.4-32.4c-0.2,0-0.4,0-0.6-0.1c-2.1,11.6-4.1,23.3-6.2,34.9
			c-0.6,0-1.2,0-2,0c0-1,0-1.8,0-2.6c0-8.8,0-17.7-0.1-26.5c0-3.4,0-6.9,0-10.3c0.1-0.1,0.2-0.2,0.3-0.2c5.2,0,10.4-0.1,15.6-0.1
			c0.4,0,0.7,0.7,1.1,1.1c-0.8,4.9-1.6,9.7-2.4,14.6c-0.1,0.4-0.1,0.8,0,1.2c1.3,8-1.9,15.4-3.4,23
			C217.5,429.2,217.9,427.5,217.6,426.3z"/>
		<path class="st32" d="M225.5,390.1c-0.4-0.4-0.7-1.1-1.1-1.1c-5.2,0-10.4,0-15.6,0.1c-0.1,0-0.2,0.1-0.3,0.2
			c-1.8-0.7-0.8-2.4-1.2-3.7c0.8,0,1.5-0.1,2.3,0c2,0.2,2.8-0.5,2.7-2.6c-0.1-3.6,0.1-7.3,0.1-10.9c2.3,0,4.7,0,7-0.1
			c1.5-0.1,2.1,0.5,2.1,2c0,3.2,0.2,6.4,0.3,9.6c0,1.4,0.5,2,2,1.9c1.4-0.1,2.9,0,4.3,0c-0.1,0.3-0.3,0.7-0.3,1
			c0.3,1.4-0.1,2.3-1.5,2.8C225.8,389.4,225.7,389.9,225.5,390.1z"/>
		<path class="st31" d="M227.9,385.6c-1.4,0-2.9-0.1-4.3,0c-1.4,0.1-1.9-0.6-2-1.9c0-3.2-0.2-6.4-0.3-9.6c0-1.5-0.6-2.1-2.1-2
			c-2.3,0.1-4.7,0.1-7,0.1c-0.1-0.1-0.1-0.1-0.2-0.2c3-0.1,6.1-0.1,9.1-0.2c0.6,0,1.2-0.3,1.7-0.5c0.1,0.2,0.4,0.3,0.4,0.5
			c0,1,0.3,1.7,1.4,1.5c0.9-0.2,2-0.4,2.4-0.9c0.3-0.4-0.2-1.6-0.5-2.3c-0.2-0.5-0.6-0.9-0.8-1.1c-1,0.4-1.6,0.6-2.3,0.8
			c0-1.9-0.1-3.7,0-5.6c0-1.7-0.7-2.4-2.4-2.1c0-0.1-0.1-0.1-0.1-0.2c0-0.9-0.1-1.8,0.1-2.6c0.2-0.9,0.5-1.8,0.8-2.7
			c2.7,0.8,4.2,2.7,5.2,5.3c0.7,1.9,2.2,3.4,3.1,5.3c0.6,1.1,0.6,2.5,0.8,3.8c0.1,0.4-0.2,0.9-0.1,1.2c0.7,2,0.1,3.1-2,3.6
			c-0.5,0.1-0.9,1.2-0.9,1.9C228.1,380.2,228,382.9,227.9,385.6z"/>
		<path class="st31" d="M212.3,372.1c0,3.6-0.2,7.3-0.1,10.9c0.1,2.1-0.7,2.9-2.7,2.6c-0.7-0.1-1.5,0-2.3,0c-1.5,0.1-2-0.5-1.9-2
			c0.1-2.2,0-4.3-0.2-6.5c-0.1-0.6-0.6-1.5-1.2-1.7c-1.4-0.5-1.5-1.4-1.8-2.8c-0.8-4.1,1.6-6.5,3.5-9.4c0.3-0.4,0.5-0.8,0.6-1.3
			c0.6-3.1,2.6-4.9,5.5-5.6c0.3,1.2,0.8,2.3,0.8,3.5c0.1,1.4,0.5,2,1.9,1.9c2.2-0.1,4.5,0,6.7-0.1c0,0.1,0.1,0.1,0.1,0.2
			c-0.5,0.1-0.9,0.3-1.4,0.2c-2.9-0.1-5.8-0.1-8.6-0.3c-1.7-0.1-3-0.1-3,2.2c0,2.1-0.1,4.2-0.2,6.4c-0.7-1.2-1.7-0.9-2.3-0.1
			c-0.5,0.6-0.9,2-0.5,2.4c0.6,0.7,1.7,1.3,2.7,1.4c1.7,0.2,1.4-1.5,1.9-2.5c0.8,0.1,1.6,0.3,2.4,0.4
			C212.2,372,212.3,372,212.3,372.1z"/>
		<path class="st55" d="M210.6,355.5c0.4-2.8,0.7-5.7,1.3-8.5c0.6-2.6,3.2-4.1,6-3.9c3.2,0.3,5,2,5.3,5c0.2,2.4,0.3,4.9,0.5,7.5
			c-0.4,0.1-0.9,0.2-1.5,0.3c-0.8-0.2-1.6-0.3-2.5-0.5c-0.1-0.1-0.3-0.2-0.4-0.4c0.4-1.7,2.1-3.5-0.5-4.9c-1.4,0.9-2.8,1.8-4.1,2.8
			c0.3,0.8,0.6,1.5,0.9,2.2C213.9,355.2,212.2,355.4,210.6,355.5z"/>
		<path class="st32" d="M210.6,355.5c1.7-0.1,3.3-0.3,5-0.4c0.1,0.4,0.3,0.8,0.4,1.2c1.6,1.8,2.2,1.6,3.7-0.9
			c0.8,0.2,1.6,0.3,2.5,0.5c0,0.1,0,0.2,0,0.4c-0.3,0.9-0.6,1.8-0.8,2.7c-0.1,0.9-0.1,1.8-0.1,2.6c-2.2,0-4.5,0-6.7,0.1
			c-1.4,0-1.9-0.5-1.9-1.9c-0.1-1.2-0.5-2.3-0.8-3.5C211.4,356,211,355.8,210.6,355.5z"/>
		<path class="st34" d="M208.4,399.6c0,8.8,0,17.7,0.1,26.5c0,0.8,0,1.6,0,2.6c0.8,0,1.4,0,2,0c-0.5,2.7-0.7,2.8-3.1,2.4
			c0.2-1.4,0.7-2.7,0.7-4.1c0.1-8.2,0-16.5,0.1-24.7C208.1,401.5,208.3,400.6,208.4,399.6z"/>
		<path class="st75" d="M217.6,426.3c0.3,1.1-0.1,2.9,2,2.6c0.2,0.7,0.4,1.4,0.7,2.1c-2.1,0.7-2.5,0.5-2.7-1.6
			C217.5,428.4,217.6,427.4,217.6,426.3z"/>
		<path class="st55" d="M212.2,371.9c-0.8-0.1-1.6-0.3-2.4-0.4c0.2-0.4,0.4-0.7,0.9-1.5c-1.1,0.1-1.8,0.2-2.5,0.3
			c0.1-2.1,0.3-4.2,0.2-6.4c0-2.3,1.3-2.3,3-2.2c2.9,0.2,5.8,0.2,8.6,0.3c0.5,0,0.9-0.2,1.4-0.2c1.7-0.3,2.4,0.4,2.4,2.1
			c0,1.9,0,3.7,0,5.6c-0.4,0.1-0.9,0.1-1.4,0.2c0.3,0.6,0.5,1,0.7,1.4c-0.6,0.2-1.2,0.5-1.7,0.5
			C218.2,371.8,215.2,371.8,212.2,371.9z M216.2,364.4c-0.7,1.1-1.3,1.7-1.3,2.2c0.1,0.5,0.9,1,1.3,1.5c0.4-0.5,1.1-1,1.2-1.5
			C217.4,366.1,216.8,365.5,216.2,364.4z"/>
		<path class="st28" d="M223,371.2c-0.2-0.4-0.4-0.8-0.7-1.4c0.5-0.1,1-0.2,1.4-0.2c0.6-0.2,1.2-0.5,2.3-0.8
			c0.2,0.3,0.6,0.7,0.8,1.1c0.3,0.8,0.8,1.9,0.5,2.3c-0.5,0.6-1.6,0.8-2.4,0.9c-1.1,0.2-1.4-0.5-1.4-1.5
			C223.4,371.5,223.1,371.3,223,371.2z"/>
		<path class="st41" d="M208.1,370.3c0.7-0.1,1.4-0.2,2.5-0.3c-0.4,0.7-0.6,1.1-0.9,1.5c-0.5,1-0.1,2.7-1.9,2.5
			c-1-0.1-2.1-0.6-2.7-1.4c-0.3-0.4,0.1-1.8,0.5-2.4C206.4,369.4,207.4,369.1,208.1,370.3z"/>
		<path class="st36" d="M215.9,356.3c-0.1-0.4-0.3-0.8-0.4-1.2c-0.3-0.7-0.6-1.4-0.9-2.2c1.4-0.9,2.8-1.8,4.1-2.8
			c2.6,1.4,0.9,3.3,0.5,4.9C218.1,355.5,217,355.9,215.9,356.3z"/>
		<path class="st76" d="M215.9,356.3c1.1-0.4,2.2-0.8,3.3-1.2c0.1,0.1,0.3,0.2,0.4,0.4C218.2,357.9,217.6,358.1,215.9,356.3z"/>
		<path class="st50" d="M216.2,364.4c0.6,1.1,1.3,1.7,1.2,2.2c0,0.5-0.8,1-1.2,1.5c-0.5-0.5-1.3-0.9-1.3-1.5
			C214.8,366.1,215.5,365.5,216.2,364.4z"/>
	</g>
	<g>
		<path class="st71" d="M170.1,383c-3,1.3-6,2.7-9,4c-1.1,0.5-1.4,1.1-1.2,2.2c0.5,2.6,1,5.3,1.3,8c0.1,0.8-0.3,1.6-0.5,2.4
			c-0.2-0.1-0.4-0.2-0.6-0.2c-4,0-7.9,0-11.9,0.1c-0.4,0-0.7,0.5-1.1,0.7c0-1.1-0.1-2.3,0.1-3.3c0.6-2.9,1.3-5.8,1.9-8.7
			c0.2-1.3,0-2.6,0-3.9c-0.3-0.1-0.6-0.1-0.8-0.2c-0.4,0.8-0.8,1.6-1.2,2.4c-0.5,1-1.1,1.9-1.7,2.8c-0.7,1-1.5,2-2.4,2.9
			c-0.5,0.5-1.2,0.8-1.7,1.2c-0.4-0.3-0.9-0.7-1.3-1c0.1-0.5,0-1.1,0.2-1.5c2.2-4.1,4.5-8.2,6.8-12.3c0.5-0.9,0.7-1.6-0.1-2.4
			c-0.7-0.7-0.9-1.5,0-2.2c1.1-0.9,1.3-1.9,0.6-3.6c2.1,0.1,4,0.2,5.8,0.3c1.2,0.9,2.4,1.7,3.6,2.6c0.4,0.7,0.8,1.4,1.2,2.1
			c1.2,2,2.2,4.1,1.7,6.5c-0.1,0.4,0.1,0.8,0.2,1.2c0.4-0.2,0.8-0.4,1.2-0.5c0.7-0.2,1.4-0.4,2.1-0.6c1.3-0.3,2.5-0.7,3.8-0.9
			c0.7-0.1,1.4,0.1,2.1,0.2C169.5,381.9,169.8,382.4,170.1,383z M148.6,382.7c-0.5-3.9,0.3-7.4,2.8-10.6
			C148.6,374.2,147.3,379.1,148.6,382.7z M150.8,378c-0.2,0.1-0.3,0.1-0.5,0.2c1.2,2.4,2.4,4.8,3.6,7.2c0.1-0.1,0.3-0.1,0.4-0.2
			C153.2,382.7,152,380.4,150.8,378z"/>
		<path class="st77" d="M147.2,400.2c0.4-0.3,0.7-0.7,1.1-0.7c4-0.1,7.9-0.1,11.9-0.1c0.2,0,0.4,0.1,0.6,0.2
			c0.8,3.2,1.6,6.4,2.4,9.6c0.1,0.5-0.2,1.2-0.4,1.8c-1.3,0.5-2.6,1.1-3.9,1.6c-0.5-0.4-1.2-0.6-1.4-1.1c-1-2.1-1.9-4.3-3-6.9
			c-1.2,3-2.3,5.7-3.4,8.3c-1.7-0.3-3.5-0.6-5.2-0.9c0.2-1.8,0.3-3.7,0.6-5.5C146.6,404.4,146.9,402.3,147.2,400.2z"/>
		<path class="st28" d="M145.7,411.9c1.7,0.3,3.5,0.6,5.2,0.9c-0.3,0.3-0.6,0.6-0.9,0.9c-3.4,5.4-6.8,10.8-10.1,16.3
			c-0.9-0.1-1.4-0.6-1.3-1.6c2.3-5.2,4.6-10.4,6.8-15.5C145.6,412.6,145.7,412.2,145.7,411.9z"/>
		<path class="st28" d="M158.8,412.5c1.3-0.5,2.6-1.1,3.9-1.6c1.2,4.5,2.5,9,3.7,13.5c0.5,1.8,1,3.5,1.5,5.3
			c-0.6,0.2-1.1,0.4-1.7,0.6C163.8,424.4,161.3,418.5,158.8,412.5z"/>
		<path class="st53" d="M152.6,368.4c-0.6-1.1-1.2-2.1-1.6-3.3c-0.8-2.2,0.5-3.9,2.8-3.8c1.3,0.1,2.5,0.6,3.7,0.9
			c-1,1.6-1.9,3.2-2.9,4.8c-0.1,0.3-0.3,0.5-0.4,0.8C153.7,368,153.1,368.2,152.6,368.4z"/>
		<path class="st55" d="M155.1,368c0-0.3-0.3-0.6-0.5-0.9c1-1.6,1.9-3.2,2.9-4.8c0.2-0.4,0.4-0.8,0.8-1.6c0.6,0.4,1.6,0.7,2,1.4
			c0.6,1.1,0,2.2-1.1,2.8c-1,0.5-2.1,1-3.3,1.6"/>
		<path class="st33" d="M137,394.1c0.2-0.6,0.5-1.2,0.7-1.7c0.7,0.1,1.5,1.3,2.2,0c0.4,0.3,0.9,0.7,1.3,1c-0.1,1.2-0.2,2.4-0.3,3.6
			c-0.2,0.1-0.4,0.1-0.6,0.2C139.8,395.5,137.4,396.1,137,394.1z"/>
		<path class="st41" d="M154.6,367.1c0.2,0.3,1.8-1.2,1.7-0.9c-0.1,1.8,4.9-1.1,1.2,5.2c-0.2,0.6-0.5,1.3-0.7,1.9
			c-1.2-0.9-2.4-1.7-3.6-2.6c0-0.1,0-0.3,0.1-0.4c0.9-0.6,1.5-1.3,0.8-2.5C154.3,367.6,154.5,367.3,154.6,367.1z"/>
		<path class="st41" d="M159.5,368.8c-0.8-0.3-1.7-0.4-2.4-0.8c-0.4-0.2-0.7-0.8-1.2-1.5c1.2-0.6,2.3-1.1,3.3-1.6
			C159.3,366.2,159.4,367.5,159.5,368.8z"/>
		<path class="st76" d="M170.1,383c-0.3-0.6-0.7-1.1-1-1.7c0.6-1,1.1-1.9,1.7-2.9c0.4,0.4,0.8,0.9,1.3,1.3
			C172.2,381.3,171.3,382.3,170.1,383z"/>
		<path class="st43" d="M172.1,379.8c-0.4-0.4-0.8-0.9-1.3-1.3c0.5-0.7,0.9-1.5,1.4-2.2c0.2,0,0.3,0,0.5,0
			C172.5,377.4,172.3,378.6,172.1,379.8z"/>
		<path class="st78" d="M154.2,367.8c0.7,1.1,0,1.9-0.8,2.5c-0.3-0.6-0.5-1.3-0.8-1.9C153.1,368.2,153.7,368,154.2,367.8z"/>
		<path class="st73" d="M148.6,382.7c-1.2-3.5,0.1-8.5,2.8-10.6C148.9,375.2,148,378.8,148.6,382.7z"/>
		<path class="st79" d="M150.8,378c1.2,2.4,2.4,4.7,3.5,7.1c-0.1,0.1-0.3,0.1-0.4,0.2c-1.2-2.4-2.4-4.8-3.6-7.2
			C150.5,378.1,150.7,378,150.8,378z"/>
	</g>
</g>
</svg>
