<?xml version="1.0" encoding="utf-8"?>
<!-- Generator: Adobe Illustrator 23.0.3, SVG Export Plug-In . SVG Version: 6.00 Build 0)  -->
<svg version="1.1" id="Capa_1" xmlns="http://www.w3.org/2000/svg" xmlns:xlink="http://www.w3.org/1999/xlink" x="0px" y="0px"
	 viewBox="0 0 31.3 36.6" style="enable-background:new 0 0 31.3 36.6;" xml:space="preserve">
<style type="text/css">
	.st0{fill:#357B98;}
	.st1{fill:#082834;}
</style>
<path class="st0" d="M7.3,19l4.1,1.7c2.9,1.2,6.3,1.2,9.2-0.1l3.6-1.6l-8.5-7L7.3,19z"/>
<g>
	<path class="st0" d="M21,21.5c-1.6,0.7-3.4,1.1-5.1,1.1c-1.7,0-3.3-0.3-4.9-1l-1.9-0.8v4.5c0,0.7,0.4,1.4,1,1.7l0.2,0.1
		c1.2,0.7,2.4,1.2,3.7,1.4v-2.1c0-1,0.8-1.8,1.8-1.8c1,0,1.8,0.8,1.8,1.8v2.1c1.4-0.2,2.7-0.7,3.9-1.5c0.6-0.4,0.9-1,0.9-1.7v-4.5
		L21,21.5z"/>
	<g>
		<path class="st1" d="M30.1,17.9c-0.7-3.2-2.3-6-4.7-8.1l3.2-5.2l0,0c0.2-0.3,0.3-0.6,0.3-1c0-1.1-0.9-2.1-2.1-2.1
			c-0.7,0-1.3,0.4-1.7,0.9l0,0L22,7.6c-2.9-1.3-6-1.7-9.2-1.1C4.9,8.2-0.2,16,1.4,24C2.9,30.9,9,35.7,15.8,35.7c1,0,2-0.1,3-0.3
			c3.8-0.8,7.1-3.1,9.3-6.4C30.2,25.7,30.9,21.7,30.1,17.9z M25.6,27.4c-1.7,2.6-4.3,4.4-7.4,5.1c-6.3,1.3-12.6-2.8-13.9-9.1
			C3,17,7.1,10.7,13.4,9.4c0.8-0.2,1.6-0.3,2.4-0.3c2.3,0,4.5,0.7,6.4,1.9c2.6,1.7,4.4,4.4,5.1,7.4C27.9,21.6,27.3,24.7,25.6,27.4z"
			/>
	</g>
</g>
</svg>
