<?xml version="1.0" encoding="utf-8"?>
<!-- Generator: Adobe Illustrator 23.0.3, SVG Export Plug-In . SVG Version: 6.00 Build 0)  -->
<svg version="1.1" id="Capa_1" xmlns="http://www.w3.org/2000/svg" xmlns:xlink="http://www.w3.org/1999/xlink" x="0px" y="0px"
	 viewBox="0 0 492.9 91.1" style="enable-background:new 0 0 492.9 91.1;" xml:space="preserve">
<style type="text/css">
	.st0{fill:#3D3D3C;}
	.st1{fill:#78787A;}
	.st2{fill:#5B632B;}
	.st3{fill:#799A3D;}
	.st4{fill:#082834;}
	.st5{font-family:'ArialMT';}
	.st6{font-size:19px;}
	.st7{fill:#FFFFFF;}
	.st8{fill:#ED196B;}
	.st9{font-family:'Lato-Regular';}
	.st10{font-size:14px;}
</style>
<g>
	<g>
		<g id="Capa_2-2_4_">
			<polygon class="st0" points="31.1,292.7 31.1,282.7 28.8,289.2 28.1,289.2 25.9,282.9 25.9,292.7 24.9,292.7 24.9,280.2 
				25.9,280.2 28.5,287.5 31.1,280.2 32.2,280.2 32.2,292.7 			"/>
			<path class="st0" d="M44.4,292.1c-0.5,0.4-1.1,0.7-1.8,0.7s-1.3-0.2-1.8-0.7s-0.8-1.3-0.8-2v-9.8h1v9.9c-0.1,0.9,0.6,1.6,1.5,1.7
				c0.1,0,0.1,0,0.2,0c0.9,0,1.5-0.7,1.5-1.5v-0.1v-9.9h1v9.8C45.2,290.8,44.9,291.5,44.4,292.1"/>
			<path class="st0" d="M57,292.1c-0.5,0.5-1.2,0.7-1.9,0.7c-0.7,0.1-1.4-0.2-1.9-0.7c-0.6-0.6-0.7-1.2-0.7-2.6h1
				c0,1,0.1,1.5,0.5,1.9c0.3,0.3,0.7,0.4,1.1,0.4c0.4,0,0.9-0.1,1.2-0.4c0.4-0.6,0.6-1.3,0.5-2c0-1.6-0.2-2.1-1.3-2.6l-1.3-0.5
				c-1.3-0.5-1.6-1.3-1.6-3.1c-0.1-0.9,0.2-1.8,0.8-2.5c0.5-0.5,1.2-0.7,1.9-0.7s1.3,0.2,1.8,0.7c0.7,0.6,0.8,1.3,0.8,2.4h-1
				c0.1-0.6-0.1-1.2-0.5-1.7c-0.6-0.6-1.6-0.6-2.2,0c-0.4,0.5-0.6,1.1-0.5,1.8c0,1.4,0.2,1.9,1.4,2.3l1.3,0.5
				c1.3,0.5,1.6,1.6,1.6,3.3C57.8,290.6,57.6,291.5,57,292.1"/>
			<polygon class="st0" points="65.4,292.7 65.4,280.2 69.7,280.2 69.7,281.2 66.4,281.2 66.4,286 69.2,286 69.2,286.9 66.4,286.9 
				66.4,291.7 69.7,291.7 69.7,292.7 			"/>
			<path class="st0" d="M80.9,281.5c-0.3-0.3-0.7-0.5-1.1-0.5s-0.8,0.2-1.1,0.5c-0.5,0.6-0.6,1.3-0.6,5c0,3.6,0.1,4.4,0.6,5
				c0.3,0.3,0.7,0.5,1.1,0.4c0.4,0,0.8-0.2,1.1-0.5c0.5-0.6,0.6-1.3,0.6-5C81.5,282.8,81.4,282,80.9,281.5 M81.6,292
				c-1,1-2.7,1-3.7,0c-0.8-0.8-0.9-1.8-0.9-5.6s0.1-4.8,0.9-5.6c1-1,2.7-1,3.7,0c0.8,0.8,0.9,1.8,0.9,5.6S82.4,291.2,81.6,292"/>
			<path class="st0" d="M102.8,281.6c-0.3-0.3-0.7-0.5-1.1-0.5h-1.5v10.6h1.5c0.4,0,0.8-0.1,1.1-0.4c0.6-0.7,0.6-1.3,0.6-4.9
				C103.4,282.9,103.3,282.2,102.8,281.6 M103.6,291.9c-0.5,0.5-1.2,0.7-1.9,0.7h-2.5v-12.4h2.5c0.7,0,1.4,0.2,1.9,0.7
				c0.8,0.8,0.9,1.8,0.9,5.5S104.4,291.1,103.6,291.9"/>
			<polygon class="st0" points="112.1,292.7 112.1,280.2 116.4,280.2 116.4,281.2 113.1,281.2 113.1,286 116,286 116,286.9 
				113.1,286.9 113.1,291.7 116.4,291.7 116.4,292.7 			"/>
			<path class="st0" d="M135.1,282.1l-1.2,6.2h2.5L135.1,282.1z M137.2,292.7l-0.7-3.4h-2.9l-0.7,3.4h-1.2l2.8-12.4h0.9l2.7,12.4
				H137.2z"/>
			<path class="st0" d="M147.6,281.2h-1.4v5h1.4c1.3,0,1.7-0.9,1.7-2.5S148.8,281.1,147.6,281.2 M149.5,292.6l-1.8-5.6h-1.6v5.6h-1
				v-12.4h2.4c1.5,0,2.7,0.5,2.7,3.4c0,1.9-0.5,2.8-1.5,3.2l1.9,5.8H149.5z"/>
			<polygon class="st0" points="160.3,281.1 160.3,292.7 159.3,292.7 159.3,281.1 157.2,281.1 157.2,280.2 162.4,280.2 162.4,281.1 
							"/>
			<polygon class="st0" points="169.5,292.7 169.5,280.2 173.9,280.2 173.9,281.2 170.6,281.2 170.6,286 173.4,286 173.4,286.9 
				170.6,286.9 170.6,291.7 173.9,291.7 173.9,292.7 			"/>
			<polygon class="st0" points="196.6,292.7 196.6,282.7 194.4,289.2 193.6,289.2 191.4,282.9 191.4,292.7 190.4,292.7 190.4,280.2 
				191.4,280.2 194,287.5 196.6,280.2 197.7,280.2 197.7,292.7 			"/>
			<path class="st0" d="M209.2,281.5c-0.3-0.3-0.7-0.5-1.1-0.5c-0.4,0-0.8,0.1-1.1,0.5c-0.5,0.6-0.6,1.3-0.6,4.9s0.1,4.4,0.6,5
				c0.3,0.3,0.7,0.5,1.1,0.4c0.4,0,0.8-0.2,1.1-0.5c0.5-0.6,0.6-1.3,0.6-5S209.7,282,209.2,281.5 M210,292c-0.5,0.5-1.2,0.7-1.9,0.7
				s-1.4-0.2-1.9-0.7c-0.8-0.8-0.9-1.8-0.9-5.6s0.1-4.8,0.9-5.6c0.5-0.5,1.2-0.8,1.9-0.7c0.7,0,1.4,0.2,1.9,0.7
				c0.8,0.8,0.9,1.8,0.9,5.6S210.8,291.2,210,292"/>
			<path class="st0" d="M222.2,281.6c-0.3-0.3-0.7-0.5-1.2-0.5h-1.5v10.6h1.4c0.4,0,0.8-0.1,1.2-0.4c0.5-0.7,0.6-1.3,0.6-4.9
				C222.8,282.9,222.7,282.2,222.2,281.6 M222.9,291.9c-0.5,0.5-1.2,0.7-1.9,0.7h-2.5v-12.4h2.5c0.7,0,1.4,0.2,1.9,0.7
				c0.8,0.8,0.9,1.8,0.9,5.5S223.8,291.1,222.9,291.9"/>
			<polygon class="st0" points="231.5,292.7 231.5,280.2 235.8,280.2 235.8,281.2 232.5,281.2 232.5,286 235.4,286 235.4,286.9 
				232.5,286.9 232.5,291.7 235.8,291.7 235.8,292.7 			"/>
			<path class="st0" d="M245.9,281.2h-1.4v5h1.4c1.3,0,1.6-0.9,1.6-2.5S247.1,281.1,245.9,281.2 M247.9,292.6l-1.8-5.6h-1.6v5.6h-1
				v-12.4h2.4c1.5,0,2.6,0.5,2.6,3.4c0,1.9-0.5,2.8-1.5,3.2l1.9,5.8H247.9z"/>
			<polygon class="st0" points="261,292.7 257.5,283 257.5,292.7 256.5,292.7 256.5,280.2 257.5,280.2 261,289.9 261,280.2 
				262.1,280.2 262.1,292.7 			"/>
			<path class="st0" d="M273.6,281.5c-0.3-0.3-0.7-0.5-1.1-0.5s-0.8,0.1-1.1,0.5c-0.5,0.6-0.6,1.3-0.6,4.9s0.1,4.4,0.6,5
				c0.3,0.3,0.7,0.5,1.1,0.4c0.4,0,0.8-0.1,1.1-0.4c0.5-0.6,0.6-1.3,0.6-5S274.1,282.1,273.6,281.5 M274.3,292
				c-0.5,0.5-1.2,0.7-1.9,0.7c-0.7,0-1.4-0.2-1.9-0.7c-0.8-0.8-0.9-1.8-0.9-5.6s0.1-4.8,0.9-5.6c0.5-0.5,1.2-0.8,1.9-0.7
				c0.7,0,1.4,0.2,1.9,0.7c0.8,0.8,0.9,1.8,0.9,5.6S275.1,291.2,274.3,292"/>
			<path class="st1" d="M24.9,256.8v11.7h3.6v-12.3C27.4,256.5,26.2,256.6,24.9,256.8"/>
			<path class="st2" d="M31.6,255.9v12.6h5.9v-13.2C35.5,255.5,33.5,255.7,31.6,255.9"/>
			<path class="st2" d="M67.9,255.3v13.2h5.9v-12.6C71.8,255.7,69.9,255.5,67.9,255.3"/>
			<path class="st3" d="M53.4,254.7v13.9h12.2v-13.4C61.5,254.8,57.5,254.7,53.4,254.7"/>
			<path class="st3" d="M39.7,255.1v13.4h12.2v-13.9C47.8,254.7,43.8,254.8,39.7,255.1"/>
			<path class="st1" d="M76.7,268.6h3.6v-11.7c-1.2-0.2-2.4-0.4-3.6-0.5V268.6z"/>
		</g>
	</g>
	<rect x="311.3" y="247.9" class="st4" width="2.9" height="54.5"/>
	<g>
		<g>
			<text transform="matrix(1 0 0 1 341.3326 275.7102)" class="st4 st5 st6">Museo de Arte Moderno</text>
		</g>
		<g>
			<g>
				<text transform="matrix(1 0 0 1 363.718 294.8862)" class="st8 st9 st10">Ver objetos de esta Institución</text>
			</g>
			<g>
				<path class="st4" d="M349.2,295.6c-4.5,0-8.1-4.1-8.2-4.3l-0.2-0.3l0.2-0.3c0.1-0.2,3.7-4.3,8.2-4.3s8.1,4.1,8.2,4.3l0.2,0.3
					l-0.2,0.3C357.3,291.5,353.7,295.6,349.2,295.6z M341.9,291c0.9,0.9,3.8,3.7,7.3,3.7s6.5-2.8,7.3-3.7c-0.9-0.9-3.8-3.7-7.3-3.7
					C345.8,287.3,342.8,290.1,341.9,291z"/>
				<g>
					<ellipse class="st4" cx="349.2" cy="291" rx="2.8" ry="2.9"/>
					<path class="st4" d="M349.2,294.3c-1.8,0-3.3-1.5-3.3-3.3s1.5-3.3,3.3-3.3s3.3,1.5,3.3,3.3S351,294.3,349.2,294.3z
						 M349.2,288.6c-1.3,0-2.4,1.1-2.4,2.5s1.1,2.5,2.4,2.5s2.4-1.1,2.4-2.5S350.6,288.6,349.2,288.6z"/>
				</g>
			</g>
		</g>
	</g>
</g>
<g>
	<g>
		<text transform="matrix(1 0 0 1 161.2041 29.3139)" class="st4 st5 st6">Museo Casa Estudio de Diego Rivera</text>
		<text transform="matrix(1 0 0 1 161.2041 52.1139)" class="st4 st5 st6">y Frida Kahlo</text>
	</g>
	<g>
		<path class="st7" d="M14.9,81.1c0-24.5,0-49.1,0-73.6c34.7,0,69.3,0,104,0c0,24.5,0,49.1,0,73.6C84.2,81.1,49.5,81.1,14.9,81.1z
			 M115.9,76.5c0-21.7,0-43,0-64.6c-8.8,6.1-17.4,12-26.4,18.2c0-6.3,0-12,0-18.1c-9.3,6.1-18.3,12-27.6,18.2c0-6.3,0-12.1,0-18.2
			c-0.8,0.5-1.2,0.8-1.7,1.2c-7.3,5.5-14.5,11-21.8,16.3c-1.5,1.1-2.3,2.3-2.2,4.3c0.2,2.7,0,5.5,0,8.4c-1.1,0-1.9,0-2.7,0
			c-4.8,0-9.6,0-14.4,0c-0.4,0-0.8,0.4-1.2,0.6c0.3,0.2,0.6,0.6,1,0.6c6.2,0,12.3,0,18.7,0c0-3.4,0.1-6.6,0-9.8c0-1.2,0.3-2,1.3-2.8
			c6.7-5,13.4-10,20.1-15.1c0.4-0.3,0.8-0.5,1.5-0.9c0,6.1,0,11.8,0,17.9c9.3-6.1,18.3-12,27.6-18.1c0,6.2,0,12,0,18.2
			c8.9-6.1,17.5-12,26.3-18.1c0,10.6,0,20.9,0,31.3c-1,0-1.8,0-2.7,0c-30.4,0-60.7,0-91.1,0c-0.6,0-1.3,0-1.9,0
			c-0.5,0-0.9,0.1-1.4,0.2c0.3,0.3,0.5,0.7,0.8,1c32.1,0,64.1,0,96.3,0c0,9.4,0,18.6,0,28c-0.9,0-1.6,0-2.4,0c-30.6,0-61.2,0-91.9,0
			c-0.7,0-1.5,0.4-2.2,0.6c0.8,0.2,1.5,0.7,2.3,0.7c31.1,0,62.3,0,93.4,0C114.4,76.5,115.1,76.5,115.9,76.5z M85.7,37.8
			c8.8-6,17.2-11.8,25.8-17.7c0,1.2,0,1.9,0,2.6c0,6.4,0,12.8,0,19.3c0,0.6,0.5,1.1,0.7,1.7c0.2-0.6,0.7-1.1,0.7-1.7
			c0-7.7,0-15.4,0-23.2c0-0.3-0.1-0.7-0.1-1.3c-8.6,5.9-17,11.7-25.8,17.7c0-6.4,0-12.2,0-18.4c-9.2,6.1-18.1,12.1-27.5,18.3
			c0-5.8,0-11.2,0-16.6c-0.4,0-0.5,0-0.6,0c-6.2,4.4-12.3,8.8-18.5,13.3c-0.4,0.3-0.7,0.9-0.7,1.4c-0.1,3-0.1,6,0,9
			c0,0.4,0.4,0.8,0.6,1.2c0.2-0.4,0.7-0.9,0.7-1.3c0.1-2.5-0.1-5.1,0.1-7.6c0-0.8,0.5-1.8,1.1-2.2c4.9-3.6,9.9-7.1,14.8-10.7
			c0.3-0.2,0.6-0.3,1.2-0.5c0,5.6,0,10.9,0,16.6c9.3-6.2,18.2-12.2,27.5-18.4C85.7,25.6,85.7,31.5,85.7,37.8z M22.5,53.4
			c-0.2,0-0.3,0-0.5,0c-0.4,2.5-0.7,4.9-1.1,7.4c-0.1,0-0.2,0-0.4,0c-0.4-2.5-0.8-5-1.2-7.5c-0.1,0-0.3,0-0.4,0c0,4.5,0,9,0,13.5
			c0.2,0,0.3,0,0.5,0c0-2.4,0-4.8,0-7.3c0.1,0,0.2,0,0.3,0c0.3,1.7,0.6,3.5,0.9,5.2c0.1,0,0.2,0,0.3,0c0.2-1.5,0.5-3,0.7-4.5
			c0.2,0,0.3,0,0.5,0c0,2.2,0,4.4,0,6.5c0.1,0,0.3,0,0.4,0C22.5,62.3,22.5,57.8,22.5,53.4z M64.7,60.1c0,1.8,0,3.6,0,5.4
			c0,1.2,0.6,1.5,1.7,1.5c1.2,0,1.7-0.4,1.7-1.6c0-3.6,0-7.2,0-10.9c0-1.3-0.7-1.4-1.8-1.4c-1,0-1.6,0.4-1.5,1.5
			C64.8,56.4,64.7,58.2,64.7,60.1z M71.4,66.9c2.4,0.1,3-0.3,3-2.4c0.1-3,0.1-6,0-9c0-2.1-0.8-2.6-3-2.2
			C71.4,57.9,71.4,62.3,71.4,66.9z M108.3,54.5c0,0.3,0.1,0.5,0.1,0.7c-0.2,1.6-0.3,3.2-0.9,4.8c-0.7,1.9,0.7,4.6,1.1,7
			c0.2,0,0.4-0.1,0.6-0.1c-0.2-1.2-0.5-2.5-0.7-3.7c-0.1-0.8-0.7-1.9-0.3-2.2c1.7-1.6,0.9-3.5,1-5.3c0.1-2.6-0.3-2.8-2.9-2.2
			c0,4.4,0,8.8,0,13.3c0.5-0.6,0.5-1.2,0.5-1.9c0-3,0-6.1,0-9.1C106.6,54.5,106.9,53.9,108.3,54.5z M92.2,66.7c0.2,0,0.4,0,0.6,0
			c0-0.6,0-1.2,0-1.8c0-3.1,0-6.2,0-9.3c0-1.3,0.5-1.6,1.9-1.1c-0.7,1.6,1.1,3.8-1.4,5.2c0.5,2.3,1,4.8,1.4,7.2
			c0.2,0,0.4-0.1,0.5-0.1c-0.1-0.7-0.2-1.4-0.4-2.1c-0.2-1.3-1.1-3-0.6-3.7c1.3-1.8,0.7-3.6,0.8-5.3c0.1-2.7-0.2-2.8-2.9-2.2
			C92.2,57.9,92.2,62.3,92.2,66.7z M36.2,60c0,1.8,0,3.6,0,5.4c0,1.2,0.4,1.6,1.6,1.6c1.1,0,1.7-0.3,1.6-1.5c0-3.6-0.1-7.2,0-10.9
			c0-1.3-0.6-1.5-1.7-1.5c-1.2,0-1.6,0.5-1.5,1.6C36.3,56.5,36.2,58.3,36.2,60z M85.6,59.9c0,1.9-0.1,3.9,0.1,5.8
			c0,0.5,0.8,1.1,1.4,1.2c0.8,0.2,1.7,0.1,1.7-1.2c0-3.8,0-7.6,0-11.4c0-1.2-0.9-1.4-1.7-1.2c-0.6,0.2-1.3,0.8-1.4,1.3
			C85.6,56.3,85.6,58.1,85.6,59.9z M84.3,57.1c0-1,0.2-1.9-0.1-2.8c-0.1-0.5-0.9-1.1-1.4-1c-0.6,0.1-1.5,0.7-1.6,1.1
			c-0.1,3.8-0.1,7.6,0,11.5c0,0.4,1,1.1,1.5,1.1s1.3-0.7,1.4-1.2c0.2-1.5,0.1-3.1,0-4.7c0-0.3-0.6-0.6-0.8-0.8
			c0,1.9,0.1,3.6,0.1,5.3c0,0.1-0.9,0.2-1.6,0.4c0-4,0-7.7,0-11.5C83.5,54.3,83.5,54.3,84.3,57.1z M58.5,66.9c2.1,0.5,3-0.4,3-2.2
			c0.1-3.1,0.1-6.2,0-9.3c-0.1-2-0.9-2.4-3-1.9C58.5,57.9,58.5,62.4,58.5,66.9z M54.6,53.4c-0.2,0-0.3,0-0.5,0
			c-0.1,0.3-0.2,0.6-0.2,0.9c0,3.7,0,7.4,0,11.1c0,1.2,0.4,1.7,1.7,1.7c1.4,0,1.6-0.8,1.6-1.8c0-3.6,0-7.1,0-10.7
			c0-0.4-0.1-0.7-0.2-1.1c-0.4,3.7-0.4,7.4-0.4,11.1c0,1.4-0.5,1.7-1.9,1.2C54.6,61.6,54.6,57.5,54.6,53.4z M24.6,53.4
			c-0.2,0-0.4,0-0.7,0c0,4.2,0,8.4,0.1,12.7c0,0.3,1.1,0.8,1.8,0.8c0.4,0,1.1-0.7,1.2-1.1c0.1-1.9,0.1-3.8,0.1-5.6
			c0-2.3,0-4.6,0-6.8c-0.5,0.6-0.5,1.3-0.5,1.9c0,3,0,6.1,0,9.1c0,1.4-0.5,1.7-1.9,1.2C24.6,61.6,24.6,57.5,24.6,53.4z M109.9,66.7
			c0.2,0,0.4,0,0.6,0c0.1-0.5,0-1.1,0.2-1.6c0.2-0.4,0.6-0.8,0.9-1.1c0.3,0.3,0.7,0.6,0.8,1c0.2,0.6,0.2,1.3,0.3,1.9
			c0.2,0,0.4-0.1,0.6-0.1c-0.5-4.5-0.9-9-1.4-13.6c-0.2,0-0.4,0-0.6,0C110.9,57.8,110.4,62.2,109.9,66.7z M77.7,53.1
			c0,4.8,0,9.3,0,14c0.9-0.2,1.7-0.3,2.4-0.4c0-0.2-0.1-0.4-0.1-0.6c-0.5-0.1-1.1-0.2-1.7-0.3c0-1.8,0-3.4,0-5
			c0.6-0.2,1.1-0.4,2-0.7c-3.7-1.2-1.4-3.8-2.2-5.5c0.8-0.2,1.4-0.3,1.9-0.5c0-0.2,0-0.4,0-0.6C79.4,53.3,78.6,53.2,77.7,53.1z
			 M99.4,66.8c0.2,0,0.4,0,0.6,0c0.4-4.5,0.9-8.9,1.3-13.4c-0.2,0-0.4,0-0.6-0.1c-0.3,3-0.5,5.9-0.8,8.9c-0.1,0-0.2,0-0.4,0
			c-0.3-2.9-0.6-5.9-0.9-8.8c-0.2,0-0.4,0-0.6,0.1C98.5,57.9,99,62.4,99.4,66.8z M48.7,57.1c0.2,0,0.3,0,0.5,0.1c0-0.8,0-1.6,0-2.5
			c0.1-1.1-0.4-1.5-1.5-1.5s-1.6,0.5-1.5,1.5c0.2,1.6,0.5,3.3,0.9,4.9c0.4,1.7,1.1,3.3,1.4,5c0.3,1.4-0.5,1.7-1.7,1.2
			c-0.1-1-0.1-2-0.1-3c-0.2,0-0.3,0-0.5,0c0,1,0,2,0,3c0,1.1,0.7,1.6,1.6,1.3c0.5-0.2,1.2-0.8,1.3-1.4c0.3-2.1-0.1-4.1-1.1-6
			c-0.6-1.2-0.9-2.6-1.2-4c-0.3-1.3,0.4-1.6,1.7-1.2C48.6,55.3,48.7,56.2,48.7,57.1z M28.9,62.7c-0.2,0-0.4,0-0.6,0
			c0,0.9,0,1.9,0,2.8c0,1,0.3,1.5,1.5,1.5c1.1,0,1.4-0.5,1.5-1.5c0.3-2.6-0.7-4.8-1.7-7.1c-0.5-1.2-0.6-2.6-1-4
			c3.2-0.6,1.4,2,2.6,2.9c0-1.1,0.2-2-0.1-2.8c-0.2-0.5-0.8-1.2-1.3-1.3c-1-0.3-1.5,0.3-1.6,1.4c-0.2,2.3,0.5,4.3,1.5,6.3
			c0.5,1.1,0.7,2.4,0.9,3.7c0,0.4-0.6,0.9-0.9,1.3c-0.3-0.4-0.7-0.8-0.8-1.2C28.8,64,28.9,63.3,28.9,62.7z M51.3,66.7
			c0.2,0,0.4,0,0.6,0c0-3.3-0.1-6.6,0-9.8c0-1.1,0.4-2.2,0.7-3.4c-0.6,0-1.6,0-2.2,0c0.3,1.1,0.8,2.1,0.8,3
			C51.3,59.9,51.3,63.3,51.3,66.7z M102.4,67.2c1-0.2,1.7-0.4,2.4-0.5c0-0.2-0.1-0.4-0.1-0.6c-0.6-0.1-1.2-0.3-1.8-0.4
			c0-1.7,0-3.3,0-4.9c0.6-0.2,1.1-0.4,2.1-0.8c-1-0.4-1.5-0.6-2.1-0.8c0-1.6,0-3.1,0-4.6c0.7-0.2,1.2-0.3,1.8-0.5c0-0.2,0-0.4,0-0.6
			c-0.7-0.1-1.5-0.2-2.4-0.3C102.4,57.9,102.4,62.3,102.4,67.2z M32.7,53.1c0,4.8,0,9.3,0,14c0.9-0.2,1.7-0.3,2.4-0.5
			c0-0.2-0.1-0.4-0.1-0.6c-0.5-0.1-1.1-0.2-1.9-0.3c0.6-2-1.3-4.5,1.7-5.8c-1.8-1.2-2.1-2.4-1.4-5.6c0.6-0.1,1.1-0.3,1.7-0.4
			c0-0.2,0-0.4,0-0.6C34.4,53.3,33.6,53.2,32.7,53.1z M43.2,54.5c0.9-0.2,1.5-0.4,2.1-0.5c0-0.2,0-0.4,0-0.6
			c-0.8-0.1-1.5-0.2-2.3-0.3c0,4.8,0,9.3,0,14c0.9-0.2,1.7-0.4,2.4-0.5c0-0.2-0.1-0.4-0.1-0.6c-0.6-0.1-1.2-0.3-2-0.5
			c0.8-1.9-1.3-4.4,2.1-5.7C41.7,58.9,44,56.4,43.2,54.5z M62.9,66.8c0.1,0,0.2,0,0.4,0c0-4.5,0-8.9,0-13.4c-0.1,0-0.2,0-0.4,0
			C62.9,57.9,62.9,62.3,62.9,66.8z M76.2,53.4c-0.1,0-0.2,0-0.4,0c0,4.5,0,8.9,0,13.4c0.1,0,0.2,0,0.4,0
			C76.2,62.3,76.2,57.9,76.2,53.4z M96.9,53.4c-0.1,0-0.2,0-0.3,0c0,4.4,0,8.9,0,13.3c0.1,0,0.2,0,0.3,0
			C96.9,62.3,96.9,57.9,96.9,53.4z"/>
		<path d="M115.9,76.5c-0.8,0-1.5,0-2.2,0c-31.1,0-62.3,0-93.4,0c-0.8,0-1.5-0.4-2.3-0.7c0.7-0.2,1.5-0.6,2.2-0.6
			c30.6,0,61.2,0,91.9,0c0.8,0,1.5,0,2.4,0c0-9.4,0-18.6,0-28c-32.2,0-64.3,0-96.3,0c-0.3-0.3-0.5-0.7-0.8-1
			c0.5-0.1,0.9-0.1,1.4-0.2c0.6,0,1.3,0,1.9,0c30.4,0,60.7,0,91.1,0c0.8,0,1.7,0,2.7,0c0-10.4,0-20.7,0-31.3
			c-8.8,6-17.4,11.9-26.3,18.1c0-6.2,0-12,0-18.2c-9.4,6.1-18.4,12-27.7,18.1c0-6.1,0-11.8,0-17.9c-0.7,0.4-1.1,0.6-1.5,0.9
			c-6.7,5-13.4,10.1-20.1,15.1c-1,0.7-1.4,1.5-1.3,2.8c0.1,3.2,0,6.5,0,9.8c-6.4,0-12.6,0-18.7,0c-0.3,0-0.6-0.4-1-0.6
			c0.4-0.2,0.8-0.6,1.2-0.6c4.8,0,9.6,0,14.4,0c0.8,0,1.5,0,2.7,0c0-2.9,0.1-5.6,0-8.4c-0.1-2,0.6-3.1,2.2-4.3
			c7.3-5.4,14.5-10.9,21.8-16.3c0.5-0.3,0.9-0.7,1.7-1.2c0,6.1,0,11.9,0,18.2C71.2,24,80.2,18.1,89.5,12c0,6.1,0,11.8,0,18.1
			c9-6.2,17.6-12.1,26.4-18.1C115.9,33.5,115.9,54.9,115.9,76.5z"/>
		<path d="M85.7,37.8c0-6.4,0-12.2,0-18.5c-9.3,6.2-18.3,12.2-27.5,18.4c0-5.7,0-11,0-16.6c-0.5,0.3-0.9,0.4-1.2,0.5
			c-5,3.5-9.9,7.1-14.8,10.7c-0.6,0.4-1.1,1.4-1.1,2.2c-0.1,2.5,0,5.1-0.1,7.6c0,0.4-0.4,0.9-0.7,1.3c-0.2-0.4-0.6-0.8-0.6-1.2
			c0-3-0.1-6,0-9c0-0.5,0.3-1.1,0.7-1.4c6.1-4.5,12.3-8.9,18.5-13.3c0.1-0.1,0.2,0,0.6,0c0,5.4,0,10.8,0,16.6
			c9.3-6.2,18.3-12.2,27.5-18.4c0,6.2,0,12.1,0,18.4c8.7-6,17.1-11.8,25.8-17.7c0.1,0.6,0.1,1,0.1,1.3c0,7.7,0,15.4,0,23.2
			c0,0.6-0.4,1.1-0.7,1.7c-0.3-0.6-0.7-1.1-0.7-1.7c-0.1-6.4,0-12.8,0-19.3c0-0.7,0-1.4,0-2.6C102.8,26.1,94.4,31.8,85.7,37.8z"/>
		<path d="M22.5,53.4c0,4.5,0,8.9,0,13.4c-0.1,0-0.3,0-0.4,0c0-2.2,0-4.4,0-6.5c-0.2,0-0.3,0-0.5,0c-0.2,1.5-0.5,3-0.7,4.5
			c-0.1,0-0.2,0-0.3,0c-0.3-1.7-0.6-3.5-0.9-5.2c-0.1,0-0.2,0-0.3,0c0,2.4,0,4.8,0,7.3c-0.2,0-0.3,0-0.5,0c0-4.5,0-9,0-13.5
			c0.1,0,0.3,0,0.4,0c0.4,2.5,0.8,5,1.2,7.5c0.1,0,0.2,0,0.4,0c0.4-2.5,0.7-4.9,1.1-7.4C22.2,53.4,22.4,53.4,22.5,53.4z"/>
		<path d="M64.7,60.1c0-1.8,0-3.6,0-5.4c0-1.1,0.5-1.5,1.5-1.5s1.8,0.2,1.8,1.4c0,3.6,0,7.2,0,10.9c0,1.2-0.5,1.6-1.7,1.6
			c-1.1,0-1.7-0.3-1.7-1.5C64.8,63.7,64.7,61.9,64.7,60.1z M65.6,54.3c0,4,0,7.7,0,12c0.8-0.6,1.7-1,1.8-1.4
			c0.1-3.5,0.1-7.1,0.1-10.7C66.7,54.3,66.2,54.3,65.6,54.3z"/>
		<path d="M71.4,66.9c0-4.6,0-9,0-13.5c2.2-0.4,3,0.1,3,2.2c0.1,3,0.1,6,0,9C74.4,66.6,73.8,67,71.4,66.9z M72.1,54.3
			c0,3.9,0,7.7,0,11.5c1.9,0.1,1.6-1.3,1.6-2.3C73.8,54.7,73.8,54.7,72.1,54.3z"/>
		<path d="M108.3,54.5c-1.4-0.5-1.7,0.1-1.7,1.2c0,3,0,6.1,0,9.1c0,0.6,0,1.2-0.5,1.9c0-4.4,0-8.8,0-13.3c2.6-0.6,3-0.4,2.9,2.2
			c-0.1,1.8,0.7,3.7-1,5.3c-0.3,0.3,0.2,1.5,0.3,2.2c0.2,1.2,0.5,2.5,0.7,3.7c-0.2,0-0.4,0.1-0.6,0.1c-0.5-2.4-1.8-5-1.1-7
			c0.6-1.7,0.8-3.2,0.9-4.8C108.4,55,108.3,54.8,108.3,54.5z"/>
		<path d="M92.2,66.7c0-4.4,0-8.9,0-13.3c2.7-0.7,3-0.5,2.9,2.2c-0.1,1.8,0.5,3.6-0.8,5.3c-0.5,0.7,0.3,2.5,0.6,3.7
			c0.1,0.7,0.2,1.4,0.4,2.1c-0.2,0-0.4,0.1-0.5,0.1c-0.5-2.4-1-4.9-1.4-7.2c2.5-1.4,0.7-3.6,1.4-5.2c-1.5-0.6-2-0.2-1.9,1.1
			c0.1,3.1,0,6.2,0,9.3c0,0.6,0,1.2,0,1.8C92.5,66.8,92.4,66.8,92.2,66.7z"/>
		<path d="M36.2,60c0-1.7,0-3.5,0-5.2c0-1.1,0.3-1.7,1.5-1.6c1.1,0,1.7,0.3,1.7,1.5c-0.1,3.6,0,7.2,0,10.9c0,1.2-0.5,1.5-1.6,1.5
			c-1.2,0-1.6-0.4-1.6-1.6C36.3,63.6,36.2,61.8,36.2,60z M38.8,54.5c-0.2-0.2-0.4-0.3-0.6-0.5c-0.5,0.3-1.3,0.7-1.3,1
			c-0.1,3.6-0.1,7.2-0.1,10.8c0.2,0.1,0.4,0.2,0.6,0.3c0.4-0.4,1.3-0.8,1.3-1.2C38.9,61.4,38.8,58,38.8,54.5z"/>
		<path d="M85.6,59.9c0-1.8-0.1-3.6,0.1-5.4c0-0.5,0.8-1.1,1.4-1.3c0.8-0.2,1.7-0.1,1.7,1.2c0,3.8,0,7.6,0,11.4
			c0,1.2-0.9,1.4-1.7,1.2c-0.6-0.2-1.3-0.8-1.4-1.2C85.6,63.8,85.6,61.8,85.6,59.9z M88,65.8c0-3.8,0-7.6,0-11.4
			c-1.2-0.3-1.8-0.1-1.8,1.2c0.1,3,0.1,5.9,0,8.9C86.2,65.8,86.7,66.1,88,65.8z"/>
		<path d="M84.3,57.1c-0.8-2.8-0.8-2.8-2.3-2.7c0,3.7,0,7.5,0,11.5c0.6-0.1,1.6-0.2,1.6-0.4c0.1-1.7,0-3.4-0.1-5.3
			c0.2,0.1,0.8,0.5,0.8,0.8c0.1,1.5,0.2,3.1,0,4.7c-0.1,0.5-0.9,1.2-1.4,1.2s-1.5-0.7-1.5-1.1c-0.1-3.8-0.1-7.6,0-11.5
			c0-0.4,1-1,1.6-1.1c0.4,0,1.3,0.6,1.4,1C84.4,55.2,84.3,56.2,84.3,57.1z"/>
		<path d="M58.5,66.9c0-4.5,0-9,0-13.4c2.1-0.5,2.9,0,3,1.9c0.1,3.1,0.1,6.2,0,9.3C61.5,66.4,60.6,67.4,58.5,66.9z M59.7,54.1
			c-0.2,0.1-0.5,0.3-0.7,0.4c0,3.3,0,6.7,0,10c0,0.5,0.4,0.9,0.7,1.3c0.4-0.5,1.1-1,1.1-1.5c0.1-2.9,0.1-5.8,0-8.7
			C60.8,55.2,60.1,54.6,59.7,54.1z"/>
		<path d="M54.6,53.4c0,4.1,0,8.2,0,12.3c1.4,0.5,2,0.2,1.9-1.2c-0.1-3.7,0-7.3,0.4-11.1c0.1,0.4,0.2,0.7,0.2,1.1
			c0,3.6,0,7.1,0,10.7c0,1.1-0.1,1.9-1.6,1.8c-1.3,0-1.7-0.5-1.7-1.7c0-3.7,0-7.4,0-11.1c0-0.3,0.1-0.6,0.2-0.9
			C54.2,53.4,54.4,53.4,54.6,53.4z"/>
		<path d="M24.6,53.4c0,4.1,0,8.1,0,12.2c1.4,0.5,1.9,0.2,1.9-1.2c0-3,0-6.1,0-9.1c0-0.6,0.1-1.3,0.5-1.9c0,2.3,0,4.6,0,6.8
			c0,1.9,0.1,3.8-0.1,5.6c0,0.4-0.8,1.1-1.2,1.1c-0.6,0-1.8-0.5-1.8-0.8c-0.1-4.2-0.1-8.4-0.1-12.7C24.1,53.4,24.3,53.4,24.6,53.4z"
			/>
		<path d="M109.9,66.7c0.5-4.5,0.9-9,1.4-13.4c0.2,0,0.4,0,0.6,0c0.5,4.5,0.9,9,1.4,13.6c-0.2,0-0.4,0.1-0.6,0.1
			c-0.1-0.6-0.1-1.3-0.3-1.9c-0.1-0.4-0.5-0.7-0.8-1c-0.3,0.4-0.8,0.7-0.9,1.1c-0.2,0.5-0.1,1.1-0.2,1.6
			C110.3,66.7,110.1,66.7,109.9,66.7z M111.5,57.1c-0.2,1.9-0.3,3.8-0.5,5.6c0.4,0,0.7,0.1,1.1,0.1C112.5,60.9,111.8,59,111.5,57.1z
			"/>
		<path d="M77.7,53.1c0.9,0.1,1.7,0.2,2.4,0.3c0,0.2,0,0.4,0,0.6c-0.6,0.1-1.1,0.3-1.9,0.5c0.8,1.8-1.5,4.3,2.2,5.5
			c-1,0.4-1.4,0.5-2,0.7c0,1.6,0,3.3,0,5c0.6,0.1,1.1,0.2,1.7,0.3c0,0.2,0.1,0.4,0.1,0.6c-0.8,0.1-1.5,0.3-2.4,0.4
			C77.7,62.4,77.7,57.9,77.7,53.1z"/>
		<path d="M99.4,66.8c-0.4-4.5-0.9-8.9-1.3-13.4c0.2,0,0.4,0,0.6-0.1c0.3,2.9,0.6,5.9,0.9,8.8c0.1,0,0.2,0,0.4,0
			c0.3-3,0.5-5.9,0.8-8.9c0.2,0,0.4,0,0.6,0.1c-0.4,4.5-0.9,8.9-1.3,13.4C99.8,66.9,99.6,66.9,99.4,66.8z"/>
		<path d="M48.7,57.1c-0.1-0.9-0.1-1.8-0.2-2.6c-1.2-0.5-1.9-0.1-1.7,1.2c0.3,1.4,0.6,2.8,1.2,4c1,1.9,1.3,3.9,1.1,6
			c-0.1,0.5-0.8,1.2-1.3,1.4c-0.9,0.3-1.6-0.1-1.6-1.3c0-1,0-2,0-3c0.2,0,0.3,0,0.5,0c0,1,0.1,2,0.1,3c1.2,0.5,2,0.2,1.7-1.2
			c-0.3-1.7-1-3.3-1.4-5c-0.4-1.6-0.7-3.2-0.9-4.9c-0.1-1,0.4-1.5,1.5-1.5s1.5,0.4,1.5,1.5c0,0.8,0,1.6,0,2.5
			C49,57.1,48.9,57.1,48.7,57.1z"/>
		<path d="M28.9,62.7c0,0.7-0.1,1.4,0,2c0.1,0.4,0.5,0.8,0.8,1.2c0.3-0.4,1-0.9,0.9-1.3c-0.1-1.3-0.3-2.6-0.9-3.7
			c-0.9-2-1.7-4-1.5-6.3c0.1-1.1,0.6-1.7,1.6-1.4c0.5,0.2,1.2,0.8,1.3,1.3c0.2,0.8,0.1,1.7,0.1,2.8c-1.2-0.9,0.6-3.5-2.6-2.9
			c0.3,1.4,0.4,2.8,1,4c1,2.3,1.9,4.5,1.7,7.1c-0.1,1-0.4,1.5-1.5,1.5c-1.1,0-1.5-0.5-1.5-1.5c0-0.9,0-1.9,0-2.8
			C28.6,62.7,28.7,62.7,28.9,62.7z"/>
		<path d="M51.3,66.7c0-3.4,0.1-6.8,0-10.2c0-1-0.5-1.9-0.8-3c0.6,0,1.5,0,2.2,0c-0.3,1.2-0.7,2.3-0.7,3.4c-0.1,3.3,0,6.6,0,9.8
			C51.7,66.7,51.5,66.7,51.3,66.7z"/>
		<path d="M102.4,67.2c0-4.9,0-9.3,0-14c0.9,0.1,1.6,0.2,2.4,0.3c0,0.2,0,0.4,0,0.6c-0.6,0.1-1.1,0.3-1.8,0.5c0,1.5,0,3.1,0,4.6
			c0.5,0.2,1.1,0.4,2.1,0.8c-1,0.4-1.5,0.6-2.1,0.8c0,1.6,0,3.2,0,4.9c0.6,0.1,1.2,0.3,1.8,0.4c0,0.2,0.1,0.4,0.1,0.6
			C104.1,66.8,103.4,67,102.4,67.2z"/>
		<path d="M32.7,53.1c0.9,0.1,1.6,0.2,2.4,0.3c0,0.2,0,0.4,0,0.6c-0.6,0.1-1.1,0.3-1.7,0.4c-0.7,3.2-0.4,4.4,1.4,5.6
			c-3,1.3-1,3.8-1.7,5.8c0.8,0.1,1.3,0.2,1.9,0.3c0,0.2,0.1,0.4,0.1,0.6c-0.7,0.1-1.5,0.3-2.4,0.5C32.7,62.4,32.7,57.9,32.7,53.1z"
			/>
		<path d="M43.2,54.5c0.8,1.8-1.4,4.4,2.1,5.4c-3.4,1.3-1.3,3.8-2.1,5.7c0.8,0.2,1.4,0.3,2,0.5c0,0.2,0.1,0.4,0.1,0.6
			c-0.7,0.2-1.4,0.3-2.4,0.5c0-4.8,0-9.2,0-14c0.8,0.1,1.6,0.2,2.3,0.3c0,0.2,0,0.4,0,0.6C44.7,54.1,44.1,54.3,43.2,54.5z"/>
		<ellipse cx="63.1" cy="60.1" rx="0.3" ry="9.4"/>
		<path d="M76.2,53.4c0,4.5,0,8.9,0,13.4c-0.1,0-0.2,0-0.4,0c0-4.5,0-8.9,0-13.4C76,53.4,76.1,53.4,76.2,53.4z"/>
		<ellipse cx="96.7" cy="60.1" rx="0.2" ry="9.4"/>
		<path class="st7" d="M65.6,54.3c0.6,0,1.1,0,1.8,0c0,3.6,0,7.2-0.1,10.7c0,0.4-0.9,0.7-1.8,1.4C65.6,62,65.6,58.3,65.6,54.3z"/>
		<path class="st7" d="M72.1,54.3c1.7,0.4,1.7,0.4,1.6,9.3c0,1,0.4,2.4-1.6,2.3C72.1,62,72.1,58.2,72.1,54.3z"/>
		<path class="st7" d="M38.8,54.5c0,3.5,0,6.9-0.1,10.4c0,0.4-0.8,0.8-1.3,1.2c-0.2-0.1-0.4-0.2-0.6-0.3c0-3.6,0-7.2,0.1-10.8
			c0-0.4,0.9-0.7,1.3-1C38.5,54.2,38.6,54.3,38.8,54.5z"/>
		<path class="st7" d="M88,65.8c-1.3,0.3-1.8,0-1.8-1.3c0.1-3,0.1-5.9,0-8.9c0-1.3,0.6-1.5,1.8-1.2C88,58.2,88,62,88,65.8z"/>
		<path class="st7" d="M59.7,54.1c0.4,0.5,1,1.1,1.1,1.6c0.1,2.9,0.1,5.8,0,8.7c0,0.5-0.7,1-1.1,1.5c-0.2-0.4-0.6-0.9-0.7-1.3
			c-0.1-3.3,0-6.7,0-10C59.2,54.4,59.5,54.2,59.7,54.1z"/>
		<path class="st7" d="M111.5,57.1c0.3,1.9,1,3.9,0.6,5.7c-0.4,0-0.7-0.1-1.1-0.1C111.1,60.8,111.3,59,111.5,57.1z"/>
	</g>
	<rect x="139.6" y="4.3" class="st4" width="3.4" height="82.5"/>
	<g>
		<g>
			<text transform="matrix(1 0 0 1 185.796 79.4887)" class="st8 st9 st10">Ver objetos de esta Institución</text>
		</g>
		<g>
			<path class="st4" d="M171.3,80.2c-4.5,0-8.1-4.1-8.2-4.3l-0.2-0.3l0.2-0.3c0.1-0.2,3.7-4.3,8.2-4.3s8.1,4.1,8.2,4.3l0.2,0.3
				l-0.2,0.3C179.4,76.1,175.8,80.2,171.3,80.2z M164,75.6c0.9,0.9,3.8,3.7,7.3,3.7s6.5-2.8,7.3-3.7c-0.9-0.9-3.8-3.7-7.3-3.7
				C167.9,71.9,164.9,74.7,164,75.6z"/>
			<g>
				<ellipse class="st4" cx="171.3" cy="75.6" rx="2.8" ry="2.9"/>
				<path class="st4" d="M171.3,78.9c-1.8,0-3.3-1.5-3.3-3.3s1.5-3.3,3.3-3.3s3.3,1.5,3.3,3.3C174.6,77.5,173.1,78.9,171.3,78.9z
					 M171.3,73.2c-1.3,0-2.4,1.1-2.4,2.5s1.1,2.5,2.4,2.5c1.3,0,2.4-1.1,2.4-2.5C173.8,74.3,172.7,73.2,171.3,73.2z"/>
			</g>
		</g>
	</g>
</g>
</svg>
