<?xml version="1.0" encoding="utf-8"?>
<!-- Generator: Adobe Illustrator 23.1.0, SVG Export Plug-In . SVG Version: 6.00 Build 0)  -->
<svg version="1.1" id="Capa_1" xmlns="http://www.w3.org/2000/svg" xmlns:xlink="http://www.w3.org/1999/xlink" x="0px" y="0px"
	 viewBox="0 0 266 155" style="enable-background:new 0 0 266 155;" xml:space="preserve">
<style type="text/css">
	.st0{fill:#347B98;}
	.st1{fill:#1D1D1B;}
</style>
<g>
	<rect x="70.8" y="14" class="st0" width="124.4" height="3.3"/>
	<rect x="70.8" y="137.7" class="st0" width="124.4" height="3.3"/>
	<g>
		<g>
			<path class="st1" d="M89.5,50.1v10c0,2,0.4,3.5,1.3,4.6c0.9,1.1,2,1.7,3.6,1.7c1.4,0,2.4-0.5,3.2-1.5c0.8-1,1.1-2.3,1.1-4.1V50.1
				c0-1.1-0.1-2-0.2-2.6c-0.1-0.7-0.4-1.3-0.7-2h3.4h3.4c-0.3,0.6-0.5,1.3-0.7,2c-0.1,0.7-0.2,1.6-0.2,2.7v15c0,1.1,0.1,2,0.2,2.7
				c0.1,0.7,0.4,1.3,0.7,1.9h-2.7h-2.7v-2.4l-0.3,0.4c-1.6,1.6-3.6,2.4-6,2.4c-2.7,0-4.7-0.8-6.2-2.4c-1.5-1.6-2.2-3.9-2.2-6.8V50.1
				c0-1.1-0.1-2-0.2-2.6c-0.1-0.7-0.4-1.3-0.7-1.9H87h3.4c-0.3,0.6-0.5,1.3-0.7,1.9C89.6,48.2,89.5,49,89.5,50.1z"/>
			<path class="st1" d="M108.7,65.1l6.9-15.8c0.4-0.8,0.7-1.6,1-2.3c0.3-0.7,0.4-1.2,0.4-1.5h2h2c0,0.2,0.2,0.7,0.4,1.5
				c0.3,0.7,0.6,1.5,1,2.3l6.9,15.8c0.5,1.1,0.9,2.1,1.3,2.7c0.4,0.7,0.8,1.3,1.2,1.9h-3.3h-3.3c0.1-0.5,0-1.1-0.1-1.6
				c-0.1-0.6-0.3-1.2-0.7-2.1l-1.2-3.1h-9.1l-1.3,3.1c-0.3,0.6-0.4,1.2-0.5,1.8c-0.1,0.6-0.1,1.2,0,1.9h-2.9h-3
				c0.3-0.4,0.6-0.9,0.9-1.6C107.7,67.4,108.1,66.4,108.7,65.1z M115.8,59.1h6l-2.9-7.4h0L115.8,59.1z"/>
			<path class="st1" d="M151.5,68.2c-1.5,0.7-2.8,1.2-3.9,1.4c-1.1,0.3-2.4,0.4-4,0.4c-3.5,0-6.5-1.1-8.8-3.4
				c-2.4-2.3-3.5-5.1-3.5-8.5c0-3.7,1.3-6.8,4-9.3c2.6-2.5,6-3.7,9.9-3.7c1.1,0,2,0.1,2.8,0.2c0.8,0.1,1.8,0.4,3.1,0.8v4.6
				c-1.2-0.7-2.2-1.3-3.2-1.6c-1-0.3-2.1-0.4-3.3-0.4c-2.2,0-4.1,0.8-5.6,2.5c-1.5,1.7-2.2,3.8-2.2,6.3c0,2.5,0.7,4.6,2.1,6.3
				c1.4,1.7,3.2,2.5,5.3,2.5c1.4,0,2.7-0.2,3.8-0.6c1.1-0.4,2.3-1.1,3.5-2.1V68.2z"/>
			<path class="st1" d="M161.1,65.1c0,1.1,0.1,2,0.2,2.7c0.1,0.7,0.4,1.3,0.7,2h-3.3h-3.4c0.3-0.6,0.5-1.3,0.7-2
				c0.1-0.7,0.2-1.6,0.2-2.7V48.8l-2.9-3.3h3.9h3.9c0.1,0.5,0.3,1,0.6,1.5c0.3,0.6,0.8,1.3,1.5,2.2l5.5,7.1h0l5.6-7.1
				c0.7-0.9,1.2-1.6,1.6-2.2c0.3-0.6,0.5-1.1,0.6-1.5h3h3c-0.7,1.4-1.2,2.6-1.5,3.4c-0.3,0.9-0.4,1.7-0.4,2.5v13.6
				c0,1.1,0.1,2,0.2,2.7c0.1,0.7,0.4,1.3,0.7,2H178h-3.4c0.3-0.6,0.5-1.3,0.7-2c0.1-0.7,0.2-1.6,0.2-2.7V54.6h0l-7.2,9.1h0l-7.2-9.3
				h0V65.1z"/>
		</g>
		<g>
			<path class="st1" d="M88.4,86.7h1v6.9h-1v-0.5c-0.2,0.2-0.4,0.4-0.6,0.5c-0.2,0.1-0.5,0.2-0.8,0.2c-0.6,0-1.1-0.2-1.4-0.6
				c-0.3-0.4-0.5-1-0.5-1.7c0-0.7,0.2-1.2,0.5-1.6c0.3-0.4,0.8-0.6,1.4-0.6c0.3,0,0.6,0.1,0.9,0.2c0.2,0.1,0.4,0.4,0.5,0.6V86.7z
				 M88.4,91.5c0-0.4-0.1-0.8-0.3-1c-0.2-0.2-0.5-0.4-0.8-0.4c-0.4,0-0.6,0.1-0.9,0.4c-0.2,0.3-0.3,0.6-0.3,1c0,0.4,0.1,0.8,0.3,1
				c0.2,0.2,0.5,0.4,0.8,0.4c0.3,0,0.6-0.1,0.8-0.4C88.3,92.3,88.4,91.9,88.4,91.5z"/>
			<path class="st1" d="M94.6,91.7h-3.4c0,0.4,0.1,0.7,0.3,0.9c0.2,0.2,0.5,0.3,0.8,0.3c0.3,0,0.6-0.1,0.8-0.2
				c0.2-0.1,0.4-0.3,0.5-0.6l0.8,0.4c-0.2,0.4-0.5,0.7-0.9,0.9c-0.3,0.2-0.8,0.3-1.2,0.3c-0.7,0-1.2-0.2-1.6-0.6
				c-0.4-0.4-0.6-1-0.6-1.6c0-0.7,0.2-1.2,0.6-1.6c0.4-0.4,0.9-0.6,1.6-0.6c0.7,0,1.2,0.2,1.6,0.6c0.4,0.4,0.6,0.9,0.6,1.6V91.7z
				 M93.7,91c0-0.3-0.2-0.5-0.3-0.7c-0.2-0.2-0.5-0.2-0.8-0.2c-0.3,0-0.6,0.1-0.8,0.2c-0.2,0.2-0.3,0.4-0.4,0.7H93.7z"/>
			<path class="st1" d="M98.3,93.6v-6.9h1v6.9H98.3z"/>
			<path class="st1" d="M104.5,93.6h-1v-0.5c-0.2,0.2-0.4,0.4-0.6,0.5c-0.2,0.1-0.5,0.2-0.8,0.2c-0.6,0-1.1-0.2-1.4-0.6
				c-0.3-0.4-0.5-1-0.5-1.7c0-0.7,0.2-1.2,0.5-1.6c0.3-0.4,0.8-0.6,1.4-0.6c0.3,0,0.6,0.1,0.9,0.2c0.2,0.1,0.4,0.4,0.5,0.6v-0.7h1
				V93.6z M103.6,91.5c0-0.4-0.1-0.8-0.3-1c-0.2-0.2-0.5-0.4-0.8-0.4c-0.4,0-0.6,0.1-0.9,0.4c-0.2,0.3-0.3,0.6-0.3,1
				c0,0.4,0.1,0.8,0.3,1c0.2,0.2,0.5,0.4,0.8,0.4c0.3,0,0.6-0.1,0.8-0.4C103.5,92.3,103.6,91.9,103.6,91.5z"/>
			<path class="st1" d="M113.8,88.7c-0.3-0.3-0.6-0.4-0.9-0.6c-0.3-0.1-0.7-0.2-1-0.2c-0.7,0-1.3,0.2-1.7,0.7
				c-0.4,0.5-0.7,1-0.7,1.8c0,0.7,0.2,1.3,0.7,1.7c0.4,0.5,1,0.7,1.6,0.7c0.4,0,0.8-0.1,1.1-0.2c0.3-0.1,0.7-0.3,1-0.6v1.2
				c-0.3,0.2-0.6,0.4-0.9,0.5c-0.3,0.1-0.7,0.1-1.1,0.1c-0.5,0-1-0.1-1.4-0.2c-0.4-0.2-0.8-0.4-1.1-0.7c-0.3-0.3-0.6-0.7-0.7-1.1
				c-0.2-0.4-0.3-0.9-0.3-1.3c0-0.5,0.1-0.9,0.3-1.3c0.2-0.4,0.4-0.8,0.7-1.1c0.3-0.3,0.7-0.6,1.1-0.7c0.4-0.2,0.9-0.2,1.3-0.2
				c0.4,0,0.7,0.1,1.1,0.2c0.3,0.1,0.7,0.3,1,0.5L113.8,88.7z"/>
			<path class="st1" d="M114.9,87.6c0-0.2,0.1-0.3,0.2-0.4c0.1-0.1,0.3-0.2,0.4-0.2c0.2,0,0.3,0.1,0.4,0.2c0.1,0.1,0.2,0.3,0.2,0.4
				c0,0.2-0.1,0.3-0.2,0.4c-0.1,0.1-0.3,0.2-0.4,0.2c-0.2,0-0.3-0.1-0.4-0.2C114.9,87.9,114.9,87.8,114.9,87.6z M115,93.6v-4.2h1
				v4.2H115z"/>
			<path class="st1" d="M118.2,89.4v2.4c0,0.4,0.1,0.7,0.3,0.9c0.2,0.2,0.4,0.3,0.8,0.3c0.4,0,0.6-0.1,0.8-0.3
				c0.2-0.2,0.2-0.5,0.2-0.9v-2.4h1v2.1c0,0.8-0.2,1.4-0.5,1.7c-0.3,0.4-0.8,0.5-1.5,0.5c-0.7,0-1.2-0.2-1.6-0.5
				c-0.3-0.4-0.5-0.9-0.5-1.8v-2.1H118.2z"/>
			<path class="st1" d="M125.5,86.7h1v6.9h-1v-0.5c-0.2,0.2-0.4,0.4-0.6,0.5c-0.2,0.1-0.5,0.2-0.8,0.2c-0.6,0-1.1-0.2-1.4-0.6
				c-0.3-0.4-0.5-1-0.5-1.7c0-0.7,0.2-1.2,0.5-1.6c0.4-0.4,0.8-0.6,1.4-0.6c0.3,0,0.6,0.1,0.9,0.2c0.2,0.1,0.4,0.4,0.5,0.6V86.7z
				 M125.6,91.5c0-0.4-0.1-0.8-0.3-1c-0.2-0.2-0.5-0.4-0.8-0.4c-0.4,0-0.6,0.1-0.9,0.4c-0.2,0.3-0.3,0.6-0.3,1c0,0.4,0.1,0.8,0.3,1
				c0.2,0.2,0.5,0.4,0.8,0.4c0.4,0,0.6-0.1,0.8-0.4C125.4,92.3,125.6,91.9,125.6,91.5z"/>
			<path class="st1" d="M131.7,93.6h-1v-0.5c-0.2,0.2-0.4,0.4-0.6,0.5c-0.2,0.1-0.5,0.2-0.8,0.2c-0.6,0-1.1-0.2-1.4-0.6
				c-0.3-0.4-0.5-1-0.5-1.7c0-0.7,0.2-1.2,0.5-1.6c0.4-0.4,0.8-0.6,1.4-0.6c0.3,0,0.6,0.1,0.9,0.2c0.2,0.1,0.4,0.4,0.5,0.6v-0.7h1
				V93.6z M130.8,91.5c0-0.4-0.1-0.8-0.3-1c-0.2-0.2-0.5-0.4-0.8-0.4c-0.4,0-0.6,0.1-0.9,0.4c-0.2,0.3-0.3,0.6-0.3,1
				c0,0.4,0.1,0.8,0.3,1c0.2,0.2,0.5,0.4,0.8,0.4c0.3,0,0.6-0.1,0.8-0.4C130.7,92.3,130.8,91.9,130.8,91.5z"/>
			<path class="st1" d="M136,86.7h1v6.9h-1v-0.5c-0.2,0.2-0.4,0.4-0.6,0.5c-0.2,0.1-0.5,0.2-0.8,0.2c-0.6,0-1.1-0.2-1.4-0.6
				c-0.3-0.4-0.5-1-0.5-1.7c0-0.7,0.2-1.2,0.5-1.6c0.3-0.4,0.8-0.6,1.4-0.6c0.3,0,0.6,0.1,0.9,0.2c0.2,0.1,0.4,0.4,0.5,0.6V86.7z
				 M136,91.5c0-0.4-0.1-0.8-0.3-1c-0.2-0.2-0.5-0.4-0.8-0.4c-0.4,0-0.6,0.1-0.8,0.4c-0.2,0.3-0.3,0.6-0.3,1c0,0.4,0.1,0.8,0.3,1
				c0.2,0.2,0.5,0.4,0.8,0.4c0.3,0,0.6-0.1,0.8-0.4C135.9,92.3,136,91.9,136,91.5z"/>
			<path class="st1" d="M143.9,86.7h1v6.9h-1v-0.5c-0.2,0.2-0.4,0.4-0.6,0.5c-0.2,0.1-0.5,0.2-0.8,0.2c-0.6,0-1.1-0.2-1.4-0.6
				c-0.3-0.4-0.5-1-0.5-1.7c0-0.7,0.2-1.2,0.5-1.6c0.3-0.4,0.8-0.6,1.4-0.6c0.3,0,0.6,0.1,0.9,0.2c0.2,0.1,0.4,0.4,0.5,0.6V86.7z
				 M143.9,91.5c0-0.4-0.1-0.8-0.3-1c-0.2-0.2-0.5-0.4-0.8-0.4c-0.4,0-0.6,0.1-0.9,0.4c-0.2,0.3-0.3,0.6-0.3,1c0,0.4,0.1,0.8,0.3,1
				c0.2,0.2,0.5,0.4,0.8,0.4c0.3,0,0.6-0.1,0.8-0.4C143.8,92.3,143.9,91.9,143.9,91.5z"/>
			<path class="st1" d="M150.1,91.7h-3.4c0,0.4,0.1,0.7,0.3,0.9c0.2,0.2,0.5,0.3,0.8,0.3c0.3,0,0.6-0.1,0.8-0.2
				c0.2-0.1,0.4-0.3,0.5-0.6l0.8,0.4c-0.2,0.4-0.5,0.7-0.9,0.9c-0.3,0.2-0.7,0.3-1.2,0.3c-0.7,0-1.2-0.2-1.6-0.6
				c-0.4-0.4-0.6-1-0.6-1.6c0-0.7,0.2-1.2,0.6-1.6c0.4-0.4,0.9-0.6,1.6-0.6c0.7,0,1.2,0.2,1.6,0.6c0.4,0.4,0.6,0.9,0.6,1.6V91.7z
				 M149.1,91c0-0.3-0.2-0.5-0.3-0.7c-0.2-0.2-0.5-0.2-0.8-0.2c-0.3,0-0.6,0.1-0.8,0.2c-0.2,0.2-0.3,0.4-0.4,0.7H149.1z"/>
			<path class="st1" d="M159.1,90.4c0-0.1,0-0.2-0.1-0.4c0-0.2-0.1-0.3-0.1-0.5c0,0.1-0.1,0.3-0.1,0.4c0,0.1-0.1,0.3-0.2,0.5
				l-1.7,3.5l-1.7-3.5c-0.1-0.1-0.1-0.3-0.2-0.4c-0.1-0.1-0.1-0.3-0.1-0.4c0,0.1,0,0.3,0,0.4c0,0.1,0,0.3-0.1,0.5l-0.7,3.2h-1
				l1.5-6.8l1.9,4.1c0,0.1,0.1,0.2,0.1,0.3c0.1,0.2,0.1,0.3,0.2,0.6c0.1-0.2,0.2-0.4,0.3-0.7c0-0.1,0.1-0.1,0.1-0.2l1.9-4.1l1.6,6.8
				h-1L159.1,90.4z"/>
			<path class="st1" d="M165.6,91.7h-3.4c0,0.4,0.1,0.7,0.4,0.9c0.2,0.2,0.5,0.3,0.8,0.3c0.3,0,0.6-0.1,0.8-0.2
				c0.2-0.1,0.4-0.3,0.5-0.6l0.8,0.4c-0.2,0.4-0.5,0.7-0.9,0.9c-0.3,0.2-0.8,0.3-1.2,0.3c-0.7,0-1.2-0.2-1.6-0.6
				c-0.4-0.4-0.6-1-0.6-1.6c0-0.7,0.2-1.2,0.6-1.6c0.4-0.4,0.9-0.6,1.6-0.6c0.7,0,1.2,0.2,1.6,0.6c0.4,0.4,0.6,0.9,0.6,1.6V91.7z
				 M164.6,91c0-0.3-0.2-0.5-0.4-0.7c-0.2-0.2-0.5-0.2-0.8-0.2c-0.3,0-0.6,0.1-0.8,0.2c-0.2,0.2-0.3,0.4-0.4,0.7H164.6z M162.8,88.8
				l0.8-1.2h1l-1.3,1.2H162.8z"/>
			<path class="st1" d="M166.8,93.6h-1.1l1.6-2.3l-1.4-1.9h1.1l0.6,0.9c0.1,0.1,0.1,0.2,0.2,0.3c0,0.1,0.1,0.2,0.1,0.2
				c0-0.1,0.1-0.1,0.1-0.2c0-0.1,0.1-0.2,0.2-0.3l0.6-0.9h1l-1.4,2l1.6,2.2h-1l-0.8-1.1l0,0c-0.1-0.2-0.2-0.4-0.3-0.5
				c-0.1,0.1-0.1,0.2-0.2,0.3c-0.1,0.1-0.1,0.2-0.2,0.3L166.8,93.6z"/>
			<path class="st1" d="M170.5,87.6c0-0.2,0.1-0.3,0.2-0.4c0.1-0.1,0.3-0.2,0.4-0.2c0.2,0,0.3,0.1,0.4,0.2c0.1,0.1,0.2,0.3,0.2,0.4
				c0,0.2-0.1,0.3-0.2,0.4c-0.1,0.1-0.3,0.2-0.4,0.2c-0.2,0-0.3-0.1-0.4-0.2C170.6,87.9,170.5,87.8,170.5,87.6z M170.6,93.6v-4.2h1
				v4.2H170.6z"/>
			<path class="st1" d="M176,90.6c-0.1-0.2-0.3-0.3-0.5-0.4c-0.2-0.1-0.4-0.1-0.6-0.1c-0.4,0-0.7,0.1-0.9,0.4
				c-0.2,0.3-0.4,0.6-0.4,1c0,0.4,0.1,0.8,0.4,1c0.2,0.2,0.6,0.4,1,0.4c0.2,0,0.4,0,0.6-0.1c0.2-0.1,0.3-0.2,0.5-0.4v1.1
				c-0.2,0.1-0.4,0.2-0.6,0.2c-0.2,0.1-0.4,0.1-0.6,0.1c-0.7,0-1.2-0.2-1.6-0.6c-0.4-0.4-0.6-1-0.6-1.6c0-0.7,0.2-1.2,0.6-1.6
				c0.4-0.4,1-0.6,1.7-0.6c0.2,0,0.4,0,0.6,0.1c0.2,0,0.3,0.1,0.5,0.2V90.6z"/>
			<path class="st1" d="M176.6,91.5c0-0.3,0.1-0.6,0.2-0.9c0.1-0.3,0.3-0.5,0.5-0.7c0.2-0.2,0.5-0.4,0.7-0.5
				c0.3-0.1,0.6-0.2,0.9-0.2c0.3,0,0.6,0.1,0.9,0.2c0.3,0.1,0.5,0.3,0.7,0.5c0.2,0.2,0.4,0.5,0.5,0.7c0.1,0.3,0.2,0.6,0.2,0.9
				c0,0.3-0.1,0.6-0.2,0.9c-0.1,0.3-0.3,0.5-0.5,0.7c-0.2,0.2-0.5,0.4-0.8,0.5c-0.3,0.1-0.6,0.2-0.9,0.2c-0.3,0-0.6-0.1-0.9-0.2
				c-0.3-0.1-0.5-0.3-0.7-0.5c-0.2-0.2-0.4-0.5-0.5-0.7C176.7,92.1,176.6,91.8,176.6,91.5z M180.2,91.5c0-0.4-0.1-0.7-0.4-1
				c-0.2-0.3-0.6-0.4-0.9-0.4c-0.4,0-0.7,0.1-0.9,0.4c-0.3,0.3-0.4,0.6-0.4,1c0,0.4,0.1,0.7,0.4,1c0.3,0.3,0.6,0.4,0.9,0.4
				c0.4,0,0.7-0.1,0.9-0.4C180.1,92.2,180.2,91.9,180.2,91.5z"/>
		</g>
		<g>
			<path class="st1" d="M91.4,108.2l0.7-5.5l3.2,4.5l0.6-4.3h0.4l-0.7,5.5l-3.2-4.5l-0.6,4.3H91.4z"/>
			<path class="st1" d="M100.1,104.9l-0.4,3.3h-0.4l0.1-0.5c-0.1,0.2-0.3,0.4-0.5,0.5c-0.2,0.1-0.4,0.2-0.6,0.2
				c-0.4,0-0.7-0.2-1-0.5c-0.3-0.3-0.4-0.7-0.4-1.2c0-0.5,0.2-1,0.5-1.3c0.3-0.4,0.7-0.5,1.2-0.5c0.3,0,0.5,0.1,0.7,0.2
				c0.2,0.1,0.3,0.3,0.4,0.6l0.1-0.7H100.1z M98.3,108c0.3,0,0.6-0.1,0.8-0.4c0.2-0.3,0.3-0.7,0.3-1.1c0-0.4-0.1-0.7-0.3-0.9
				c-0.2-0.2-0.4-0.3-0.7-0.3c-0.3,0-0.6,0.1-0.8,0.4c-0.2,0.3-0.3,0.6-0.3,1.1c0,0.4,0.1,0.7,0.3,0.9C97.8,107.9,98,108,98.3,108z"
				/>
			<path class="st1" d="M104,102.5h0.4l-0.7,5.7h-0.4l0.1-0.5c-0.1,0.2-0.3,0.4-0.5,0.5c-0.2,0.1-0.4,0.2-0.6,0.2
				c-0.4,0-0.7-0.2-1-0.5c-0.3-0.3-0.4-0.7-0.4-1.2c0-0.5,0.2-1,0.5-1.3c0.3-0.4,0.7-0.5,1.2-0.5c0.3,0,0.5,0.1,0.7,0.2
				c0.2,0.1,0.3,0.3,0.4,0.6L104,102.5z M102.3,108c0.3,0,0.6-0.1,0.8-0.4c0.2-0.3,0.3-0.7,0.3-1.1c0-0.4-0.1-0.7-0.3-0.9
				c-0.2-0.2-0.4-0.3-0.7-0.3c-0.3,0-0.6,0.1-0.9,0.4c-0.2,0.3-0.3,0.6-0.3,1.1c0,0.4,0.1,0.7,0.3,0.9
				C101.8,107.9,102,108,102.3,108z"/>
			<path class="st1" d="M108.2,104.9l-0.4,3.3h-0.4l0.1-0.5c-0.1,0.2-0.3,0.4-0.5,0.5c-0.2,0.1-0.4,0.2-0.6,0.2
				c-0.4,0-0.7-0.2-1-0.5c-0.3-0.3-0.4-0.7-0.4-1.2c0-0.5,0.2-1,0.5-1.3c0.3-0.4,0.7-0.5,1.2-0.5c0.3,0,0.5,0.1,0.7,0.2
				c0.2,0.1,0.3,0.3,0.4,0.6l0.1-0.7H108.2z M106.3,108c0.3,0,0.6-0.1,0.8-0.4c0.2-0.3,0.3-0.7,0.3-1.1c0-0.4-0.1-0.7-0.3-0.9
				c-0.2-0.2-0.4-0.3-0.7-0.3c-0.3,0-0.6,0.1-0.9,0.4c-0.2,0.3-0.3,0.6-0.3,1.1c0,0.4,0.1,0.7,0.3,0.9
				C105.8,107.9,106,108,106.3,108z"/>
			<path class="st1" d="M111,108.2l0.7-5.7h0.4l-0.4,3c0.2-0.2,0.3-0.4,0.5-0.5c0.2-0.1,0.4-0.2,0.7-0.2c0.3,0,0.6,0.1,0.7,0.3
				c0.2,0.2,0.3,0.4,0.3,0.7c0,0.1,0,0.1,0,0.2c0,0.1,0,0.1,0,0.2l-0.3,2.1h-0.4l0.3-2c0-0.1,0-0.1,0-0.2c0-0.1,0-0.1,0-0.2
				c0-0.2-0.1-0.4-0.2-0.5c-0.1-0.1-0.3-0.2-0.6-0.2c-0.3,0-0.6,0.1-0.8,0.3c-0.2,0.2-0.3,0.6-0.4,1l-0.2,1.6H111z"/>
			<path class="st1" d="M115.3,104.9h0.4l-0.2,1.4c0,0.3-0.1,0.5-0.1,0.6c0,0.1,0,0.2,0,0.3c0,0.2,0.1,0.4,0.2,0.5
				c0.1,0.1,0.3,0.2,0.6,0.2c0.3,0,0.6-0.1,0.7-0.3c0.2-0.2,0.3-0.6,0.3-1.1l0.2-1.6h0.4l-0.2,1.6c-0.1,0.4-0.1,0.7-0.2,0.9
				c-0.1,0.2-0.2,0.3-0.3,0.5c-0.1,0.1-0.3,0.2-0.5,0.3c-0.2,0.1-0.4,0.1-0.6,0.1c-0.4,0-0.7-0.1-0.9-0.3c-0.2-0.2-0.3-0.4-0.3-0.8
				c0-0.1,0-0.2,0-0.3c0-0.1,0-0.3,0.1-0.5L115.3,104.9z"/>
			<path class="st1" d="M120.9,108.2l0.3-2.1c0-0.1,0-0.1,0-0.1c0-0.1,0-0.1,0-0.1c0-0.2-0.1-0.4-0.2-0.5c-0.1-0.1-0.3-0.2-0.5-0.2
				c-0.3,0-0.5,0.1-0.7,0.3c-0.2,0.2-0.3,0.6-0.3,1l-0.2,1.6h-0.4l0.4-3.3h0.4l-0.1,0.5c0.2-0.2,0.3-0.4,0.5-0.5
				c0.2-0.1,0.4-0.2,0.6-0.2c0.2,0,0.4,0.1,0.6,0.2c0.2,0.1,0.3,0.3,0.3,0.5c0.2-0.2,0.3-0.4,0.5-0.5c0.2-0.1,0.4-0.2,0.6-0.2
				c0.3,0,0.5,0.1,0.7,0.3c0.2,0.2,0.2,0.4,0.2,0.7c0,0.1,0,0.1,0,0.2c0,0.1,0,0.1,0,0.2l-0.3,2.1H123l0.3-2.1c0,0,0,0,0-0.1
				c0-0.1,0-0.2,0-0.2c0-0.2-0.1-0.4-0.2-0.5c-0.1-0.1-0.3-0.2-0.5-0.2c-0.3,0-0.5,0.1-0.7,0.3c-0.2,0.2-0.3,0.6-0.3,1l-0.2,1.6
				H120.9z"/>
			<path class="st1" d="M127.8,104.9l-0.4,3.3h-0.4l0.1-0.5c-0.1,0.2-0.3,0.4-0.5,0.5c-0.2,0.1-0.4,0.2-0.6,0.2
				c-0.4,0-0.7-0.2-1-0.5c-0.3-0.3-0.4-0.7-0.4-1.2c0-0.5,0.2-1,0.5-1.3c0.3-0.4,0.7-0.5,1.2-0.5c0.3,0,0.5,0.1,0.7,0.2
				c0.2,0.1,0.3,0.3,0.4,0.6l0.1-0.7H127.8z M126,108c0.3,0,0.6-0.1,0.8-0.4c0.2-0.3,0.3-0.7,0.3-1.1c0-0.4-0.1-0.7-0.3-0.9
				c-0.2-0.2-0.4-0.3-0.7-0.3c-0.3,0-0.6,0.1-0.9,0.4c-0.2,0.3-0.3,0.6-0.3,1.1c0,0.4,0.1,0.7,0.3,0.9
				C125.4,107.9,125.7,108,126,108z"/>
			<path class="st1" d="M128.6,108.2l0.4-3.3h0.4l-0.1,0.5c0.2-0.2,0.3-0.4,0.5-0.5c0.2-0.1,0.4-0.2,0.7-0.2c0.3,0,0.6,0.1,0.7,0.3
				c0.2,0.2,0.3,0.4,0.3,0.7c0,0.1,0,0.1,0,0.2c0,0.1,0,0.1,0,0.2l-0.3,2.1h-0.4l0.3-2c0-0.1,0-0.1,0-0.2c0-0.1,0-0.1,0-0.2
				c0-0.2-0.1-0.4-0.2-0.5c-0.1-0.1-0.3-0.2-0.6-0.2c-0.3,0-0.6,0.1-0.8,0.3c-0.2,0.2-0.3,0.6-0.4,1l-0.2,1.6H128.6z"/>
			<path class="st1" d="M132.4,106.7c0-0.5,0.2-1,0.5-1.3c0.4-0.4,0.8-0.5,1.3-0.5c0.5,0,0.9,0.2,1.2,0.5c0.3,0.3,0.5,0.7,0.5,1.2
				c0,0.6-0.2,1-0.5,1.4c-0.3,0.4-0.8,0.5-1.3,0.5c-0.5,0-0.9-0.1-1.2-0.4C132.5,107.6,132.4,107.2,132.4,106.7z M134.2,105.2
				c-0.4,0-0.7,0.1-1,0.4c-0.3,0.3-0.4,0.6-0.4,1c0,0.4,0.1,0.7,0.3,0.9c0.2,0.2,0.5,0.3,0.9,0.3c0.4,0,0.7-0.1,1-0.4
				c0.3-0.3,0.4-0.6,0.4-1c0-0.4-0.1-0.7-0.3-0.9C134.8,105.3,134.5,105.2,134.2,105.2z"/>
			<path class="st1" d="M140.7,108.2l0.3-2.1c0-0.1,0-0.1,0-0.1c0-0.1,0-0.1,0-0.1c0-0.2-0.1-0.4-0.2-0.5c-0.1-0.1-0.3-0.2-0.5-0.2
				c-0.3,0-0.5,0.1-0.7,0.3c-0.2,0.2-0.3,0.6-0.3,1l-0.2,1.6h-0.4l0.4-3.3h0.4l-0.1,0.5c0.2-0.2,0.3-0.4,0.5-0.5
				c0.2-0.1,0.4-0.2,0.6-0.2c0.2,0,0.4,0.1,0.6,0.2c0.2,0.1,0.3,0.3,0.3,0.5c0.2-0.2,0.3-0.4,0.5-0.5c0.2-0.1,0.4-0.2,0.6-0.2
				c0.3,0,0.5,0.1,0.7,0.3c0.2,0.2,0.3,0.4,0.3,0.7c0,0.1,0,0.1,0,0.2c0,0.1,0,0.1,0,0.2l-0.3,2.1h-0.4l0.3-2.1c0,0,0,0,0-0.1
				c0-0.1,0-0.2,0-0.2c0-0.2-0.1-0.4-0.2-0.5c-0.1-0.1-0.3-0.2-0.5-0.2c-0.3,0-0.5,0.1-0.7,0.3c-0.2,0.2-0.3,0.6-0.3,1l-0.2,1.6
				H140.7z"/>
			<path class="st1" d="M147.6,106.7h-2.7v0.1c0,0.4,0.1,0.7,0.3,0.9c0.2,0.2,0.5,0.3,0.8,0.3c0.2,0,0.4,0,0.6-0.2
				c0.2-0.1,0.3-0.2,0.5-0.5l0.3,0.3c-0.2,0.2-0.4,0.4-0.6,0.5c-0.2,0.1-0.5,0.2-0.8,0.2c-0.5,0-0.9-0.1-1.2-0.4
				c-0.3-0.3-0.4-0.7-0.4-1.1c0-0.6,0.2-1,0.5-1.4c0.3-0.4,0.8-0.5,1.3-0.5c0.5,0,0.8,0.1,1.1,0.4c0.2,0.3,0.4,0.6,0.4,1.1
				c0,0.1,0,0.1,0,0.2C147.6,106.5,147.6,106.6,147.6,106.7z M147.1,106.3c0-0.3-0.1-0.6-0.2-0.8c-0.2-0.2-0.4-0.3-0.7-0.3
				c-0.3,0-0.6,0.1-0.8,0.3c-0.2,0.2-0.4,0.4-0.5,0.8H147.1z"/>
			<path class="st1" d="M153.5,106.7h-2.7v0.1c0,0.4,0.1,0.7,0.3,0.9c0.2,0.2,0.5,0.3,0.8,0.3c0.2,0,0.4,0,0.6-0.2
				c0.2-0.1,0.3-0.2,0.5-0.5l0.3,0.3c-0.2,0.2-0.4,0.4-0.6,0.5c-0.2,0.1-0.5,0.2-0.8,0.2c-0.5,0-0.9-0.1-1.2-0.4
				c-0.3-0.3-0.4-0.7-0.4-1.1c0-0.6,0.2-1,0.5-1.4c0.3-0.4,0.8-0.5,1.3-0.5c0.5,0,0.8,0.1,1.1,0.4c0.3,0.3,0.4,0.6,0.4,1.1
				c0,0.1,0,0.1,0,0.2C153.5,106.5,153.5,106.6,153.5,106.7z M153.1,106.3c0-0.3-0.1-0.6-0.3-0.8c-0.2-0.2-0.4-0.3-0.7-0.3
				c-0.3,0-0.6,0.1-0.8,0.3c-0.2,0.2-0.4,0.4-0.5,0.8H153.1z"/>
			<path class="st1" d="M154.2,107.4c0.1,0.2,0.3,0.3,0.5,0.4c0.2,0.1,0.3,0.1,0.6,0.1c0.2,0,0.4-0.1,0.5-0.2
				c0.1-0.1,0.2-0.3,0.2-0.4c0-0.1,0-0.3-0.1-0.3c-0.1-0.1-0.3-0.2-0.5-0.3c-0.4-0.2-0.6-0.3-0.7-0.4c-0.1-0.1-0.2-0.3-0.2-0.5
				c0-0.3,0.1-0.5,0.3-0.7c0.2-0.2,0.5-0.3,0.8-0.3c0.2,0,0.4,0,0.5,0.1c0.2,0.1,0.3,0.2,0.5,0.4l-0.3,0.3c-0.1-0.1-0.3-0.2-0.4-0.3
				c-0.1-0.1-0.3-0.1-0.4-0.1c-0.2,0-0.3,0-0.5,0.2c-0.1,0.1-0.2,0.3-0.2,0.4c0,0.2,0.2,0.4,0.6,0.6c0.1,0,0.2,0.1,0.2,0.1
				c0.3,0.1,0.5,0.3,0.6,0.4c0.1,0.1,0.2,0.3,0.2,0.5c0,0.3-0.1,0.6-0.3,0.7c-0.2,0.2-0.5,0.3-0.9,0.3c-0.3,0-0.5-0.1-0.7-0.2
				c-0.2-0.1-0.4-0.3-0.6-0.5L154.2,107.4z"/>
			<path class="st1" d="M162.5,104.9l-0.4,3.3h-0.4l0.1-0.5c-0.1,0.2-0.3,0.4-0.5,0.5c-0.2,0.1-0.4,0.2-0.6,0.2
				c-0.4,0-0.7-0.2-1-0.5c-0.3-0.3-0.4-0.7-0.4-1.2c0-0.5,0.2-1,0.5-1.3c0.3-0.4,0.7-0.5,1.2-0.5c0.3,0,0.5,0.1,0.7,0.2
				c0.2,0.1,0.3,0.3,0.4,0.6l0.1-0.7H162.5z M160.7,108c0.3,0,0.6-0.1,0.8-0.4c0.2-0.3,0.3-0.7,0.3-1.1c0-0.4-0.1-0.7-0.3-0.9
				c-0.2-0.2-0.4-0.3-0.7-0.3c-0.3,0-0.6,0.1-0.9,0.4c-0.2,0.3-0.3,0.6-0.3,1.1c0,0.4,0.1,0.7,0.3,0.9
				C160.1,107.9,160.4,108,160.7,108z"/>
			<path class="st1" d="M163.1,109.9l0.6-4.9h0.4l-0.6,4.9H163.1z M163.8,103.8c0-0.1,0-0.2,0.1-0.2c0.1-0.1,0.1-0.1,0.2-0.1
				c0.1,0,0.2,0,0.2,0.1c0.1,0.1,0.1,0.1,0.1,0.2c0,0.1,0,0.2-0.1,0.2c-0.1,0.1-0.1,0.1-0.2,0.1c-0.1,0-0.2,0-0.2-0.1
				C163.8,103.9,163.8,103.8,163.8,103.8z"/>
			<path class="st1" d="M168.1,106.7h-2.7v0.1c0,0.4,0.1,0.7,0.3,0.9c0.2,0.2,0.5,0.3,0.8,0.3c0.2,0,0.4,0,0.6-0.2
				c0.2-0.1,0.3-0.2,0.5-0.5l0.3,0.3c-0.2,0.2-0.4,0.4-0.6,0.5c-0.2,0.1-0.5,0.2-0.8,0.2c-0.5,0-0.9-0.1-1.2-0.4
				c-0.3-0.3-0.4-0.7-0.4-1.1c0-0.6,0.2-1,0.5-1.4c0.3-0.4,0.8-0.5,1.3-0.5c0.5,0,0.8,0.1,1.1,0.4c0.3,0.3,0.4,0.6,0.4,1.1
				c0,0.1,0,0.1,0,0.2C168.1,106.5,168.1,106.6,168.1,106.7z M167.7,106.3c0-0.3-0.1-0.6-0.3-0.8c-0.2-0.2-0.4-0.3-0.7-0.3
				c-0.3,0-0.6,0.1-0.8,0.3c-0.2,0.2-0.4,0.4-0.5,0.8H167.7z"/>
			<path class="st1" d="M168.8,108.2l0.4-3.3h0.4l-0.1,0.5c0.2-0.2,0.4-0.4,0.5-0.5c0.2-0.1,0.4-0.2,0.7-0.2c0.3,0,0.6,0.1,0.7,0.3
				c0.2,0.2,0.3,0.4,0.3,0.7c0,0.1,0,0.1,0,0.2c0,0.1,0,0.1,0,0.2l-0.3,2.1h-0.4l0.3-2c0-0.1,0-0.1,0-0.2c0-0.1,0-0.1,0-0.2
				c0-0.2-0.1-0.4-0.2-0.5c-0.1-0.1-0.3-0.2-0.6-0.2c-0.3,0-0.6,0.1-0.8,0.3c-0.2,0.2-0.3,0.6-0.4,1l-0.2,1.6H168.8z"/>
			<path class="st1" d="M172.6,106.7c0-0.5,0.2-1,0.5-1.3c0.3-0.4,0.8-0.5,1.3-0.5c0.5,0,0.9,0.2,1.2,0.5c0.3,0.3,0.5,0.7,0.5,1.2
				c0,0.6-0.2,1-0.5,1.4c-0.4,0.4-0.8,0.5-1.3,0.5c-0.5,0-0.9-0.1-1.2-0.4C172.7,107.6,172.6,107.2,172.6,106.7z M174.4,105.2
				c-0.4,0-0.7,0.1-1,0.4c-0.3,0.3-0.4,0.6-0.4,1c0,0.4,0.1,0.7,0.3,0.9c0.2,0.2,0.5,0.3,0.9,0.3c0.4,0,0.7-0.1,1-0.4
				c0.3-0.3,0.4-0.6,0.4-1c0-0.4-0.1-0.7-0.3-0.9C175.1,105.3,174.8,105.2,174.4,105.2z"/>
		</g>
		<g>
			<path class="st1" d="M84.8,75.7h1v3.9c0,0.6,0.1,1,0.4,1.3c0.3,0.3,0.7,0.4,1.2,0.4c0.5,0,0.9-0.1,1.2-0.4
				c0.3-0.3,0.4-0.7,0.4-1.3v-3.9h1.1v4c0,0.9-0.2,1.5-0.7,2c-0.4,0.4-1.1,0.7-2,0.7c-0.9,0-1.6-0.2-2-0.7c-0.4-0.4-0.7-1.1-0.7-2
				V75.7z"/>
			<path class="st1" d="M91.6,82.2V78h0.9v0.7c0.2-0.3,0.4-0.5,0.7-0.6c0.3-0.1,0.6-0.2,0.9-0.2c0.3,0,0.6,0,0.8,0.2
				c0.2,0.1,0.4,0.2,0.5,0.4c0.1,0.1,0.1,0.3,0.2,0.4c0,0.1,0,0.4,0,0.8v2.5h-1V80c0-0.6-0.1-0.9-0.2-1.1c-0.1-0.2-0.4-0.3-0.7-0.3
				c-0.2,0-0.4,0-0.6,0.1c-0.2,0.1-0.3,0.2-0.4,0.3c-0.1,0.1-0.1,0.2-0.1,0.4c0,0.2,0,0.4,0,0.8v1.9H91.6z"/>
			<path class="st1" d="M96.9,76.1c0-0.2,0.1-0.3,0.2-0.4c0.1-0.1,0.3-0.2,0.4-0.2c0.2,0,0.3,0.1,0.4,0.2c0.1,0.1,0.2,0.3,0.2,0.4
				c0,0.2-0.1,0.3-0.2,0.4c-0.1,0.1-0.3,0.2-0.4,0.2c-0.2,0-0.3-0.1-0.4-0.2C97,76.5,96.9,76.3,96.9,76.1z M97,82.2V78h1v4.2H97z"/>
			<path class="st1" d="M101,82.4L98.8,78h1l0.9,2.1c0,0.1,0.1,0.2,0.1,0.3c0,0.1,0.1,0.3,0.1,0.5c0-0.1,0.1-0.2,0.1-0.4
				c0-0.1,0.1-0.2,0.1-0.4l0.9-2.1h1L101,82.4z"/>
			<path class="st1" d="M107.9,80.2h-3.4c0,0.4,0.1,0.7,0.3,0.9c0.2,0.2,0.5,0.3,0.8,0.3c0.3,0,0.6-0.1,0.8-0.2
				c0.2-0.1,0.4-0.3,0.5-0.6l0.8,0.5c-0.2,0.4-0.5,0.7-0.9,1c-0.3,0.2-0.8,0.3-1.2,0.3c-0.7,0-1.2-0.2-1.6-0.6
				c-0.4-0.4-0.6-1-0.6-1.6c0-0.7,0.2-1.2,0.6-1.6c0.4-0.4,0.9-0.6,1.6-0.6c0.7,0,1.2,0.2,1.6,0.6c0.4,0.4,0.6,0.9,0.6,1.6V80.2z
				 M106.9,79.6c0-0.3-0.2-0.5-0.3-0.7c-0.2-0.2-0.5-0.2-0.8-0.2c-0.3,0-0.6,0.1-0.8,0.2c-0.2,0.2-0.3,0.4-0.4,0.7H106.9z"/>
			<path class="st1" d="M110,78.6c0.1-0.3,0.2-0.5,0.4-0.6c0.2-0.1,0.4-0.2,0.6-0.2c0.1,0,0.3,0,0.4,0c0.1,0,0.3,0.1,0.4,0.1
				l-0.3,0.8c-0.1-0.1-0.2-0.1-0.3-0.1c-0.1,0-0.2,0-0.3,0c-0.3,0-0.5,0.1-0.7,0.4c-0.1,0.3-0.2,0.7-0.2,1.3v1.8h-1v-4.2h1V78.6z"/>
			<path class="st1" d="M112,81.4l0.8-0.4c0.1,0.2,0.2,0.4,0.3,0.5c0.2,0.1,0.4,0.2,0.6,0.2c0.2,0,0.4-0.1,0.5-0.2
				c0.1-0.1,0.2-0.2,0.2-0.4c0-0.2-0.2-0.4-0.7-0.6c-0.1-0.1-0.3-0.1-0.3-0.1c-0.5-0.2-0.8-0.4-0.9-0.6c-0.2-0.2-0.3-0.4-0.3-0.7
				c0-0.4,0.1-0.7,0.4-0.9c0.3-0.2,0.7-0.3,1.2-0.3c0.3,0,0.6,0.1,0.8,0.2c0.2,0.1,0.4,0.3,0.5,0.5l-0.7,0.5c0-0.1-0.1-0.2-0.3-0.3
				c-0.1-0.1-0.3-0.1-0.4-0.1c-0.2,0-0.3,0-0.4,0.1c-0.1,0.1-0.2,0.2-0.2,0.3c0,0.2,0.2,0.4,0.7,0.6c0.2,0.1,0.3,0.1,0.4,0.1
				c0.4,0.2,0.7,0.3,0.8,0.5c0.2,0.2,0.2,0.4,0.2,0.7c0,0.4-0.1,0.8-0.5,1c-0.3,0.2-0.7,0.4-1.3,0.4c-0.4,0-0.8-0.1-1-0.2
				C112.4,81.9,112.1,81.7,112,81.4z"/>
			<path class="st1" d="M116.4,76.1c0-0.2,0.1-0.3,0.2-0.4c0.1-0.1,0.3-0.2,0.4-0.2c0.2,0,0.3,0.1,0.4,0.2c0.1,0.1,0.2,0.3,0.2,0.4
				c0,0.2-0.1,0.3-0.2,0.4c-0.1,0.1-0.3,0.2-0.4,0.2c-0.2,0-0.3-0.1-0.4-0.2C116.4,76.5,116.4,76.3,116.4,76.1z M116.5,82.2V78h1
				v4.2H116.5z"/>
			<path class="st1" d="M121.9,75.3h1v6.9h-1v-0.5c-0.2,0.2-0.4,0.4-0.6,0.5c-0.2,0.1-0.5,0.2-0.8,0.2c-0.6,0-1.1-0.2-1.4-0.6
				c-0.3-0.4-0.5-1-0.5-1.7c0-0.7,0.2-1.2,0.5-1.6c0.4-0.4,0.8-0.6,1.4-0.6c0.3,0,0.6,0.1,0.9,0.2c0.2,0.1,0.4,0.3,0.5,0.6V75.3z
				 M121.9,80c0-0.4-0.1-0.8-0.3-1c-0.2-0.2-0.5-0.4-0.8-0.4c-0.4,0-0.6,0.1-0.8,0.4c-0.2,0.2-0.3,0.6-0.3,1c0,0.4,0.1,0.8,0.3,1
				c0.2,0.2,0.5,0.4,0.8,0.4c0.4,0,0.6-0.1,0.8-0.4C121.8,80.8,121.9,80.5,121.9,80z"/>
			<path class="st1" d="M128.3,82.2h-1v-0.5c-0.2,0.2-0.4,0.4-0.6,0.5c-0.2,0.1-0.5,0.2-0.8,0.2c-0.6,0-1.1-0.2-1.4-0.6
				c-0.3-0.4-0.5-1-0.5-1.7c0-0.7,0.2-1.2,0.5-1.6c0.4-0.4,0.8-0.6,1.4-0.6c0.3,0,0.6,0.1,0.9,0.2c0.2,0.1,0.4,0.3,0.5,0.6V78h1
				V82.2z M127.3,80c0-0.4-0.1-0.8-0.3-1c-0.2-0.2-0.5-0.4-0.8-0.4c-0.4,0-0.6,0.1-0.9,0.4c-0.2,0.2-0.3,0.6-0.3,1
				c0,0.4,0.1,0.8,0.3,1c0.2,0.2,0.5,0.4,0.8,0.4c0.3,0,0.6-0.1,0.8-0.4C127.2,80.8,127.3,80.5,127.3,80z"/>
			<path class="st1" d="M132.7,75.3h1v6.9h-1v-0.5c-0.2,0.2-0.4,0.4-0.6,0.5c-0.2,0.1-0.5,0.2-0.8,0.2c-0.6,0-1.1-0.2-1.4-0.6
				c-0.3-0.4-0.5-1-0.5-1.7c0-0.7,0.2-1.2,0.5-1.6c0.3-0.4,0.8-0.6,1.4-0.6c0.3,0,0.6,0.1,0.9,0.2c0.2,0.1,0.4,0.3,0.5,0.6V75.3z
				 M132.7,80c0-0.4-0.1-0.8-0.3-1c-0.2-0.2-0.5-0.4-0.8-0.4c-0.4,0-0.6,0.1-0.9,0.4c-0.2,0.2-0.3,0.6-0.3,1c0,0.4,0.1,0.8,0.3,1
				c0.2,0.2,0.5,0.4,0.8,0.4c0.3,0,0.6-0.1,0.8-0.4C132.6,80.8,132.7,80.5,132.7,80z"/>
			<path class="st1" d="M142.3,82.2l-0.7-1.7H139l-0.8,1.7h-1.1l3.1-6.7l3.1,6.7H142.3z M139.4,79.6h1.8l-0.7-1.5
				c0-0.1-0.1-0.2-0.1-0.3c0-0.1-0.1-0.3-0.1-0.4c0,0.1-0.1,0.3-0.1,0.4c0,0.1-0.1,0.2-0.1,0.3L139.4,79.6z"/>
			<path class="st1" d="M145,78v2.4c0,0.4,0.1,0.7,0.3,0.9c0.2,0.2,0.4,0.3,0.8,0.3c0.4,0,0.6-0.1,0.8-0.3c0.2-0.2,0.3-0.5,0.3-0.9
				V78h1V80c0,0.8-0.2,1.4-0.5,1.8c-0.3,0.4-0.8,0.6-1.5,0.6c-0.7,0-1.2-0.2-1.6-0.6c-0.3-0.4-0.5-0.9-0.5-1.8V78H145z"/>
			<path class="st1" d="M149.7,82.2v-3.4H149V78h0.7v-1.6h1V78h0.7v0.8h-0.7v3.4H149.7z"/>
			<path class="st1" d="M152,80.1c0-0.3,0.1-0.6,0.2-0.9c0.1-0.3,0.3-0.5,0.5-0.7c0.2-0.2,0.5-0.4,0.7-0.5c0.3-0.1,0.6-0.2,0.9-0.2
				c0.3,0,0.6,0.1,0.9,0.2c0.3,0.1,0.5,0.3,0.7,0.5c0.2,0.2,0.4,0.4,0.5,0.7c0.1,0.3,0.2,0.6,0.2,0.9c0,0.3-0.1,0.6-0.2,0.9
				c-0.1,0.3-0.3,0.5-0.5,0.7c-0.2,0.2-0.5,0.4-0.8,0.5c-0.3,0.1-0.6,0.2-0.9,0.2c-0.3,0-0.6-0.1-0.9-0.2c-0.3-0.1-0.5-0.3-0.7-0.5
				c-0.2-0.2-0.4-0.5-0.5-0.7C152.1,80.7,152,80.4,152,80.1z M155.6,80.1c0-0.4-0.1-0.7-0.4-1c-0.2-0.3-0.6-0.4-0.9-0.4
				c-0.4,0-0.7,0.1-0.9,0.4c-0.3,0.3-0.4,0.6-0.4,1c0,0.4,0.1,0.7,0.4,1c0.2,0.3,0.6,0.4,0.9,0.4c0.4,0,0.7-0.1,0.9-0.4
				C155.5,80.8,155.6,80.5,155.6,80.1z M153.7,77.3l0.8-1.2h1l-1.3,1.2H153.7z"/>
			<path class="st1" d="M157.8,82.2V78h0.9v0.7c0.2-0.3,0.4-0.5,0.7-0.6c0.3-0.1,0.6-0.2,0.9-0.2c0.3,0,0.6,0,0.8,0.2
				c0.2,0.1,0.4,0.2,0.5,0.4c0.1,0.1,0.1,0.3,0.2,0.4c0,0.1,0,0.4,0,0.8v2.5h-1V80c0-0.6-0.1-0.9-0.2-1.1c-0.1-0.2-0.4-0.3-0.7-0.3
				c-0.2,0-0.4,0-0.6,0.1c-0.2,0.1-0.3,0.2-0.4,0.3c-0.1,0.1-0.1,0.2-0.2,0.4c0,0.2,0,0.4,0,0.8v1.9H157.8z"/>
			<path class="st1" d="M162.9,80.1c0-0.3,0.1-0.6,0.2-0.9c0.1-0.3,0.3-0.5,0.5-0.7c0.2-0.2,0.5-0.4,0.7-0.5
				c0.3-0.1,0.6-0.2,0.9-0.2c0.3,0,0.6,0.1,0.9,0.2c0.3,0.1,0.5,0.3,0.8,0.5c0.2,0.2,0.4,0.4,0.5,0.7c0.1,0.3,0.2,0.6,0.2,0.9
				c0,0.3-0.1,0.6-0.2,0.9c-0.1,0.3-0.3,0.5-0.5,0.7c-0.2,0.2-0.5,0.4-0.8,0.5c-0.3,0.1-0.6,0.2-0.9,0.2c-0.3,0-0.6-0.1-0.9-0.2
				c-0.3-0.1-0.5-0.3-0.7-0.5c-0.2-0.2-0.4-0.5-0.5-0.7C162.9,80.7,162.9,80.4,162.9,80.1z M166.5,80.1c0-0.4-0.1-0.7-0.4-1
				c-0.2-0.3-0.6-0.4-0.9-0.4c-0.4,0-0.7,0.1-0.9,0.4c-0.3,0.3-0.4,0.6-0.4,1c0,0.4,0.1,0.7,0.4,1c0.3,0.3,0.6,0.4,0.9,0.4
				c0.4,0,0.7-0.1,0.9-0.4C166.4,80.8,166.5,80.5,166.5,80.1z"/>
			<path class="st1" d="M169.6,82.2h-1V78h0.9v0.7c0.2-0.3,0.4-0.5,0.6-0.6c0.2-0.1,0.5-0.2,0.9-0.2c0.3,0,0.6,0.1,0.8,0.2
				c0.2,0.1,0.4,0.4,0.5,0.6c0.2-0.3,0.5-0.5,0.7-0.6c0.3-0.1,0.5-0.2,0.9-0.2c0.3,0,0.5,0.1,0.7,0.2c0.2,0.1,0.4,0.2,0.5,0.4
				c0.1,0.1,0.1,0.2,0.1,0.3c0,0.1,0,0.3,0,0.6v0.3v2.5h-1V80c0-0.6-0.1-0.9-0.2-1.1c-0.1-0.2-0.3-0.3-0.6-0.3
				c-0.4,0-0.6,0.1-0.8,0.4c-0.2,0.2-0.2,0.7-0.2,1.3v1.9h-1V80c0-0.5-0.1-0.9-0.2-1.1c-0.1-0.2-0.3-0.3-0.6-0.3
				c-0.2,0-0.4,0-0.5,0.1c-0.2,0.1-0.3,0.2-0.4,0.4c-0.1,0.1-0.1,0.2-0.1,0.4c0,0.1,0,0.4,0,0.8V82.2z"/>
			<path class="st1" d="M180.6,82.2h-1v-0.5c-0.2,0.2-0.4,0.4-0.6,0.5c-0.2,0.1-0.5,0.2-0.8,0.2c-0.6,0-1.1-0.2-1.4-0.6
				c-0.3-0.4-0.5-1-0.5-1.7c0-0.7,0.2-1.2,0.5-1.6c0.4-0.4,0.8-0.6,1.4-0.6c0.3,0,0.6,0.1,0.9,0.2c0.2,0.1,0.4,0.3,0.5,0.6V78h1
				V82.2z M179.7,80c0-0.4-0.1-0.8-0.3-1c-0.2-0.2-0.5-0.4-0.8-0.4c-0.4,0-0.7,0.1-0.9,0.4c-0.2,0.2-0.3,0.6-0.3,1
				c0,0.4,0.1,0.8,0.3,1c0.2,0.2,0.5,0.4,0.9,0.4c0.3,0,0.6-0.1,0.8-0.4C179.6,80.8,179.7,80.5,179.7,80z"/>
		</g>
		<rect x="84.8" y="98.5" class="st1" width="97.1" height="0.5"/>
	</g>
</g>
</svg>
