<?xml version="1.0" encoding="utf-8"?>
<!-- Generator: Adobe Illustrator 23.1.0, SVG Export Plug-In . SVG Version: 6.00 Build 0)  -->
<svg version="1.1" id="Capa_1" xmlns="http://www.w3.org/2000/svg" xmlns:xlink="http://www.w3.org/1999/xlink" x="0px" y="0px"
	 viewBox="0 0 266 155" style="enable-background:new 0 0 266 155;" xml:space="preserve">
<style type="text/css">
	.st0{fill:#347B98;}
	.st1{clip-path:url(#SVGID_2_);}
	.st2{fill:#1D1D1B;}
</style>
<g>
	<rect x="70.8" y="14" class="st0" width="124.4" height="3.3"/>
	<rect x="70.8" y="137.7" class="st0" width="124.4" height="3.3"/>
	<g>
		<g>
			<defs>
				<rect id="SVGID_1_" x="73.9" y="66.7" width="118.1" height="21.5"/>
			</defs>
			<clipPath id="SVGID_2_">
				<use xlink:href="#SVGID_1_"  style="overflow:visible;"/>
			</clipPath>
			<g class="st1">
				<path class="st2" d="M87.8,68.6l0.9-1.8h0.9l0.3,7.4h-1.2c-0.4-2.1-1-3.7-2-4.8c-1-1-2.1-1.6-3.4-1.6c-1.4,0-2.6,0.7-3.5,2
					c-0.9,1.3-1.4,3.4-1.4,6.3c0,3,0.5,5.3,1.5,6.8c0.8,1.2,2,1.7,3.6,1.7c1.6,0,2.9-0.6,4-1.7c0.8-0.8,1.3-2.1,1.6-3.7h1.1
					c-0.3,2.1-1.1,3.8-2.4,5c-1.3,1.2-3,1.8-5,1.8c-2.5,0-4.7-0.9-6.4-2.7c-1.7-1.8-2.6-4.1-2.6-6.9c0-3.1,1-5.6,3-7.4
					c1.7-1.6,3.7-2.4,5.9-2.4c0.9,0,1.7,0.1,2.5,0.4C86.1,67.4,86.9,67.9,87.8,68.6z"/>
				<path class="st2" d="M102.3,66.7l6.9,16.6c0.2,0.5,0.4,0.8,0.7,1c0.2,0.2,0.5,0.3,0.9,0.3h0.7v1.2h-8.7v-1.2h0.8
					c0.6,0,1.1-0.1,1.3-0.2c0.2-0.1,0.4-0.3,0.4-0.6c0-0.2-0.1-0.4-0.2-0.6l-1.4-3.4h-6.9l-0.7,1.6c-0.3,0.7-0.4,1.1-0.4,1.5
					c0,0.5,0.2,1,0.6,1.3c0.4,0.3,0.9,0.5,1.6,0.5h0.6v1.2h-7v-1.2h0.4c0.5,0,0.8-0.1,1.2-0.4c0.5-0.4,0.9-0.9,1.1-1.5l6.6-15.8
					H102.3z M100.2,71.4l-3,7h5.9L100.2,71.4z"/>
				<path class="st2" d="M112.1,67.2h7.4l4.2,12.5l4.2-12.5h7.6v1.2h-1.7c-0.4,0-0.7,0.1-0.8,0.2c-0.2,0.2-0.2,0.4-0.2,0.8v14.1
					c0,0.4,0.1,0.6,0.3,0.7c0.3,0.2,0.6,0.3,1,0.3h1.5v1.2h-9.4v-1.2h1.8c0.3,0,0.6-0.1,0.7-0.3c0.2-0.2,0.3-0.4,0.3-0.8V68.4
					L123,85.7h-1.1l-5.9-17.5v13.5c0,0.8,0.2,1.4,0.7,1.9c0.5,0.5,1.2,0.8,2.1,0.9v1.2h-6.9v-1.2c0.9-0.1,1.5-0.4,2-0.9
					c0.5-0.5,0.7-1.2,0.7-2v-12c0-0.5-0.1-0.8-0.3-1c-0.2-0.2-0.5-0.3-1-0.3h-1.5V67.2z"/>
			</g>
			<g class="st1">
				<path d="M146.2,78.5c0.2-0.2,0.2-0.5,0.2-1c0-1-0.2-1.7-0.7-2.2c-0.4-0.5-1-0.8-1.7-0.8c-0.8,0-1.4,0.4-1.9,1.1
					c-0.4,0.7-0.7,1.8-0.7,3.2h3.9C145.8,78.8,146.1,78.7,146.2,78.5z"/>
				<path d="M143.9,71.2c-4.7,0-8.5,3.8-8.5,8.5s3.8,8.5,8.5,8.5c4.7,0,8.5-3.8,8.5-8.5S148.6,71.2,143.9,71.2z M147.5,85.2
					c-0.9,0.5-2,0.8-3.3,0.8c-1.9,0-3.5-0.6-4.7-1.8c-1.2-1.2-1.8-2.7-1.8-4.5c0-1.8,0.6-3.4,1.8-4.6c1.2-1.2,2.7-1.8,4.4-1.8
					c1.2,0,2.2,0.2,3.1,0.7c0.9,0.5,1.5,1.2,2,2.2c0.5,0.9,0.7,2.2,0.8,3.7h-8.2c0,1.6,0.4,2.9,1,3.6c0.6,0.8,1.5,1.2,2.5,1.2
					c0.7,0,1.4-0.2,2-0.6c0.6-0.4,1.3-1.1,2-2.2l0.9,0.6C149.2,83.8,148.4,84.7,147.5,85.2z"/>
			</g>
			<g class="st1">
				<path class="st2" d="M152,67.2h5.7l10,12.7v-8.6c0-0.9-0.2-1.5-0.7-2c-0.5-0.5-1.2-0.8-2.1-0.9v-1.2h6.8v1.2
					c-0.9,0.1-1.6,0.4-2,0.8c-0.4,0.5-0.6,1.1-0.6,2.1v14.4h-1.4l-11.4-14.6v10.1c0,1.2,0.3,2,0.8,2.5c0.5,0.5,1.2,0.8,2,0.8h0.3
					v1.2h-7.5v-1.2h0.5c0.7,0,1.4-0.3,1.9-0.9c0.5-0.6,0.8-1.3,0.8-2.2V69.5c-0.6-0.7-1.3-1.1-2.1-1.1H152V67.2z"/>
				<path class="st2" d="M182.9,66.7l6.9,16.6c0.2,0.5,0.4,0.8,0.7,1c0.2,0.2,0.5,0.3,0.9,0.3h0.7v1.2h-8.7v-1.2h0.8
					c0.6,0,1.1-0.1,1.3-0.2s0.4-0.3,0.4-0.6c0-0.2-0.1-0.4-0.2-0.6l-1.4-3.4h-6.9l-0.7,1.6c-0.3,0.7-0.4,1.1-0.4,1.5
					c0,0.5,0.2,1,0.6,1.3c0.4,0.3,0.9,0.5,1.6,0.5h0.6v1.2h-7v-1.2h0.4c0.5,0,0.8-0.1,1.2-0.4c0.5-0.4,0.9-0.9,1.1-1.5l6.6-15.8
					H182.9z M180.9,71.4l-3,7h5.9L180.9,71.4z"/>
			</g>
		</g>
	</g>
</g>
</svg>
