<?xml version="1.0" encoding="utf-8"?>
<!-- Generator: Adobe Illustrator 23.0.3, SVG Export Plug-In . SVG Version: 6.00 Build 0)  -->
<svg version="1.1" id="Capa_1" xmlns="http://www.w3.org/2000/svg" xmlns:xlink="http://www.w3.org/1999/xlink" x="0px" y="0px"
	 viewBox="0 0 557.2 91.1" style="enable-background:new 0 0 557.2 91.1;" xml:space="preserve">
<style type="text/css">
	.st0{fill:#3D3D3C;}
	.st1{fill:#78787A;}
	.st2{fill:#5B632B;}
	.st3{fill:#799A3D;}
	.st4{fill:#082834;}
	.st5{font-family:'MerriweatherSans-Bold';}
	.st6{font-size:19px;}
	.st7{fill:#ED196B;}
	.st8{font-family:'Lato-Regular';}
	.st9{font-size:14px;}
</style>
<g>
	<g>
		<g id="Capa_2-2_4_">
			<polygon class="st0" points="20.2,63.1 20.2,53.1 17.9,59.6 17.2,59.6 15,53.3 15,63.1 14,63.1 14,50.7 15,50.7 17.6,57.9 
				20.2,50.7 21.3,50.7 21.3,63.1 			"/>
			<path class="st0" d="M33.5,62.5c-0.5,0.4-1.1,0.7-1.8,0.7c-0.7,0-1.3-0.2-1.8-0.7c-0.5-0.5-0.8-1.3-0.8-2v-9.8h1v9.9
				c-0.1,0.9,0.6,1.6,1.5,1.7c0.1,0,0.1,0,0.2,0c0.9,0,1.5-0.7,1.5-1.5c0,0,0-0.1,0-0.1v-9.9h1v9.8C34.3,61.2,34,62,33.5,62.5"/>
			<path class="st0" d="M46.1,62.5c-0.5,0.5-1.2,0.7-1.9,0.7c-0.7,0.1-1.4-0.2-1.9-0.7c-0.6-0.6-0.7-1.2-0.7-2.6h1
				c0,1,0.1,1.5,0.5,1.9c0.3,0.3,0.7,0.4,1.1,0.4c0.4,0,0.9-0.1,1.2-0.4c0.4-0.6,0.6-1.3,0.5-2c0-1.6-0.2-2.1-1.3-2.6l-1.3-0.5
				c-1.3-0.5-1.6-1.3-1.6-3.1c-0.1-0.9,0.2-1.8,0.8-2.5c0.5-0.5,1.2-0.7,1.9-0.7c0.7,0,1.3,0.2,1.8,0.7c0.7,0.6,0.8,1.3,0.8,2.4h-1
				c0.1-0.6-0.1-1.2-0.5-1.7c-0.6-0.6-1.6-0.6-2.2,0c-0.4,0.5-0.6,1.1-0.5,1.8c0,1.4,0.2,1.9,1.4,2.3l1.3,0.5
				c1.3,0.5,1.6,1.6,1.6,3.3C46.9,61.1,46.7,61.9,46.1,62.5"/>
			<polygon class="st0" points="54.6,63.1 54.6,50.7 58.8,50.7 58.8,51.6 55.5,51.6 55.5,56.4 58.4,56.4 58.4,57.3 55.5,57.3 
				55.5,62.1 58.8,62.1 58.8,63.1 			"/>
			<path class="st0" d="M70,51.9c-0.3-0.3-0.7-0.5-1.1-0.5c-0.4,0-0.8,0.2-1.1,0.5c-0.5,0.6-0.6,1.3-0.6,5c0,3.6,0.1,4.4,0.6,5
				c0.3,0.3,0.7,0.5,1.1,0.4c0.4,0,0.8-0.2,1.1-0.5c0.5-0.6,0.6-1.3,0.6-5C70.6,53.2,70.5,52.5,70,51.9 M70.7,62.5c-1,1-2.7,1-3.7,0
				c-0.8-0.8-0.9-1.8-0.9-5.6c0-3.8,0.1-4.8,0.9-5.6c1-1,2.7-1,3.7,0c0.8,0.8,0.9,1.8,0.9,5.6S71.5,61.6,70.7,62.5"/>
			<path class="st0" d="M91.9,52c-0.3-0.3-0.7-0.5-1.1-0.5h-1.5v10.6h1.5c0.4,0,0.8-0.1,1.1-0.4c0.6-0.7,0.6-1.3,0.6-4.9
				C92.5,53.3,92.4,52.6,91.9,52 M92.7,62.3c-0.5,0.5-1.2,0.7-1.9,0.7h-2.5V50.7h2.5c0.7,0,1.4,0.2,1.9,0.7c0.8,0.8,0.9,1.8,0.9,5.5
				S93.5,61.5,92.7,62.3"/>
			<polygon class="st0" points="101.2,63.1 101.2,50.7 105.5,50.7 105.5,51.6 102.3,51.6 102.3,56.4 105.1,56.4 105.1,57.3 
				102.3,57.3 102.3,62.1 105.5,62.1 105.5,63.1 			"/>
			<path class="st0" d="M124.2,52.5l-1.2,6.2h2.5L124.2,52.5z M126.3,63.1l-0.7-3.4h-2.9l-0.7,3.4h-1.2l2.8-12.4h0.9l2.7,12.4
				L126.3,63.1z"/>
			<path class="st0" d="M136.7,51.6h-1.4v5h1.4c1.3,0,1.7-0.9,1.7-2.5S138,51.5,136.7,51.6 M138.6,63l-1.8-5.6h-1.6V63h-1V50.7h2.4
				c1.5,0,2.7,0.5,2.7,3.4c0,1.9-0.5,2.8-1.5,3.2l1.9,5.8L138.6,63z"/>
			<polygon class="st0" points="149.4,51.6 149.4,63.1 148.4,63.1 148.4,51.6 146.3,51.6 146.3,50.7 151.5,50.7 151.5,51.6 			"/>
			<polygon class="st0" points="158.6,63.1 158.6,50.7 163,50.7 163,51.6 159.7,51.6 159.7,56.4 162.5,56.4 162.5,57.3 159.7,57.3 
				159.7,62.1 163,62.1 163,63.1 			"/>
			<polygon class="st0" points="185.8,63.1 185.8,53.1 183.5,59.6 182.8,59.6 180.5,53.3 180.5,63.1 179.5,63.1 179.5,50.7 
				180.5,50.7 183.1,57.9 185.8,50.7 186.8,50.7 186.8,63.1 			"/>
			<path class="st0" d="M198.3,51.9c-0.3-0.3-0.7-0.5-1.1-0.5c-0.4,0-0.8,0.1-1.1,0.5c-0.5,0.6-0.6,1.3-0.6,4.9s0.1,4.4,0.6,5
				c0.3,0.3,0.7,0.5,1.1,0.4c0.4,0,0.8-0.2,1.1-0.5c0.5-0.6,0.6-1.3,0.6-5C198.9,53.1,198.8,52.5,198.3,51.9 M199.1,62.5
				c-0.5,0.5-1.2,0.7-1.9,0.7c-0.7,0-1.4-0.2-1.9-0.7c-0.8-0.8-0.9-1.8-0.9-5.6s0.1-4.8,0.9-5.6c0.5-0.5,1.2-0.8,1.9-0.7
				c0.7,0,1.4,0.2,1.9,0.7c0.8,0.8,0.9,1.8,0.9,5.6S199.9,61.6,199.1,62.5"/>
			<path class="st0" d="M211.3,52c-0.3-0.3-0.7-0.5-1.2-0.5h-1.5v10.6h1.4c0.4,0,0.8-0.1,1.2-0.4c0.5-0.7,0.6-1.3,0.6-4.9
				C211.9,53.3,211.8,52.6,211.3,52 M212,62.3c-0.5,0.5-1.2,0.7-1.9,0.7h-2.5V50.7h2.5c0.7,0,1.4,0.2,1.9,0.7
				c0.8,0.8,0.9,1.8,0.9,5.5S212.9,61.5,212,62.3"/>
			<polygon class="st0" points="220.6,63.1 220.6,50.7 225,50.7 225,51.6 221.7,51.6 221.7,56.4 224.5,56.4 224.5,57.3 221.7,57.3 
				221.7,62.1 225,62.1 225,63.1 			"/>
			<path class="st0" d="M235,51.6h-1.4v5h1.4c1.3,0,1.6-0.9,1.6-2.5S236.3,51.5,235,51.6 M237,63l-1.8-5.6h-1.6V63h-1V50.7h2.4
				c1.5,0,2.6,0.5,2.6,3.4c0,1.9-0.5,2.8-1.5,3.2l1.9,5.8L237,63z"/>
			<polygon class="st0" points="250.1,63.1 246.6,53.4 246.6,63.1 245.6,63.1 245.6,50.7 246.6,50.7 250.1,60.3 250.1,50.7 
				251.2,50.7 251.2,63.1 			"/>
			<path class="st0" d="M262.7,51.9c-0.3-0.3-0.7-0.5-1.1-0.5c-0.4,0-0.8,0.1-1.1,0.5c-0.5,0.6-0.6,1.3-0.6,4.9s0.1,4.4,0.6,5
				c0.3,0.3,0.7,0.5,1.1,0.4c0.4,0,0.8-0.1,1.1-0.4c0.5-0.6,0.6-1.3,0.6-5C263.3,53.2,263.2,52.5,262.7,51.9 M263.4,62.5
				c-0.5,0.5-1.2,0.7-1.9,0.7c-0.7,0-1.4-0.2-1.9-0.7c-0.8-0.8-0.9-1.8-0.9-5.6s0.1-4.8,0.9-5.6c0.5-0.5,1.2-0.8,1.9-0.7
				c0.7,0,1.4,0.2,1.9,0.7c0.8,0.8,0.9,1.8,0.9,5.6S264.2,61.6,263.4,62.5"/>
			<path class="st1" d="M14.1,27.2V39h3.6V26.7C16.5,26.9,15.3,27,14.1,27.2"/>
			<path class="st2" d="M20.7,26.3V39h5.9V25.7C24.6,25.9,22.6,26.1,20.7,26.3"/>
			<path class="st2" d="M57,25.7V39h5.9V26.3C60.9,26.1,59,25.9,57,25.7"/>
			<path class="st3" d="M42.5,25.1V39h12.2V25.5C50.6,25.2,46.6,25.1,42.5,25.1"/>
			<path class="st3" d="M28.8,25.5V39H41V25.1C36.9,25.1,32.9,25.2,28.8,25.5"/>
			<path class="st1" d="M65.8,39h3.6V27.2c-1.2-0.2-2.4-0.4-3.6-0.5V39z"/>
		</g>
	</g>
	<rect x="300.4" y="18.3" class="st4" width="2.9" height="54.5"/>
	<g>
		<g>
			<text transform="matrix(1 0 0 1 330.4421 46.1225)" class="st4 st5 st6">Museo de Arte Moderno</text>
		</g>
		<g>
			<g>
				<text transform="matrix(1 0 0 1 352.8274 65.2986)" class="st7 st8 st9">Ver objetos de esta Institución</text>
			</g>
			<g>
				<path class="st4" d="M338.3,66c-4.5,0-8.1-4.1-8.2-4.3l-0.2-0.3l0.2-0.3c0.1-0.2,3.7-4.3,8.2-4.3c4.5,0,8.1,4.1,8.2,4.3l0.2,0.3
					l-0.2,0.3C346.4,61.9,342.8,66,338.3,66z M331,61.5c0.9,0.9,3.8,3.7,7.3,3.7c3.5,0,6.5-2.8,7.3-3.7c-0.9-0.9-3.8-3.7-7.3-3.7
					C334.9,57.7,331.9,60.6,331,61.5z"/>
				<g>
					<ellipse class="st4" cx="338.3" cy="61.5" rx="2.8" ry="2.9"/>
					<path class="st4" d="M338.3,64.7c-1.8,0-3.3-1.5-3.3-3.3s1.5-3.3,3.3-3.3c1.8,0,3.3,1.5,3.3,3.3S340.1,64.7,338.3,64.7z
						 M338.3,59c-1.3,0-2.4,1.1-2.4,2.5s1.1,2.5,2.4,2.5s2.4-1.1,2.4-2.5S339.7,59,338.3,59z"/>
				</g>
			</g>
		</g>
	</g>
</g>
<g>
	<g>
		<text transform="matrix(1 0 0 1 820.4818 52.0303)"><tspan x="0" y="0" class="st4 st5 st6">Museo Casa Estudio de Diego Rivera</tspan><tspan x="0" y="22.8" class="st4 st5 st6">y Frida Kahlo</tspan></text>
	</g>
	
		<image style="overflow:visible;" width="267" height="189" xlink:href="51CE805F.jpg"  transform="matrix(0.3894 0 0 0.3894 673.7041 29.8364)">
	</image>
	<rect x="798.9" y="27.1" class="st4" width="3.4" height="82.5"/>
	<g>
		<g>
			<text transform="matrix(1 0 0 1 845.0739 102.2051)" class="st7 st8 st9">Ver objetos de esta Institución</text>
		</g>
		<g>
			<path class="st4" d="M830.6,102.9c-4.5,0-8.1-4.1-8.2-4.3l-0.2-0.3l0.2-0.3c0.1-0.2,3.7-4.3,8.2-4.3s8.1,4.1,8.2,4.3l0.2,0.3
				l-0.2,0.3C838.6,98.8,835.1,102.9,830.6,102.9z M823.3,98.4c0.9,0.9,3.8,3.7,7.3,3.7c3.5,0,6.5-2.8,7.3-3.7
				c-0.9-0.9-3.8-3.7-7.3-3.7C827.1,94.6,824.1,97.5,823.3,98.4z"/>
			<g>
				<ellipse class="st4" cx="830.6" cy="98.4" rx="2.8" ry="2.9"/>
				<path class="st4" d="M830.6,101.7c-1.8,0-3.3-1.5-3.3-3.3c0-1.8,1.5-3.3,3.3-3.3s3.3,1.5,3.3,3.3
					C833.8,100.2,832.4,101.7,830.6,101.7z M830.6,95.9c-1.3,0-2.4,1.1-2.4,2.5c0,1.4,1.1,2.5,2.4,2.5s2.4-1.1,2.4-2.5
					C833,97,831.9,95.9,830.6,95.9z"/>
			</g>
		</g>
	</g>
</g>
</svg>
