<?xml version="1.0" encoding="utf-8"?>
<!-- Generator: Adobe Illustrator 23.1.0, SVG Export Plug-In . SVG Version: 6.00 Build 0)  -->
<svg version="1.1" id="Capa_1" xmlns="http://www.w3.org/2000/svg" xmlns:xlink="http://www.w3.org/1999/xlink" x="0px" y="0px"
	 viewBox="0 0 266 155" style="enable-background:new 0 0 266 155;" xml:space="preserve">
<style type="text/css">
	.st0{fill:#347B98;}
	.st1{fill:#878381;}
	.st2{fill-rule:evenodd;clip-rule:evenodd;fill:#878381;}
</style>
<g>
	<rect x="70.8" y="14" class="st0" width="124.4" height="3.3"/>
	<rect x="70.8" y="137.7" class="st0" width="124.4" height="3.3"/>
	<g>
		<g>
			<path class="st1" d="M117.5,87.6V63.8h5.8v23.7H117.5z"/>
			<path class="st1" d="M142.4,87.6L132.8,72h-0.1l0.1,15.5h-5.6V63.8h6.5l9.5,15.5h0.1l-0.1-15.5h5.6v23.7H142.4z"/>
			<path class="st1" d="M169,87.6l-1.8-4.7H158l-1.7,4.7H150l10-23.7h5.6l9.9,23.7H169z M162.7,70.2l-3,8.1h6L162.7,70.2z"/>
			<path class="st1" d="M191.5,87.6v-9.9h-9.3v9.9h-5.7V63.8h5.7v9h9.3v-9h5.7v23.7H191.5z"/>
		</g>
		<path class="st2" d="M88.8,57.5c0,0,0.2,0.2,0.5,0.7l3.4,6c0,0,0.2,0.4,0.6-0.7l1.5-3c0,0,0.2-0.6,1.3-0.2l8.6,4
			c0,0,0.8,0.5,0.3,1.5l-3.1,5.2c0,0,7-1.7,7.1,6c0,0,0.7,6.3-7,6c0,0-0.1,0.3,0.1,0.6l2.5,4.5c0,0,0.3,1-0.1,1.2l-7.5,3.9
			c0,0-1.7,0.8-2,0.1l-2.2-4.4c0,0-2.4,0.7-3.8,0.5c-1.4,0.2-3.8-0.5-3.8-0.5l-2.2,4.4c-0.3,0.7-2-0.1-2-0.1l-7.5-3.9
			c-0.4-0.3-0.1-1.2-0.1-1.2l2.5-4.5c0.2-0.3,0.1-0.6,0.1-0.6c-7.7,0.3-7-6-7-6c0.1-7.7,7.1-6,7.1-6l-3.1-5.2
			c-0.4-1,0.3-1.5,0.3-1.5l8.6-4c1.1-0.4,1.3,0.2,1.3,0.2l1.4,3c0.4,1,0.6,0.7,0.6,0.7l3.4-6C88.6,57.6,88.8,57.5,88.8,57.5
			L88.8,57.5z M91,86.1c-0.7,0.2-1.4,0.3-2.2,0.3c-0.8,0-1.5-0.1-2.2-0.3l-0.4,1.1c0,0,1.2,0.6,2.6,0.5c1.5,0.1,2.6-0.5,2.6-0.5
			L91,86.1L91,86.1z M92.8,69c3,1.5,5.1,4.6,5.1,8.2c0,3.6-2,6.6-5,8.2l2.7,5.2c0,0,0.4,0.9,1.2,0.5l5-2.3c0,0,0.5-0.2,0.2-0.9
			l-4.1-7.7c0,0-0.4-1.9,1.1-1.5l1.5,1.1c0,0,1.9,2,4.5,0.6c0,0,2.3-1.4,1.7-4.5c0,0-0.9-3.3-4.7-2.5c0,0-1.3,0.4-2.2,1.6
			c0,0-1.1,0.6-1.5,0c0,0-0.5-0.8-0.1-2l3.3-6.3c0,0,0.6-0.9,0-1.4l-4.9-2.3c0,0-0.8-0.5-1.1,0.3L92.8,69L92.8,69z M86.5,68.4
			c0.7-0.2,1.5-0.3,2.3-0.3c0.8,0,1.6,0.1,2.3,0.3l0.2-1.5c0,0,0.1-0.4-0.2-0.9l-2.3-4l-2.3,4c-0.3,0.5-0.2,0.9-0.2,0.9L86.5,68.4
			L86.5,68.4z M79.7,77.2c0-3.6,2.1-6.7,5.1-8.2l-2.9-5.6c-0.4-0.8-1.1-0.3-1.1-0.3l-4.9,2.3c-0.6,0.5,0.1,1.4,0.1,1.4l3.3,6.3
			c0.4,1.2-0.1,2-0.1,2c-0.4,0.6-1.5,0-1.5,0c-0.9-1.2-2.2-1.6-2.2-1.6c-3.8-0.9-4.7,2.5-4.7,2.5c-0.6,3.1,1.7,4.5,1.7,4.5
			c2.7,1.4,4.5-0.6,4.5-0.6l1.5-1.1c1.6-0.4,1.1,1.5,1.1,1.5l-4.1,7.7c-0.3,0.7,0.3,0.9,0.3,0.9l5,2.3c0.8,0.4,1.2-0.5,1.2-0.5
			l2.7-5.2C81.7,83.9,79.7,80.8,79.7,77.2L79.7,77.2z M82.1,74.8h13.4c-1-2.7-3.6-4.7-6.7-4.7C85.7,70.1,83.1,72,82.1,74.8
			L82.1,74.8z M94,77.2c0,2.8-2.3,5.1-5.2,5.1c-2.8,0-5.1-2.3-5.2-5.1h-2c0,3.9,3.2,7.1,7.1,7.1c3.9,0,7.1-3.2,7.1-7.1H94L94,77.2z
			 M85.9,77.2c0,1.6,1.3,2.9,2.9,2.9c1.6,0,2.9-1.3,2.9-2.9H85.9L85.9,77.2z M85.1,93.9c0-2,1.7-3.7,3.7-3.7c2,0,3.7,1.7,3.7,3.7
			c0,2-1.6,3.7-3.7,3.7C86.8,97.5,85.1,95.9,85.1,93.9L85.1,93.9z M87,93.9c0,1,0.8,1.8,1.8,1.8c1,0,1.8-0.8,1.8-1.8
			c0-1-0.8-1.8-1.8-1.8C87.8,92.1,87,92.9,87,93.9L87,93.9z"/>
	</g>
</g>
</svg>
