<?xml version="1.0" encoding="utf-8"?>
<!-- Generator: Adobe Illustrator 23.1.0, SVG Export Plug-In . SVG Version: 6.00 Build 0)  -->
<svg version="1.1" id="Capa_1" xmlns="http://www.w3.org/2000/svg" xmlns:xlink="http://www.w3.org/1999/xlink" x="0px" y="0px"
	 viewBox="0 0 266 155" style="enable-background:new 0 0 266 155;" xml:space="preserve">
<style type="text/css">
	.st0{fill:#347B98;}
	.st1{fill:#878B89;}
	.st2{fill:#2C9D44;}
</style>
<g>
	<rect x="70.8" y="14" class="st0" width="124.4" height="3.3"/>
	<rect x="70.8" y="137.7" class="st0" width="124.4" height="3.3"/>
	<g id="XMLID_5_">
		<path id="XMLID_239_" class="st1" d="M207.1,74.4l0.8-0.9c0.5,0.5,1.1,0.7,1.8,0.7c0.5,0,0.9-0.2,0.9-0.6v0c0-0.3-0.2-0.5-1.2-0.8
			c-1.2-0.3-2-0.7-2-1.9v0c0-1.1,0.9-1.8,2.1-1.8c0.9,0,1.6,0.3,2.3,0.8l-0.7,1c-0.5-0.4-1.1-0.6-1.6-0.6c-0.5,0-0.8,0.2-0.8,0.5v0
			c0,0.4,0.3,0.5,1.3,0.8c1.2,0.3,1.9,0.8,1.9,1.8v0c0,1.2-0.9,1.9-2.2,1.9C208.7,75.4,207.8,75.1,207.1,74.4"/>
		<polygon id="XMLID_238_" class="st1" points="213.2,69.2 217.8,69.2 217.8,70.4 214.5,70.4 214.5,71.6 217.4,71.6 217.4,72.8 
			214.5,72.8 214.5,74.1 217.8,74.1 217.8,75.3 213.2,75.3 		"/>
		<path id="XMLID_237_" class="st1" d="M218.8,72.3L218.8,72.3c0-1.8,1.3-3.2,3.2-3.2c1.2,0,1.8,0.4,2.4,0.9l-0.9,1
			c-0.5-0.4-0.9-0.7-1.6-0.7c-1,0-1.8,0.9-1.8,1.9v0c0,1,0.7,1.9,1.8,1.9c0.7,0,1.1-0.3,1.6-0.7l0.9,0.9c-0.6,0.7-1.3,1.1-2.5,1.1
			C220.2,75.4,218.8,74,218.8,72.3"/>
		<path id="XMLID_234_" class="st1" d="M228.3,72.2c0.7,0,1-0.3,1-0.9v0c0-0.6-0.4-0.9-1.1-0.9h-1.3v1.8H228.3z M225.6,69.2h2.8
			c0.8,0,1.4,0.2,1.8,0.6c0.3,0.3,0.5,0.8,0.5,1.4v0c0,1-0.5,1.6-1.3,1.9l1.5,2.2h-1.6l-1.3-2h0h-1v2h-1.3V69.2z"/>
		<polygon id="XMLID_233_" class="st1" points="232,69.2 236.6,69.2 236.6,70.4 233.3,70.4 233.3,71.6 236.2,71.6 236.2,72.8 
			233.3,72.8 233.3,74.1 236.6,74.1 236.6,75.3 232,75.3 		"/>
		<polygon id="XMLID_232_" class="st1" points="239.4,70.5 237.5,70.5 237.5,69.2 242.6,69.2 242.6,70.5 240.7,70.5 240.7,75.3 
			239.4,75.3 		"/>
		<path id="XMLID_229_" class="st1" d="M246.5,72.8l-0.8-2l-0.8,2H246.5z M245,69.2h1.2l2.6,6.1h-1.4l-0.6-1.4h-2.6l-0.6,1.4h-1.4
			L245,69.2z"/>
		<path id="XMLID_226_" class="st1" d="M252.6,72.2c0.7,0,1-0.3,1-0.9v0c0-0.6-0.4-0.9-1.1-0.9h-1.3v1.8H252.6z M249.9,69.2h2.8
			c0.8,0,1.4,0.2,1.8,0.6c0.3,0.3,0.5,0.8,0.5,1.4v0c0,1-0.5,1.6-1.3,1.9l1.5,2.2h-1.6l-1.3-2h0h-1v2h-1.3V69.2z"/>
		<path id="XMLID_223_" class="st1" d="M257.5,67.2l1.1,0.5l-1.1,1h-1L257.5,67.2z M256.4,69.2h1.3v6.1h-1.3V69.2z"/>
		<path id="XMLID_220_" class="st1" d="M262.7,72.8l-0.8-2l-0.8,2H262.7z M261.3,69.2h1.2l2.6,6.1h-1.4l-0.6-1.4h-2.6l-0.6,1.4h-1.4
			L261.3,69.2z"/>
		<path id="XMLID_217_" class="st1" d="M209.9,84.6c1.1,0,1.8-0.7,1.8-1.8v0c0-1.1-0.7-1.8-1.8-1.8h-1v3.7H209.9z M207.5,79.7h2.4
			c1.9,0,3.2,1.3,3.2,3v0c0,1.7-1.3,3.1-3.2,3.1h-2.4V79.7z"/>
		<polygon id="XMLID_216_" class="st1" points="214.4,79.7 219,79.7 219,80.9 215.7,80.9 215.7,82.1 218.6,82.1 218.6,83.3 
			215.7,83.3 215.7,84.6 219,84.6 219,85.8 214.4,85.8 		"/>
		<path id="XMLID_215_" class="st1" d="M222.7,82.7L222.7,82.7c0-1.8,1.3-3.2,3.2-3.2c1.2,0,1.8,0.4,2.4,0.9l-0.9,1
			c-0.5-0.4-0.9-0.7-1.6-0.7c-1,0-1.8,0.9-1.8,1.9v0c0,1,0.7,1.9,1.8,1.9c0.7,0,1.1-0.3,1.6-0.7l0.9,0.9c-0.6,0.7-1.3,1.1-2.5,1.1
			C224,85.9,222.7,84.5,222.7,82.7"/>
		<path id="XMLID_214_" class="st1" d="M229.3,83.2v-3.5h1.3v3.5c0,1,0.5,1.5,1.3,1.5c0.8,0,1.3-0.5,1.3-1.5v-3.5h1.3v3.4
			c0,1.8-1,2.8-2.7,2.8C230.3,85.9,229.3,85,229.3,83.2"/>
		<polygon id="XMLID_213_" class="st1" points="236.2,79.7 237.5,79.7 237.5,84.6 240.5,84.6 240.5,85.8 236.2,85.8 		"/>
		<polygon id="XMLID_212_" class="st1" points="242.3,80.9 240.4,80.9 240.4,79.7 245.5,79.7 245.5,80.9 243.6,80.9 243.6,85.8 
			242.3,85.8 		"/>
		<path id="XMLID_211_" class="st1" d="M246.5,83.2v-3.5h1.3v3.5c0,1,0.5,1.5,1.3,1.5c0.8,0,1.3-0.5,1.3-1.5v-3.5h1.3v3.4
			c0,1.8-1,2.8-2.7,2.8C247.5,85.9,246.5,85,246.5,83.2"/>
		<path id="XMLID_208_" class="st1" d="M256,82.6c0.7,0,1-0.3,1-0.9v0c0-0.6-0.4-0.9-1.1-0.9h-1.3v1.8H256z M253.3,79.7h2.8
			c0.8,0,1.4,0.2,1.8,0.6c0.3,0.3,0.5,0.8,0.5,1.4v0c0,1-0.5,1.6-1.3,1.9l1.5,2.2H257l-1.3-2h0h-1v2h-1.3V79.7z"/>
		<path id="XMLID_205_" class="st1" d="M263.4,83.2l-0.8-2l-0.8,2H263.4z M262,79.6h1.2l2.6,6.1h-1.4l-0.6-1.4h-2.6l-0.6,1.4h-1.4
			L262,79.6z"/>
		<rect id="XMLID_204_" x="197.6" y="60.1" class="st1" width="0.5" height="34.8"/>
		<path id="XMLID_203_" class="st2" d="M62.8,80c0.2,0.4,0.6,0.5,1.1,0.6c0.7,0,1.1-0.6,1.1-0.6l10.8-13.9c0.9-0.9,1.8-0.2,1.8-0.2
			c0.9,0.9,0.2,1.7,0.2,1.7l-2.4,3.1l0,0c-0.2,0.2-0.3,0.5-0.3,0.8c0,0.3,0.1,0.6,0.3,0.8v0l2.4,3.1l7.7-9.8l-3.1-3.9L81.8,61
			c-0.5-0.7-1.6-0.9-1.6-0.9h-4.6c-1.2,0-1.9,0.8-1.9,0.8L60.8,77.5L62.8,80z"/>
		<path id="XMLID_202_" class="st2" d="M62.3,71.5l-3.1-4c-0.6-1,0.3-1.7,0.3-1.7c1.2-0.7,1.8,0.4,1.8,0.4l2.5,3.3l3-3.9l-3.5-4.5
			c-0.8-1.2-2.1-1-2.1-1h-4.2c-1.3,0-1.9,0.8-1.9,0.8l-3.7,4.7l7.7,9.8L62.3,71.5z"/>
		<path id="XMLID_201_" class="st2" d="M74.2,74.9c0,0-0.4-0.5-1-0.5c-0.7,0-1,0.5-1,0.5l-11,14.1c-0.9,1-1.8,0.2-1.8,0.2
			c-0.9-0.9-0.2-1.7-0.2-1.7l2.5-3.2l0,0c0.2-0.2,0.3-0.5,0.3-0.8c0-0.3-0.1-0.6-0.3-0.8l0,0l-2.4-3.1l-7.7,9.9l4.3,5.4l6.8,0
			l13.6-17.4L74.2,74.9z"/>
		<path id="XMLID_200_" class="st2" d="M74.7,83.4l3.1,4c0.7,1-0.2,1.7-0.2,1.7c-1.2,0.8-1.9-0.4-1.9-0.4l-2.6-3.3l-3,3.9l4.4,5.6
			l6.7,0l4.3-5.5l-7.7-9.8L74.7,83.4z"/>
		<path id="XMLID_197_" class="st2" d="M85.4,79.2c-0.9,0-1.6-0.7-1.6-1.7c0-0.9,0.7-1.7,1.6-1.7c0.9,0,1.6,0.7,1.6,1.7
			C87,78.4,86.3,79.2,85.4,79.2 M85.4,74.4c-1.7,0-3.1,1.4-3.1,3.1c0,1.7,1.4,3.1,3.1,3.1c1.7,0,3.1-1.4,3.1-3.1
			C88.5,75.8,87.1,74.4,85.4,74.4"/>
		<path id="XMLID_194_" class="st2" d="M68.5,55.4c0.9,0,1.6,0.7,1.6,1.7c0,0.9-0.7,1.7-1.6,1.7c-0.9,0-1.6-0.7-1.6-1.7
			C66.8,56.1,67.6,55.4,68.5,55.4 M68.5,60.1c1.7,0,3.1-1.4,3.1-3.1c0-1.7-1.4-3.1-3.1-3.1c-1.7,0-3.1,1.4-3.1,3.1
			C65.4,58.7,66.8,60.1,68.5,60.1"/>
		<path id="XMLID_191_" class="st2" d="M49.9,77.5c0-0.9,0.7-1.7,1.6-1.7c0.9,0,1.6,0.7,1.6,1.7c0,0.9-0.7,1.7-1.6,1.7
			C50.6,79.2,49.9,78.4,49.9,77.5 M54.6,77.5c0-1.7-1.4-3.1-3.1-3.1c-1.7,0-3.1,1.4-3.1,3.1c0,1.7,1.4,3.1,3.1,3.1
			C53.2,80.6,54.6,79.2,54.6,77.5"/>
		<path id="XMLID_188_" class="st2" d="M68.5,99.6c-0.9,0-1.6-0.7-1.6-1.7c0-0.9,0.7-1.7,1.6-1.7c0.9,0,1.6,0.7,1.6,1.7
			C70.1,98.9,69.4,99.6,68.5,99.6 M68.5,94.9c-1.7,0-3.1,1.4-3.1,3.1c0,1.7,1.4,3.1,3.1,3.1c1.7,0,3.1-1.4,3.1-3.1
			C71.6,96.3,70.2,94.9,68.5,94.9"/>
		<path id="XMLID_185_" class="st1" d="M35.9,57H0.1v23.9C0.1,94,18,98,18,98h0c0,0,17.9-3.9,17.9-17.1V57z M35.1,57.9v23
			c0,2.8-0.9,5.4-2.6,7.6c-1.4,1.9-3.4,3.6-5.9,5c-3.8,2.2-7.7,3.3-8.6,3.5c-0.9-0.2-4.7-1.2-8.5-3.5c-2.5-1.5-4.5-3.2-5.9-5
			C1.9,86.3,1,83.7,1,80.9v-23H35.1z"/>
		<path id="XMLID_184_" class="st1" d="M22.4,64.7v-2.2h-2.3v2h-0.9v-2h-2.3v2H16v-2h-2.3v2.2l1.1,1.9c0,0.1,0.1,0.1,0.1,0.2l0,10
			H16l0-3.6c0-0.9,1-1.6,2-1.6c1.1,0,2,0.8,2,1.6l0,3.6h1.1l0-3.8c0,0,0,0,0-0.1v-1.9c0,0,0,0,0,0l0-1.4c0,0,0,0,0,0v-0.6l0-2.3
			c0-0.1,0-0.2,0.1-0.2L22.4,64.7z"/>
		<path id="XMLID_183_" class="st1" d="M14.1,77.1l0-3.3L13.7,74c-0.1,0.1-0.3,0.1-0.5,0l-0.5-0.3c0,0,0,0,0,0l0,1.3
			c0,0.1-0.1,0.3-0.2,0.3c0.1,0,0.1,0,0.1,0.1c0.6,0.5,0.6,1.1,0.5,1.7H14.1z"/>
		<path id="XMLID_182_" class="st1" d="M18,72.5c-0.7,0-1.1,0.5-1.1,0.7l0,3.6h2.3l0-3.6C19.2,73,18.7,72.5,18,72.5"/>
		<path id="XMLID_181_" class="st1" d="M4.6,77.1c-0.1-0.3-0.2-0.6-0.3-1c-0.1-0.7-0.1-1.3-0.1-1.4c0-0.2,0.1-0.3,0.3-0.4l1-0.3
			l-1.1-0.8c-0.1-0.1-0.2-0.2-0.2-0.4v-1.2c0-0.2,0.1-0.3,0.2-0.4l0.4-0.2v-0.4l-0.4-0.2c-0.2-0.1-0.3-0.2-0.3-0.4l0-1.5
			c0-0.2,0.2-0.4,0.4-0.4l1.4,0c0-0.4,0-0.9,0.1-1.3c0.1-0.6,0.4-1.1,0.6-1.4L6.6,65c0-0.1,0-0.3,0.1-0.4c0.1-0.1,0.2-0.2,0.3-0.2
			h0.7c0.1,0,0.2,0,0.2,0.1l1.8,1.1h0.8c0.1,0,0.2,0,0.3,0.1c0.1,0.1,0.1,0.2,0.1,0.3L11,67.5c0,0.1-0.1,0.2-0.1,0.3l0.5,0
			c0.1,0,0.2,0,0.3,0.1l0.2,0.3l0.2-0.1l0.3-0.7c0.1-0.2,0.2-0.3,0.4-0.3H14v-0.2L12.9,65c0-0.1-0.1-0.1-0.1-0.2V62
			c0-0.2,0.2-0.4,0.4-0.4H16h0.9h2.3h0.9h2.7c0.2,0,0.4,0.2,0.4,0.4v2.8c0,0.1,0,0.2-0.1,0.2l-1.1,1.9l0,0.2h1.2
			c0.2,0,0.3,0.1,0.4,0.3l0.3,0.7l0.2,0.1l0.3-0.3c0.1-0.1,0.2-0.1,0.3-0.1l0.5,0c-0.1-0.1-0.1-0.2-0.1-0.3L25,66.1
			c0-0.1,0-0.2,0.1-0.3c0.1-0.1,0.2-0.1,0.3-0.1h0.8l1.8-1.1c0.1,0,0.2-0.1,0.2-0.1h0.7c0.1,0,0.2,0.1,0.3,0.2
			c0.1,0.1,0.1,0.2,0.1,0.4l-0.1,0.5c0.2,0.3,0.5,0.9,0.6,1.4c0.1,0.4,0.1,0.9,0.1,1.3l1.4,0c0.2,0,0.4,0.2,0.4,0.4l0,1.5
			c0,0.2-0.1,0.3-0.3,0.4l-0.4,0.2v0.4l0.4,0.2c0.1,0.1,0.2,0.2,0.2,0.4v1.2c0,0.1-0.1,0.3-0.2,0.4L30.6,74l1,0.3
			c0.2,0.1,0.3,0.2,0.3,0.4c0,0,0,0.7-0.1,1.4c-0.1,0.4-0.2,0.7-0.3,1h1.6c0,0,0,0,0,0v-17H3v17H4.6z"/>
		<path id="XMLID_180_" class="st1" d="M23.5,75.4c0,0,0.1-0.1,0.1-0.1c-0.1-0.1-0.2-0.2-0.2-0.3l0-1.3c0,0,0,0,0,0L22.9,74
			c-0.1,0.1-0.3,0.1-0.5,0l-0.4-0.2l0,3.3H23C22.8,76.5,22.9,75.9,23.5,75.4"/>
		<path id="XMLID_179_" class="st1" d="M29.3,86.2c-0.2,0-0.4-0.2-0.4-0.4v-2.9c0-0.2-0.1-0.5-0.3-0.7c-0.2-0.2-0.5-0.4-0.9-0.4
			c-0.7,0-1.1,0.5-1.1,1v2.9c0,0.1,0,0.2-0.1,0.3c-0.1,0.1-0.2,0.1-0.3,0.1h-2.6c-0.2,0-0.4-0.2-0.4-0.4v-2.9c0-0.2-0.1-0.5-0.3-0.7
			c-0.2-0.2-0.5-0.4-0.9-0.4c-0.3,0-0.6,0.1-0.8,0.3l2.2,11c3-1.3,6.6-3.5,8.5-6.9H29.3z"/>
		<path id="XMLID_178_" class="st1" d="M22.3,93.4l-3-15.4h-2.5l-3,15.4c0,0,0,0,0,0.1c2.1,0.9,3.8,1.3,4.3,1.4
			C18.5,94.8,20.2,94.3,22.3,93.4C22.3,93.4,22.3,93.4,22.3,93.4"/>
		<path id="XMLID_177_" class="st1" d="M15.1,82.1c-0.2-0.2-0.5-0.3-0.7-0.3c0,0,0,0,0,0c-0.4,0-0.7,0.2-0.9,0.4
			c-0.2,0.2-0.3,0.5-0.3,0.7v2.9c0,0.2-0.2,0.4-0.4,0.4h-2.6c-0.1,0-0.2,0-0.3-0.1c-0.1-0.1-0.1-0.2-0.1-0.3v-2.9
			c-0.1-0.5-0.5-1-1.1-1c0,0,0,0,0,0c-0.4,0-0.7,0.2-0.9,0.4c-0.2,0.2-0.3,0.5-0.3,0.7v2.9c0,0.2-0.2,0.4-0.4,0.4H4.4
			c1.9,3.4,5.5,5.6,8.5,6.9L15.1,82.1z"/>
		<path id="XMLID_176_" class="st1" d="M33.1,78H20.2l0.6,3.2c0.3-0.2,0.6-0.2,0.9-0.2c0.6,0,1.1,0.2,1.5,0.6
			c0.4,0.4,0.6,0.9,0.6,1.3v2.4h1.7v-2.4c0,0,0,0,0,0c0.1-1,1-1.9,2-1.9c0.6,0,1.1,0.2,1.5,0.6c0.4,0.4,0.6,0.9,0.6,1.3v2.4h2.4
			c0.6-1.3,1-2.8,1-4.5L33.1,78C33.1,78,33.1,78,33.1,78"/>
		<path id="XMLID_175_" class="st1" d="M6.4,85.3v-2.4c0-0.5,0.2-0.9,0.6-1.3c0.4-0.4,1-0.6,1.5-0.6c1,0,1.9,0.8,2,1.9c0,0,0,0,0,0
			v2.4h1.7v-2.4c0-0.5,0.2-0.9,0.6-1.3c0.4-0.4,1-0.6,1.5-0.6c0.3,0,0.6,0.1,0.9,0.2l0.6-3.2H3v2.9c0,1.7,0.4,3.2,1,4.5H6.4z"/>
		<path id="XMLID_174_" class="st1" d="M7.4,76.2h0.7c0.1,0.1,0.1,0.2,0.1,0.3c0,0.1,0,0.1,0,0.2c0,0.2,0,0.3-0.1,0.4H5.7
			c-0.4-0.2-0.5-1.2-0.6-2l1.1-0.3c0.2-0.1,0.3-0.2,0.3-0.4v-0.4c0-0.1-0.1-0.3-0.2-0.4l-1.2-0.9v-0.7l0.4-0.2
			c0.1-0.1,0.2-0.2,0.2-0.4v-1c0-0.2-0.1-0.3-0.3-0.4l-0.4-0.2l0-0.7l1.2,0l0.5,0.9l0,1.3l-0.4,1.2c0,0.1,0,0.3,0.1,0.4
			c0.1,0.1,0.2,0.2,0.4,0.2h0.3c0.2,0,0.4-0.2,0.4-0.4c0-0.2,0.1-0.8,0.2-1c0.1-0.2,0.4-0.6,0.6-0.9c0.1-0.2,0.1-0.4,0-0.6L7,68.4
			c0-0.3-0.1-0.9,0-1.3c0.1-0.5,0.4-1.1,0.6-1.3c0.1-0.1,0.1-0.2,0.1-0.3l0-0.2h0.1l1.8,1.1c0.1,0,0.2,0.1,0.2,0.1h0.5l0,0.7
			l-0.6,0.2c-0.2,0.1-0.3,0.2-0.3,0.4l0,0.5c0,0.2,0.2,0.4,0.4,0.4l1.5,0l0.4,0.4c0.2,0.2,0.4,0.2,0.6,0c0,0,0.7-0.5,0.7-0.6
			l0.2-0.5H14v1v0.6c0,0-1.6,0.6-1.7,0.6c-0.1,0.1-0.2,0.5-0.1,0.7c0,0.1,0,0.2,0.2,0.3c0,0,0.5,0.4,0.6,0.4l0.5-0.4l0.6,0l0,1.5
			l-0.6,0.4l-1.8-1.3c-0.2-0.1-0.5-0.1-0.6,0.1l-0.3,0.4c-0.1,0.2-0.1,0.4,0,0.6l1.1,1l0,0.8l-1.1,0.5c-0.2,0.1-0.3,0.2-0.3,0.4v0.2
			c0,0.2,0.2,0.4,0.4,0.4h1.3c0.2,0.3,0.1,0.7,0,0.9H9.3c-0.1-0.1-0.2-0.3-0.2-0.5c0-0.1,0-0.1,0-0.2c0-0.3,0-0.6,0.1-0.7l0.7-0.9
			c0.1-0.1,0.1-0.2,0.1-0.2l0-0.4c0-0.2-0.1-0.3-0.2-0.4c-0.1-0.1-0.3-0.1-0.4,0l-1.1,0.5C8.1,74.2,8,74.4,8,74.5l-0.1,0.4l-0.6,0.2
			C7.1,75.2,7,75.4,7,75.6v0.2C7,76,7.2,76.2,7.4,76.2"/>
		<path id="XMLID_173_" class="st1" d="M28.7,76.2H28c-0.1,0.1-0.1,0.2-0.1,0.3c0,0.1,0,0.1,0,0.2c0,0.2,0,0.3,0.1,0.4h2.5
			c0.4-0.2,0.5-1.2,0.6-2l-1.1-0.3c-0.2-0.1-0.3-0.2-0.3-0.4v-0.4c0-0.1,0.1-0.3,0.2-0.4l1.2-0.9v-0.7l-0.4-0.2
			c-0.1-0.1-0.2-0.2-0.2-0.4v-1c0-0.2,0.1-0.3,0.3-0.4l0.4-0.2l0-0.7l-1.2,0l-0.5,0.9l0,1.3l0.4,1.2c0,0.1,0,0.3-0.1,0.4
			c-0.1,0.1-0.2,0.2-0.4,0.2h-0.3c-0.2,0-0.4-0.2-0.4-0.4c0-0.2-0.1-0.8-0.2-1c-0.1-0.2-0.4-0.6-0.6-0.9c-0.1-0.2-0.1-0.4,0-0.6
			l1.5-1.7c0-0.3,0.1-0.9,0-1.3c-0.1-0.5-0.4-1.1-0.6-1.3c-0.1-0.1-0.1-0.2-0.1-0.3l0-0.2h-0.1l-1.8,1.1c-0.1,0-0.2,0.1-0.2,0.1
			h-0.5l0,0.7l0.6,0.2c0.2,0.1,0.3,0.2,0.3,0.4l0,0.5c0,0.2-0.2,0.4-0.4,0.4l-1.5,0l-0.4,0.4c-0.2,0.2-0.4,0.2-0.6,0
			c0,0-0.7-0.5-0.7-0.6l-0.2-0.5h-0.9v1v0.6c0,0,1.6,0.6,1.7,0.6c0.1,0.1,0.2,0.5,0.1,0.7c0,0.1,0,0.2-0.2,0.3c0,0-0.5,0.4-0.6,0.4
			l-0.5-0.4l-0.6,0l0,1.5l0.6,0.4l1.8-1.3c0.2-0.1,0.5-0.1,0.6,0.1l0.3,0.4c0.1,0.2,0.1,0.4,0,0.6l-1.1,1l0,0.8l1.1,0.5
			c0.2,0.1,0.3,0.2,0.3,0.4v0.2c0,0.2-0.2,0.4-0.4,0.4h-1.3c-0.2,0.3-0.1,0.7,0,0.9h2.9c0.1-0.1,0.2-0.3,0.2-0.5c0-0.1,0-0.1,0-0.2
			c0-0.3,0-0.6-0.1-0.7l-0.7-0.9c-0.1-0.1-0.1-0.2-0.1-0.2l0-0.4c0-0.2,0.1-0.3,0.2-0.4c0.1-0.1,0.3-0.1,0.4,0l1.1,0.5
			c0.1,0.1,0.2,0.2,0.3,0.3l0.1,0.4l0.6,0.2c0.2,0.1,0.3,0.2,0.3,0.4v0.2C29.1,76,28.9,76.2,28.7,76.2"/>
		<path id="XMLID_172_" class="st1" d="M97.9,72.3L97.9,72.3c0-1.7,1.2-3.2,3.1-3.2c1,0,1.7,0.3,2.3,0.8l-0.4,0.5
			c-0.5-0.4-1-0.7-1.9-0.7c-1.4,0-2.3,1.1-2.3,2.5v0c0,1.5,0.9,2.5,2.4,2.5c0.7,0,1.3-0.3,1.8-0.6v-1.5H101v-0.6h2.5v2.4
			c-0.6,0.5-1.4,0.9-2.4,0.9C99.1,75.4,97.9,74,97.9,72.3"/>
		<path id="XMLID_169_" class="st1" d="M111.2,72.3L111.2,72.3c0-1.4-1-2.5-2.4-2.5c-1.4,0-2.4,1.1-2.4,2.5v0c0,1.4,1,2.5,2.4,2.5
			C110.3,74.8,111.2,73.7,111.2,72.3 M105.7,72.3L105.7,72.3c0-1.7,1.3-3.2,3.1-3.2c1.9,0,3.1,1.5,3.1,3.1v0c0,1.7-1.3,3.2-3.1,3.2
			C107,75.4,105.7,74,105.7,72.3"/>
		<path id="XMLID_165_" class="st1" d="M117,72.5h-1.9v2.2h2c0.9,0,1.5-0.4,1.5-1.1v0C118.7,72.9,118.1,72.5,117,72.5 M118.3,70.8
			c0-0.6-0.5-1-1.4-1h-1.9v2.1h1.8C117.7,71.9,118.3,71.6,118.3,70.8L118.3,70.8z M114.4,69.2h2.6c0.7,0,1.2,0.2,1.6,0.5
			c0.3,0.3,0.4,0.6,0.4,1v0c0,0.8-0.5,1.2-1,1.4c0.7,0.2,1.3,0.6,1.3,1.5v0c0,1-0.9,1.7-2.2,1.7h-2.7V69.2z"/>
		<rect id="XMLID_164_" x="121.8" y="69.2" class="st1" width="0.7" height="6.1"/>
		<polygon id="XMLID_163_" class="st1" points="125.3,69.2 129.7,69.2 129.7,69.8 126,69.8 126,71.9 129.3,71.9 129.3,72.5 
			126,72.5 126,74.7 129.7,74.7 129.7,75.3 125.3,75.3 		"/>
		<path id="XMLID_160_" class="st1" d="M134.6,72.3c0.9,0,1.6-0.5,1.6-1.3v0c0-0.7-0.6-1.2-1.6-1.2h-1.9v2.5H134.6z M132,69.2h2.6
			c0.8,0,1.4,0.2,1.7,0.6c0.3,0.3,0.5,0.7,0.5,1.2v0c0,1-0.7,1.6-1.7,1.8l1.9,2.5h-0.8l-1.8-2.4h-1.7v2.4H132V69.2z"/>
		<polygon id="XMLID_159_" class="st1" points="139.3,69.2 140,69.2 143.8,74.1 143.8,69.2 144.5,69.2 144.5,75.3 143.9,75.3 
			140,70.3 140,75.3 139.3,75.3 		"/>
		<path id="XMLID_156_" class="st1" d="M152.5,72.3L152.5,72.3c0-1.4-1-2.5-2.4-2.5c-1.4,0-2.4,1.1-2.4,2.5v0c0,1.4,1,2.5,2.4,2.5
			C151.5,74.8,152.5,73.7,152.5,72.3 M147,72.3L147,72.3c0-1.7,1.3-3.2,3.1-3.2c1.9,0,3.1,1.5,3.1,3.1v0c0,1.7-1.3,3.2-3.1,3.2
			C148.2,75.4,147,74,147,72.3"/>
		<path id="XMLID_153_" class="st1" d="M159.5,69.8v4.8h1.4c1.5,0,2.5-1,2.5-2.4v0c0-1.4-1-2.4-2.5-2.4H159.5z M158.8,69.2h2.1
			c1.9,0,3.2,1.3,3.2,3v0c0,1.7-1.3,3.1-3.2,3.1h-2.1V69.2z"/>
		<polygon id="XMLID_152_" class="st1" points="166.4,69.2 170.8,69.2 170.8,69.8 167.1,69.8 167.1,71.9 170.4,71.9 170.4,72.5 
			167.1,72.5 167.1,74.7 170.8,74.7 170.8,75.3 166.4,75.3 		"/>
		<polygon id="XMLID_151_" class="st1" points="176.3,69.2 177,69.2 177,74.7 180.4,74.7 180.4,75.3 176.3,75.3 		"/>
		<path id="XMLID_148_" class="st1" d="M186.4,73.1L185,70l-1.4,3.1H186.4z M184.7,69.2h0.6l2.8,6.1h-0.7l-0.7-1.6h-3.3l-0.7,1.6
			h-0.7L184.7,69.2z"/>
		<path id="XMLID_147_" class="st1" d="M97.8,82.7L97.8,82.7c0-1.8,1.3-3.2,3.2-3.2c1.2,0,1.8,0.4,2.4,0.9l-0.9,1
			c-0.5-0.4-1-0.7-1.6-0.7c-1,0-1.8,0.9-1.8,1.9v0c0,1,0.7,1.9,1.8,1.9c0.7,0,1.1-0.3,1.6-0.7l0.9,0.9c-0.6,0.7-1.3,1.1-2.5,1.1
			C99.1,85.9,97.8,84.5,97.8,82.7"/>
		<rect id="XMLID_146_" x="104.5" y="79.7" class="st1" width="1.3" height="6.1"/>
		<path id="XMLID_145_" class="st1" d="M107.4,83.2v-3.5h1.3v3.5c0,1,0.5,1.5,1.3,1.5c0.8,0,1.3-0.5,1.3-1.5v-3.5h1.3v3.4
			c0,1.8-1,2.8-2.7,2.8C108.4,85.9,107.4,85,107.4,83.2"/>
		<path id="XMLID_142_" class="st1" d="M116.7,84.6c1.1,0,1.8-0.7,1.8-1.8v0c0-1.1-0.7-1.8-1.8-1.8h-1v3.7H116.7z M114.3,79.7h2.4
			c1.9,0,3.2,1.3,3.2,3v0c0,1.7-1.3,3.1-3.2,3.1h-2.4V79.7z"/>
		<path id="XMLID_139_" class="st1" d="M124.3,83.2l-0.8-2l-0.8,2H124.3z M122.9,79.6h1.2l2.6,6.1h-1.4l-0.6-1.4h-2.6l-0.6,1.4h-1.4
			L122.9,79.6z"/>
		<path id="XMLID_136_" class="st1" d="M130.1,84.6c1.1,0,1.8-0.7,1.8-1.8v0c0-1.1-0.7-1.8-1.8-1.8h-1v3.7H130.1z M127.7,79.7h2.4
			c1.9,0,3.2,1.3,3.2,3v0c0,1.7-1.3,3.1-3.2,3.1h-2.4V79.7z"/>
		<path id="XMLID_133_" class="st1" d="M139.6,84.6c1.1,0,1.8-0.7,1.8-1.8v0c0-1.1-0.7-1.8-1.8-1.8h-1v3.7H139.6z M137.2,79.7h2.4
			c1.9,0,3.2,1.3,3.2,3v0c0,1.7-1.3,3.1-3.2,3.1h-2.4V79.7z"/>
		<polygon id="XMLID_132_" class="st1" points="144.1,79.7 148.7,79.7 148.7,80.9 145.4,80.9 145.4,82.1 148.3,82.1 148.3,83.3 
			145.4,83.3 145.4,84.6 148.8,84.6 148.8,85.8 144.1,85.8 		"/>
		<polygon id="XMLID_131_" class="st1" points="152.6,79.7 154.1,79.7 155.7,82.2 157.3,79.7 158.7,79.7 158.7,85.8 157.4,85.8 
			157.4,81.8 155.7,84.4 155.7,84.4 154,81.8 154,85.8 152.6,85.8 		"/>
		<path id="XMLID_128_" class="st1" d="M162.9,77.6l1.1,0.5l-1.1,1h-1L162.9,77.6z M160.3,79.7h4.6v1.2h-3.3v1.2h2.9v1.2h-2.9v1.3
			h3.3v1.2h-4.6V79.7z"/>
		<polygon id="XMLID_127_" class="st1" points="168,82.7 165.9,79.7 167.5,79.7 168.8,81.6 170.1,79.7 171.6,79.7 169.6,82.7 
			171.7,85.8 170.1,85.8 168.8,83.7 167.4,85.8 165.9,85.8 		"/>
		<rect id="XMLID_126_" x="172.7" y="79.7" class="st1" width="1.3" height="6.1"/>
		<path id="XMLID_125_" class="st1" d="M175.4,82.7L175.4,82.7c0-1.8,1.3-3.2,3.2-3.2c1.1,0,1.8,0.4,2.4,0.9l-0.9,1
			c-0.5-0.4-1-0.7-1.6-0.7c-1,0-1.8,0.9-1.8,1.9v0c0,1,0.7,1.9,1.8,1.9c0.7,0,1.1-0.3,1.6-0.7l0.9,0.9c-0.6,0.7-1.3,1.1-2.5,1.1
			C176.7,85.9,175.4,84.5,175.4,82.7"/>
		<path id="XMLID_122_" class="st1" d="M186.7,82.7L186.7,82.7c0-1.1-0.8-1.9-1.8-1.9c-1.1,0-1.8,0.9-1.8,1.9v0c0,1,0.8,1.9,1.8,1.9
			S186.7,83.8,186.7,82.7 M181.6,82.7L181.6,82.7c0-1.8,1.4-3.2,3.3-3.2c1.9,0,3.2,1.4,3.2,3.1v0c0,1.7-1.4,3.2-3.2,3.2
			S181.6,84.5,181.6,82.7"/>
	</g>
</g>
</svg>
