<?xml version="1.0" encoding="utf-8"?>
<!-- Generator: Adobe Illustrator 23.1.0, SVG Export Plug-In . SVG Version: 6.00 Build 0)  -->
<svg version="1.1" id="Capa_1" xmlns="http://www.w3.org/2000/svg" xmlns:xlink="http://www.w3.org/1999/xlink" x="0px" y="0px"
	 viewBox="0 0 266 155" style="enable-background:new 0 0 266 155;" xml:space="preserve">
<style type="text/css">
	.st0{fill:#347B98;}
	.st1{fill:#636363;}
	.st2{fill:#E0466F;}
	.st3{fill:url(#SVGID_1_);}
	.st4{fill:url(#SVGID_2_);}
</style>
<g>
	<rect x="70.8" y="14" class="st0" width="124.4" height="3.3"/>
	<rect x="70.8" y="137.7" class="st0" width="124.4" height="3.3"/>
	<g>
		<path class="st1" d="M67.4,88.3c0,0.2,0,0.3-0.1,0.4c-0.1,0.1-0.1,0.2-0.2,0.3s-0.2,0.2-0.3,0.2c-0.1,0.1-0.3,0.1-0.4,0.1l1.4,1.7
			h-0.5L66,89.5c0,0-0.1,0-0.1,0c0,0-0.1,0-0.1,0h-0.3v1.6h-0.4v-3.9H66c0.2,0,0.4,0,0.5,0.1c0.2,0,0.3,0.1,0.5,0.2
			c0.1,0.1,0.2,0.2,0.3,0.3C67.4,87.9,67.4,88.1,67.4,88.3z M67,88.3c0-0.1,0-0.3-0.1-0.3c-0.1-0.1-0.1-0.2-0.2-0.2
			c-0.1-0.1-0.2-0.1-0.3-0.1c-0.1,0-0.3,0-0.4,0h-0.5v1.6h0.3c0.2,0,0.3,0,0.5-0.1c0.2,0,0.3-0.1,0.4-0.2c0.1-0.1,0.2-0.2,0.3-0.3
			C67,88.6,67,88.4,67,88.3z"/>
		<path class="st1" d="M68.3,87.2h2.1v0.3h-1.7v1.4h1.6v0.3h-1.6v1.5h1.7v0.3h-2.1V87.2z"/>
		<path class="st1" d="M73.5,88.3c0,0.2,0,0.4-0.1,0.5c-0.1,0.1-0.2,0.3-0.3,0.4c-0.1,0.1-0.3,0.2-0.5,0.2c-0.2,0.1-0.4,0.1-0.6,0.1
			h-0.3v1.6h-0.4v-3.9h0.9c0.2,0,0.4,0,0.6,0.1c0.2,0,0.3,0.1,0.5,0.2c0.1,0.1,0.2,0.2,0.3,0.3C73.5,88,73.5,88.1,73.5,88.3z
			 M73.1,88.3c0-0.1,0-0.3-0.1-0.4c-0.1-0.1-0.1-0.2-0.2-0.2c-0.1-0.1-0.2-0.1-0.3-0.1c-0.1,0-0.3,0-0.4,0h-0.5v1.6H72
			c0.2,0,0.3,0,0.5-0.1c0.1,0,0.3-0.1,0.4-0.2c0.1-0.1,0.2-0.2,0.2-0.3C73.1,88.6,73.1,88.4,73.1,88.3z"/>
		<path class="st1" d="M75.8,91.2c-0.3,0-0.6-0.1-0.8-0.2c-0.2-0.1-0.4-0.3-0.6-0.4c-0.2-0.2-0.3-0.4-0.4-0.6
			C74,89.7,74,89.4,74,89.1s0-0.5,0.1-0.8c0.1-0.2,0.2-0.5,0.4-0.6c0.2-0.2,0.4-0.3,0.6-0.4c0.2-0.1,0.5-0.2,0.8-0.2
			c0.3,0,0.6,0.1,0.8,0.2c0.2,0.1,0.4,0.3,0.6,0.4c0.2,0.2,0.3,0.4,0.4,0.6c0.1,0.2,0.1,0.5,0.1,0.8s0,0.5-0.1,0.8
			c-0.1,0.2-0.2,0.5-0.4,0.6c-0.2,0.2-0.4,0.3-0.6,0.4S76.1,91.2,75.8,91.2z M75.8,90.8c0.2,0,0.4,0,0.6-0.1
			c0.2-0.1,0.3-0.2,0.5-0.4c0.1-0.2,0.2-0.3,0.3-0.5c0.1-0.2,0.1-0.4,0.1-0.7c0-0.2,0-0.4-0.1-0.6c-0.1-0.2-0.2-0.4-0.3-0.5
			c-0.1-0.2-0.3-0.3-0.5-0.4c-0.2-0.1-0.4-0.1-0.6-0.1c-0.2,0-0.4,0-0.6,0.1c-0.2,0.1-0.3,0.2-0.5,0.4c-0.1,0.2-0.2,0.3-0.3,0.5
			c-0.1,0.2-0.1,0.4-0.1,0.6c0,0.2,0,0.5,0.1,0.7c0.1,0.2,0.2,0.4,0.3,0.5c0.1,0.2,0.3,0.3,0.5,0.4C75.4,90.8,75.6,90.8,75.8,90.8z"
			/>
		<path class="st1" d="M80.6,90.1c0,0.2,0,0.3-0.1,0.4c-0.1,0.1-0.2,0.2-0.3,0.3C80.1,91,80,91,79.8,91.1c-0.2,0.1-0.3,0.1-0.5,0.1
			c-0.2,0-0.4,0-0.6-0.1c-0.2,0-0.4-0.1-0.5-0.2l0.1-0.3c0.2,0.1,0.3,0.1,0.5,0.2s0.3,0.1,0.5,0.1c0.3,0,0.5-0.1,0.7-0.2
			c0.2-0.1,0.3-0.3,0.3-0.5c0-0.1,0-0.2-0.1-0.3c0-0.1-0.1-0.2-0.2-0.2c-0.1-0.1-0.2-0.1-0.3-0.2c-0.1-0.1-0.2-0.1-0.3-0.2
			c-0.1-0.1-0.3-0.1-0.4-0.2c-0.1-0.1-0.2-0.1-0.3-0.2c-0.1-0.1-0.2-0.2-0.2-0.3c-0.1-0.1-0.1-0.2-0.1-0.4c0-0.2,0-0.3,0.1-0.4
			c0.1-0.1,0.1-0.2,0.3-0.3c0.1-0.1,0.2-0.1,0.4-0.2c0.1,0,0.3-0.1,0.5-0.1c0.2,0,0.4,0,0.5,0.1c0.2,0,0.3,0.1,0.5,0.2l-0.1,0.3
			c-0.1-0.1-0.3-0.1-0.4-0.2c-0.2,0-0.3-0.1-0.5-0.1c-0.2,0-0.4,0.1-0.6,0.2c-0.1,0.1-0.2,0.3-0.2,0.5c0,0.1,0,0.2,0,0.3
			c0,0.1,0.1,0.1,0.1,0.2c0.1,0.1,0.1,0.1,0.2,0.2c0.1,0.1,0.2,0.1,0.3,0.2c0.1,0.1,0.3,0.1,0.4,0.2s0.3,0.2,0.4,0.3
			c0.1,0.1,0.2,0.2,0.3,0.3C80.6,89.8,80.6,89.9,80.6,90.1z"/>
		<path class="st1" d="M81.8,91.1h-0.4v-3.9h0.4V91.1z"/>
		<path class="st1" d="M85.2,87.2v0.3H84v3.6h-0.4v-3.6h-1.2v-0.3H85.2z"/>
		<path class="st1" d="M87.3,91.2c-0.3,0-0.6-0.1-0.8-0.2c-0.2-0.1-0.4-0.3-0.6-0.4c-0.2-0.2-0.3-0.4-0.4-0.6
			c-0.1-0.2-0.1-0.5-0.1-0.8s0-0.5,0.1-0.8c0.1-0.2,0.2-0.5,0.4-0.6c0.2-0.2,0.4-0.3,0.6-0.4c0.2-0.1,0.5-0.2,0.8-0.2
			c0.3,0,0.6,0.1,0.8,0.2c0.2,0.1,0.4,0.3,0.6,0.4c0.2,0.2,0.3,0.4,0.4,0.6c0.1,0.2,0.1,0.5,0.1,0.8s0,0.5-0.1,0.8
			c-0.1,0.2-0.2,0.5-0.4,0.6c-0.2,0.2-0.4,0.3-0.6,0.4C87.9,91.1,87.6,91.2,87.3,91.2z M87.3,90.8c0.2,0,0.4,0,0.6-0.1
			c0.2-0.1,0.3-0.2,0.5-0.4c0.1-0.2,0.2-0.3,0.3-0.5c0.1-0.2,0.1-0.4,0.1-0.7c0-0.2,0-0.4-0.1-0.6c-0.1-0.2-0.2-0.4-0.3-0.5
			c-0.1-0.2-0.3-0.3-0.5-0.4c-0.2-0.1-0.4-0.1-0.6-0.1c-0.2,0-0.4,0-0.6,0.1c-0.2,0.1-0.3,0.2-0.5,0.4c-0.1,0.2-0.2,0.3-0.3,0.5
			c-0.1,0.2-0.1,0.4-0.1,0.6c0,0.2,0,0.5,0.1,0.7c0.1,0.2,0.2,0.4,0.3,0.5c0.1,0.2,0.3,0.3,0.5,0.4C86.9,90.8,87.1,90.8,87.3,90.8z"
			/>
		<path class="st1" d="M92.3,88.3c0,0.2,0,0.3-0.1,0.4c-0.1,0.1-0.1,0.2-0.2,0.3c-0.1,0.1-0.2,0.2-0.3,0.2c-0.1,0.1-0.3,0.1-0.4,0.1
			l1.4,1.7h-0.5l-1.3-1.6c0,0-0.1,0-0.1,0c0,0-0.1,0-0.1,0h-0.3v1.6h-0.4v-3.9h0.9c0.2,0,0.4,0,0.5,0.1c0.2,0,0.3,0.1,0.5,0.2
			c0.1,0.1,0.2,0.2,0.3,0.3C92.3,87.9,92.3,88.1,92.3,88.3z M91.9,88.3c0-0.1,0-0.3-0.1-0.3c-0.1-0.1-0.1-0.2-0.2-0.2
			c-0.1-0.1-0.2-0.1-0.3-0.1c-0.1,0-0.3,0-0.4,0h-0.5v1.6h0.3c0.2,0,0.3,0,0.5-0.1c0.2,0,0.3-0.1,0.4-0.2c0.1-0.1,0.2-0.2,0.3-0.3
			C91.9,88.6,91.9,88.4,91.9,88.3z"/>
		<path class="st1" d="M93.6,91.1h-0.4v-3.9h0.4V91.1z"/>
		<path class="st1" d="M96.3,91.2c-0.3,0-0.6-0.1-0.8-0.2s-0.4-0.3-0.6-0.4c-0.2-0.2-0.3-0.4-0.4-0.6c-0.1-0.2-0.1-0.5-0.1-0.8
			s0-0.5,0.1-0.8c0.1-0.2,0.2-0.5,0.4-0.6c0.2-0.2,0.4-0.3,0.6-0.4c0.2-0.1,0.5-0.2,0.8-0.2c0.3,0,0.6,0.1,0.8,0.2
			c0.2,0.1,0.4,0.3,0.6,0.4c0.2,0.2,0.3,0.4,0.4,0.6c0.1,0.2,0.1,0.5,0.1,0.8s0,0.5-0.1,0.8c-0.1,0.2-0.2,0.5-0.4,0.6
			c-0.2,0.2-0.4,0.3-0.6,0.4S96.6,91.2,96.3,91.2z M96.3,90.8c0.2,0,0.4,0,0.6-0.1c0.2-0.1,0.3-0.2,0.5-0.4c0.1-0.2,0.2-0.3,0.3-0.5
			c0.1-0.2,0.1-0.4,0.1-0.7c0-0.2,0-0.4-0.1-0.6c-0.1-0.2-0.2-0.4-0.3-0.5c-0.1-0.2-0.3-0.3-0.5-0.4c-0.2-0.1-0.4-0.1-0.6-0.1
			c-0.2,0-0.4,0-0.6,0.1c-0.2,0.1-0.3,0.2-0.5,0.4c-0.1,0.2-0.2,0.3-0.3,0.5c-0.1,0.2-0.1,0.4-0.1,0.6c0,0.2,0,0.5,0.1,0.7
			c0.1,0.2,0.2,0.4,0.3,0.5c0.1,0.2,0.3,0.3,0.5,0.4C95.8,90.8,96,90.8,96.3,90.8z"/>
		<path class="st1" d="M101,87.2h1c0.3,0,0.6,0,0.9,0.1c0.3,0.1,0.5,0.2,0.7,0.4c0.2,0.2,0.3,0.4,0.5,0.6c0.1,0.2,0.2,0.5,0.2,0.8
			c0,0.3-0.1,0.5-0.2,0.8c-0.1,0.2-0.3,0.4-0.5,0.6c-0.2,0.2-0.4,0.3-0.7,0.4c-0.3,0.1-0.6,0.1-0.9,0.1h-1V87.2z M102,90.8
			c0.2,0,0.5,0,0.7-0.1c0.2-0.1,0.4-0.2,0.6-0.3c0.2-0.1,0.3-0.3,0.4-0.5c0.1-0.2,0.1-0.4,0.1-0.7c0-0.3,0-0.5-0.1-0.7
			c-0.1-0.2-0.2-0.4-0.4-0.5s-0.4-0.2-0.6-0.3c-0.2-0.1-0.5-0.1-0.7-0.1h-0.6v3.2H102z"/>
		<path class="st1" d="M104.9,87.2h2.1v0.3h-1.7v1.4h1.6v0.3h-1.6v1.5h1.7v0.3h-2.1V87.2z"/>
		<path class="st1" d="M108.2,87.2v3.6h1.6v0.3h-2v-3.9H108.2z"/>
		<path class="st1" d="M114,88.3c0,0.2,0,0.4-0.1,0.5c-0.1,0.1-0.2,0.3-0.3,0.4c-0.1,0.1-0.3,0.2-0.5,0.2c-0.2,0.1-0.4,0.1-0.6,0.1
			h-0.3v1.6h-0.4v-3.9h0.9c0.2,0,0.4,0,0.6,0.1c0.2,0,0.3,0.1,0.5,0.2c0.1,0.1,0.2,0.2,0.3,0.3C114,88,114,88.1,114,88.3z
			 M113.6,88.3c0-0.1,0-0.3-0.1-0.4c-0.1-0.1-0.1-0.2-0.2-0.2c-0.1-0.1-0.2-0.1-0.3-0.1c-0.1,0-0.3,0-0.4,0h-0.5v1.6h0.4
			c0.2,0,0.3,0,0.5-0.1c0.1,0,0.3-0.1,0.4-0.2c0.1-0.1,0.2-0.2,0.2-0.3C113.6,88.6,113.6,88.4,113.6,88.3z"/>
		<path class="st1" d="M117.4,91.1H117l-0.4-1h-1.9l-0.4,1H114l1.5-3.9h0.4L117.4,91.1z M115.7,87.6l-0.8,2.2h1.6L115.7,87.6z"/>
		<path class="st1" d="M120.1,87.2v0.3H119v3.6h-0.4v-3.6h-1.2v-0.3H120.1z"/>
		<path class="st1" d="M123.1,88.3c0,0.2,0,0.3-0.1,0.4c-0.1,0.1-0.1,0.2-0.2,0.3s-0.2,0.2-0.3,0.2c-0.1,0.1-0.3,0.1-0.4,0.1
			l1.4,1.7H123l-1.3-1.6c0,0-0.1,0-0.1,0c0,0-0.1,0-0.1,0h-0.3v1.6h-0.4v-3.9h0.9c0.2,0,0.4,0,0.5,0.1c0.2,0,0.3,0.1,0.5,0.2
			c0.1,0.1,0.2,0.2,0.3,0.3C123.1,87.9,123.1,88.1,123.1,88.3z M122.7,88.3c0-0.1,0-0.3-0.1-0.3c-0.1-0.1-0.1-0.2-0.2-0.2
			c-0.1-0.1-0.2-0.1-0.3-0.1c-0.1,0-0.3,0-0.4,0h-0.5v1.6h0.3c0.2,0,0.3,0,0.5-0.1c0.2,0,0.3-0.1,0.4-0.2c0.1-0.1,0.2-0.2,0.3-0.3
			C122.7,88.6,122.7,88.4,122.7,88.3z"/>
		<path class="st1" d="M124.5,91.1h-0.4v-3.9h0.4V91.1z"/>
		<path class="st1" d="M126,87.9l-0.2,3.2h-0.4l0.3-3.9h0.4l1.4,2.8l1.4-2.8h0.4l0.3,3.9h-0.4l-0.2-3.2l-1.2,2.5h-0.4L126,87.9z"/>
		<path class="st1" d="M132,91.2c-0.3,0-0.6-0.1-0.8-0.2c-0.2-0.1-0.4-0.3-0.6-0.4c-0.2-0.2-0.3-0.4-0.4-0.6
			c-0.1-0.2-0.1-0.5-0.1-0.8s0-0.5,0.1-0.8c0.1-0.2,0.2-0.5,0.4-0.6c0.2-0.2,0.4-0.3,0.6-0.4c0.2-0.1,0.5-0.2,0.8-0.2
			c0.3,0,0.6,0.1,0.8,0.2c0.2,0.1,0.4,0.3,0.6,0.4c0.2,0.2,0.3,0.4,0.4,0.6c0.1,0.2,0.1,0.5,0.1,0.8s0,0.5-0.1,0.8
			c-0.1,0.2-0.2,0.5-0.4,0.6c-0.2,0.2-0.4,0.3-0.6,0.4C132.5,91.1,132.3,91.2,132,91.2z M132,90.8c0.2,0,0.4,0,0.6-0.1
			c0.2-0.1,0.3-0.2,0.5-0.4c0.1-0.2,0.2-0.3,0.3-0.5c0.1-0.2,0.1-0.4,0.1-0.7c0-0.2,0-0.4-0.1-0.6c-0.1-0.2-0.2-0.4-0.3-0.5
			c-0.1-0.2-0.3-0.3-0.5-0.4c-0.2-0.1-0.4-0.1-0.6-0.1c-0.2,0-0.4,0-0.6,0.1c-0.2,0.1-0.3,0.2-0.5,0.4c-0.1,0.2-0.2,0.3-0.3,0.5
			c-0.1,0.2-0.1,0.4-0.1,0.6c0,0.2,0,0.5,0.1,0.7c0.1,0.2,0.2,0.4,0.3,0.5c0.1,0.2,0.3,0.3,0.5,0.4C131.5,90.8,131.7,90.8,132,90.8z
			"/>
		<path class="st1" d="M137.3,91.1l-2.3-3.2v3.2h-0.4v-3.9h0.4l2.3,3.2v-3.2h0.4v3.9H137.3z"/>
		<path class="st1" d="M139.1,91.1h-0.4v-3.9h0.4V91.1z"/>
		<path class="st1" d="M141.7,91.2c-0.3,0-0.6-0.1-0.8-0.2c-0.2-0.1-0.4-0.3-0.6-0.4c-0.2-0.2-0.3-0.4-0.4-0.6
			c-0.1-0.2-0.1-0.5-0.1-0.8s0-0.5,0.1-0.8c0.1-0.2,0.2-0.5,0.4-0.6c0.2-0.2,0.4-0.3,0.6-0.4c0.2-0.1,0.5-0.2,0.8-0.2
			c0.3,0,0.6,0.1,0.8,0.2c0.2,0.1,0.4,0.3,0.6,0.4c0.2,0.2,0.3,0.4,0.4,0.6c0.1,0.2,0.1,0.5,0.1,0.8s0,0.5-0.1,0.8
			c-0.1,0.2-0.2,0.5-0.4,0.6c-0.2,0.2-0.4,0.3-0.6,0.4C142.3,91.1,142,91.2,141.7,91.2z M141.7,90.8c0.2,0,0.4,0,0.6-0.1
			c0.2-0.1,0.3-0.2,0.5-0.4c0.1-0.2,0.2-0.3,0.3-0.5c0.1-0.2,0.1-0.4,0.1-0.7c0-0.2,0-0.4-0.1-0.6c-0.1-0.2-0.2-0.4-0.3-0.5
			c-0.1-0.2-0.3-0.3-0.5-0.4c-0.2-0.1-0.4-0.1-0.6-0.1c-0.2,0-0.4,0-0.6,0.1c-0.2,0.1-0.3,0.2-0.5,0.4c-0.1,0.2-0.2,0.3-0.3,0.5
			c-0.1,0.2-0.1,0.4-0.1,0.6c0,0.2,0,0.5,0.1,0.7c0.1,0.2,0.2,0.4,0.3,0.5c0.1,0.2,0.3,0.3,0.5,0.4
			C141.3,90.8,141.5,90.8,141.7,90.8z"/>
		<path class="st1" d="M147.3,87.1c0.2,0,0.4,0,0.5,0c0.2,0,0.3,0.1,0.5,0.1l-0.1,0.3c-0.1-0.1-0.3-0.1-0.4-0.1c-0.2,0-0.3,0-0.4,0
			c-0.5,0-0.9,0.1-1.2,0.4c-0.3,0.3-0.4,0.7-0.4,1.2s0.1,0.9,0.4,1.2c0.3,0.3,0.7,0.4,1.2,0.4c0.1,0,0.3,0,0.4,0
			c0.2,0,0.3-0.1,0.4-0.1l0.1,0.3c-0.1,0.1-0.3,0.1-0.5,0.1c-0.2,0-0.4,0-0.5,0c-0.3,0-0.6-0.1-0.8-0.2c-0.2-0.1-0.5-0.2-0.6-0.4
			c-0.2-0.2-0.3-0.4-0.4-0.6c-0.1-0.2-0.1-0.5-0.1-0.8c0-0.3,0-0.6,0.1-0.8c0.1-0.2,0.2-0.5,0.4-0.6c0.2-0.2,0.4-0.3,0.6-0.4
			C146.7,87.2,147,87.1,147.3,87.1z"/>
		<path class="st1" d="M151.6,87.2h0.4v2.5c0,0.2,0,0.4-0.1,0.5c-0.1,0.2-0.2,0.3-0.3,0.4c-0.1,0.1-0.3,0.2-0.5,0.3
			c-0.2,0.1-0.4,0.1-0.6,0.1c-0.2,0-0.5,0-0.6-0.1c-0.2-0.1-0.3-0.2-0.5-0.3c-0.1-0.1-0.2-0.3-0.3-0.4c-0.1-0.2-0.1-0.4-0.1-0.5
			v-2.5h0.4v2.6c0,0.3,0.1,0.6,0.3,0.8c0.2,0.2,0.5,0.3,0.8,0.3c0.4,0,0.6-0.1,0.8-0.3c0.2-0.2,0.3-0.5,0.3-0.8V87.2z"/>
		<path class="st1" d="M153.4,87.2v3.6h1.6v0.3h-2v-3.9H153.4z"/>
		<path class="st1" d="M157.6,87.2v0.3h-1.2v3.6h-0.4v-3.6h-1.2v-0.3H157.6z"/>
		<path class="st1" d="M160.8,87.2h0.4v2.5c0,0.2,0,0.4-0.1,0.5c-0.1,0.2-0.2,0.3-0.3,0.4c-0.1,0.1-0.3,0.2-0.5,0.3
			c-0.2,0.1-0.4,0.1-0.6,0.1c-0.2,0-0.5,0-0.6-0.1c-0.2-0.1-0.3-0.2-0.5-0.3c-0.1-0.1-0.2-0.3-0.3-0.4c-0.1-0.2-0.1-0.4-0.1-0.5
			v-2.5h0.4v2.6c0,0.3,0.1,0.6,0.3,0.8c0.2,0.2,0.5,0.3,0.8,0.3c0.4,0,0.6-0.1,0.8-0.3c0.2-0.2,0.3-0.5,0.3-0.8V87.2z"/>
		<path class="st1" d="M164.5,88.3c0,0.2,0,0.3-0.1,0.4c-0.1,0.1-0.1,0.2-0.2,0.3c-0.1,0.1-0.2,0.2-0.3,0.2
			c-0.1,0.1-0.3,0.1-0.4,0.1l1.4,1.7h-0.5l-1.3-1.6c0,0-0.1,0-0.1,0c0,0-0.1,0-0.1,0h-0.3v1.6h-0.4v-3.9h0.9c0.2,0,0.4,0,0.5,0.1
			c0.2,0,0.3,0.1,0.5,0.2c0.1,0.1,0.2,0.2,0.3,0.3C164.5,87.9,164.5,88.1,164.5,88.3z M164.1,88.3c0-0.1,0-0.3-0.1-0.3
			c-0.1-0.1-0.1-0.2-0.2-0.2c-0.1-0.1-0.2-0.1-0.3-0.1c-0.1,0-0.3,0-0.4,0h-0.5v1.6h0.3c0.2,0,0.3,0,0.5-0.1c0.2,0,0.3-0.1,0.4-0.2
			c0.1-0.1,0.2-0.2,0.3-0.3C164.1,88.6,164.1,88.4,164.1,88.3z"/>
		<path class="st1" d="M168.6,91.1h-0.4l-0.4-1H166l-0.4,1h-0.4l1.5-3.9h0.4L168.6,91.1z M166.9,87.6l-0.8,2.2h1.6L166.9,87.6z"/>
		<path class="st1" d="M169.7,87.2v3.6h1.6v0.3h-2v-3.9H169.7z"/>
		<path class="st1" d="M173.2,87.2h1c0.3,0,0.6,0,0.9,0.1c0.3,0.1,0.5,0.2,0.7,0.4c0.2,0.2,0.3,0.4,0.5,0.6c0.1,0.2,0.2,0.5,0.2,0.8
			c0,0.3-0.1,0.5-0.2,0.8c-0.1,0.2-0.3,0.4-0.5,0.6c-0.2,0.2-0.4,0.3-0.7,0.4c-0.3,0.1-0.6,0.1-0.9,0.1h-1V87.2z M174.2,90.8
			c0.2,0,0.5,0,0.7-0.1c0.2-0.1,0.4-0.2,0.6-0.3c0.2-0.1,0.3-0.3,0.4-0.5c0.1-0.2,0.1-0.4,0.1-0.7c0-0.3,0-0.5-0.1-0.7
			c-0.1-0.2-0.2-0.4-0.4-0.5s-0.4-0.2-0.6-0.3c-0.2-0.1-0.5-0.1-0.7-0.1h-0.6v3.2H174.2z"/>
		<path class="st1" d="M177.1,87.2h2.1v0.3h-1.7v1.4h1.6v0.3h-1.6v1.5h1.7v0.3h-2.1V87.2z"/>
		<path class="st1" d="M181.8,87.9l-0.2,3.2h-0.4l0.3-3.9h0.4l1.4,2.8l1.4-2.8h0.4l0.3,3.9h-0.4l-0.2-3.2l-1.2,2.5H183L181.8,87.9z"
			/>
		<path class="st1" d="M186.2,87.2h2.1v0.3h-1.7v1.4h1.6v0.3h-1.6v1.5h1.7v0.3h-2.1V87.2z M186.9,86.8l0.5-0.6h0.5l-0.6,0.6H186.9z"
			/>
		<path class="st1" d="M191.4,87.2h0.4l-1.3,1.9l1.3,1.9h-0.4l-1.1-1.6l-1.1,1.6h-0.4l1.3-1.9l-1.3-1.9h0.4l1.1,1.6L191.4,87.2z"/>
		<path class="st1" d="M193,91.1h-0.4v-3.9h0.4V91.1z"/>
		<path class="st1" d="M195.7,87.1c0.2,0,0.4,0,0.5,0c0.2,0,0.3,0.1,0.5,0.1l-0.1,0.3c-0.1-0.1-0.3-0.1-0.4-0.1c-0.2,0-0.3,0-0.4,0
			c-0.5,0-0.9,0.1-1.2,0.4c-0.3,0.3-0.4,0.7-0.4,1.2s0.1,0.9,0.4,1.2c0.3,0.3,0.7,0.4,1.2,0.4c0.1,0,0.3,0,0.4,0
			c0.2,0,0.3-0.1,0.4-0.1l0.1,0.3c-0.1,0.1-0.3,0.1-0.5,0.1c-0.2,0-0.4,0-0.5,0c-0.3,0-0.6-0.1-0.8-0.2c-0.2-0.1-0.5-0.2-0.6-0.4
			c-0.2-0.2-0.3-0.4-0.4-0.6c-0.1-0.2-0.1-0.5-0.1-0.8c0-0.3,0-0.6,0.1-0.8c0.1-0.2,0.2-0.5,0.4-0.6c0.2-0.2,0.4-0.3,0.6-0.4
			C195.1,87.2,195.4,87.1,195.7,87.1z"/>
		<path class="st1" d="M199.1,91.2c-0.3,0-0.6-0.1-0.8-0.2c-0.2-0.1-0.4-0.3-0.6-0.4c-0.2-0.2-0.3-0.4-0.4-0.6
			c-0.1-0.2-0.1-0.5-0.1-0.8s0-0.5,0.1-0.8c0.1-0.2,0.2-0.5,0.4-0.6c0.2-0.2,0.4-0.3,0.6-0.4c0.2-0.1,0.5-0.2,0.8-0.2
			c0.3,0,0.6,0.1,0.8,0.2c0.2,0.1,0.4,0.3,0.6,0.4c0.2,0.2,0.3,0.4,0.4,0.6c0.1,0.2,0.1,0.5,0.1,0.8s0,0.5-0.1,0.8
			c-0.1,0.2-0.2,0.5-0.4,0.6c-0.2,0.2-0.4,0.3-0.6,0.4C199.6,91.1,199.3,91.2,199.1,91.2z M199.1,90.8c0.2,0,0.4,0,0.6-0.1
			c0.2-0.1,0.3-0.2,0.5-0.4c0.1-0.2,0.2-0.3,0.3-0.5c0.1-0.2,0.1-0.4,0.1-0.7c0-0.2,0-0.4-0.1-0.6c-0.1-0.2-0.2-0.4-0.3-0.5
			c-0.1-0.2-0.3-0.3-0.5-0.4c-0.2-0.1-0.4-0.1-0.6-0.1c-0.2,0-0.4,0-0.6,0.1c-0.2,0.1-0.3,0.2-0.5,0.4c-0.1,0.2-0.2,0.3-0.3,0.5
			c-0.1,0.2-0.1,0.4-0.1,0.6c0,0.2,0,0.5,0.1,0.7c0.1,0.2,0.2,0.4,0.3,0.5c0.1,0.2,0.3,0.3,0.5,0.4
			C198.6,90.8,198.8,90.8,199.1,90.8z"/>
		<g>
			<path class="st1" d="M118,83V64.6h3.4V83H118z"/>
			<path class="st1" d="M141.2,80.9c-1.7,1.6-3.8,2.4-6.6,2.4c-5.9,0-10.2-4.4-10.2-9.6c0-5.2,4-9.6,9.9-9.6c4,0,6.4,2,6.8,2.6
				l-1.8,2.4c-1.3-1.2-3-1.9-5.2-1.9c-3.6,0-6,2.8-6,6.6c0,3.6,3,6.4,6.5,6.4c2.8,0,4.4-1,5-1.6L141.2,80.9z"/>
			<path class="st1" d="M156.9,83l-1.6-3.4H147l-1.6,3.4h-3.8l9.6-19.1l9.6,19.1H156.9z M151.1,70.9l-2.7,5.8h5.5L151.1,70.9z"/>
			<path class="st1" d="M165.7,71.8l0,11.2h-3.4l0-18.8l13.4,12.2l0-11.7h3.4l0,19L165.7,71.8z"/>
			<path class="st1" d="M196.1,83l-1.6-3.4h-8.3l-1.6,3.4h-3.8l9.6-19.1l9.6,19.1H196.1z M190.3,70.9l-2.7,5.8h5.5L190.3,70.9z"/>
		</g>
		<path class="st1" d="M78.3,82.8l0-11.2l-4.8,3.3l-4.8-3.6h0l-3.6-2.7V64l8.5,7.1l8.3-7.1v18.8L78.3,82.8z"/>
		<rect x="84.3" y="64.5" class="st1" width="10.7" height="3.1"/>
		<rect x="84.3" y="72.1" class="st1" width="4.8" height="3.1"/>
		<rect x="84.3" y="79.7" class="st1" width="10.7" height="3.1"/>
		<polygon class="st2" points="110.3,64.5 103.8,73.7 110.5,82.8 114.9,82.8 108,73.6 114.7,64.5 		"/>
		<linearGradient id="SVGID_1_" gradientUnits="userSpaceOnUse" x1="97.0527" y1="68.6196" x2="105.3024" y2="68.6196">
			<stop  offset="9.908536e-04" style="stop-color:#E45237"/>
			<stop  offset="1" style="stop-color:#E34E3A"/>
		</linearGradient>
		<polygon class="st3" points="101.4,64.5 105.3,69.9 103.1,72.7 97.1,64.5 		"/>
		<linearGradient id="SVGID_2_" gradientUnits="userSpaceOnUse" x1="97.0527" y1="78.6625" x2="105.3024" y2="78.6625">
			<stop  offset="9.908536e-04" style="stop-color:#E45237"/>
			<stop  offset="1" style="stop-color:#E34E3A"/>
		</linearGradient>
		<polygon class="st4" points="101.4,82.8 105.3,77.4 103.1,74.5 97.1,82.8 		"/>
	</g>
</g>
</svg>
