<?xml version="1.0" encoding="utf-8"?>
<!-- Generator: Adobe Illustrator 23.1.0, SVG Export Plug-In . SVG Version: 6.00 Build 0)  -->
<svg version="1.1" id="Capa_1" xmlns="http://www.w3.org/2000/svg" xmlns:xlink="http://www.w3.org/1999/xlink" x="0px" y="0px"
	 viewBox="0 0 266 155" style="enable-background:new 0 0 266 155;" xml:space="preserve">
<style type="text/css">
	.st0{fill:#347B98;}
	.st1{fill:#1D1D1B;}
</style>
<g>
	<rect x="70.8" y="14" class="st0" width="124.4" height="3.3"/>
	<rect x="70.8" y="137.7" class="st0" width="124.4" height="3.3"/>
	<g>
		<g>
			<polygon class="st1" points="72.2,60.4 60.7,60.4 50.1,71.6 53.1,74.6 62.6,64.8 67.7,64.8 67.7,69.4 66,71.3 69.2,74.3 
				72.2,71.2 			"/>
			<polygon class="st1" points="72.2,92.1 72.2,80.7 60.8,70.1 57.8,73.1 67.8,82.6 67.8,87.8 63.2,87.8 61.2,86 58.1,89.2 
				61.4,92.1 			"/>
			<polygon class="st1" points="44.5,69.9 44.5,64.8 49.1,64.8 51.1,66.5 54.1,63.3 50.9,60.4 40,60.4 40,71.8 51.7,82.6 54.7,79.6 
							"/>
			<polygon class="st1" points="58.8,78.3 49.6,87.8 44.5,87.8 44.5,83.1 46.2,81.2 43,78.2 40,81.4 40,92.1 51.6,92.1 61.8,81.3 
							"/>
		</g>
		<g>
			<path class="st1" d="M83.5,70.3L83.5,70.3l-5-7.3v11H77V60.4h1.6l4.9,7.4l5-7.4H90V74h-1.5V63L83.5,70.3z"/>
			<path class="st1" d="M101.5,63.9h1.5v10h-1.5v-1.7c-0.7,1.1-1.7,2-3.4,2c-2.4,0-3.8-1.6-3.8-4v-6.2h1.5v5.9c0,1.9,1,3,2.8,3
				c1.7,0,3-1.3,3-3.1V63.9z"/>
			<path class="st1" d="M110.4,74.2c-1.4,0-3-0.6-4.2-1.5l0.8-1.1c1.1,0.8,2.3,1.3,3.5,1.3c1.2,0,2.1-0.6,2.1-1.6v0
				c0-1-1.2-1.4-2.5-1.8c-1.6-0.4-3.3-1-3.3-2.8v0c0-1.7,1.4-2.9,3.4-2.9c1.2,0,2.6,0.4,3.6,1.1l-0.7,1.1c-0.9-0.6-2-1-3-1
				c-1.2,0-1.9,0.6-1.9,1.5v0c0,1,1.2,1.3,2.6,1.7c1.6,0.5,3.2,1.1,3.2,2.9v0C114,73.1,112.4,74.2,110.4,74.2z"/>
			<path class="st1" d="M122,72.9c1.4,0,2.3-0.6,3.2-1.4l0.9,0.8c-1,1.1-2.2,1.9-4.1,1.9c-2.8,0-5-2.1-5-5.2c0-2.9,2-5.2,4.8-5.2
				c3,0,4.7,2.4,4.7,5.3c0,0.1,0,0.3,0,0.5h-8C118.6,71.7,120.2,72.9,122,72.9z M124.9,68.4c-0.2-1.8-1.2-3.4-3.2-3.4
				c-1.7,0-3.1,1.5-3.3,3.4H124.9z"/>
			<path class="st1" d="M134.4,74.2c-3,0-5.2-2.4-5.2-5.2c0-2.9,2.2-5.3,5.2-5.3c3,0,5.2,2.4,5.2,5.2
				C139.6,71.8,137.4,74.2,134.4,74.2z M134.4,65.1c-2.2,0-3.7,1.7-3.7,3.9s1.6,3.9,3.7,3.9c2.2,0,3.7-1.7,3.7-3.9
				C138.1,66.8,136.5,65.1,134.4,65.1z"/>
			<path class="st1" d="M162.6,74H161l-1.6-3.6H152l-1.6,3.6h-1.6l6.2-13.7h1.4L162.6,74z M155.7,62.1l-3.1,6.9h6.2L155.7,62.1z"/>
			<path class="st1" d="M167.3,74h-1.5v-10h1.5v2.6c0.7-1.7,2.2-2.9,4.1-2.8v1.6h-0.1c-2.2,0-4,1.6-4,4.6V74z"/>
			<path class="st1" d="M178.6,74.2c-2.9,0-5.1-2.4-5.1-5.2c0-2.9,2.2-5.3,5.1-5.3c1.9,0,3.1,0.8,4,1.8l-1,1c-0.8-0.8-1.7-1.5-3-1.5
				c-2,0-3.6,1.7-3.6,3.9c0,2.2,1.6,3.9,3.7,3.9c1.3,0,2.3-0.6,3.1-1.5l1,0.9C181.6,73.4,180.4,74.2,178.6,74.2z"/>
			<path class="st1" d="M187.4,74h-1.5V59.8h1.5v5.9c0.7-1.1,1.7-2,3.4-2c2.4,0,3.8,1.6,3.8,4V74h-1.5v-5.9c0-1.9-1-3-2.8-3
				c-1.7,0-3,1.3-3,3.1V74z"/>
			<path class="st1" d="M198.7,61.8v-1.6h1.7v1.6H198.7z M198.8,74v-10h1.5v10H198.8z"/>
			<path class="st1" d="M211.9,63.9h1.6l-4.4,10.1h-1.3l-4.4-10.1h1.7l3.4,8.3L211.9,63.9z"/>
			<path class="st1" d="M220.7,74.2c-3,0-5.2-2.4-5.2-5.2c0-2.9,2.2-5.3,5.2-5.3c3,0,5.2,2.4,5.2,5.2
				C225.9,71.8,223.7,74.2,220.7,74.2z M220.7,65.1c-2.2,0-3.7,1.7-3.7,3.9s1.6,3.9,3.7,3.9c2.2,0,3.7-1.7,3.7-3.9
				C224.4,66.8,222.8,65.1,220.7,65.1z"/>
			<path class="st1" d="M84.8,92v-2c-0.8,1.2-2,2.2-3.8,2.2c-2.4,0-4.8-1.9-4.8-5.2c0-3.3,2.4-5.2,4.8-5.2c1.9,0,3.1,1,3.8,2.1v-6.1
				h1.5V92H84.8z M81.2,83.1c-1.9,0-3.5,1.4-3.5,3.9c0,2.4,1.6,3.9,3.5,3.9c1.9,0,3.6-1.6,3.6-3.9C84.9,84.7,83.1,83.1,81.2,83.1z"
				/>
			<path class="st1" d="M94,91c1.4,0,2.3-0.6,3.2-1.4l0.9,0.8c-1,1.1-2.2,1.9-4.1,1.9c-2.8,0-5-2.1-5-5.2c0-2.9,2-5.2,4.8-5.2
				c3,0,4.7,2.4,4.7,5.3c0,0.1,0,0.3,0,0.5h-8C90.7,89.8,92.3,91,94,91z M97,86.5c-0.2-1.8-1.2-3.4-3.2-3.4c-1.7,0-3.1,1.5-3.3,3.4
				H97z"/>
			<path class="st1" d="M107.1,92V77.9h1.5V92H107.1z"/>
			<path class="st1" d="M112.6,83.9l-0.4-1.2c1.1-0.5,2.2-0.8,3.7-0.8c2.7,0,4.3,1.4,4.3,4V92h-1.4v-1.5c-0.7,0.9-1.9,1.7-3.6,1.7
				c-1.9,0-3.7-1.1-3.7-3.1c0-2.1,1.7-3.3,4.3-3.3c1.3,0,2.2,0.2,3.1,0.4v-0.3c0-1.8-1.1-2.7-3-2.7
				C114.5,83.2,113.6,83.5,112.6,83.9z M112.8,89.1c0,1.3,1.2,2,2.5,2c1.8,0,3.4-1.1,3.4-2.7v-1c-0.7-0.2-1.7-0.4-3-0.4
				C113.8,87,112.8,87.8,112.8,89.1z"/>
			<path class="st1" d="M139.1,79.9h-8.2v4.9h7.4v1.4h-7.4V92h-1.5V78.5h9.8V79.9z"/>
			<path class="st1" d="M146.1,92.3c-3,0-5.2-2.4-5.2-5.2c0-2.9,2.2-5.3,5.2-5.3c3,0,5.2,2.4,5.2,5.2
				C151.4,89.9,149.2,92.3,146.1,92.3z M146.1,83.1c-2.2,0-3.7,1.7-3.7,3.9c0,2.2,1.6,3.9,3.7,3.9c2.2,0,3.7-1.7,3.7-3.9
				C149.9,84.9,148.2,83.1,146.1,83.1z"/>
			<path class="st1" d="M156.1,89.2c0,1.2,0.7,1.7,1.7,1.7c0.5,0,0.9-0.1,1.5-0.3v1.3c-0.5,0.3-1.1,0.4-1.8,0.4
				c-1.6,0-2.8-0.8-2.8-2.8v-6.1h-1.4V82h1.4v-3h1.5v3h3.2v1.3h-3.2V89.2z"/>
			<path class="st1" d="M166.2,92.3c-3,0-5.2-2.4-5.2-5.2c0-2.9,2.2-5.3,5.2-5.3c3,0,5.2,2.4,5.2,5.2
				C171.5,89.9,169.2,92.3,166.2,92.3z M166.2,83.1c-2.2,0-3.7,1.7-3.7,3.9c0,2.2,1.6,3.9,3.7,3.9c2.2,0,3.7-1.7,3.7-3.9
				C169.9,84.9,168.3,83.1,166.2,83.1z"/>
			<path class="st1" d="M178.6,95.2c-1.7,0-3.2-0.5-4.6-1.4l0.7-1.2c1.1,0.8,2.4,1.3,3.9,1.3c2.2,0,3.6-1.2,3.6-3.6v-1.2
				c-0.9,1.2-2.1,2.1-3.9,2.1c-2.4,0-4.7-1.8-4.7-4.7c0-2.9,2.3-4.8,4.7-4.8c1.9,0,3.1,0.9,3.9,2V82h1.5v8.3
				C183.7,93.5,181.7,95.2,178.6,95.2z M178.6,83.1c-1.9,0-3.5,1.3-3.5,3.4c0,2.1,1.6,3.4,3.5,3.4c1.9,0,3.7-1.4,3.7-3.4
				C182.3,84.5,180.5,83.1,178.6,83.1z"/>
			<path class="st1" d="M188.6,92h-1.5V82h1.5v2.6c0.7-1.7,2.2-2.9,4.1-2.8v1.6h-0.1c-2.2,0-4,1.6-4,4.6V92z"/>
			<path class="st1" d="M195,83.9l-0.4-1.2c1.1-0.5,2.2-0.8,3.7-0.8c2.7,0,4.3,1.4,4.3,4V92h-1.4v-1.5c-0.7,0.9-1.9,1.7-3.6,1.7
				c-1.9,0-3.7-1.1-3.7-3.1c0-2.1,1.7-3.3,4.3-3.3c1.3,0,2.2,0.2,3.1,0.4v-0.3c0-1.8-1.1-2.7-3-2.7C196.9,83.2,195.9,83.5,195,83.9z
				 M195.2,89.1c0,1.3,1.2,2,2.5,2c1.8,0,3.4-1.1,3.4-2.7v-1c-0.7-0.2-1.7-0.4-3-0.4C196.2,87,195.2,87.8,195.2,89.1z"/>
			<path class="st1" d="M210.9,82v1.3h-3.2V92h-1.5v-8.7h-1.4V82h1.4v-0.9c0-2.2,1.1-3.4,3-3.4c0.7,0,1.2,0.1,1.7,0.3v1.3
				c-0.5-0.2-1-0.3-1.5-0.3c-1.2,0-1.7,0.7-1.7,2.1V82H210.9z"/>
			<path class="st1" d="M212.9,92V82h1.5v10H212.9z M213.1,80.5l1.8-2.8l1.6,0.7l-2.2,2.1H213.1z"/>
			<path class="st1" d="M218.5,83.9l-0.4-1.2c1.1-0.5,2.2-0.8,3.6-0.8c2.7,0,4.3,1.4,4.3,4V92h-1.4v-1.5c-0.7,0.9-1.9,1.7-3.6,1.7
				c-1.9,0-3.7-1.1-3.7-3.1c0-2.1,1.7-3.3,4.3-3.3c1.3,0,2.2,0.2,3.1,0.4v-0.3c0-1.8-1.1-2.7-3-2.7
				C220.3,83.2,219.4,83.5,218.5,83.9z M218.7,89.1c0,1.3,1.2,2,2.5,2c1.8,0,3.4-1.1,3.4-2.7v-1c-0.7-0.2-1.7-0.4-3-0.4
				C219.7,87,218.7,87.8,218.7,89.1z"/>
		</g>
	</g>
</g>
</svg>
