<?xml version="1.0" encoding="utf-8"?>
<!-- Generator: Adobe Illustrator 23.1.0, SVG Export Plug-In . SVG Version: 6.00 Build 0)  -->
<svg version="1.1" id="Capa_1" xmlns="http://www.w3.org/2000/svg" xmlns:xlink="http://www.w3.org/1999/xlink" x="0px" y="0px"
	 viewBox="0 0 266 155" style="enable-background:new 0 0 266 155;" xml:space="preserve">
<style type="text/css">
	.st0{fill:#347B98;}
	.st1{fill:#59595C;}
	.st2{fill-rule:evenodd;clip-rule:evenodd;fill:#1A181D;}
	.st3{fill:#FFFFFF;}
</style>
<g>
	<rect x="70.8" y="14" class="st0" width="124.4" height="3.3"/>
	<rect x="70.8" y="137.7" class="st0" width="124.4" height="3.3"/>
	<g>
		<g>
			<polygon class="st1" points="105.3,95.4 107.8,95.4 107.8,95.8 105.3,95.8 105.3,97.6 104.7,97.6 104.7,93.6 107.9,93.6 
				107.9,94 105.3,94 			"/>
			<g>
				<path class="st1" d="M114.8,93.6v2.9c0,1.1-0.8,1.1-2.1,1.1c-1.1,0-2.1,0-2.1-1.1v-2.9h0.6v2.9c0,0.6,0.2,0.7,1.5,0.7
					c1.1,0,1.5,0,1.5-0.7v-2.9H114.8z"/>
				<polygon class="st1" points="122.4,97.6 121.5,97.6 118.5,94 118.5,94 118.5,97.6 117.9,97.6 117.9,93.6 118.9,93.6 121.8,97.3 
					121.8,97.3 121.8,93.6 122.4,93.6 				"/>
				<path class="st1" d="M125.5,93.6h2.6c0.6,0,1.8,0.1,1.8,1.5v0.9c0,0.4-0.1,1.5-1.7,1.5h-2.7V93.6z M128,97.2
					c1.1,0,1.2-0.5,1.2-1.2v-1c0-0.2-0.1-1-1.1-1H126v3.2H128z"/>
				<path class="st1" d="M133.3,96.8l-0.4,0.8h-0.6l1.9-4h0.8l2,4h-0.6l-0.4-0.8H133.3z M134.6,94l-1.2,2.4h2.3L134.6,94z"/>
				<path class="st1" d="M141,97.6c-1,0-1.5-0.5-1.5-1.2v-1.5c0-1.1,0.9-1.2,2.2-1.2h0.5c1.1,0,1.4,0.4,1.4,1.1v0.1H143v-0.1
					c0-0.6-0.2-0.8-0.9-0.8h-0.3c-1.2,0-1.7,0.1-1.7,0.8v1.1c0,0.9,0,1.3,1,1.3h0.7c1,0,1.2-0.1,1.2-0.7v-0.3h0.6v0.4
					c0,0.9-0.8,1-1.8,1H141z"/>
				<rect x="146.4" y="93.6" class="st1" width="0.6" height="4"/>
				<path class="st1" d="M152.3,93.6c1.3,0,1.7,0.3,1.7,1.3v1.4c0,0.9-0.4,1.3-1.7,1.3h-0.7c-1.3,0-1.7-0.3-1.7-1.3v-1.4
					c0-1,0.4-1.3,1.7-1.3H152.3z M151.6,94c-0.9,0-1.1,0.2-1.1,0.9v1.4c0,0.8,0.3,0.9,1.1,0.9h0.7c0.8,0,1.1-0.1,1.1-0.9v-1.4
					c0-0.8-0.2-0.9-1.1-0.9H151.6z M152.6,92.8l-1.1,0.5l-0.2-0.2l1-0.6L152.6,92.8z"/>
				<polygon class="st1" points="161.4,97.6 160.4,97.6 157.5,94 157.5,94 157.5,97.6 156.9,97.6 156.9,93.6 157.9,93.6 160.8,97.3 
					160.8,97.3 160.8,93.6 161.4,93.6 				"/>
				<path class="st2" d="M146.5,104.3c0.1-0.1,0.2-0.2,0.3-0.3c0.3-0.4,0.7-0.8,1-1.1c0.1-0.1,0.3-0.3,0.4-0.4
					c0.2-0.3,0.4-0.5,0.7-0.7c0.1-0.1,0.3-0.3,0.4-0.4c0.1-0.1,0.3-0.2,0.4-0.3c0.1,0,0.1,0,0.1,0.1c0.2,0.3-0.5,0.6-0.7,0.7
					c0,0,0,0,0,0c0,0,0,0,0.1,0.1c0.4,0.1,0.7-0.4,0.8-0.7c0.1-0.1,0.2-0.3,0.1-0.5c-0.1-0.2-0.3-0.2-0.5-0.2
					c-0.1,0-0.2,0.1-0.3,0.1c-0.2,0.1-0.5,0.3-0.7,0.4c-0.2,0.1-0.3,0.3-0.5,0.5c-0.5,0.3-0.9,0.8-1.3,1.3c-0.1,0.1-0.2,0.2-0.3,0.2
					c-0.4,0.5-0.8,0.8-1.1,1.3c-0.4,0.5-0.9,1-1.3,1.5c-0.2,0.2-0.3,0.3-0.5,0.5c-0.2,0.2-0.6,0.7-0.8,0.9c-0.4,0.3-0.7,0.7-1.3,0.8
					c-0.5,0.1-0.8-0.3-0.9-0.5c-0.1-0.1-0.2-0.3-0.1-0.4c0.1-0.2,0.5-0.1,0.7-0.3h0V107c-0.7-0.2-1,0-1.3,0.4c0,0.7,0.6,1.2,1.1,1.4
					c0.2,0.1,0.4,0.2,0.7,0.1c0.4-0.1,0.8-0.4,1.1-0.6c0.1-0.1,0.2-0.2,0.3-0.3c0.4-0.3,0.8-0.7,1.1-1.2c0.1-0.1,0.2-0.1,0.2-0.2
					c0.4-0.5,0.8-0.9,1.2-1.4C146,104.8,146.3,104.6,146.5,104.3 M130.8,103.9c0.1-0.1,0.3-0.3,0.4-0.4c0.4-0.5,0.9-0.9,1.3-1.4
					c0.2-0.2,0.3-0.4,0.4-0.6c0-0.1,0-0.1,0-0.2c0-0.1-0.1-0.2-0.3-0.2c-0.1,0.1-0.3,0.1-0.4,0.2c-0.1,0.1-0.1,0.2-0.2,0.3
					c-0.1,0.2-0.3,0.3-0.5,0.5c-0.1,0.1-0.2,0.1-0.2,0.2c-0.4,0.5-0.9,0.9-1.3,1.4c-0.2,0.2-0.3,0.3-0.5,0.5c-0.4,0.6-1,1.1-1.5,1.7
					c-0.2,0.2-0.3,0.3-0.5,0.5c-0.4,0.5-0.8,0.9-1.2,1.3c-0.1,0.1-0.2,0.4-0.1,0.6c0,0.1,0.1,0.1,0.2,0.2c0.5,0,0.7-0.4,0.9-0.7
					c0.3-0.4,0.6-0.7,0.9-1c0.4-0.5,0.9-0.9,1.3-1.5c0.1-0.1,0.1-0.1,0.2-0.2C130.1,104.6,130.5,104.3,130.8,103.9 M149.6,104.8
					c0.1-0.1,0.2-0.2,0.3-0.2c0.3-0.4,0.7-0.7,1-1.1c0.1-0.1,0.2-0.1,0.2-0.2c0.3-0.4,0.6-0.6,0.8-1c0.1-0.2,0.4-0.3,0.4-0.5
					c0.1-0.1,0-0.3,0-0.4c0-0.1,0-0.1-0.1-0.1c0,0-0.1,0-0.2,0c-0.4,0.4-0.8,0.8-1.2,1.2c-0.1,0.1-0.2,0.2-0.4,0.3
					c-0.2,0.3-0.5,0.6-0.8,0.9c-0.3,0.3-0.5,0.5-0.8,0.8c-0.6,0.7-1.3,1.3-1.9,2c-0.4,0.5-1.5,1.2-1.4,1.9h0c0.1,0.1,0.4,0.1,0.6,0
					c0.2-0.1,0.3-0.3,0.4-0.5c0.2-0.3,0.5-0.6,0.8-0.8c0.4-0.5,0.9-0.9,1.3-1.4C149,105.3,149.3,105.1,149.6,104.8 M115.2,101.6
					c-0.2,0.1-0.5,0-0.7,0.1c-0.5,0.1-1.1,0.2-1.6,0.3c-1.5,0.5-2.9,0.9-4.3,1.5c-0.8,0.3-1.5,0.6-2.2,1c-0.8,0.5-1.7,0.9-1.9,1.9
					c0,0.1,0,0.2,0.1,0.3c0.2,0.7,0.8,0.9,1.5,1.2c0.7,0.3,1.4,0.4,2.2,0.6c0.3,0.1,0.7,0,1,0.1c0.4,0.1,1.6,0.1,2,0h0.5
					c0.4-0.1,1,0,1.4-0.1h0.3c0.3-0.1,0.8-0.1,1.1-0.1c0.2,0,0.5,0,0.7,0c0.1,0,0.2-0.1,0.3-0.2c0-0.2,0-0.3-0.1-0.5
					c-0.5-0.1-1.3,0-1.8,0.1c-0.4,0.1-0.8,0-1.1,0.1c-0.4,0-0.8,0.1-1.3,0.1h-0.5c-0.3,0.1-1.2,0.1-1.5,0c-0.4-0.1-0.7,0-1.1-0.1
					c-1-0.2-1.9-0.4-2.5-0.9c-0.1-0.1-0.2-0.3-0.3-0.4c0-0.8,0.9-1.2,1.4-1.5c0.7-0.4,1.5-0.7,2.3-1c1.1-0.5,2.3-0.8,3.5-1.3
					c0.6-0.2,1.2-0.3,1.8-0.5c0.2,0,0.6-0.1,0.7,0c0.1,0,0.1,0,0.2,0.1c0,0.2-0.1,0.3-0.2,0.4c0,0,0,0.1,0,0.1
					c0.6,0.1,1.2-0.3,1.1-0.9C115.8,101.7,115.7,101.7,115.2,101.6 M151.3,103.6c-0.2,0.2-0.4,0.3-0.4,0.7c0.1,0.1,0.1,0.2,0.3,0.3
					c0.1,0.1,0.3,0.1,0.3,0c0.2-0.1,0.4-0.4,0.4-0.7C151.7,103.7,151.7,103.6,151.3,103.6 M133.1,105.1c-0.1-0.1-0.2-0.2-0.2-0.4
					c-0.2,0-0.3,0-0.4,0.1c0,0.2,0,0.4,0.1,0.5v0c-1.1,0-2.1,0.8-2.6,1.5c-0.2,0.3-0.5,0.8-0.2,1.3c0.3,0.4,1.2,0.2,1.6,0
					c0.8-0.3,1.8-0.7,2-1.6c0.1-0.3-0.1-0.6-0.1-0.8c0.1,0,0.2,0,0.3-0.1v-0.1c-0.1-0.1-0.2-0.1-0.3-0.2
					C133.1,105.4,133.1,105.2,133.1,105.1 M132.5,106.6c-0.2,0.5-1.3,1.1-2,1.1c0,0-0.1-0.1-0.2-0.1c0-0.4,0.3-0.5,0.5-0.7
					c0.3-0.2,0.7-0.5,1-0.7c0.2-0.1,0.5-0.1,0.7-0.2h0.1C132.6,106.2,132.6,106.4,132.5,106.6 M122,105.9c-0.6-0.6-1.6-0.9-2.8-0.8
					c-0.1,0.1-0.3,0-0.4,0.1c-0.1,0-0.2,0.1-0.3,0.2c0,0.1-0.1,0.2,0,0.3c0,0.1,0.1,0.1,0.2,0.2c0.3,0,0.4-0.1,0.6-0.2
					c0.2,0,0.4,0,0.7,0c0.5,0.1,1.5,0.3,1.7,0.7h0c0,0,0,0.1,0,0.1c-0.2,0-0.4-0.1-0.6-0.2c-0.3-0.1-0.7-0.2-1-0.2
					c-0.1,0-0.3,0-0.4,0c-1-0.2-2.1,0.2-2.4,0.8c-0.1,0.2-0.4,0.7-0.3,1c0.1,0.4,0.4,0.5,0.7,0.6h0.3c0.3,0.1,0.9,0,1.3-0.1
					c0.1,0,0.3,0,0.4,0c0.5-0.1,1.1-0.2,1.6-0.3c0.4-0.1,0.9,0,1.1-0.1c0.1-0.3,0-0.4-0.2-0.5c-0.4-0.1-0.8,0-1.2,0.1
					c-0.3,0-0.6,0.1-0.9,0.1c-0.7,0.2-1.7,0.4-2.5,0.2c-0.3-1.4,2.2-1.1,3.2-0.9c0.2,0.1,0.4,0.1,0.6,0.2c0.3,0.1,0.9,0.1,1.1-0.1
					C122.6,106.4,122.2,106.1,122,105.9 M161.2,105.6c-0.3-0.4-0.9-0.4-1.4-0.2c-0.7,0.2-1.4,0.6-2,1c-0.3,0.2-0.7,0.3-1,0.6h0
					c0.1-0.5,0.5-1.2,0.2-1.7c-0.5-0.1-0.8,0.1-1.2,0.2c-0.7,0.3-1.3,0.6-1.9,0.9c-0.3,0.2-0.7,0.3-0.9,0.5h-0.1
					c0.1-0.3,0.4-0.5,0.6-0.7c0.1-0.2,0.2-0.3,0.3-0.5c0-0.1-0.1-0.2-0.1-0.3c-0.5-0.1-0.7,0-1,0.2c0,0,0,0,0,0.1
					c0.1,0,0.1,0,0.2,0.1v0.1c-0.5,0.4-0.8,1.1-1.3,1.5c-0.2,0.2-0.6,0.4-0.6,0.9c0,0,0.1,0.1,0.1,0.1c0.4,0.1,1.1-0.2,1.4-0.3
					c1.2-0.6,2.5-1.3,3.7-1.9h0.1c-0.2,0.6-0.3,1.3-0.7,1.7c0,0.2,0,0.3,0.1,0.4c0,0,0.1,0.1,0.1,0.1c0.5,0,0.9-0.4,1.2-0.6
					c0.7-0.5,1.3-0.9,2.1-1.3c0.2-0.1,1.1-0.6,1.4-0.3c0.7,0.1,0.2,1.5,0,1.9c-0.1,0.2,0,0.2,0.1,0.3c0.1,0,0.1,0,0.1,0.1
					C161.6,108.4,161.6,106.3,161.2,105.6 M136.9,105.3c-0.1,0.1-0.3,0.1-0.4,0.1c-0.3,0.1-0.7,0.5-0.9,0.8
					c-0.3,0.5-0.3,1.3-0.7,1.6c-0.4,0-0.7-0.3-0.9-0.6c-0.1,0-0.1,0-0.2,0.1c-0.1,0-0.1,0-0.1,0.1c-0.1,0.1,0,0.1,0,0.3
					c0.2,0.2,0.3,0.4,0.6,0.6c0.1,0.1,0.2,0.1,0.3,0.1c0.2,0.1,0.4,0,0.6-0.1c0.9-0.3,0.5-1.5,1.1-2.1c0.1-0.1,0.7-0.6,1-0.4
					c0.1,0,0.1,0,0.1,0.1c0,0.2-0.1,0.3-0.1,0.4v0.1c0.1,0,0.2,0,0.3,0c0.2-0.1,0.4-0.5,0.2-0.8
					C137.7,105.3,137.4,105.3,136.9,105.3 M127.1,105.8c0.1,0,0.1-0.1,0.1-0.2c-0.1-0.2-0.2-0.2-0.5-0.2c-0.1,0.1-0.2,0-0.4,0.1
					c-0.3,0.1-0.9,0.3-1,0.4h-0.1c0-0.1,0.1-0.3,0-0.4c0-0.1,0-0.1-0.1-0.1c-0.1-0.1-0.4,0-0.5,0c-0.3,0.1-1.2,0.4-1.3,0.6
					c0,0,0,0,0,0.1c0,0,0,0,0.1,0.1c0.2,0,0.9-0.1,1-0.2c0.2,0,0.2,0,0.3,0.1c0,0.6-0.7,1.2-1.1,1.5c-0.2,0.2-0.4,0.3-0.4,0.7
					c0.1,0.1,0.1,0.1,0.2,0.2c0.6,0.1,0.8-0.3,1.1-0.7c0.4-0.6,0.9-1.2,1.6-1.6c0.2-0.1,0.5-0.3,0.8-0.3H127.1z M151.1,105.4
					c-0.1,0-0.1-0.1-0.3-0.1c-0.7,0.6-1.3,1.3-2,2c-0.2,0.2-0.6,0.5-0.3,0.9c0.2,0.4,0.6,0,0.8-0.2c0.5-0.4,0.9-1,1.3-1.5
					c0.2-0.2,0.5-0.4,0.6-0.7C151.2,105.8,151.1,105.5,151.1,105.4"/>
			</g>
		</g>
		<g>
			<g>
				<defs>
					<path id="SVGID_1_" d="M194,76.6c0,1.2-1,2.2-2.2,2.2H74.2c-1.2,0-2.2-1-2.2-2.2V61.7c0-1.2,1-2.2,2.2-2.2h117.6
						c1.2,0,2.2,1,2.2,2.2V76.6z"/>
				</defs>
				<clipPath id="SVGID_2_">
					<use xlink:href="#SVGID_1_"  style="overflow:visible;"/>
				</clipPath>
				<g transform="matrix(1 0 0 1 -3.814697e-06 -1.907349e-06)" style="clip-path:url(#SVGID_2_);">
					
						<image style="overflow:visible;" width="3006" height="1606" xlink:href="BC4420A3.png"  transform="matrix(4.679283e-02 0 0 4.679283e-02 62.6026 31.7549)">
					</image>
				</g>
			</g>
		</g>
		<g>
			<g>
				<path class="st3" d="M90.8,71.8v-0.3c0.3,0,0.5,0,0.5-0.1c0,0,0.1-0.1,0.1-0.2c0-0.1,0-0.5,0-1l0-2c0-0.7,0-1,0-1.1
					c0,0,0-0.1-0.1-0.1c0,0-0.2-0.1-0.6-0.1v-0.3c0.5,0,0.9,0,1.2,0c0.5,0,0.9,0,1.2,0V67c-0.3,0-0.5,0-0.5,0.1c0,0-0.1,0-0.1,0.1
					c0,0,0,0.2-0.1,0.4c0,0.3,0,0.7,0,1.1v0.3c0.3,0,0.7,0,1.2,0c0.5,0,0.8,0,1.1,0c0-0.8,0-1.3,0-1.6c0-0.1,0-0.2-0.1-0.3
					c-0.1,0-0.2-0.1-0.6-0.1v-0.3c0.6,0,1,0,1.2,0c0.4,0,0.8,0,1.2,0V67c-0.3,0-0.5,0-0.5,0.1c0,0-0.1,0-0.1,0.1c0,0.1,0,0.3,0,0.6
					c0,0.5,0,1,0,1.3l0,1.7c0,0.4,0,0.6,0,0.6c0,0.1,0,0.1,0.1,0.1c0,0,0.2,0,0.5,0.1v0.3l-0.4,0c-0.3,0-0.5,0-0.7,0
					c-0.4,0-0.8,0-1.3,0v-0.3c0.3,0,0.5,0,0.5-0.1c0,0,0.1-0.1,0.1-0.3c0-0.3,0-0.9,0-1.8c-0.3,0-0.6,0-0.9,0c-0.5,0-1,0-1.4,0v0.2
					c0,0.6,0,1.1,0,1.4c0,0.2,0,0.3,0.1,0.4c0,0,0.2,0.1,0.6,0.1v0.3l-0.4,0c-0.3,0-0.5,0-0.7,0L90.8,71.8z"/>
				<path class="st3" d="M97,71.8v-0.3c0.3,0,0.5,0,0.6-0.1c0,0,0.1-0.1,0.1-0.3c0-0.3,0-0.9,0-1.8c0-0.3,0-0.8,0-1.5
					c0-0.4,0-0.7,0-0.7c0,0,0-0.1-0.1-0.1c-0.1,0-0.2-0.1-0.6-0.1v-0.3c0.5,0,0.9,0,1.1,0c0.5,0,0.9,0,1.2,0V67
					c-0.3,0-0.5,0-0.6,0.1c0,0-0.1,0.1-0.1,0.2c0,0.2,0,0.7,0,1.4c0,0.9,0,1.6,0,2c0,0.4,0,0.6,0.1,0.7c0,0,0,0.1,0.1,0.1
					c0,0,0.2,0,0.5,0.1v0.3l-0.4,0c-0.3,0-0.5,0-0.7,0L97,71.8z"/>
				<path class="st3" d="M100.2,70.3h0.3c0,0.4,0,0.6,0,0.6c0,0.1,0.1,0.1,0.2,0.2c0.1,0.1,0.3,0.2,0.5,0.2c0.2,0.1,0.4,0.1,0.6,0.1
					c0.3,0,0.6-0.1,0.8-0.3c0.2-0.2,0.3-0.4,0.3-0.7c0-0.2-0.1-0.4-0.2-0.6c-0.1-0.1-0.4-0.2-0.8-0.3c-0.6-0.1-1-0.2-1.2-0.3
					c-0.2-0.1-0.4-0.2-0.5-0.4c-0.1-0.2-0.2-0.4-0.2-0.7c0-0.5,0.2-0.8,0.5-1.2c0.3-0.3,0.8-0.5,1.5-0.5c0.3,0,0.5,0,0.7,0.1
					c0.2,0,0.4,0.1,0.6,0.2l0,0.1c0,0.2-0.1,0.3-0.1,0.4c0,0.1,0,0.3,0,0.6h-0.3c0-0.4,0-0.6-0.1-0.6c0-0.1-0.2-0.2-0.4-0.3
					c-0.2-0.1-0.4-0.1-0.6-0.1c-0.3,0-0.6,0.1-0.8,0.2c-0.2,0.2-0.3,0.4-0.3,0.6c0,0.2,0,0.3,0.1,0.4c0.1,0.1,0.2,0.2,0.3,0.3
					c0.1,0.1,0.4,0.1,0.9,0.2c0.4,0.1,0.7,0.1,0.8,0.2c0.2,0.1,0.4,0.2,0.5,0.4c0.1,0.2,0.2,0.4,0.2,0.7c0,0.5-0.2,0.9-0.6,1.3
					c-0.4,0.3-0.9,0.5-1.6,0.5c-0.3,0-0.6,0-0.8-0.1c-0.2-0.1-0.5-0.2-0.8-0.3c0-0.2,0.1-0.3,0.1-0.5
					C100.2,70.9,100.2,70.6,100.2,70.3z"/>
				<path class="st3" d="M105.5,71.8v-0.3c0.1,0,0.3,0,0.4,0c0.1,0,0.1,0,0.1-0.1c0,0,0.1-0.1,0.1-0.2c0-0.1,0-0.5,0-1.1
					c0-0.5,0-1,0-1.4c0-1,0-1.5,0-1.5c0,0-0.1,0-0.3,0c-0.3,0-0.6,0-0.9,0c-0.1,0-0.2,0-0.2,0c0,0,0,0,0,0.1c0,0,0,0.2-0.1,0.6h-0.3
					c0-0.5,0-0.9,0-1.2l0,0c0.8,0,1.5,0.1,2.2,0.1c0.7,0,1.5,0,2.4-0.1l0,0.1c0,0.3-0.1,0.7-0.1,1.2h-0.3c0-0.4,0-0.6-0.1-0.7
					c0,0-0.1,0-0.1-0.1c-0.2,0-0.6,0-1.2,0c0,0-0.1,0-0.1,0c0,0,0,0.1,0,0.2l0,2.4c0,0.7,0,1.1,0,1.3c0,0.2,0,0.3,0.1,0.3
					c0,0,0.2,0,0.6,0.1v0.3c-0.4,0-0.7,0-1.1,0C106.2,71.8,105.8,71.8,105.5,71.8z"/>
				<path class="st3" d="M112.3,71.9c-0.9,0-1.6-0.2-2.1-0.7c-0.5-0.5-0.7-1.1-0.7-1.9c0-0.6,0.1-1,0.3-1.4c0.2-0.4,0.6-0.7,1-0.9
					c0.4-0.2,0.9-0.3,1.6-0.3c0.6,0,1.1,0.1,1.5,0.3c0.4,0.2,0.7,0.5,0.9,0.8c0.2,0.4,0.3,0.8,0.3,1.3c0,0.6-0.1,1.1-0.3,1.5
					c-0.2,0.4-0.6,0.7-1,1C113.4,71.8,112.9,71.9,112.3,71.9z M112.4,71.5c0.5,0,0.9-0.2,1.2-0.5c0.3-0.4,0.4-0.9,0.4-1.6
					c0-0.8-0.2-1.4-0.5-1.8c-0.3-0.3-0.7-0.5-1.2-0.5c-0.5,0-0.9,0.2-1.2,0.5c-0.3,0.3-0.4,0.9-0.4,1.6c0,0.5,0.1,1,0.2,1.3
					c0.2,0.4,0.4,0.6,0.6,0.8C111.7,71.4,112,71.5,112.4,71.5z"/>
				<path class="st3" d="M115.7,71.8v-0.3c0.3,0,0.4,0,0.5-0.1c0,0,0,0,0.1-0.1c0-0.1,0-0.3,0.1-0.6c0-0.5,0-0.9,0-1.2
					c0-0.4,0-0.9,0-1.5c0-0.5,0-0.7-0.1-0.9c0,0,0-0.1-0.1-0.1c0,0-0.2-0.1-0.5-0.1v-0.3c0.5,0,0.8,0,1,0l1.8,0c0.4,0,0.7,0,0.9,0.1
					c0.2,0.1,0.3,0.2,0.4,0.4c0.1,0.2,0.2,0.4,0.2,0.6c0,0.3-0.1,0.5-0.3,0.8c-0.2,0.2-0.5,0.4-0.9,0.6l0.8,1.2l0.6,0.9
					c0.1,0.1,0.2,0.2,0.3,0.3c0.1,0,0.1,0,0.3,0v0.3l-0.2,0c-0.6,0-1,0-1.2,0c-0.2-0.3-0.5-0.8-0.9-1.5l-0.7-1.1c0,0,0-0.1,0.1-0.1
					c0.1,0,0.2,0,0.2,0c0.2,0,0.4-0.1,0.7-0.3c0.2-0.2,0.3-0.4,0.3-0.8c0-0.3-0.1-0.5-0.3-0.7c-0.2-0.2-0.4-0.2-0.8-0.2
					c-0.1,0-0.3,0-0.4,0l0,1.1l0,1.4c0,0.3,0,0.7,0,1.2c0,0.4,0,0.6,0.1,0.6c0,0,0,0.1,0.1,0.1c0.1,0,0.2,0.1,0.5,0.1v0.3
					c-0.4,0-0.8,0-1.2,0C116.5,71.8,116.1,71.8,115.7,71.8z"/>
				<path class="st3" d="M121.1,71.8v-0.3c0.3,0,0.5,0,0.6-0.1c0,0,0.1-0.1,0.1-0.3c0-0.3,0-0.9,0-1.8c0-0.3,0-0.8,0-1.5
					c0-0.4,0-0.7,0-0.7c0,0,0-0.1-0.1-0.1c-0.1,0-0.2-0.1-0.6-0.1v-0.3c0.5,0,0.9,0,1.1,0c0.5,0,0.9,0,1.2,0V67
					c-0.3,0-0.5,0-0.6,0.1c0,0-0.1,0.1-0.1,0.2c0,0.2,0,0.7,0,1.4c0,0.9,0,1.6,0,2c0,0.4,0,0.6,0.1,0.7c0,0,0,0.1,0.1,0.1
					c0,0,0.2,0,0.5,0.1v0.3l-0.4,0c-0.3,0-0.5,0-0.7,0L121.1,71.8z"/>
				<path class="st3" d="M123.9,71.5c0.2,0,0.4,0,0.4-0.1c0,0,0.1-0.1,0.2-0.3c0.1-0.3,0.3-0.8,0.6-1.3l1.3-3.2h0.5l1.6,3.9
					c0.2,0.5,0.3,0.8,0.4,0.8c0,0,0.2,0.1,0.5,0.1v0.3c-0.4,0-0.8,0-1.1,0c-0.4,0-0.8,0-1.2,0v-0.3c0.3,0,0.5,0,0.5,0
					c0,0,0.1-0.1,0.1-0.1c0,0-0.1-0.2-0.2-0.5l-0.2-0.6c-0.3,0-0.6,0-1,0c-0.3,0-0.6,0-0.9,0l-0.2,0.4c0,0.1-0.1,0.3-0.2,0.5
					c0,0,0,0.1,0,0.1c0,0.1,0,0.1,0.1,0.1c0,0,0.2,0,0.5,0.1v0.3c-0.2,0-0.5,0-0.9,0c-0.3,0-0.6,0-0.8,0V71.5z M126.3,68l-0.8,1.9
					c0.2,0,0.5,0,0.7,0c0.3,0,0.6,0,0.8,0L126.3,68z"/>
				<path class="st3" d="M132.9,71.8v-0.2c0.1-0.1,0.2-0.1,0.3-0.2c0-0.3,0-1,0-1.9c0-0.4,0-0.7,0-1c0-0.3,0-0.4,0-0.5c0,0,0,0,0,0
					c0,0-0.2,0-0.4-0.1v-0.2c0.3,0,0.6,0,1,0l1.4,0c0.5,0,0.9,0.1,1.2,0.2c0.3,0.1,0.5,0.3,0.6,0.6c0.2,0.3,0.2,0.6,0.2,1
					c0,0.5-0.1,0.9-0.4,1.3c-0.2,0.4-0.6,0.6-0.9,0.8c-0.4,0.2-0.7,0.2-1.1,0.2l-1.1,0C133.5,71.8,133.2,71.8,132.9,71.8z M134,71.5
					c0.2,0,0.3,0,0.5,0c0.4,0,0.8-0.1,1-0.2c0.2-0.1,0.4-0.3,0.6-0.6c0.1-0.3,0.2-0.6,0.2-1c0-0.5-0.1-1-0.4-1.2
					c-0.2-0.3-0.6-0.4-1.2-0.4c-0.1,0-0.3,0-0.6,0l0,1.8C134,70.7,134,71.2,134,71.5z"/>
				<path class="st3" d="M137.8,71.8v-0.2c0.1,0,0.2-0.1,0.3-0.2c0-0.3,0.1-0.9,0.1-1.9c0-0.7,0-1.1,0-1.3c0-0.1,0-0.2-0.1-0.2
					c0,0-0.2-0.1-0.4-0.1v-0.2c0.5,0,0.8,0,1.1,0l1.6,0c0.2,0,0.3,0,0.5,0l0,0c0,0.2-0.1,0.5-0.1,0.9h-0.2c0-0.3,0-0.4,0-0.5
					c0,0-0.1,0-0.1-0.1c-0.2,0-0.4-0.1-0.7-0.1c-0.2,0-0.4,0-0.6,0c0,0.6,0,1.1,0,1.4c0.2,0,0.4,0,0.6,0c0.3,0,0.4,0,0.5,0
					c0,0,0.1,0,0.1-0.1c0,0,0-0.2,0-0.4h0.3c0,0.3,0,0.5,0,0.6l0,0.7h-0.3c0-0.3,0-0.4-0.1-0.4c0,0,0,0-0.1-0.1c-0.1,0-0.3,0-0.7,0
					c-0.1,0-0.2,0-0.4,0c0,0.1,0,0.2,0,0.3c0,0.6,0,1,0,1.3l0.6,0c0.3,0,0.6,0,0.9-0.1c0-0.2,0.1-0.4,0.1-0.6h0.2
					c0,0.3-0.1,0.7-0.1,1c-0.2,0-0.3,0-0.5,0c-0.1,0-0.3,0-0.6,0c-0.3,0-0.6,0-0.8,0C138.5,71.8,138.2,71.8,137.8,71.8z"/>
				<path class="st3" d="M144.2,71.8v-0.3l0.2,0c0.2,0,0.3,0,0.3-0.1c0-0.1,0.1-0.2,0.1-0.5c0-0.6,0-1.2,0-1.9c0-0.4,0-0.8,0-1.3
					c0-0.3,0-0.5,0-0.5c0,0,0-0.1-0.1-0.1c0,0-0.2,0-0.5-0.1v-0.3c0.3,0,0.6,0,0.9,0c0.3,0,0.6,0,0.9,0c0.1,0.3,0.3,0.6,0.4,0.9
					c0.1,0.2,0.5,1.1,1.3,2.7c0.8-1.7,1.4-2.9,1.7-3.7c0.3,0,0.6,0,0.8,0c0.3,0,0.6,0,0.9,0V67c-0.3,0-0.5,0-0.5,0.1
					c0,0-0.1,0.1-0.1,0.3c0,0.3,0,0.9,0,1.7c0,0.4,0,0.9,0,1.4c0,0.5,0,0.8,0,0.8c0,0,0,0.1,0.1,0.1c0,0,0.2,0,0.5,0.1v0.3
					c-0.4,0-0.7,0-1.1,0c-0.3,0-0.7,0-1.3,0v-0.3l0.2,0c0.2,0,0.3,0,0.3-0.1c0,0,0.1-0.1,0.1-0.3c0-0.2,0-0.6,0-1.2v-2.2
					c-0.4,0.8-0.9,1.7-1.4,3c-0.2,0.5-0.4,0.9-0.6,1.2h-0.2c-0.2-0.4-0.4-0.9-0.7-1.6l-1.3-2.6v0.5c0,1.4,0,2.3,0,2.8
					c0,0.2,0,0.3,0.1,0.4c0,0,0.2,0.1,0.5,0.1v0.3c-0.2,0-0.5,0-0.7,0C144.8,71.8,144.5,71.8,144.2,71.8z"/>
				<path class="st3" d="M152,71.8v-0.2c0.1-0.1,0.2-0.1,0.4-0.2c0-0.4,0.1-1.2,0.1-2.4c0-0.8,0-1.4,0-1.6c0-0.1,0-0.2-0.1-0.3
					c0,0-0.2-0.1-0.5-0.1v-0.3c0.6,0,1,0,1.4,0l2,0c0.2,0,0.4,0,0.6,0l0,0c-0.1,0.3-0.1,0.6-0.1,1.1h-0.3c0-0.4,0-0.5,0-0.6
					c0,0-0.1,0-0.2-0.1c-0.2,0-0.5-0.1-0.9-0.1c-0.2,0-0.4,0-0.7,0c0,0.8,0,1.3-0.1,1.8c0.3,0,0.5,0,0.7,0c0.3,0,0.5,0,0.6,0
					c0,0,0.1,0,0.1-0.1c0,0,0-0.2,0-0.5h0.3c0,0.4,0,0.7,0,0.8l0,0.8h-0.3c0-0.3,0-0.5-0.1-0.6c0,0,0,0-0.1-0.1c-0.1,0-0.4,0-0.8,0
					c-0.1,0-0.3,0-0.5,0c0,0.1,0,0.3,0,0.4c0,0.7,0,1.2,0,1.6l0.7,0c0.4,0,0.8,0,1.1-0.1c0.1-0.2,0.1-0.5,0.2-0.8h0.3
					c-0.1,0.4-0.1,0.8-0.1,1.2c-0.2,0-0.4,0-0.6,0c-0.1,0-0.4,0-0.8,0c-0.4,0-0.7,0-1,0C152.8,71.8,152.4,71.8,152,71.8z
					 M153.6,66.3h-0.4l0.8-0.8c0.2-0.2,0.3-0.3,0.4-0.3c0.1,0,0.1-0.1,0.2-0.1c0.1,0,0.2,0,0.2,0.1c0.1,0.1,0.1,0.1,0.1,0.2
					c0,0.1,0,0.1-0.1,0.2c0,0.1-0.2,0.1-0.4,0.3L153.6,66.3z"/>
				<path class="st3" d="M156.1,71.8v-0.3c0.2,0,0.4,0,0.4-0.1c0.1,0,0.2-0.2,0.3-0.4l1.2-1.6c-0.4-0.7-0.7-1.2-0.9-1.6
					c-0.2-0.4-0.4-0.6-0.5-0.7c-0.1,0-0.1-0.1-0.2-0.1c-0.1,0-0.1,0-0.2,0l0-0.3l1.4-0.3c0.1,0.1,0.3,0.2,0.4,0.3
					c0.1,0.1,0.3,0.4,0.5,0.9l0.4,0.7l0.9-1.3c0.2-0.2,0.3-0.4,0.3-0.5c0.1,0,0.3,0,0.4,0c0.1,0,0.3,0,0.5,0V67
					c-0.2,0-0.3,0-0.4,0.1c-0.1,0-0.2,0.2-0.3,0.4l-1.1,1.5l0.2,0.4c0.4,0.8,0.7,1.3,0.9,1.5c0.2,0.3,0.4,0.5,0.4,0.6
					c0,0,0.2,0,0.3,0.1v0.3c-0.3,0-0.5,0-0.8,0c-0.2,0-0.4,0-0.7,0c-0.1-0.2-0.2-0.4-0.4-0.7l-0.7-1.3l-0.7,1
					c-0.1,0.1-0.3,0.5-0.6,1c-0.2,0-0.3,0-0.4,0C156.5,71.8,156.3,71.8,156.1,71.8z"/>
				<path class="st3" d="M161.2,71.8v-0.3c0.3,0,0.5,0,0.6-0.1c0,0,0.1-0.1,0.1-0.3c0-0.3,0-0.9,0-1.8c0-0.3,0-0.8,0-1.5
					c0-0.4,0-0.7,0-0.7c0,0,0-0.1-0.1-0.1c-0.1,0-0.2-0.1-0.6-0.1v-0.3c0.5,0,0.9,0,1.1,0c0.5,0,0.9,0,1.2,0V67
					c-0.3,0-0.5,0-0.6,0.1c0,0-0.1,0.1-0.1,0.2c0,0.2,0,0.7,0,1.4c0,0.9,0,1.6,0,2c0,0.4,0,0.6,0.1,0.7c0,0,0,0.1,0.1,0.1
					c0,0,0.2,0,0.5,0.1v0.3l-0.4,0c-0.3,0-0.5,0-0.7,0L161.2,71.8z"/>
				<path class="st3" d="M168.9,71L168.9,71c0,0.2,0,0.3-0.1,0.5c-0.3,0.1-0.6,0.3-0.8,0.3c-0.3,0.1-0.6,0.1-0.9,0.1
					c-0.6,0-1.2-0.1-1.6-0.3c-0.4-0.2-0.8-0.5-1-0.9c-0.2-0.4-0.4-0.9-0.4-1.4c0-0.8,0.3-1.4,0.8-1.9c0.5-0.5,1.3-0.7,2.2-0.7
					c0.3,0,0.6,0,0.9,0.1c0.3,0.1,0.6,0.1,0.9,0.3l0,0.1c0,0.1-0.1,0.3-0.1,0.4c0,0.2-0.1,0.5-0.1,0.8h-0.3c0-0.4,0-0.6,0-0.6
					c0,0-0.1-0.1-0.2-0.2c-0.1-0.1-0.3-0.2-0.5-0.2c-0.2-0.1-0.4-0.1-0.7-0.1c-0.6,0-1,0.2-1.4,0.5c-0.3,0.4-0.5,0.9-0.5,1.5
					c0,0.7,0.2,1.3,0.6,1.7c0.4,0.4,0.9,0.6,1.6,0.6c0.3,0,0.5,0,0.7-0.1C168.4,71.3,168.7,71.2,168.9,71z"/>
				<path class="st3" d="M172.3,71.9c-0.9,0-1.6-0.2-2.1-0.7c-0.5-0.5-0.7-1.1-0.7-1.9c0-0.6,0.1-1,0.3-1.4c0.2-0.4,0.5-0.7,1-0.9
					c0.4-0.2,0.9-0.3,1.6-0.3c0.6,0,1.1,0.1,1.5,0.3c0.4,0.2,0.7,0.5,0.9,0.8c0.2,0.4,0.3,0.8,0.3,1.3c0,0.6-0.1,1.1-0.3,1.5
					c-0.2,0.4-0.6,0.7-1,1C173.4,71.8,172.9,71.9,172.3,71.9z M172.5,71.5c0.5,0,0.9-0.2,1.2-0.5c0.3-0.4,0.4-0.9,0.4-1.6
					c0-0.8-0.2-1.4-0.5-1.8c-0.3-0.3-0.7-0.5-1.2-0.5c-0.5,0-0.9,0.2-1.2,0.5c-0.3,0.3-0.4,0.9-0.4,1.6c0,0.5,0.1,1,0.2,1.3
					c0.2,0.4,0.4,0.6,0.6,0.8C171.8,71.4,172.1,71.5,172.5,71.5z"/>
			</g>
			<g>
				<path class="st1" d="M83.1,55.9L83.1,55.9c0,0.2,0,0.3-0.1,0.4c-0.2,0.1-0.5,0.2-0.7,0.3c-0.2,0.1-0.5,0.1-0.8,0.1
					c-0.6,0-1-0.1-1.4-0.3c-0.4-0.2-0.7-0.5-0.9-0.8c-0.2-0.4-0.3-0.8-0.3-1.2c0-0.7,0.2-1.2,0.7-1.6c0.5-0.4,1.1-0.6,1.9-0.6
					c0.3,0,0.5,0,0.8,0.1c0.3,0,0.5,0.1,0.8,0.2l0,0c0,0.1-0.1,0.2-0.1,0.3c0,0.2,0,0.4-0.1,0.7h-0.3c0-0.3,0-0.5,0-0.6
					c0,0-0.1-0.1-0.2-0.2c-0.1-0.1-0.2-0.1-0.4-0.2c-0.2,0-0.4-0.1-0.6-0.1c-0.5,0-0.9,0.2-1.2,0.5c-0.3,0.3-0.5,0.7-0.5,1.3
					c0,0.6,0.2,1.1,0.5,1.5c0.3,0.3,0.8,0.5,1.4,0.5c0.2,0,0.4,0,0.6-0.1C82.7,56.1,82.9,56.1,83.1,55.9z"/>
				<path class="st1" d="M85.2,56.6v-0.2c0.1,0,0.2-0.1,0.3-0.2c0-0.3,0.1-1,0.1-2.1c0-0.7,0-1.2,0-1.4c0-0.1,0-0.2-0.1-0.2
					c0,0-0.2-0.1-0.5-0.1v-0.3c0.5,0,0.9,0,1.2,0l1.7,0c0.2,0,0.3,0,0.5,0l0,0c0,0.2-0.1,0.5-0.1,0.9h-0.3c0-0.3,0-0.5,0-0.5
					c0,0-0.1,0-0.1-0.1c-0.2,0-0.4-0.1-0.8-0.1c-0.2,0-0.4,0-0.6,0c0,0.7,0,1.2,0,1.6c0.2,0,0.4,0,0.6,0c0.3,0,0.5,0,0.5,0
					c0,0,0.1,0,0.1-0.1c0,0,0-0.2,0-0.4H88c0,0.4,0,0.6,0,0.7l0,0.7h-0.3c0-0.3,0-0.4-0.1-0.5c0,0,0,0-0.1-0.1c-0.1,0-0.3,0-0.7,0
					c-0.1,0-0.3,0-0.4,0c0,0.1,0,0.2,0,0.3c0,0.6,0,1.1,0,1.4l0.6,0c0.4,0,0.7,0,1-0.1c0.1-0.2,0.1-0.4,0.2-0.7h0.3
					c0,0.4-0.1,0.7-0.1,1.1c-0.2,0-0.4,0-0.6,0c-0.1,0-0.3,0-0.7,0c-0.3,0-0.6,0-0.9,0C85.9,56.6,85.5,56.6,85.2,56.6z"/>
				<path class="st1" d="M90.2,56.6v-0.3c0.3,0,0.4,0,0.5-0.1c0,0,0.1,0,0.1-0.1c0-0.1,0-0.2,0-0.5c0-0.5,0-0.9,0-1.1l0-1.3
					c0-0.4,0-0.6,0-0.6c0,0,0-0.1-0.1-0.1c0,0-0.2,0-0.5-0.1v-0.3c0.3,0,0.6,0,0.7,0c0.2,0,0.4,0,0.6,0c0.5,0.6,1,1.3,1.7,2
					c0.4,0.5,0.8,0.9,1.1,1.2v-1.3c0-0.5,0-0.9,0-1.2c0-0.2,0-0.3-0.1-0.4c0,0,0,0-0.1-0.1c0,0-0.2,0-0.4,0v-0.3c0.2,0,0.5,0,0.7,0
					c0.3,0,0.6,0,0.8,0v0.3c-0.2,0-0.4,0-0.4,0.1c0,0,0,0-0.1,0c0,0,0,0,0,0.1c0,0.1,0,0.2,0,0.5l0,1.3l0,1.3c0,0.3,0,0.7,0,1l0,0
					c-0.3,0-0.4-0.1-0.5-0.1c-0.5-0.6-1.2-1.4-2-2.3c-0.4-0.5-0.7-0.8-0.9-1.2v1.2c0,0.3,0,0.7,0,1.2c0,0.3,0,0.5,0,0.6
					c0,0,0,0,0,0.1c0,0,0.2,0,0.5,0.1v0.3c-0.3,0-0.6,0-0.7,0C90.9,56.6,90.6,56.6,90.2,56.6z"/>
				<path class="st1" d="M97.8,56.6v-0.3c0.1,0,0.2,0,0.4,0c0.1,0,0.1,0,0.1-0.1c0,0,0-0.1,0.1-0.1c0-0.1,0-0.4,0-1
					c0-0.4,0-0.8,0-1.3c0-0.8,0-1.3,0-1.3c0,0-0.1,0-0.2,0c-0.3,0-0.5,0-0.8,0c-0.1,0-0.2,0-0.2,0c0,0,0,0,0,0.1c0,0,0,0.2-0.1,0.6
					h-0.3c0-0.4,0-0.8,0-1l0,0c0.7,0,1.3,0,1.9,0c0.6,0,1.3,0,2.1,0l0,0.1c0,0.3-0.1,0.6-0.1,1h-0.3c0-0.4,0-0.5-0.1-0.6
					c0,0,0,0-0.1,0c-0.2,0-0.5,0-1,0c0,0-0.1,0-0.1,0c0,0,0,0.1,0,0.2l0,2.1c0,0.6,0,1,0,1.1c0,0.1,0,0.2,0.1,0.3c0,0,0.2,0,0.5,0.1
					v0.3c-0.3,0-0.6,0-1,0C98.4,56.6,98.1,56.6,97.8,56.6z"/>
				<path class="st1" d="M102.5,56.6v-0.3c0.2,0,0.4,0,0.4-0.1c0,0,0,0,0.1-0.1c0,0,0-0.2,0-0.5c0-0.5,0-0.8,0-1.1
					c0-0.4,0-0.8,0-1.3c0-0.4,0-0.7-0.1-0.7c0,0,0,0,0-0.1c0,0-0.2,0-0.4-0.1v-0.3c0.4,0,0.7,0,0.8,0l1.6,0c0.3,0,0.6,0,0.8,0.1
					c0.2,0.1,0.3,0.2,0.4,0.3c0.1,0.1,0.1,0.3,0.1,0.5c0,0.3-0.1,0.5-0.2,0.7c-0.1,0.2-0.4,0.4-0.8,0.5l0.7,1l0.5,0.8
					c0.1,0.1,0.2,0.2,0.2,0.2c0,0,0.1,0,0.2,0v0.2l-0.2,0c-0.5,0-0.9,0-1,0c-0.2-0.3-0.5-0.7-0.8-1.3l-0.7-1c0,0,0-0.1,0-0.1
					c0.1,0,0.1,0,0.2,0c0.2,0,0.4-0.1,0.6-0.2c0.2-0.2,0.3-0.4,0.3-0.7c0-0.3-0.1-0.5-0.2-0.6c-0.2-0.1-0.4-0.2-0.7-0.2
					c-0.1,0-0.2,0-0.4,0l0,0.9l0,1.2c0,0.3,0,0.6,0,1c0,0.3,0,0.5,0,0.5c0,0,0,0,0.1,0.1c0,0,0.2,0,0.4,0.1v0.3c-0.4,0-0.7,0-1,0
					C103.2,56.6,102.9,56.6,102.5,56.6z"/>
				<path class="st1" d="M111,56.7c-0.8,0-1.4-0.2-1.8-0.6c-0.4-0.4-0.6-1-0.6-1.7c0-0.5,0.1-0.9,0.3-1.3c0.2-0.3,0.5-0.6,0.8-0.8
					c0.4-0.2,0.8-0.3,1.4-0.3c0.5,0,1,0.1,1.3,0.3c0.3,0.2,0.6,0.4,0.8,0.7c0.2,0.3,0.3,0.7,0.3,1.2c0,0.5-0.1,0.9-0.3,1.3
					c-0.2,0.4-0.5,0.6-0.9,0.8C111.9,56.6,111.5,56.7,111,56.7z M111.1,56.3c0.4,0,0.8-0.2,1-0.5c0.3-0.3,0.4-0.8,0.4-1.4
					c0-0.7-0.1-1.2-0.4-1.5c-0.2-0.3-0.6-0.4-1.1-0.4c-0.5,0-0.8,0.2-1.1,0.5c-0.3,0.3-0.4,0.8-0.4,1.4c0,0.5,0.1,0.8,0.2,1.2
					c0.1,0.3,0.3,0.5,0.5,0.7C110.5,56.3,110.8,56.3,111.1,56.3z"/>
				<path class="st1" d="M118.3,56.6v-0.1c0.1-0.1,0.2-0.1,0.3-0.2c0-0.3,0-0.9,0-1.7c0-0.4,0-0.7,0-0.9c0-0.2,0-0.4,0-0.4
					c0,0,0,0,0,0c0,0-0.2,0-0.4-0.1V53c0.3,0,0.6,0,0.9,0l1.3,0c0.5,0,0.8,0.1,1,0.2c0.2,0.1,0.4,0.3,0.6,0.5
					c0.1,0.2,0.2,0.5,0.2,0.9c0,0.4-0.1,0.8-0.3,1.1c-0.2,0.3-0.5,0.5-0.8,0.7c-0.3,0.1-0.7,0.2-1,0.2l-1,0
					C118.9,56.6,118.6,56.6,118.3,56.6z M119.3,56.3c0.1,0,0.3,0,0.4,0c0.4,0,0.7-0.1,0.9-0.2c0.2-0.1,0.4-0.3,0.5-0.5
					c0.1-0.2,0.2-0.6,0.2-0.9c0-0.5-0.1-0.8-0.4-1.1c-0.2-0.2-0.6-0.3-1.1-0.3c-0.1,0-0.3,0-0.6,0l0,1.6
					C119.3,55.6,119.3,56.1,119.3,56.3z"/>
				<path class="st1" d="M123.7,56.6v-0.1c0.1,0,0.2-0.1,0.2-0.1c0-0.3,0.1-0.8,0.1-1.7c0-0.6,0-1,0-1.2c0-0.1,0-0.2-0.1-0.2
					c0,0-0.2-0.1-0.4-0.1V53c0.4,0,0.7,0,1,0l1.4,0c0.1,0,0.3,0,0.4,0l0,0c0,0.2-0.1,0.4-0.1,0.8h-0.2c0-0.2,0-0.4,0-0.4
					c0,0,0,0-0.1,0c-0.1,0-0.4,0-0.7,0c-0.1,0-0.3,0-0.5,0c0,0.5,0,1,0,1.3c0.2,0,0.4,0,0.5,0c0.2,0,0.4,0,0.4,0c0,0,0,0,0.1-0.1
					c0,0,0-0.1,0-0.3h0.2c0,0.3,0,0.5,0,0.6l0,0.6h-0.2c0-0.2,0-0.4,0-0.4c0,0,0,0-0.1,0c-0.1,0-0.3,0-0.6,0c-0.1,0-0.2,0-0.3,0
					c0,0.1,0,0.2,0,0.3c0,0.5,0,0.9,0,1.1l0.5,0c0.3,0,0.6,0,0.8,0c0-0.2,0.1-0.3,0.1-0.5h0.2c0,0.3-0.1,0.6-0.1,0.9
					c-0.2,0-0.3,0-0.4,0c-0.1,0-0.3,0-0.6,0c-0.3,0-0.5,0-0.7,0C124.4,56.6,124.1,56.6,123.7,56.6z"/>
				<path class="st1" d="M131,56.6v-0.2c0.1,0,0.2-0.1,0.3-0.2c0-0.3,0.1-1,0.1-2.1c0-0.7,0-1.2,0-1.4c0-0.1,0-0.2-0.1-0.2
					c0,0-0.2-0.1-0.5-0.1v-0.3c0.5,0,0.9,0,1.2,0l1.7,0c0.2,0,0.4,0,0.5,0l0,0c0,0.2-0.1,0.5-0.1,0.9h-0.3c0-0.3,0-0.5,0-0.5
					c0,0-0.1,0-0.1-0.1c-0.2,0-0.4-0.1-0.8-0.1c-0.2,0-0.4,0-0.6,0c0,0.7,0,1.2,0,1.6c0.2,0,0.4,0,0.6,0c0.3,0,0.5,0,0.5,0
					c0,0,0.1,0,0.1-0.1c0,0,0-0.2,0-0.4h0.3c0,0.4,0,0.6,0,0.7l0,0.7h-0.3c0-0.3,0-0.4-0.1-0.5c0,0,0,0-0.1-0.1c-0.1,0-0.3,0-0.7,0
					c-0.1,0-0.3,0-0.4,0c0,0.1,0,0.2,0,0.3c0,0.6,0,1.1,0,1.4l0.6,0c0.4,0,0.7,0,1-0.1c0.1-0.2,0.1-0.4,0.2-0.7h0.3
					c0,0.4-0.1,0.7-0.1,1.1c-0.2,0-0.4,0-0.6,0c-0.1,0-0.3,0-0.7,0c-0.3,0-0.6,0-0.9,0C131.8,56.6,131.4,56.6,131,56.6z"/>
				<path class="st1" d="M136.3,55.3h0.3c0,0.3,0,0.5,0,0.6c0,0.1,0.1,0.1,0.2,0.2c0.1,0.1,0.2,0.2,0.4,0.2c0.2,0.1,0.3,0.1,0.5,0.1
					c0.3,0,0.5-0.1,0.7-0.2c0.2-0.2,0.3-0.4,0.3-0.6c0-0.2-0.1-0.4-0.2-0.5c-0.1-0.1-0.3-0.2-0.7-0.2c-0.5-0.1-0.8-0.2-1-0.2
					c-0.2-0.1-0.3-0.2-0.4-0.4c-0.1-0.2-0.2-0.4-0.2-0.6c0-0.4,0.1-0.7,0.4-1c0.3-0.3,0.7-0.4,1.3-0.4c0.2,0,0.5,0,0.6,0.1
					c0.2,0,0.4,0.1,0.6,0.2l0,0.1c0,0.1-0.1,0.3-0.1,0.4c0,0.1,0,0.3,0,0.6h-0.3c0-0.3,0-0.5,0-0.5c0-0.1-0.1-0.1-0.3-0.2
					c-0.2-0.1-0.4-0.1-0.6-0.1c-0.3,0-0.5,0.1-0.7,0.2c-0.2,0.1-0.2,0.3-0.2,0.5c0,0.1,0,0.3,0.1,0.4c0.1,0.1,0.2,0.2,0.3,0.2
					c0.1,0,0.4,0.1,0.8,0.2c0.3,0.1,0.6,0.1,0.7,0.2c0.2,0.1,0.4,0.2,0.5,0.4c0.1,0.2,0.2,0.4,0.2,0.6c0,0.4-0.2,0.8-0.5,1.1
					c-0.3,0.3-0.8,0.4-1.4,0.4c-0.3,0-0.5,0-0.7-0.1c-0.2,0-0.4-0.1-0.7-0.3c0-0.1,0.1-0.3,0.1-0.4
					C136.3,55.8,136.3,55.6,136.3,55.3z"/>
				<path class="st1" d="M142.2,56.6v-0.3c0.1,0,0.2,0,0.4,0c0.1,0,0.1,0,0.1-0.1c0,0,0-0.1,0.1-0.1c0-0.1,0-0.4,0-1
					c0-0.4,0-0.8,0-1.3c0-0.8,0-1.3,0-1.3c0,0-0.1,0-0.2,0c-0.3,0-0.5,0-0.8,0c-0.1,0-0.2,0-0.2,0c0,0,0,0,0,0.1c0,0,0,0.2-0.1,0.6
					h-0.3c0-0.4,0-0.8,0-1l0,0c0.7,0,1.3,0,1.9,0c0.6,0,1.3,0,2.1,0l0,0.1c0,0.3-0.1,0.6-0.1,1H145c0-0.4,0-0.5-0.1-0.6
					c0,0,0,0-0.1,0c-0.2,0-0.5,0-1,0c0,0-0.1,0-0.1,0c0,0,0,0.1,0,0.2l0,2.1c0,0.6,0,1,0,1.1c0,0.1,0,0.2,0.1,0.3c0,0,0.2,0,0.5,0.1
					v0.3c-0.3,0-0.6,0-1,0C142.9,56.6,142.5,56.6,142.2,56.6z"/>
				<path class="st1" d="M146.9,52.4v-0.3c0.4,0,0.8,0,1.1,0c0.2,0,0.5,0,0.9,0v0.3c-0.2,0-0.3,0-0.4,0.1c0,0,0,0-0.1,0.1
					c0,0,0,0.1,0,0.2c0,0.1,0,0.5,0,1c0,0.4,0,0.8,0,1.2c0,0.3,0,0.6,0.1,0.7c0.1,0.2,0.2,0.3,0.3,0.3c0.2,0.1,0.4,0.2,0.7,0.2
					c0.3,0,0.6-0.1,0.8-0.2c0.2-0.1,0.3-0.3,0.4-0.5c0.1-0.2,0.1-0.6,0.1-1.3l0-1.2c0-0.3,0-0.4,0-0.5c0,0,0-0.1-0.1-0.1
					c0,0-0.2-0.1-0.5-0.1v-0.3c0.3,0,0.5,0,0.8,0c0.2,0,0.4,0,0.7,0v0.3c-0.2,0-0.3,0-0.4,0.1c-0.1,0-0.1,0.2-0.1,0.4
					c0,0.5,0,1,0,1.6c0,0.4,0,0.6,0,0.8c0,0.3-0.1,0.5-0.2,0.7c-0.1,0.2-0.3,0.4-0.6,0.5c-0.3,0.1-0.6,0.2-1,0.2
					c-0.4,0-0.8-0.1-1.1-0.2c-0.3-0.1-0.5-0.3-0.6-0.5c-0.1-0.2-0.2-0.5-0.2-0.9l0-1.4c0-0.1,0-0.4,0-0.9c0-0.1,0-0.2,0-0.3
					c0,0,0-0.1-0.1-0.1C147.3,52.5,147.2,52.5,146.9,52.4z"/>
				<path class="st1" d="M153.5,56.6v-0.2c0.1-0.1,0.2-0.1,0.3-0.2c0-0.4,0-1.1,0-2.1c0-0.4,0-0.8,0-1.1c0-0.3,0-0.5,0-0.5
					c0,0,0,0,0,0c0,0-0.2,0-0.5-0.1v-0.3c0.3,0,0.7,0,1.1,0l1.6,0c0.6,0,1,0.1,1.3,0.2c0.3,0.1,0.5,0.4,0.7,0.7
					c0.2,0.3,0.3,0.7,0.3,1.1c0,0.5-0.1,1-0.4,1.4c-0.3,0.4-0.6,0.7-1,0.8c-0.4,0.2-0.8,0.3-1.2,0.3l-1.2,0
					C154.2,56.6,153.9,56.6,153.5,56.6z M154.8,56.2c0.2,0,0.4,0,0.5,0c0.5,0,0.8-0.1,1.1-0.2c0.2-0.1,0.4-0.4,0.6-0.7
					c0.2-0.3,0.2-0.7,0.2-1.1c0-0.6-0.2-1-0.5-1.3c-0.3-0.3-0.7-0.4-1.3-0.4c-0.1,0-0.4,0-0.7,0l0,2
					C154.8,55.4,154.8,55.9,154.8,56.2z"/>
				<path class="st1" d="M160,56.6v-0.3c0.3,0,0.5,0,0.5-0.1c0,0,0.1-0.1,0.1-0.2c0-0.3,0-0.8,0-1.6c0-0.3,0-0.7,0-1.3
					c0-0.4,0-0.6,0-0.6c0,0,0-0.1-0.1-0.1c0,0-0.2,0-0.5-0.1v-0.3c0.4,0,0.8,0,1,0c0.4,0,0.8,0,1.1,0v0.3c-0.3,0-0.5,0-0.5,0.1
					c0,0-0.1,0.1-0.1,0.2c0,0.2,0,0.6,0,1.2c0,0.8,0,1.4,0,1.7c0,0.3,0,0.5,0.1,0.6c0,0,0,0,0.1,0.1c0,0,0.2,0,0.4,0.1v0.3l-0.4,0
					c-0.2,0-0.5,0-0.6,0L160,56.6z"/>
				<path class="st1" d="M166.3,56.7c-0.8,0-1.4-0.2-1.8-0.6c-0.4-0.4-0.6-1-0.6-1.7c0-0.5,0.1-0.9,0.3-1.3c0.2-0.3,0.5-0.6,0.8-0.8
					c0.4-0.2,0.8-0.3,1.4-0.3c0.5,0,1,0.1,1.3,0.3c0.3,0.2,0.6,0.4,0.8,0.7c0.2,0.3,0.3,0.7,0.3,1.2c0,0.5-0.1,0.9-0.3,1.3
					c-0.2,0.4-0.5,0.6-0.9,0.8C167.3,56.6,166.8,56.7,166.3,56.7z M166.4,56.3c0.4,0,0.8-0.2,1-0.5c0.3-0.3,0.4-0.8,0.4-1.4
					c0-0.7-0.1-1.2-0.4-1.5c-0.2-0.3-0.6-0.4-1.1-0.4c-0.5,0-0.8,0.2-1.1,0.5c-0.3,0.3-0.4,0.8-0.4,1.4c0,0.5,0.1,0.8,0.2,1.2
					c0.1,0.3,0.3,0.5,0.5,0.7C165.8,56.3,166.1,56.3,166.4,56.3z"/>
				<path class="st1" d="M170.8,55.3h0.3c0,0.3,0,0.5,0,0.6c0,0.1,0.1,0.1,0.2,0.2c0.1,0.1,0.2,0.2,0.4,0.2c0.2,0.1,0.3,0.1,0.5,0.1
					c0.3,0,0.5-0.1,0.7-0.2c0.2-0.2,0.3-0.4,0.3-0.6c0-0.2-0.1-0.4-0.2-0.5c-0.1-0.1-0.3-0.2-0.7-0.2c-0.5-0.1-0.8-0.2-1-0.2
					c-0.2-0.1-0.3-0.2-0.4-0.4c-0.1-0.2-0.1-0.4-0.1-0.6c0-0.4,0.1-0.7,0.4-1c0.3-0.3,0.7-0.4,1.3-0.4c0.2,0,0.5,0,0.6,0.1
					c0.2,0,0.4,0.1,0.6,0.2l0,0.1c0,0.1-0.1,0.3-0.1,0.4c0,0.1,0,0.3,0,0.6h-0.3c0-0.3,0-0.5,0-0.5c0-0.1-0.1-0.1-0.3-0.2
					c-0.2-0.1-0.4-0.1-0.6-0.1c-0.3,0-0.5,0.1-0.7,0.2c-0.2,0.1-0.2,0.3-0.2,0.5c0,0.1,0,0.3,0.1,0.4c0.1,0.1,0.2,0.2,0.3,0.2
					c0.1,0,0.4,0.1,0.8,0.2c0.4,0.1,0.6,0.1,0.7,0.2c0.2,0.1,0.4,0.2,0.5,0.4c0.1,0.2,0.2,0.4,0.2,0.6c0,0.4-0.2,0.8-0.5,1.1
					c-0.3,0.3-0.8,0.4-1.4,0.4c-0.3,0-0.5,0-0.7-0.1c-0.2,0-0.4-0.1-0.7-0.3c0-0.1,0.1-0.3,0.1-0.4
					C170.8,55.8,170.8,55.6,170.8,55.3z"/>
				<path class="st1" d="M178.9,56.6v-0.1c0.1-0.1,0.2-0.1,0.3-0.2c0-0.3,0-0.9,0-1.7c0-0.4,0-0.7,0-0.9c0-0.2,0-0.4,0-0.4
					c0,0,0,0,0,0c0,0-0.2,0-0.4-0.1V53c0.3,0,0.6,0,0.9,0l1.3,0c0.5,0,0.8,0.1,1.1,0.2c0.2,0.1,0.4,0.3,0.6,0.5
					c0.1,0.2,0.2,0.5,0.2,0.9c0,0.4-0.1,0.8-0.3,1.1c-0.2,0.3-0.5,0.5-0.8,0.7c-0.3,0.1-0.7,0.2-1,0.2l-1,0
					C179.4,56.6,179.2,56.6,178.9,56.6z M179.9,56.3c0.1,0,0.3,0,0.4,0c0.4,0,0.7-0.1,0.9-0.2c0.2-0.1,0.4-0.3,0.5-0.5
					c0.1-0.2,0.2-0.6,0.2-0.9c0-0.5-0.1-0.8-0.4-1.1c-0.2-0.2-0.6-0.3-1.1-0.3c-0.1,0-0.3,0-0.6,0l0,1.6
					C179.9,55.6,179.9,56.1,179.9,56.3z"/>
				<path class="st1" d="M184.3,56.6v-0.1c0.1,0,0.2-0.1,0.3-0.1c0-0.3,0.1-0.8,0.1-1.7c0-0.6,0-1,0-1.2c0-0.1,0-0.2-0.1-0.2
					c0,0-0.2-0.1-0.4-0.1V53c0.4,0,0.7,0,1,0l1.4,0c0.1,0,0.3,0,0.4,0l0,0c0,0.2-0.1,0.4-0.1,0.8h-0.2c0-0.2,0-0.4,0-0.4
					c0,0-0.1,0-0.1,0c-0.1,0-0.4,0-0.7,0c-0.1,0-0.3,0-0.5,0c0,0.5,0,1,0,1.3c0.2,0,0.4,0,0.5,0c0.2,0,0.4,0,0.4,0c0,0,0,0,0.1-0.1
					c0,0,0-0.1,0-0.3h0.2c0,0.3,0,0.5,0,0.6l0,0.6h-0.2c0-0.2,0-0.4,0-0.4c0,0,0,0-0.1,0c-0.1,0-0.3,0-0.6,0c-0.1,0-0.2,0-0.3,0
					c0,0.1,0,0.2,0,0.3c0,0.5,0,0.9,0,1.1l0.5,0c0.3,0,0.6,0,0.8,0c0-0.2,0.1-0.3,0.1-0.5h0.2c0,0.3-0.1,0.6-0.1,0.9
					c-0.2,0-0.3,0-0.4,0c-0.1,0-0.3,0-0.6,0c-0.3,0-0.5,0-0.7,0C184.9,56.6,184.6,56.6,184.3,56.6z"/>
			</g>
			<g>
				<path class="st1" d="M125.8,85.6L125.8,85.6c0,0.2,0,0.3-0.1,0.4c-0.2,0.1-0.5,0.2-0.7,0.3c-0.2,0.1-0.5,0.1-0.8,0.1
					c-0.5,0-1-0.1-1.4-0.3c-0.4-0.2-0.7-0.5-0.9-0.8c-0.2-0.3-0.3-0.7-0.3-1.2c0-0.6,0.2-1.2,0.7-1.6c0.5-0.4,1.1-0.6,1.9-0.6
					c0.3,0,0.5,0,0.8,0.1c0.3,0,0.5,0.1,0.8,0.2l0,0c0,0.1-0.1,0.2-0.1,0.3c0,0.2,0,0.4-0.1,0.7h-0.3c0-0.3,0-0.5,0-0.5
					c0,0-0.1-0.1-0.2-0.2c-0.1-0.1-0.2-0.1-0.4-0.2c-0.2,0-0.4-0.1-0.6-0.1c-0.5,0-0.9,0.1-1.2,0.5c-0.3,0.3-0.4,0.7-0.4,1.3
					c0,0.6,0.2,1.1,0.5,1.4c0.3,0.3,0.8,0.5,1.3,0.5c0.2,0,0.4,0,0.6-0.1C125.3,85.8,125.5,85.7,125.8,85.6z"/>
				<path class="st1" d="M126.2,86c0.2,0,0.3,0,0.4-0.1c0,0,0.1-0.1,0.1-0.2c0.1-0.3,0.3-0.6,0.5-1.1l1.1-2.7h0.4l1.4,3.3
					c0.2,0.4,0.3,0.6,0.3,0.7c0,0,0.2,0.1,0.4,0.1v0.3c-0.3,0-0.6,0-0.9,0c-0.4,0-0.7,0-1,0V86c0.2,0,0.4,0,0.4,0c0,0,0.1,0,0.1-0.1
					c0,0,0-0.2-0.1-0.4L129,85c-0.3,0-0.5,0-0.8,0c-0.3,0-0.5,0-0.7,0l-0.1,0.3c0,0.1-0.1,0.2-0.1,0.4c0,0,0,0.1,0,0.1
					c0,0,0,0.1,0.1,0.1c0,0,0.2,0,0.4,0.1v0.3c-0.2,0-0.4,0-0.7,0c-0.3,0-0.5,0-0.7,0V86z M128.2,83l-0.6,1.6c0.2,0,0.4,0,0.6,0
					c0.2,0,0.5,0,0.7,0L128.2,83z"/>
				<path class="st1" d="M131.1,86.3V86c0.2,0,0.4,0,0.4-0.1c0,0,0,0,0-0.1c0,0,0-0.2,0-0.5c0-0.4,0-0.8,0-1c0-0.3,0-0.8,0-1.3
					c0-0.4,0-0.6-0.1-0.7c0,0,0,0,0-0.1c0,0-0.2,0-0.4-0.1V82c0.4,0,0.7,0,0.8,0l1.5,0c0.3,0,0.6,0,0.7,0.1c0.2,0.1,0.3,0.2,0.4,0.3
					c0.1,0.1,0.1,0.3,0.1,0.5c0,0.2-0.1,0.5-0.2,0.6c-0.1,0.2-0.4,0.3-0.7,0.5l0.7,1l0.5,0.8c0.1,0.1,0.2,0.2,0.2,0.2
					c0,0,0.1,0,0.2,0v0.2l-0.2,0c-0.5,0-0.9,0-1,0c-0.2-0.3-0.4-0.7-0.8-1.2l-0.6-1c0,0,0-0.1,0-0.1c0.1,0,0.1,0,0.2,0
					c0.2,0,0.4-0.1,0.6-0.2c0.2-0.2,0.3-0.4,0.3-0.7c0-0.2-0.1-0.4-0.2-0.6c-0.1-0.1-0.4-0.2-0.7-0.2c-0.1,0-0.2,0-0.4,0l0,0.9
					l0,1.1c0,0.3,0,0.6,0,1c0,0.3,0,0.5,0,0.5c0,0,0,0,0.1,0.1c0,0,0.2,0,0.4,0.1v0.3c-0.4,0-0.7,0-1,0
					C131.8,86.2,131.5,86.3,131.1,86.3z"/>
				<path class="st1" d="M135.9,85h0.3c0,0.3,0,0.5,0,0.5c0,0.1,0.1,0.1,0.2,0.2c0.1,0.1,0.2,0.2,0.4,0.2c0.2,0.1,0.3,0.1,0.5,0.1
					c0.3,0,0.5-0.1,0.7-0.2c0.2-0.2,0.3-0.3,0.3-0.6c0-0.2-0.1-0.4-0.2-0.5c-0.1-0.1-0.3-0.2-0.7-0.2c-0.5-0.1-0.8-0.1-1-0.2
					c-0.2-0.1-0.3-0.2-0.4-0.4c-0.1-0.2-0.1-0.4-0.1-0.6c0-0.4,0.1-0.7,0.4-1c0.3-0.3,0.7-0.4,1.3-0.4c0.2,0,0.4,0,0.6,0.1
					c0.2,0,0.4,0.1,0.5,0.2l0,0.1c0,0.1-0.1,0.2-0.1,0.4c0,0.1,0,0.3,0,0.5h-0.3c0-0.3,0-0.5,0-0.5c0-0.1-0.1-0.1-0.3-0.2
					c-0.2-0.1-0.3-0.1-0.5-0.1c-0.3,0-0.5,0.1-0.7,0.2c-0.2,0.1-0.2,0.3-0.2,0.5c0,0.1,0,0.2,0.1,0.3c0.1,0.1,0.2,0.2,0.3,0.2
					c0.1,0,0.4,0.1,0.7,0.2c0.3,0.1,0.6,0.1,0.7,0.2c0.2,0.1,0.3,0.2,0.4,0.4c0.1,0.2,0.2,0.4,0.2,0.6c0,0.4-0.2,0.8-0.5,1.1
					c-0.3,0.3-0.8,0.4-1.4,0.4c-0.3,0-0.5,0-0.7-0.1c-0.2,0-0.4-0.1-0.6-0.2c0-0.1,0.1-0.3,0.1-0.4C135.9,85.5,135.9,85.3,135.9,85z
					"/>
				<path class="st1" d="M141.8,86.3c-0.8,0-1.3-0.2-1.7-0.6c-0.4-0.4-0.6-0.9-0.6-1.6c0-0.5,0.1-0.9,0.3-1.2
					c0.2-0.3,0.5-0.6,0.8-0.8c0.3-0.2,0.8-0.3,1.3-0.3c0.5,0,0.9,0.1,1.3,0.3c0.3,0.2,0.6,0.4,0.8,0.7c0.2,0.3,0.3,0.7,0.3,1.1
					c0,0.5-0.1,0.9-0.3,1.2c-0.2,0.3-0.5,0.6-0.8,0.8C142.8,86.2,142.3,86.3,141.8,86.3z M142,86c0.4,0,0.7-0.2,1-0.5
					c0.2-0.3,0.4-0.8,0.4-1.4c0-0.6-0.1-1.1-0.4-1.5c-0.2-0.3-0.6-0.4-1-0.4c-0.4,0-0.8,0.1-1,0.4c-0.2,0.3-0.4,0.7-0.4,1.3
					c0,0.4,0.1,0.8,0.2,1.1c0.1,0.3,0.3,0.5,0.5,0.7C141.4,85.9,141.6,86,142,86z"/>
			</g>
		</g>
	</g>
</g>
</svg>
