<?xml version="1.0" encoding="utf-8"?>
<!-- Generator: Adobe Illustrator 23.1.0, SVG Export Plug-In . SVG Version: 6.00 Build 0)  -->
<svg version="1.1" id="Capa_1" xmlns="http://www.w3.org/2000/svg" xmlns:xlink="http://www.w3.org/1999/xlink" x="0px" y="0px"
	 viewBox="0 0 266 155" style="enable-background:new 0 0 266 155;" xml:space="preserve">
<style type="text/css">
	.st0{fill:#347B98;}
	.st1{fill:#FFFFFF;}
</style>
<g>
	<rect x="70.8" y="14" class="st0" width="124.4" height="3.3"/>
	<rect x="70.8" y="137.7" class="st0" width="124.4" height="3.3"/>
	<g>
		<path class="st1" d="M87.6,28.8c30.3,0,60.5,0,90.8,0c0,32.5,0,65,0,97.5c-30.3,0-60.5,0-90.8,0C87.6,93.7,87.6,61.3,87.6,28.8z
			 M154.2,75.1c0.5-0.5,1-1,1.4-1.5c4.8-5.1,6.7-11.3,6.3-18.2c0-0.1-0.2-0.3-0.3-0.4c-0.4-0.2-0.8-0.3-1.2-0.5
			c0.1,0,0.2-0.1,0.2-0.1c0.4-0.1,1-0.2,1.2-0.5c0.2-0.3,0-0.9-0.1-1.3c-0.7-4.3-2.8-7.8-6.2-10.5c-1.6-1.3-3.4-1.9-5.5-1.9
			c-10.9,0-21.8,0-32.7,0c-0.8,0-1.5,0.2-2.2,0.6c-3,1.6-3.7,4.7-3.1,7.2c0.5,2,2.3,3.3,4.6,3.4c2.8,0.1,5.6,0.2,8.4,0.3
			c1.5,0.1,3.1,0.1,4.6,0.2c0,0,0,0.1,0,0.1c-9.1,2-18.2,4.1-27.4,6.2c0.5,0.5,1,0.8,1.5,1.3c0.8,0.8,1.2,1.7,1,2.8
			c-0.2,1-0.4,2-0.6,2.9c-0.1,0.3-0.2,0.4-0.5,0.5c-0.9,0.1-1.9,0.3-2.8,0.4c-0.8,0.1-1.6,0.3-2.5,0.4c0.2,0.3,0.4,0.5,0.5,0.8
			c0.5,1,1.1,2,1.5,3c0.6,1.3,0.5,2.7-0.3,3.9c-0.5,0.8-1.2,1.6-1.8,2.4c-0.1,0.1-0.2,0.3-0.4,0.4c21.3-0.1,42.5-0.1,63.7-0.2
			c0-0.6,0-1.1,0-1.6C159.1,75.1,156.7,75.1,154.2,75.1z M162,111.1c-21.1,0.1-42.2,0.1-63.2,0.2c0,0.6,0,1.1,0,1.6
			c21.1-0.1,42.1-0.1,63.2-0.2C162,112.1,162,111.6,162,111.1z M109.3,101.1c-0.3,0-0.6-0.1-0.8-0.1c-0.4,0-0.5-0.2-0.5-0.6
			c0-0.2,0-0.3,0-0.5c0-2.4,0-4.8,0-7.2c0-1.4,0-1.2,1.2-1.3c0,0,0.1,0,0.2,0c0-0.2,0-0.4,0-0.6c-1.7,0-3.4,0-5.1,0
			c0,0.2,0,0.4,0,0.6c0.3,0,0.6,0,0.9,0.1c0.2,0.1,0.4,0.3,0.4,0.4c0,1.2,0,2.4,0,3.6c-1.6,0-3.2,0-4.8,0c0-1,0-1.9,0-2.8
			c0.1-1.3-0.2-1.2,1.3-1.3c0,0,0.1,0,0.1-0.1c0-0.2,0-0.4,0-0.6c-1.7,0-3.4,0-5.1,0c0,0.2,0,0.4,0,0.6c0.2,0,0.4,0,0.5,0
			c0.8,0.1,0.8,0.1,0.8,0.9c0,1.1,0,2.1,0,3.2c0,1.6,0,3.2,0,4.9c0,0.4-0.2,0.7-0.6,0.7c-0.2,0-0.5,0-0.7,0.1c0,0.2,0,0.4,0,0.6
			c1.7,0,3.4,0,5.1,0c0-0.2,0-0.4,0-0.6c-0.3,0-0.6-0.1-0.9-0.1c-0.2,0-0.4-0.2-0.4-0.4c-0.1-1.4-0.1-2.7-0.2-4.1c1.7,0,3.3,0,4.9,0
			c0,1.1,0,2.2,0,3.2c-0.1,1.3,0.1,1.2-1.3,1.3c0,0,0,0-0.1,0.1c0,0.2,0,0.4,0,0.6c1.7,0,3.4,0,5.1,0
			C109.3,101.5,109.3,101.4,109.3,101.1z M130,78.1c-1.1,0.2-2.1,0.5-3.2,0.7c0,0.1,0,0.3,0,0.4c0.1,0,0.2,0,0.3,0
			c0.8,0.1,0.9,0.1,0.9,1c0,2.5,0,5.1,0,7.6c0,1.1,0,1.1-1,1.1c0,0-0.1,0-0.1,0.1c0,0.2,0,0.4,0,0.6c1.5,0,2.9,0,4.4,0
			c0-0.2,0-0.4,0-0.6c-0.2,0-0.4,0-0.5,0c-0.5,0-0.7-0.2-0.7-0.7c0-1.2,0-2.3,0-3.5c0-0.8,0.6-1.3,1.4-1.4c0.7,0,1.2,0.3,1.3,1.2
			c0,0.2,0.1,0.4,0.1,0.6c0,1.3-0.1,2.7-0.1,4c0,0.2-0.1,0.5,0.2,0.5c1,0,2,0,3,0c0-0.2,0-0.4,0-0.6c-1.1-0.1-1.1-0.1-1.1-1.3
			c0-1.2,0-2.4,0-3.6c0-0.8-0.3-1.6-1.1-1.9c-0.9-0.3-1.9-0.4-2.7,0.3c-0.3,0.3-0.6,0.5-0.9,0.8C130,81.6,130,79.8,130,78.1z
			 M113.1,89c-1,0.1-1.2-0.6-1.5-1.3c-1.1-2.7-2.3-5.5-3.5-8.2c-0.4-1-0.4-1-1.5-0.9c0,0-0.1,0-0.1,0c-0.5,1.3-1,2.6-1.6,3.8
			c-0.8,1.9-1.6,3.8-2.4,5.8c-0.2,0.4-0.5,0.7-1,0.7c-0.1,0-0.2,0-0.3,0.1c0,0.2,0,0.4,0,0.7c1.2,0,2.4,0,3.6,0c0-0.2,0-0.4,0-0.7
			c-0.2,0-0.5-0.1-0.7-0.1c-0.5-0.1-0.6-0.2-0.5-0.7c0.2-0.5,0.3-1,0.5-1.6c0.1-0.1,0.3-0.3,0.4-0.3c1.2,0,2.3,0,3.5,0
			c0.1,0,0.3,0.1,0.3,0.2c0.2,0.6,0.5,1.2,0.7,1.8c0.2,0.4,0,0.5-0.4,0.6c-0.3,0-0.5,0.1-0.7,0.1c0,0.3,0,0.5,0,0.7c1.7,0,3.3,0,5,0
			C113.1,89.5,113.1,89.3,113.1,89z M135.7,97.8C135.7,97.8,135.6,97.8,135.7,97.8c-0.1-0.2,0-0.4-0.1-0.6c-0.1-1.8-0.9-2.7-2.6-3
			c-0.2,0-0.4-0.1-0.7-0.1c-2.5-0.2-4.2,0.8-4.4,3.4c-0.2,2.3,0.6,4.2,3.3,4.4c2.1,0.2,3.8-0.8,4.2-2.7
			C135.6,98.8,135.6,98.3,135.7,97.8z M163,97.9c0-0.2,0-0.4,0-0.5c-0.1-1.8-0.9-2.8-2.6-3.1c-0.2,0-0.5-0.1-0.7-0.1
			c-2.5-0.1-4.2,0.8-4.4,3.4c-0.1,2.3,0.7,4.1,3.3,4.4c1.7,0.2,3.2-0.5,3.9-1.8C162.9,99.4,163,98.7,163,97.9z M154.9,82.1
			c-0.3,0-0.6,0-0.9,0.1c-1.2,0.2-2.2,0.6-2.7,1.8c-0.6,1.4-0.6,2.8,0,4.2c1,2.4,4.8,2.2,6.1,0.8c1.2-1.2,1.3-2.7,1-4.2
			c-0.2-1.6-1.1-2.4-2.7-2.6C155.5,82.1,155.2,82.1,154.9,82.1z M115.8,99.3c0,0.3,0,0.7-0.1,1c-0.1,1.3-0.1,1.3,1.2,1.6
			c1.3,0.3,2.5,0.2,3.6-0.6c0.9-0.6,1.1-1.5,1-2.5c-0.2-1-0.8-1.4-1.7-1.5c-0.6-0.1-1.2-0.2-1.8-0.5c-0.7-0.2-0.8-1.1-0.2-1.5
			c0.6-0.4,1.2-0.3,1.9-0.1c0.6,0.2,0.6,0.6,0.7,1.1c0,0.1,0,0.2,0,0.3c0.2,0,0.4,0,0.6,0c0-0.7,0.1-1.3,0.1-2
			c-0.7-0.4-1.8-0.5-2.9-0.3c-0.6,0.1-1.1,0.3-1.6,0.6c-0.8,0.5-1,1.4-0.8,2.3c0.1,0.8,0.7,1.3,1.5,1.5c0.6,0.1,1.2,0.3,1.8,0.5
			c0.6,0.2,0.8,0.5,0.7,1c0,0.5-0.3,0.9-0.8,1c-0.5,0.1-1,0.1-1.4,0c-0.8-0.2-1-0.5-1-1.4c0-0.1,0-0.3,0-0.4
			C116.2,99.3,116,99.3,115.8,99.3z M141.5,82.9c0.7-0.1,0.9,0.4,1.2,1c0.7,1.7,1.3,3.4,2,5.1c0.3,0.8,0.3,0.8,1.1,0.8
			c0.4,0,0.6-0.1,0.8-0.5c0.8-1.8,1.6-3.6,2.4-5.4c0.2-0.5,0.5-1,1.2-0.9c0-0.2,0-0.4,0-0.6c-1.1,0-2.1,0-3.1,0c0,0.2,0,0.4,0,0.6
			c0.2,0,0.4,0.1,0.6,0.1c0.4,0,0.5,0.2,0.3,0.6c-0.5,1.3-1.1,2.6-1.7,4.1c-0.5-1.3-0.9-2.4-1.3-3.6c-0.4-1.1-0.3-1,0.6-1.1
			c0,0,0.1,0,0.1-0.1c0-0.2,0-0.4,0-0.6c-1.4,0-2.8,0-4.2,0C141.5,82.5,141.5,82.7,141.5,82.9z M123.3,95.9c0,0.2,0,0.4,0,0.6
			c0,1.2-0.1,2.5-0.1,3.7c0,0.6,0.1,1.1,0.6,1.4c0.6,0.4,1.2,0.4,1.8,0.3c0.5,0,0.7-0.4,1-0.7c0.1-0.1,0.2-0.2,0.2-0.3
			c0.1-0.1,0.1-0.2,0.1-0.4c-0.1,0-0.2-0.1-0.3-0.1c-1.1,0.2-1.3,0-1.4-1.1c0-1.2,0-2.4,0-3.6c0.7,0,1.3,0,1.9,0
			c0.1-0.4,0.2-0.7,0.2-1.1c-0.8,0-1.5,0-2.2,0c0.1-1,0.1-1.9,0.2-2.8c0-0.3,0-0.5-0.3-0.4c-0.6,0.2-1.3,0.5-1.8,0.8
			c0,0.5-0.1,1,0,1.4c0.1,0.7-0.1,1.2-0.8,1.5c-0.1,0.1-0.2,0.3-0.4,0.5C122.6,95.9,122.9,95.9,123.3,95.9z M153.8,97
			c0.1-0.8,0.2-1.5,0.3-2.2c0-0.1-0.1-0.4-0.3-0.4c-1.1-0.3-2.3-0.5-3.3,0.3c-0.4,0.3-0.8,0.5-1.2,0.8c-0.6,0.3-0.9,0.8-1.1,1.4
			c-0.1,0.6-0.2,1.2-0.2,1.7c0.1,2.8,3.2,4.4,5.6,2.9c0.2-0.1,0.3-0.6,0.4-0.9c-0.2,0-0.4,0-0.7,0.1c-1.5,0.4-2.8-0.3-3.2-1.8
			c-0.2-0.6-0.2-1.3-0.1-2c0.1-1.4,1.1-1.7,2.3-1.4c0.4,0.1,0.7,0.4,0.7,0.8c0,0.2,0.1,0.5,0.1,0.7C153.4,97,153.6,97,153.8,97z
			 M125.5,84.9c0.1-0.7,0.2-1.4,0.3-2.1c0.1-0.3,0-0.5-0.3-0.6c-1.2-0.3-2.3-0.4-3.4,0.4c-0.3,0.3-0.7,0.5-1.1,0.7
			c-0.5,0.3-0.9,0.8-1,1.3c-0.1,0.5-0.2,0.9-0.3,1.4c-0.1,1.8,0.8,3.3,2.5,3.7c1,0.2,1.9,0.2,2.9-0.2c0.3-0.1,0.6-0.3,0.6-0.6
			c0-0.1,0-0.3,0-0.4c-0.1,0-0.3,0-0.4,0.1c-1.3,0.4-2.5,0-3.1-1c-0.6-1.1-0.6-2.3-0.3-3.4c0.2-0.7,0.9-0.9,1.7-0.8
			c0.7,0.1,1,0.4,1.1,1.1c0,0.2,0,0.3,0.1,0.5C125.1,84.9,125.3,84.9,125.5,84.9z M139.5,94.2c-1.1,0.2-2.1,0.5-3.2,0.7
			c0,0.2,0,0.3,0,0.5c0.1,0,0.2,0,0.3,0c0.8,0.1,0.8,0.1,0.8,0.8c0,1.3,0,2.7,0,4c0,0.7-0.1,0.8-0.8,0.8c-0.1,0-0.2,0-0.3,0.1
			c0,0.2,0,0.4,0,0.6c1.5,0,3,0,4.6,0c0-0.2,0-0.4,0-0.6c-0.3,0-0.5-0.1-0.8-0.1c-0.4,0-0.5-0.2-0.5-0.6c0-1.1,0-2.2,0-3.3
			c0-0.5,0.2-0.9,0.8-1.1c0.5-0.2,1-0.2,1.4,0.3c0.1,0.1,0.2,0.1,0.3,0.1c0.1,0,0.2-0.1,0.2-0.2c0-0.7,0-1.3,0-2
			c-1.4-0.5-1.8,0.9-2.6,1.5C139.5,95.2,139.5,94.7,139.5,94.2z M117.9,89.1c-0.3,0-0.5,0-0.7,0c-0.4,0-0.7-0.2-0.7-0.7
			c0-1.1,0-2.2,0-3.3c0-0.5,0.3-0.9,0.8-1.1c0.5-0.2,1-0.2,1.3,0.3c0.1,0.1,0.2,0.1,0.3,0.1c0.1,0,0.2-0.1,0.2-0.2c0-0.7,0-1.3,0-2
			c-0.5-0.1-1-0.1-1.5,0.3c-0.4,0.4-0.7,0.8-1.1,1.2c0,0-0.1,0-0.1-0.1c0-0.5,0-1,0-1.4c-0.9,0.2-1.8,0.4-2.6,0.5
			c-0.5,0.1-0.6,0.2-0.5,0.7c0.1,0,0.3,0,0.4,0c0.7,0.1,0.7,0.1,0.7,0.7c0,1.3,0,2.7,0,4c0,0.8,0,0.9-0.9,0.9c-0.1,0-0.2,0-0.2,0.1
			c0,0.2,0,0.4,0,0.6c1.5,0,3,0,4.6,0C117.9,89.5,117.9,89.3,117.9,89.1z M141.1,89.1c-0.1,0-0.2,0-0.2,0c-0.9-0.1-0.9-0.1-0.9-1
			c0-1.8,0-3.6,0.1-5.4c0-0.5,0-0.6-0.5-0.4c-0.7,0.2-1.5,0.4-2.3,0.5c-0.6,0.1-0.6,0.1-0.4,0.7c0.2,0,0.3,0,0.5,0
			c0.4,0,0.6,0.1,0.6,0.6c0,1.3,0,2.6,0,3.9c0,1.2-0.1,1.1-1.1,1.2c0,0-0.1,0-0.1,0.1c0,0.2,0,0.4,0,0.6c1.5,0,2.9,0,4.4,0
			C141.1,89.5,141.1,89.3,141.1,89.1z M110.2,95.4c0.2,0,0.3,0,0.4,0c0.7,0,0.7,0.1,0.7,0.7c0,1.2,0.1,2.5,0,3.7
			c-0.1,1.3,0,1.1-1.1,1.2c0,0-0.1,0-0.1,0.1c0,0.2,0,0.4,0,0.6c1.5,0,2.9,0,4.4,0c0-0.2,0-0.4,0-0.6c-0.1,0-0.2,0-0.3,0
			c-0.8-0.1-0.8-0.1-0.9-0.9c0-0.6,0-1.2,0-1.8c0-1.2,0.1-2.5,0.1-3.7c0-0.5,0-0.5-0.5-0.4c-0.3,0.1-0.6,0.2-0.9,0.3
			c-0.6,0.1-1.3,0.2-1.9,0.3C110.2,95,110.2,95.2,110.2,95.4z M147.3,101.2c-1.2-0.2-1.2-0.2-1.2-1.4c0,0,0-0.1,0-0.1
			c0-1.7,0.1-3.3,0.1-5c0-0.2,0.1-0.5-0.3-0.4c-1,0.2-1.9,0.5-2.9,0.7c0,0.1,0,0.3,0,0.5c0.2,0,0.3,0,0.5,0c0.5,0,0.7,0.2,0.7,0.7
			c0,1.4,0,2.8,0,4.1c0,0.8-0.1,0.8-0.9,0.8c-0.1,0-0.2,0-0.3,0.1c0,0.2,0,0.4,0,0.6c1.5,0,2.9,0,4.4,0
			C147.3,101.6,147.3,101.4,147.3,101.2z M146.7,106c0,0,0.1,0,0.1,0c0,0.6,0,1.2,0,1.8c0,0.4,0.1,0.8-0.5,1c0,0,0,0.1,0,0.1
			c0.6,0,1.2,0,1.9,0c-0.1-0.1-0.1-0.2-0.1-0.2c-0.5,0-0.4-0.3-0.4-0.7c0-0.7,0-1.4,0-2.1c0-0.4-0.1-0.9,0.5-1.1c-0.5,0-0.9,0-1.4,0
			c-0.4,0.9-0.9,1.8-1.4,2.9c-0.5-1-1-2-1.4-2.9c-0.5,0-1,0-1.5,0c0,0-0.1,0.1-0.1,0.1c0.8,0,0.6,0.5,0.6,0.9c0,0.6,0,1.2,0,1.8
			c0,0.4,0.1,0.9-0.5,1.1c0,0,0,0.1,0,0.1c0.5,0,0.9,0,1.4,0c0-0.2-0.1-0.2-0.2-0.3c-0.1-0.1-0.2-0.2-0.2-0.3c0-0.8,0-1.6,0-2.4
			c0,0,0.1,0,0.1,0c0.5,1,1,2.1,1.5,3.1c0,0,0.1,0,0.1,0C145.7,108.1,146.2,107,146.7,106z M124.7,106.2c-0.7-0.3-1.3,0-1.7,0.4
			c-0.5,0.4-0.5,1-0.3,1.5c0.1,0.5,0.4,0.8,0.9,0.8c0.4,0,0.7-0.2,1.1-0.3c0,0,0,0.1,0,0.2c0.4,0,0.8,0,1.2,0
			c-0.2-0.2-0.4-0.4-0.4-0.6c0-0.9,0-1.7,0-2.6c0-0.4,0-0.7,0-1.1c-0.5,0.1-0.9,0.2-1.3,0.3c0,0,0,0.1,0,0.1
			C125,105.2,124.6,105.7,124.7,106.2z M137.7,109c0.1,0,0.1-0.1,0.2-0.1c-0.7-0.1-0.6-0.6-0.6-1c0-0.3,0-0.5,0-0.8
			c0-0.8,0-1.6,0-2.5c-0.4,0.1-0.8,0.2-1.2,0.3c0.5,0.3,0.6,0.4,0.4,1.2c-0.1,0-0.2,0-0.2,0c-0.7-0.1-1.2,0.2-1.6,0.7
			c-0.3,0.5-0.3,1.1,0,1.6c0.3,0.6,1,0.7,1.5,0.3c0.1-0.1,0.2-0.1,0.3-0.2c0,0.2,0,0.3,0,0.4C137,109,137.4,109,137.7,109z
			 M131.4,109c0.4,0,0.8,0,1.2,0c-0.5-0.6-0.5-0.6-0.5-1.2c0-0.7,0-1.4,0-2c0-0.4,0-0.7,0-1.1c-0.5,0.1-0.9,0.2-1.2,0.3
			c0.5,0.3,0.6,0.6,0.4,1.2c-1.4-0.3-2.3,1-1.9,2.2c0.3,0.7,1,0.9,1.6,0.5c0.1-0.1,0.2-0.1,0.3-0.2
			C131.3,108.8,131.4,108.9,131.4,109z M99.5,104.9c0,0,0,0.1,0,0.1c0.1,0,0.3,0.1,0.4,0.1c0,0.4,0,0.7,0,1c-0.1,0-0.1,0-0.2,0
			c-1.2-0.2-2.1,0.7-1.9,1.9c0.2,0.9,1,1.3,1.8,0.7c0.1-0.1,0.2-0.1,0.2-0.1c0,0.2,0.1,0.3,0.1,0.3c0.4,0,0.8,0,1.2,0
			c-0.6-0.2-0.4-0.7-0.4-1.1c0-0.2,0-0.4,0-0.6c0-0.9,0-1.7,0-2.6C100.2,104.7,99.8,104.8,99.5,104.9z M116.5,105.1
			c-0.8-0.3-1.7-0.4-2.5-0.1c-0.8,0.2-1.4,0.9-1.5,1.7c-0.1,0.9,0.3,1.8,1,2.1c0.8,0.4,1.7,0.4,2.5,0.1c0.2-0.1,0.3-0.2,0.4-0.4
			c0,0-0.1-0.1-0.1-0.1c-0.2,0.1-0.4,0.1-0.6,0.2c-0.7,0.2-1.4,0.1-1.9-0.4c-0.5-0.6-0.6-1.3-0.4-2c0.3-0.9,1.5-1.3,2.3-0.8
			c0.1,0.1,0.2,0.3,0.2,0.4c0.1,0.1,0.1,0.2,0.2,0.3c0,0,0.1,0,0.1,0C116.4,105.7,116.4,105.4,116.5,105.1z M119.2,106.7
			c0,0.4,0,0.8,0,1.2c0,0.4,0,0.9,0.4,1.1c0.5,0.2,0.9,0,1.2-0.3c0,0,0.1,0,0.1,0c0.1,0.4,0.6,0.5,1.3,0.2c-0.7-0.2-0.5-0.7-0.5-1.2
			c0-0.5,0-1,0-1.6c-0.4,0.1-0.8,0.2-1.2,0.3c0,0,0,0.1-0.1,0.1c0.7,0.1,0.5,0.5,0.5,0.9c0,0.1,0,0.2,0,0.3c0,0.4-0.2,0.7-0.6,0.7
			c-0.4,0-0.4-0.3-0.4-0.7c0-0.5,0-1.1,0-1.7c-0.4,0.1-0.8,0.2-1.3,0.3C118.9,106.6,119,106.7,119.2,106.7z M159.4,107.6
			c0,1,0.5,1.5,1.4,1.5c0.9,0,1.5-0.6,1.5-1.6c0-0.9-0.5-1.4-1.4-1.4C159.9,106.1,159.4,106.6,159.4,107.6z M138.9,80.8
			c0.7,0,1.2-0.5,1.2-1.2c0-0.7-0.6-1.2-1.2-1.2c-0.7,0-1.2,0.5-1.2,1.2C137.6,80.3,138.1,80.8,138.9,80.8z M111.2,91.6
			c0,0.7,0.5,1.2,1.2,1.2c0.7,0,1.2-0.5,1.2-1.2c0-0.7-0.5-1.2-1.2-1.2C111.7,90.4,111.2,90.9,111.2,91.6z M146.3,91.6
			c0-0.7-0.5-1.2-1.2-1.3c-0.7,0-1.2,0.5-1.3,1.2c0,0.7,0.5,1.2,1.2,1.3C145.7,92.9,146.2,92.3,146.3,91.6z M110.7,108.9
			c-0.7-0.3-0.4-0.9-0.4-1.4c0-0.2,0.1-0.5,0-0.7c-0.1-0.3-0.2-0.6-0.4-0.7c-0.5-0.3-1-0.1-1.4,0.2c-0.1,0.1-0.1,0.3-0.1,0.4
			c0.4-0.1,0.6-0.3,0.9-0.2c0.2,0,0.3,0.3,0.5,0.6c-0.5,0.1-0.8,0.2-1.1,0.3c-0.3,0.1-0.6,0.3-0.6,0.7c0,0.3,0.1,0.6,0.3,0.7
			c0.3,0.2,0.6,0.1,0.9-0.1c0.1-0.1,0.2-0.1,0.2-0.1C109.7,109.2,110.2,108.9,110.7,108.9z M128.9,109c-0.4-0.5-0.4-0.5-0.4-1.2
			c0-0.2,0-0.5,0-0.7c0-0.6-0.2-0.9-0.9-0.9c-0.3,0-0.7,0.1-1,0.3c-0.3,0.1-0.3,0.3-0.2,0.5c0.4-0.1,0.6-0.2,0.9-0.2
			c0.2,0,0.3,0.3,0.4,0.5c-0.5,0.2-0.9,0.3-1.2,0.4c-0.4,0.2-0.5,0.8-0.3,1.2c0.2,0.3,0.6,0.4,1,0.1c0.1-0.1,0.2-0.2,0.3-0.2
			C128,109.3,128.5,108.9,128.9,109z M139,107.6c0.3,0,0.5,0,0.7,0c0.2,0,0.5,0,0.7-0.1c0.3,0,0.4-0.2,0.3-0.4
			c-0.1-0.6-0.3-0.9-0.9-1c-0.6-0.1-1.3,0.3-1.6,0.7c-0.3,0.6-0.1,1.5,0.3,1.9c0.4,0.4,1.4,0.5,1.8,0.1c0.1-0.1,0.2-0.2,0.3-0.5
			C139.5,108.8,139,108.5,139,107.6z M102.3,107.7c0.5,0,1-0.1,1.4-0.1c0.1,0,0.3-0.1,0.3-0.2c0-0.4,0-0.8-0.4-1
			c-0.6-0.4-1.7-0.1-2,0.5c-0.3,0.5-0.1,1.4,0.2,1.8c0.4,0.4,1.2,0.5,1.8,0.2c0.1-0.1,0.2-0.2,0.4-0.4
			C102.8,108.8,102.4,108.5,102.3,107.7z M151.2,107.5c0.1-0.9-0.2-1.3-0.9-1.4c-0.5-0.1-1.3,0.3-1.5,0.8c-0.3,0.6-0.1,1.5,0.4,1.8
			c0.4,0.4,1.3,0.4,1.8,0.1c0.1-0.1,0.2-0.2,0.3-0.5c-1.1,0.4-1.6,0.2-1.7-0.7C150,107.6,150.6,107.6,151.2,107.5z M105.9,104.9
			c0,0,0,0.1-0.1,0.1c0.5,0,0.5,0.3,0.5,0.7c0,0.5,0,0.9,0,1.4c-0.1,0.6,0.4,1.4-0.5,1.9c0.7,0,1.2,0,1.8,0
			c-0.2-0.2-0.4-0.4-0.4-0.6c0-1,0-2,0-3c0-0.2,0-0.5,0-0.7C106.7,104.7,106.3,104.8,105.9,104.9z M129.9,93.4c0,0,0,0.1,0.1,0.1
			c0.2,0,0.5,0,0.7-0.1c0.9-0.5,1.8-1,2.7-1.5c0.3-0.2,0.4-0.5,0.2-0.8c-0.1-0.2-0.5-0.3-0.7-0.3c-0.1,0-0.4,0.1-0.5,0.2
			C131.6,91.8,130.8,92.6,129.9,93.4z M154.3,108.8c-0.4-0.5-0.7-0.9-1-1.4c0.4-0.4,0.7-0.8,1.1-1.2c-0.4,0-0.4,0-1.3,0.8
			c-0.9-1.1-1-1.1-1.6-0.4c1.1,0.6,1.2,1.1,0.4,1.9c-0.1,0.1-0.2,0.1-0.3,0.2c-0.1,0.1-0.1,0.1-0.2,0.2c0.9,0.3,0.9-0.6,1.3-0.8
			C153.7,109.3,153.7,109.3,154.3,108.8z M158.9,106.3c-0.7-0.3-1.2,0-1.7,0.3c-0.7,0.4-0.7,1.5-0.3,2c0.3,0.5,1.3,0.7,1.8,0.4
			c0.1-0.1,0.2-0.2,0.3-0.4c-1.2,0.2-1.8-0.4-1.5-1.5c0-0.2,0.3-0.4,0.5-0.5c0.3-0.1,0.5,0,0.6,0.4c0,0.1,0.1,0.1,0.2,0.3
			C158.8,106.9,158.9,106.6,158.9,106.3z M118.5,109c0.1,0,0.1-0.1,0.2-0.1c-0.9-0.1-0.6-0.6-0.6-1.1c0-0.5,0-1.1,0-1.6
			c-0.4,0.1-0.8,0.2-1.2,0.3c0,0.1-0.1,0.1-0.1,0.2c0.6-0.1,0.6,0.3,0.6,0.6c0,0.3,0.1,0.7,0,1c-0.1,0.3-0.3,0.5-0.4,0.7
			C117.4,109,117.9,109,118.5,109z M155.1,106.7c0,0.4,0,0.8,0,1.1c0,0.4,0.1,0.8-0.4,1c0,0,0,0.1,0,0.1c0.5,0,1.1,0,1.6,0
			c0,0,0.1-0.1,0.1-0.1c-0.8-0.1-0.6-0.7-0.6-1.1c0-0.5,0-1.1,0-1.6c-0.4,0.1-0.8,0.2-1.2,0.3c0,0,0,0.1,0,0.1
			C154.8,106.6,154.9,106.7,155.1,106.7z M118.2,105.3c0-0.1,0-0.1,0-0.2c-0.2-0.1-0.3-0.3-0.5-0.3c-0.3-0.1-0.5,0.2-0.5,0.5
			c0,0.2,0.3,0.4,0.5,0.4C117.8,105.6,118,105.4,118.2,105.3z M156,105.3c0-0.1,0-0.1,0-0.2c-0.2-0.1-0.3-0.3-0.5-0.3
			c-0.3,0-0.5,0.2-0.4,0.5c0,0.2,0.3,0.4,0.5,0.4C155.7,105.6,155.8,105.4,156,105.3z M149.3,105.8c0,0,0,0.1,0.1,0.1
			c0.4-0.2,0.7-0.3,1-0.6c0.1-0.1,0.2-0.3,0.2-0.4c-0.2,0-0.4-0.1-0.5,0C149.8,105.2,149.6,105.5,149.3,105.8z"/>
		<path d="M154.2,75.1c2.4,0,4.9,0,7.4,0c0,0.5,0,1,0,1.6c-21.2,0.1-42.4,0.1-63.7,0.2c0.2-0.2,0.3-0.3,0.4-0.4
			c0.6-0.8,1.3-1.5,1.8-2.4c0.8-1.2,0.9-2.5,0.3-3.9c-0.4-1-1-2-1.5-3c-0.1-0.3-0.3-0.5-0.5-0.8c0.9-0.1,1.7-0.3,2.5-0.4
			c0.9-0.1,1.9-0.3,2.8-0.4c0.3,0,0.5-0.2,0.5-0.5c0.2-1,0.4-2,0.6-2.9c0.2-1.1-0.2-2-1-2.8c-0.4-0.4-0.9-0.8-1.5-1.3
			c9.2-2.1,18.3-4.1,27.4-6.2c0,0,0-0.1,0-0.1c-1.5-0.1-3.1-0.1-4.6-0.2c-2.8-0.1-5.6-0.2-8.4-0.3c-2.4-0.1-4.1-1.4-4.6-3.4
			c-0.6-2.5,0.1-5.6,3.1-7.2c0.7-0.4,1.4-0.6,2.2-0.6c10.9,0,21.8,0,32.7,0c2.1,0,3.9,0.6,5.5,1.9c3.4,2.7,5.5,6.2,6.2,10.5
			c0.1,0.4,0.3,1,0.1,1.3c-0.2,0.3-0.8,0.3-1.2,0.5c0,0-0.1,0-0.2,0.1c0.5,0.2,0.9,0.3,1.2,0.5c0.1,0.1,0.3,0.3,0.3,0.4
			c0.4,6.9-1.5,13-6.3,18.2C155.2,74.1,154.7,74.6,154.2,75.1z M101.4,75.2c0.9,0,1.7,0,2.5,0c3.6,0,7.2,0,10.8-0.1
			c3.3,0,6.6,0,9.9,0c1.3,0,2.6-0.1,3.9,0c0.6,0,0.9-0.3,1.2-0.7c2.5-3.2,2.5-7.4,0.1-10.7c-0.3-0.4-0.6-0.5-1.1-0.4
			c-3.6,0.6-7.3,1.2-10.9,1.7c-5.3,0.8-10.6,1.6-15.9,2.5c-0.3,0-0.5,0.1-0.8,0.2C102.4,70.2,103,72.6,101.4,75.2z M160.1,52.9
			c-0.5-3.4-2.1-6.1-4.4-8.4c-1.1-1.1-2.3-2-3.8-2.3c-2.2-0.5-4.2,0.2-5.9,1.5c-0.5,0.3-0.7,0.9-1.2,1.5c1.8,0,3.5,0,5.2,0
			c1,0,1.5,0.4,1.9,1.2c0.4,0.8,0.4,1.7,0.4,2.5c-0.1,2.3-2,4-4.3,3.8c-2.3-0.1-4.7-0.2-7-0.3c-1.1,0-2.2,0-3.3,0
			c0.1,0,0.2,0.1,0.4,0.1c4.6,1.5,9.2,3.1,13.9,4.5c1.1,0.4,1.8,1,2.3,2c0.8,1.7,0.8,3.5,0.5,5.3c-0.2,1.1-0.5,2.1-1.3,2.9
			c-0.1,0.1-0.3,0.2-0.5,0.2c-1.8,0.3-3.6,0.5-5.4,0.8c-1,0.1-1.9,0.3-2.9,0.4c0.7,0.4,1.3,0.8,2,1c1.2,0.4,1.9,1.4,2.2,2.5
			c0.3,0.9,0.4,1.9,0.1,2.8c0.1,0,0.1,0.1,0.1,0.1c0.6,0,1.3,0,1.9,0c0.3,0,0.8-0.1,1-0.3c6-4.6,8.5-10.8,8.5-18.1
			c0-0.3-0.2-0.4-0.4-0.4c-1.4-0.5-2.9-1.1-4.3-1.6c-0.2-0.1-0.5-0.2-0.8-0.3C156.7,53.8,158.4,53.3,160.1,52.9z M145.4,42
			c-0.3,0-0.5,0-0.7,0c-9.1,0-18.2,0-27.3,0c-0.6,0-1.2,0.2-1.7,0.5c-1.5,0.9-2.3,2.3-2.2,4.1c0,1.8,0.9,2.9,2.7,3.2
			c0.5,0.1,0.9,0.1,1.4,0.1c4.7,0.2,9.4,0.4,14.1,0.6c3.4,0.1,6.7,0.3,10.1,0.4c0.7,0,1.4,0,2.2,0C141.8,47.7,142.3,44.8,145.4,42z
			 M135,56.4c-4,0.7-8,1.4-12,2c0,0,0-0.1,0-0.1c4-0.9,7.9-1.8,11.9-2.7c-0.1-0.2-0.1-0.4-0.2-0.6c-4.3,0.7-8.6,1.5-12.9,2.2
			c0,0,0-0.1,0-0.1c4.2-1,8.4-1.9,12.7-2.9c-0.1-0.6-0.1-0.6-0.7-0.5c-4.5,1-9,1.9-13.5,2.9c-0.8,0.2-1.7,0.4-2.5,0.5
			c0,0,0-0.1,0-0.1c5.4-1.4,10.7-2.8,16.1-4.2c0-0.1,0-0.1,0-0.2c-9.4,2.1-18.8,4.2-28.2,6.3c1.4,2,0.7,4.1,0.2,6.2
			c2.8-0.4,5.6-0.9,8.4-1.3c4.8-0.8,9.6-1.5,14.5-2.3c1.8-0.3,3.5-0.5,5.3-0.8c0.2,0,0.3-0.2,0.6-0.4c-1.3,0-2.5,0-3.6,0
			c1.1-0.2,2.2-0.5,3.3-0.6c0.4-0.1,0.5-0.2,0.5-0.6c-2.3,0.2-4.6,0.4-6.9,0.6c0,0,0,0,0-0.1c2.4-0.4,4.7-0.9,7.1-1.3
			c0-0.2,0-0.3,0-0.5c-3,0.4-5.9,0.8-8.8,1.2c0,0,0,0,0-0.1c3-0.6,5.9-1.3,8.9-1.9C135,56.9,135,56.7,135,56.4z M136.4,54.8
			c0,0-0.1,0.1-0.1,0.1c0.1,0.1,0.3,0.3,0.4,0.4c1.1,0.4,2.2,0.9,3.2,1.3c0,0,0,0,0,0.1c-1.1-0.2-2.2-0.4-3.3-0.6
			c-0.1,0.5,0,0.7,0.4,0.8c0.8,0.2,1.5,0.5,2.2,0.8c0,0,0,0,0,0.1c-0.9-0.1-1.7-0.2-2.6-0.3c-0.2,0.4,0,0.5,0.3,0.6
			c0.5,0.1,1,0.3,1.5,0.5c0,0,0,0.1,0,0.1c-0.6,0-1.2,0.1-1.9,0.1c0,0.2-0.1,0.3-0.1,0.5c0.4,0.1,0.8,0.3,1.1,0.4
			c-0.3,0.1-0.6,0.1-0.9,0.1c-0.1,0-0.3,0.1-0.3,0.3c-0.1,0.4-0.2,0.7-0.3,1.1c5.5,1.5,11,3,16.4,4.5c0.5-1.1,0.7-2.2,0.7-3.3
			c0-0.9-0.1-1.9-0.6-2.7c-0.2-0.4-0.6-0.7-1-0.9c-4.7-1.5-9.5-3.1-14.2-4.7c-0.4-0.1-0.8-0.2-1.1-0.4c0,0.1-0.1,0.1-0.1,0.2
			c1.7,0.9,3.5,1.5,5.2,2.4C139.6,55.7,138,55.2,136.4,54.8z M131.2,75.2c0.3,0,0.4,0,0.6,0c1.9,0,3.9,0,5.8,0c2.9,0,5.7,0,8.6,0
			c0.5,0,0.8-0.2,1-0.7c0.1-0.3,0.1-0.6,0.1-0.9c-0.1-1.1-0.5-2-1.6-2.5c-4.2-1.8-8.5-3.7-12.7-5.6c-0.1-0.1-0.3-0.1-0.5-0.2
			C133.8,68.8,133.3,72,131.2,75.2z M131.4,63c0.1,0.1,0.2,0.1,0.2,0.1c3.2,1.4,6.4,2.8,9.6,4.2c0.1,0.1,0.3,0.1,0.5,0
			c1.3-0.2,2.5-0.4,3.8-0.5c1.1-0.2,2.3-0.3,3.6-0.5c-0.2-0.1-0.3-0.1-0.4-0.1c-4.5-1.2-9-2.4-13.5-3.7c-0.2,0-0.4-0.1-0.6,0
			C133.5,62.6,132.5,62.8,131.4,63z M144.2,46.8c-0.3,2,1.4,4.1,3.4,4.2c0.4,0,0.9,0.1,1.3-0.1c1.5-0.4,2.3-2.6,1.4-3.9
			c-0.1-0.1-0.2-0.2-0.3-0.2C148.1,46.8,146.2,46.8,144.2,46.8z"/>
		<path d="M162,111.1c0,0.6,0,1.1,0,1.6c-21.1,0.1-42.1,0.1-63.2,0.2c0-0.5,0-1,0-1.6C119.8,111.2,140.9,111.2,162,111.1z"/>
		<path d="M109.3,101.1c0,0.2,0,0.4,0,0.6c-1.7,0-3.4,0-5.1,0c0-0.2,0-0.4,0-0.6c0,0,0-0.1,0.1-0.1c1.4-0.1,1.2-0.1,1.3-1.3
			c0.1-1.1,0-2.1,0-3.2c-1.6,0-3.2,0-4.9,0c0.1,1.4,0.1,2.7,0.2,4.1c0,0.1,0.2,0.3,0.4,0.4c0.3,0.1,0.6,0.1,0.9,0.1
			c0,0.2,0,0.4,0,0.6c-1.7,0-3.4,0-5.1,0c0-0.2,0-0.4,0-0.6c0.2,0,0.5-0.1,0.7-0.1c0.5,0,0.6-0.3,0.6-0.7c0-1.6,0-3.2,0-4.9
			c0-1.1,0-2.1,0-3.2c0-0.8-0.1-0.8-0.8-0.9c-0.2,0-0.3,0-0.5,0c0-0.2,0-0.4,0-0.6c1.7,0,3.4,0,5.1,0c0,0.2,0,0.4,0,0.6
			c0,0-0.1,0.1-0.1,0.1c-1.4,0.1-1.2,0.1-1.3,1.3c0,0.9,0,1.8,0,2.8c1.6,0,3.2,0,4.8,0c0-1.2,0-2.4,0-3.6c0-0.1-0.2-0.3-0.4-0.4
			c-0.3-0.1-0.6-0.1-0.9-0.1c0-0.2,0-0.4,0-0.6c1.7,0,3.4,0,5.1,0c0,0.2,0,0.4,0,0.6c-0.1,0-0.1,0-0.2,0c-1.2,0.1-1.2-0.1-1.2,1.3
			c0,2.4,0,4.8,0,7.2c0,0.2,0,0.3,0,0.5c0,0.3,0.2,0.5,0.5,0.6C108.7,101.1,109,101.1,109.3,101.1z"/>
		<path d="M130,78.1c0,1.7,0,3.5,0,5.3c0.3-0.3,0.6-0.5,0.9-0.8c0.8-0.7,1.8-0.6,2.7-0.3c0.8,0.3,1.1,1.1,1.1,1.9c0,1.2,0,2.4,0,3.6
			c0,1.2,0,1.2,1.1,1.3c0,0.2,0,0.4,0,0.6c-1,0-2,0-3,0c-0.4,0-0.2-0.3-0.2-0.5c0-1.3,0.1-2.7,0.1-4c0-0.2,0-0.4-0.1-0.6
			c-0.1-0.8-0.6-1.2-1.3-1.2c-0.8,0-1.4,0.5-1.4,1.4c0,1.2,0,2.3,0,3.5c0,0.5,0.2,0.7,0.7,0.7c0.2,0,0.3,0,0.5,0c0,0.2,0,0.4,0,0.6
			c-1.4,0-2.9,0-4.4,0c0-0.2,0-0.4,0-0.6c0,0,0.1-0.1,0.1-0.1c1,0,1-0.1,1-1.1c0-2.5,0-5.1,0-7.6c0-0.9,0-0.9-0.9-1
			c-0.1,0-0.2,0-0.3,0c0-0.2,0-0.3,0-0.4C127.9,78.6,128.9,78.3,130,78.1z"/>
		<path d="M113.1,89c0,0.3,0,0.5,0,0.7c-1.7,0-3.3,0-5,0c0-0.2,0-0.4,0-0.7c0.2,0,0.5-0.1,0.7-0.1c0.4,0,0.5-0.2,0.4-0.6
			c-0.2-0.6-0.4-1.2-0.7-1.8c0-0.1-0.2-0.2-0.3-0.2c-1.2,0-2.3,0-3.5,0c-0.1,0-0.3,0.2-0.4,0.3c-0.2,0.5-0.4,1-0.5,1.6
			c-0.2,0.5-0.1,0.6,0.5,0.7c0.2,0,0.4,0.1,0.7,0.1c0,0.2,0,0.4,0,0.7c-1.2,0-2.4,0-3.6,0c0-0.2,0-0.4,0-0.7c0.1,0,0.2-0.1,0.3-0.1
			c0.5,0,0.8-0.3,1-0.7c0.8-1.9,1.6-3.8,2.4-5.8c0.5-1.3,1.1-2.6,1.6-3.8c0.1,0,0.1,0,0.1,0c1-0.1,1-0.1,1.5,0.9
			c1.2,2.7,2.3,5.5,3.5,8.2C111.9,88.4,112.1,89.1,113.1,89z M104.8,85.4c1.1,0,2.2,0,3.3,0c-0.6-1.3-1.1-2.6-1.7-4
			C105.9,82.8,105.3,84.1,104.8,85.4z"/>
		<path d="M135.7,97.8c-0.1,0.5-0.1,0.9-0.2,1.4c-0.5,1.9-2.1,2.9-4.2,2.7c-2.6-0.2-3.4-2.1-3.3-4.4c0.2-2.6,1.9-3.5,4.4-3.4
			c0.2,0,0.5,0,0.7,0.1c1.6,0.3,2.4,1.2,2.6,3C135.6,97.4,135.6,97.6,135.7,97.8C135.6,97.8,135.7,97.8,135.7,97.8z M133.5,98.2
			c-0.1-0.7-0.2-1.5-0.4-2.2c-0.2-0.7-0.7-1-1.4-1c-0.6,0-1.2,0.4-1.3,1.1c-0.4,1.4-0.3,2.9,0.2,4.3c0.3,0.7,0.8,1,1.5,0.9
			c0.6-0.1,1-0.4,1.2-1.1C133.4,99.5,133.4,98.9,133.5,98.2z"/>
		<path d="M163,97.9c0,0.8-0.1,1.6-0.5,2.3c-0.7,1.3-2.2,2-3.9,1.8c-2.6-0.2-3.4-2-3.3-4.4c0.1-2.6,1.9-3.6,4.4-3.4
			c0.2,0,0.5,0,0.7,0.1c1.6,0.3,2.5,1.3,2.6,3.1C163,97.5,163,97.7,163,97.9z M160.9,98.2c-0.1-0.7-0.2-1.5-0.4-2.3
			c-0.2-0.7-0.7-1-1.4-1c-0.6,0-1.1,0.4-1.3,1c-0.4,1.4-0.3,2.9,0.2,4.3c0.3,0.7,0.8,1,1.5,0.9c0.6-0.1,1-0.4,1.2-1.1
			C160.8,99.5,160.8,98.9,160.9,98.2z"/>
		<path d="M154.9,82.1c0.3,0,0.7,0,1,0.1c1.6,0.2,2.4,1,2.7,2.6c0.2,1.5,0.1,3-1,4.2c-1.3,1.3-5.1,1.5-6.1-0.8
			c-0.6-1.4-0.6-2.8,0-4.2c0.5-1.1,1.5-1.6,2.7-1.8C154.3,82.1,154.6,82.1,154.9,82.1z M156.5,86c-0.1-0.6-0.2-1.4-0.4-2.1
			c-0.2-0.7-0.7-1-1.4-1c-0.7,0-1.2,0.3-1.3,1c-0.4,1.4-0.3,2.9,0.2,4.3c0.2,0.7,0.8,1,1.5,0.9c0.6-0.1,1.1-0.5,1.2-1.2
			C156.4,87.3,156.4,86.7,156.5,86z"/>
		<path d="M115.8,99.3c0.3,0,0.4,0,0.7,0c0,0.2,0,0.3,0,0.4c0,0.8,0.3,1.2,1,1.4c0.5,0.1,1,0.1,1.4,0c0.5-0.1,0.8-0.5,0.8-1
			c0-0.5-0.2-0.8-0.7-1c-0.6-0.2-1.2-0.3-1.8-0.5c-0.8-0.2-1.4-0.6-1.5-1.5c-0.2-0.9,0-1.8,0.8-2.3c0.5-0.3,1-0.5,1.6-0.6
			c1.1-0.2,2.2,0,2.9,0.3c0,0.6-0.1,1.3-0.1,2c-0.2,0-0.4,0-0.6,0c0-0.1,0-0.2,0-0.3c0-0.5-0.1-0.9-0.7-1.1
			c-0.6-0.2-1.3-0.3-1.9,0.1c-0.6,0.4-0.5,1.2,0.2,1.5c0.6,0.2,1.2,0.3,1.8,0.5c0.9,0.2,1.6,0.6,1.7,1.5c0.2,1-0.1,1.9-1,2.5
			c-1.1,0.8-2.3,0.9-3.6,0.6c-1.3-0.3-1.3-0.3-1.2-1.6C115.7,99.9,115.7,99.6,115.8,99.3z"/>
		<path d="M141.5,82.9c0-0.2,0-0.4,0-0.6c1.4,0,2.8,0,4.2,0c0,0.2,0,0.4,0,0.6c0,0-0.1,0.1-0.1,0.1c-0.9,0.1-1.1,0-0.6,1.1
			c0.4,1.1,0.9,2.3,1.3,3.6c0.6-1.5,1.1-2.8,1.7-4.1c0.1-0.3,0.1-0.5-0.3-0.6c-0.2,0-0.4,0-0.6-0.1c0-0.2,0-0.4,0-0.6
			c1.1,0,2.1,0,3.1,0c0,0.2,0,0.4,0,0.6c-0.7-0.1-0.9,0.4-1.2,0.9c-0.8,1.8-1.6,3.6-2.4,5.4c-0.2,0.4-0.4,0.5-0.8,0.5
			c-0.8,0-0.8,0-1.1-0.8c-0.7-1.7-1.3-3.4-2-5.1C142.4,83.4,142.2,82.9,141.5,82.9z"/>
		<path d="M123.3,95.9c-0.4,0-0.7,0-1.2,0c0.2-0.2,0.2-0.5,0.4-0.5c0.7-0.3,0.9-0.8,0.8-1.5c-0.1-0.5,0-0.9,0-1.4
			c0.6-0.2,1.2-0.5,1.8-0.8c0.3-0.1,0.4,0.1,0.3,0.4c-0.1,0.9-0.1,1.8-0.2,2.8c0.7,0,1.5,0,2.2,0c-0.1,0.4-0.1,0.7-0.2,1.1
			c-0.6,0-1.3,0-1.9,0c0,1.2,0,2.4,0,3.6c0,1.1,0.2,1.2,1.4,1.1c0.1,0,0.2,0,0.3,0.1c0,0.1,0,0.3-0.1,0.4c-0.1,0.1-0.2,0.2-0.2,0.3
			c-0.3,0.3-0.5,0.7-1,0.7c-0.6,0-1.3,0-1.8-0.3c-0.5-0.3-0.6-0.9-0.6-1.4c0-1.2,0.1-2.5,0.1-3.7C123.3,96.3,123.3,96.1,123.3,95.9z
			"/>
		<path d="M153.8,97c-0.2,0-0.4,0-0.6,0c0-0.2-0.1-0.5-0.1-0.7c0-0.5-0.3-0.7-0.7-0.8c-1.2-0.3-2.2,0-2.3,1.4c0,0.7,0,1.4,0.1,2
			c0.4,1.5,1.7,2.2,3.2,1.8c0.2-0.1,0.4,0,0.7-0.1c-0.1,0.3-0.2,0.7-0.4,0.9c-2.4,1.5-5.5-0.1-5.6-2.9c0-0.6,0.1-1.2,0.2-1.7
			c0.1-0.6,0.5-1.1,1.1-1.4c0.4-0.2,0.8-0.5,1.2-0.8c1.1-0.7,2.2-0.6,3.3-0.3c0.1,0,0.3,0.3,0.3,0.4C154,95.5,153.9,96.2,153.8,97z"
			/>
		<path d="M125.5,84.9c-0.2,0-0.4,0-0.6,0c0-0.2,0-0.3-0.1-0.5c-0.1-0.7-0.4-1-1.1-1.1c-0.9-0.1-1.6,0.2-1.7,0.8
			c-0.3,1.2-0.3,2.4,0.3,3.4c0.6,1,1.8,1.4,3.1,1c0.1,0,0.3,0,0.4-0.1c0,0.1,0,0.3,0,0.4c-0.1,0.3-0.3,0.5-0.6,0.6
			c-0.9,0.3-1.9,0.4-2.9,0.2c-1.6-0.4-2.6-1.8-2.5-3.7c0-0.5,0.1-1,0.3-1.4c0.2-0.6,0.5-1,1-1.3c0.4-0.2,0.7-0.4,1.1-0.7
			c1.1-0.8,2.2-0.7,3.4-0.4c0.3,0.1,0.4,0.2,0.3,0.6C125.7,83.5,125.6,84.2,125.5,84.9z"/>
		<path d="M139.5,94.2c0,0.5,0,1,0,1.5c0.9-0.7,1.3-2,2.6-1.5c0,0.7,0,1.3,0,2c0,0.1-0.1,0.2-0.2,0.2c-0.1,0-0.2,0-0.3-0.1
			c-0.4-0.5-0.9-0.5-1.4-0.3c-0.5,0.2-0.8,0.6-0.8,1.1c0,1.1,0,2.2,0,3.3c0,0.4,0.2,0.5,0.5,0.6c0.3,0,0.5,0.1,0.8,0.1
			c0,0.2,0,0.4,0,0.6c-1.5,0-3,0-4.6,0c0-0.2,0-0.4,0-0.6c0.1,0,0.2-0.1,0.3-0.1c0.8-0.1,0.8-0.1,0.8-0.8c0-1.3,0-2.7,0-4
			c0-0.8,0-0.8-0.8-0.8c-0.1,0-0.2,0-0.3,0c0-0.2,0-0.4,0-0.5C137.4,94.7,138.4,94.4,139.5,94.2z"/>
		<path d="M117.9,89.1c0,0.2,0,0.4,0,0.6c-1.5,0-3,0-4.6,0c0-0.2,0-0.4,0-0.6c0.1,0,0.2,0,0.2-0.1c0.9-0.1,0.9-0.1,0.9-0.9
			c0-1.3,0-2.7,0-4c0-0.7,0-0.7-0.7-0.7c-0.1,0-0.3,0-0.4,0c-0.1-0.5,0-0.6,0.5-0.7c0.9-0.1,1.7-0.3,2.6-0.5c0,0.4,0,0.9,0,1.4
			c0,0,0.1,0,0.1,0.1c0.4-0.4,0.7-0.8,1.1-1.2c0.4-0.4,1-0.4,1.5-0.3c0,0.7,0,1.3,0,2c0,0.1-0.1,0.2-0.2,0.2c-0.1,0-0.2,0-0.3-0.1
			c-0.4-0.4-0.8-0.5-1.3-0.3c-0.5,0.2-0.8,0.5-0.8,1.1c0,1.1,0,2.2,0,3.3c0,0.4,0.2,0.6,0.7,0.7C117.5,89,117.7,89.1,117.9,89.1z"/>
		<path d="M141.1,89.1c0,0.2,0,0.4,0,0.6c-1.5,0-2.9,0-4.4,0c0-0.2,0-0.4,0-0.6c0,0,0.1-0.1,0.1-0.1c1-0.1,1.1,0.1,1.1-1.2
			c0-1.3,0-2.6,0-3.9c0-0.5-0.2-0.6-0.6-0.6c-0.2,0-0.3,0-0.5,0c-0.1-0.6-0.1-0.6,0.4-0.7c0.8-0.1,1.5-0.3,2.3-0.5
			c0.5-0.1,0.5-0.1,0.5,0.4c0,1.8-0.1,3.6-0.1,5.4c0,0.9,0,0.9,0.9,1C140.9,89.1,141,89.1,141.1,89.1z"/>
		<path d="M110.2,95.4c0-0.2,0-0.4,0-0.6c0.6-0.1,1.3-0.2,1.9-0.3c0.3-0.1,0.6-0.2,0.9-0.3c0.5-0.1,0.5-0.1,0.5,0.4
			c0,1.2-0.1,2.5-0.1,3.7c0,0.6,0,1.2,0,1.8c0,0.8,0.1,0.9,0.9,0.9c0.1,0,0.2,0,0.3,0c0,0.2,0,0.4,0,0.6c-1.5,0-2.9,0-4.4,0
			c0-0.2,0-0.4,0-0.6c0,0,0.1-0.1,0.1-0.1c1.1-0.1,1.1,0.1,1.1-1.2c0.1-1.2,0-2.5,0-3.7c0-0.7-0.1-0.7-0.7-0.7
			C110.5,95.5,110.4,95.4,110.2,95.4z"/>
		<path d="M147.3,101.2c0,0.2,0,0.4,0,0.6c-1.5,0-2.9,0-4.4,0c0-0.2,0-0.4,0-0.6c0.1,0,0.2,0,0.3-0.1c0.8,0,0.8-0.1,0.9-0.8
			c0-1.4,0-2.8,0-4.1c0-0.5-0.2-0.7-0.7-0.7c-0.2,0-0.3,0-0.5,0c0-0.2,0-0.4,0-0.5c1-0.2,2-0.5,2.9-0.7c0.4-0.1,0.4,0.2,0.3,0.4
			c0,1.7-0.1,3.3-0.1,5c0,0,0,0.1,0,0.1C146.1,101,146.1,101,147.3,101.2z"/>
		<path d="M146.7,106c-0.5,1-1,2-1.5,3.1c0,0-0.1,0-0.1,0c-0.5-1-1-2.1-1.5-3.1c0,0-0.1,0-0.1,0c0,0.8,0,1.6,0,2.4
			c0,0.1,0.1,0.2,0.2,0.3c0.1,0.1,0.2,0.1,0.2,0.3c-0.5,0-0.9,0-1.4,0c0-0.1,0-0.1,0-0.1c0.6-0.2,0.5-0.7,0.5-1.1c0-0.6,0-1.2,0-1.8
			c0-0.4,0.1-0.9-0.6-0.9c0,0,0.1-0.1,0.1-0.1c0.5,0,1,0,1.5,0c0.4,0.9,0.9,1.8,1.4,2.9c0.5-1,0.9-2,1.4-2.9c0.5,0,1,0,1.4,0
			c-0.6,0.2-0.5,0.7-0.5,1.1c0,0.7,0,1.4,0,2.1c0,0.3,0,0.6,0.4,0.7c0,0,0.1,0.1,0.1,0.2c-0.7,0-1.3,0-1.9,0c0-0.1,0-0.1,0-0.1
			c0.6-0.1,0.5-0.6,0.5-1c0-0.6,0-1.2,0-1.8C146.8,106,146.8,106,146.7,106z"/>
		<path d="M124.7,106.2c-0.1-0.5,0.3-1.1-0.5-1.2c0,0,0-0.1,0-0.1c0.4-0.1,0.8-0.2,1.3-0.3c0,0.4,0,0.8,0,1.1c0,0.9,0,1.8,0,2.6
			c0,0.2,0.3,0.4,0.4,0.6c-0.4,0-0.8,0-1.2,0c0-0.1,0-0.2,0-0.2c-0.4,0.1-0.7,0.3-1.1,0.3c-0.5,0-0.8-0.4-0.9-0.8
			c-0.1-0.6-0.1-1.1,0.3-1.5C123.5,106.2,124,106,124.7,106.2z M124.7,107.5C124.7,107.5,124.7,107.5,124.7,107.5c0-0.1,0-0.3,0-0.4
			c0-0.4-0.3-0.5-0.6-0.6c-0.3,0-0.6,0.1-0.6,0.4c0,0.4,0,0.8,0.1,1.1c0.1,0.3,0.4,0.4,0.7,0.4c0.3-0.1,0.5-0.3,0.5-0.6
			C124.7,107.7,124.7,107.6,124.7,107.5z"/>
		<path d="M137.7,109c-0.4,0-0.8,0-1.2,0c0-0.1,0-0.2,0-0.4c-0.1,0.1-0.2,0.2-0.3,0.2c-0.5,0.4-1.2,0.3-1.5-0.3
			c-0.3-0.5-0.3-1.1,0-1.6c0.4-0.5,0.9-0.9,1.6-0.7c0.1,0,0.2,0,0.2,0c0.2-0.8,0.1-1-0.4-1.2c0.4-0.1,0.8-0.2,1.2-0.3
			c0,0.8,0,1.7,0,2.5c0,0.3,0,0.5,0,0.8c0,0.4-0.2,0.9,0.6,1C137.9,108.9,137.8,108.9,137.7,109z M136.6,107.5c0-0.2,0.1-0.4,0-0.5
			c-0.1-0.2-0.4-0.4-0.6-0.5c-0.2,0-0.6,0.1-0.6,0.3c0,0.4,0,0.9,0.1,1.4c0,0.1,0.4,0.3,0.6,0.2c0.2,0,0.3-0.3,0.5-0.5
			C136.6,107.8,136.6,107.6,136.6,107.5z"/>
		<path d="M131.4,109c0-0.1,0-0.2-0.1-0.3c-0.1,0.1-0.2,0.1-0.3,0.2c-0.6,0.5-1.4,0.3-1.6-0.5c-0.4-1.2,0.5-2.4,1.9-2.2
			c0.2-0.7,0.1-1-0.4-1.2c0.4-0.1,0.8-0.2,1.2-0.3c0,0.4,0,0.8,0,1.1c0,0.7,0,1.4,0,2c0,0.6,0,0.6,0.5,1.2
			C132.2,109,131.8,109,131.4,109z M131.4,107.5c0-0.2,0.1-0.4,0-0.5c-0.1-0.2-0.3-0.5-0.6-0.5c-0.2,0-0.6,0.2-0.6,0.3
			c-0.1,0.4-0.1,0.9,0,1.3c0,0.2,0.4,0.3,0.7,0.3c0.3,0,0.5-0.2,0.5-0.6C131.4,107.8,131.4,107.6,131.4,107.5z"/>
		<path d="M99.5,104.9c0.4-0.1,0.8-0.2,1.2-0.3c0,0.9,0,1.8,0,2.6c0,0.2,0,0.4,0,0.6c0,0.4-0.1,0.9,0.4,1.1c-0.4,0-0.7,0-1.2,0
			c0-0.1,0-0.2-0.1-0.3c-0.1,0.1-0.2,0.1-0.2,0.1c-0.7,0.6-1.6,0.2-1.8-0.7c-0.2-1.2,0.7-2,1.9-1.9c0,0,0.1,0,0.2,0c0-0.3,0-0.6,0-1
			c-0.1,0-0.3-0.1-0.4-0.1C99.5,105,99.5,105,99.5,104.9z M99.9,107.5c0-0.1,0.1-0.3,0-0.4c-0.1-0.2-0.3-0.5-0.5-0.5
			c-0.2,0-0.6,0.2-0.6,0.3c-0.1,0.4,0,0.9,0.1,1.3c0,0.1,0.4,0.3,0.7,0.3c0.3,0,0.4-0.2,0.4-0.6C99.9,107.7,99.9,107.6,99.9,107.5z"
			/>
		<path d="M116.5,105.1c-0.1,0.4-0.1,0.7-0.1,1c0,0-0.1,0-0.1,0c-0.1-0.1-0.1-0.2-0.2-0.3c-0.1-0.1-0.1-0.3-0.2-0.4
			c-0.8-0.6-2-0.2-2.3,0.8c-0.2,0.7-0.1,1.4,0.4,2c0.5,0.6,1.2,0.6,1.9,0.4c0.2,0,0.4-0.1,0.6-0.2c0,0,0.1,0.1,0.1,0.1
			c-0.1,0.1-0.2,0.3-0.4,0.4c-0.9,0.3-1.7,0.3-2.5-0.1c-0.8-0.4-1.1-1.2-1-2.1c0.1-0.8,0.6-1.5,1.5-1.7
			C114.8,104.7,115.6,104.8,116.5,105.1z"/>
		<path d="M119.2,106.7c-0.2-0.1-0.3-0.1-0.6-0.3c0.5-0.1,0.9-0.2,1.3-0.3c0,0.6,0,1.1,0,1.7c0,0.3,0,0.7,0.4,0.7
			c0.4,0,0.6-0.3,0.6-0.7c0-0.1,0-0.2,0-0.3c0-0.4,0.1-0.8-0.5-0.9c0,0,0-0.1,0.1-0.1c0.4-0.1,0.8-0.2,1.2-0.3c0,0.5,0,1.1,0,1.6
			c0,0.5-0.2,1,0.5,1.2c-0.7,0.3-1.2,0.1-1.3-0.2c0,0-0.1,0-0.1,0c-0.3,0.4-0.7,0.6-1.2,0.3c-0.5-0.2-0.4-0.7-0.4-1.1
			C119.2,107.5,119.2,107.1,119.2,106.7z"/>
		<path d="M159.4,107.6c0-1,0.5-1.5,1.5-1.5c0.9,0,1.4,0.5,1.4,1.4c0,1-0.6,1.6-1.5,1.6C159.9,109.1,159.4,108.6,159.4,107.6z
			 M161.5,107.7c-0.1-0.3-0.1-0.6-0.2-0.9c-0.1-0.2-0.3-0.3-0.5-0.3c-0.2,0-0.4,0.2-0.5,0.3c-0.2,0.6-0.2,1.2,0.1,1.7
			c0.1,0.1,0.3,0.2,0.5,0.2c0.2,0,0.3-0.2,0.4-0.3C161.4,108.2,161.4,107.9,161.5,107.7z"/>
		<path d="M138.9,80.8c-0.7,0-1.2-0.5-1.2-1.2c0-0.7,0.5-1.2,1.2-1.2c0.7,0,1.2,0.5,1.2,1.2C140.1,80.2,139.6,80.8,138.9,80.8z"/>
		<path d="M111.2,91.6c0-0.7,0.5-1.2,1.2-1.2c0.7,0,1.2,0.5,1.2,1.2c0,0.7-0.5,1.2-1.2,1.2C111.7,92.9,111.2,92.3,111.2,91.6z"/>
		<path d="M146.3,91.6c0,0.7-0.5,1.2-1.2,1.2c-0.7,0-1.2-0.6-1.2-1.3c0-0.7,0.6-1.2,1.3-1.2C145.8,90.4,146.3,90.9,146.3,91.6z"/>
		<path d="M110.7,108.9c-0.5-0.1-0.9,0.3-1.3-0.2c-0.1,0-0.1,0.1-0.2,0.1c-0.3,0.2-0.6,0.3-0.9,0.1c-0.2-0.2-0.3-0.5-0.3-0.7
			c0-0.4,0.2-0.6,0.6-0.7c0.3-0.1,0.6-0.2,1.1-0.3c-0.2-0.2-0.3-0.5-0.5-0.6c-0.2,0-0.5,0.1-0.9,0.2c0-0.1,0-0.3,0.1-0.4
			c0.4-0.3,0.9-0.5,1.4-0.2c0.2,0.1,0.4,0.4,0.4,0.7c0.1,0.2,0,0.5,0,0.7C110.3,108,110,108.6,110.7,108.9z M109.5,107.6
			c-0.4,0-0.8,0.1-0.8,0.6c0,0.1,0.3,0.3,0.4,0.3C109.6,108.4,109.5,108,109.5,107.6z"/>
		<path d="M128.9,109c-0.4-0.1-0.9,0.3-1.2-0.3c-0.1,0.1-0.2,0.1-0.3,0.2c-0.4,0.3-0.8,0.2-1-0.1c-0.2-0.4-0.1-1,0.3-1.2
			c0.4-0.2,0.7-0.2,1.2-0.4c-0.2-0.2-0.3-0.5-0.4-0.5c-0.3,0-0.5,0.1-0.9,0.2c-0.1-0.1-0.1-0.3,0.2-0.5c0.3-0.1,0.6-0.3,1-0.3
			c0.6,0,0.9,0.3,0.9,0.9c0,0.2,0,0.5,0,0.7C128.5,108.5,128.5,108.5,128.9,109z M127.7,107.6c-0.4,0.1-0.8,0.1-0.7,0.6
			c0,0.1,0.3,0.3,0.4,0.3C127.9,108.4,127.8,108,127.7,107.6z"/>
		<path d="M139,107.6c0.1,0.9,0.6,1.1,1.7,0.8c-0.1,0.2-0.2,0.4-0.3,0.5c-0.5,0.3-1.4,0.3-1.8-0.1c-0.4-0.4-0.6-1.3-0.3-1.9
			c0.2-0.5,1-0.8,1.6-0.7c0.6,0.1,0.8,0.4,0.9,1c0,0.3,0,0.4-0.3,0.4c-0.2,0-0.5,0-0.7,0.1C139.4,107.6,139.2,107.6,139,107.6z
			 M139.9,107.3c0-0.6-0.2-0.8-0.5-0.8c-0.5,0.1-0.4,0.4-0.4,0.8C139.3,107.3,139.6,107.3,139.9,107.3z"/>
		<path d="M102.3,107.7c0.1,0.9,0.6,1.1,1.7,0.9c-0.1,0.1-0.2,0.3-0.4,0.4c-0.6,0.3-1.4,0.2-1.8-0.2c-0.4-0.4-0.5-1.3-0.2-1.8
			c0.3-0.7,1.4-1,2-0.5c0.4,0.3,0.4,0.6,0.4,1c0,0.1-0.2,0.2-0.3,0.2C103.3,107.6,102.8,107.6,102.3,107.7z M102.2,107.2
			c0.4,0,0.7,0,1,0c0-0.4,0-0.7-0.4-0.8C102.3,106.5,102.3,106.8,102.2,107.2z"/>
		<path d="M151.2,107.5c-0.6,0-1.1,0.1-1.7,0.1c0.1,0.9,0.6,1.1,1.7,0.7c-0.1,0.2-0.2,0.4-0.3,0.5c-0.4,0.3-1.4,0.3-1.8-0.1
			c-0.4-0.4-0.6-1.2-0.4-1.8c0.2-0.5,0.9-0.9,1.5-0.8C151,106.2,151.3,106.6,151.2,107.5z M149.5,107.3c0.3,0,0.6,0,1,0
			c0-0.4,0-0.8-0.5-0.8C149.5,106.5,149.5,106.9,149.5,107.3z"/>
		<path d="M105.9,104.9c0.4-0.1,0.8-0.2,1.2-0.3c0,0.3,0,0.5,0,0.7c0,1,0,2,0,3c0,0.2,0.2,0.4,0.4,0.6c-0.5,0-1.1,0-1.8,0
			c0.9-0.5,0.5-1.3,0.5-1.9c0.1-0.4,0-0.9,0-1.4c0-0.3,0-0.6-0.5-0.7C105.9,105,105.9,104.9,105.9,104.9z"/>
		<path d="M129.9,93.4c0.8-0.8,1.7-1.6,2.5-2.3c0.1-0.1,0.3-0.2,0.5-0.2c0.3,0.1,0.6,0.2,0.7,0.3c0.2,0.3,0.1,0.6-0.2,0.8
			c-0.9,0.5-1.8,1-2.7,1.5c-0.2,0.1-0.5,0-0.7,0.1C130,93.5,130,93.4,129.9,93.4z"/>
		<path d="M154.3,108.8c-0.7,0.5-0.7,0.5-1.5-0.7c-0.4,0.3-0.5,1.2-1.3,0.8c0.1-0.1,0.1-0.2,0.2-0.2c0.1-0.1,0.2-0.1,0.3-0.2
			c0.8-0.8,0.7-1.3-0.4-1.9c0.5-0.7,0.7-0.7,1.6,0.4c0.9-0.8,0.9-0.8,1.3-0.8c-0.4,0.4-0.7,0.7-1.1,1.2
			C153.6,107.8,154,108.3,154.3,108.8z"/>
		<path d="M158.9,106.3c0,0.3-0.1,0.6-0.1,1.1c-0.1-0.2-0.2-0.2-0.2-0.3c0-0.3-0.3-0.5-0.6-0.4c-0.2,0.1-0.5,0.3-0.5,0.5
			c-0.3,1.1,0.3,1.7,1.5,1.5c-0.1,0.2-0.2,0.3-0.3,0.4c-0.5,0.3-1.5,0.1-1.8-0.4c-0.3-0.5-0.3-1.6,0.3-2
			C157.7,106.2,158.2,106,158.9,106.3z"/>
		<path d="M118.5,109c-0.5,0-1.1,0-1.6,0c0.1-0.2,0.3-0.5,0.4-0.7c0.1-0.3,0-0.7,0-1c0-0.3,0.1-0.7-0.6-0.6c0-0.1,0.1-0.1,0.1-0.2
			c0.4-0.1,0.8-0.2,1.2-0.3c0,0.6,0,1.1,0,1.6c0,0.4-0.2,1,0.6,1.1C118.6,108.9,118.5,108.9,118.5,109z"/>
		<path d="M155.1,106.7c-0.2-0.1-0.3-0.1-0.5-0.2c0,0,0-0.1,0-0.1c0.4-0.1,0.8-0.2,1.2-0.3c0,0.6,0,1.1,0,1.6c0,0.4-0.2,0.9,0.6,1.1
			c0,0-0.1,0.1-0.1,0.1c-0.5,0-1.1,0-1.6,0c0,0,0-0.1,0-0.1c0.6-0.1,0.4-0.6,0.4-1C155.1,107.5,155.1,107.1,155.1,106.7z"/>
		<path d="M118.2,105.3c-0.2,0.1-0.4,0.3-0.5,0.3c-0.2,0-0.4-0.2-0.5-0.4c-0.1-0.3,0.2-0.5,0.5-0.5c0.2,0,0.4,0.2,0.5,0.3
			C118.2,105.1,118.2,105.2,118.2,105.3z"/>
		<path d="M156,105.3c-0.2,0.1-0.3,0.4-0.5,0.3c-0.2,0-0.4-0.2-0.5-0.4c-0.1-0.3,0.1-0.5,0.4-0.5c0.2,0,0.4,0.2,0.5,0.3
			C156,105.1,156,105.2,156,105.3z"/>
		<path d="M149.3,105.8c0.3-0.3,0.5-0.6,0.8-0.8c0.1-0.1,0.3,0,0.5,0c-0.1,0.1-0.1,0.3-0.2,0.4c-0.3,0.2-0.7,0.4-1,0.6
			C149.3,105.9,149.3,105.9,149.3,105.8z"/>
		<path class="st1" d="M101.4,75.2c1.7-2.6,1.1-5-0.3-7.5c0.3-0.1,0.6-0.1,0.8-0.2c5.3-0.8,10.6-1.6,15.9-2.5
			c3.6-0.6,7.3-1.1,10.9-1.7c0.5-0.1,0.7,0,1.1,0.4c2.4,3.3,2.4,7.5-0.1,10.7c-0.3,0.4-0.6,0.7-1.2,0.7c-1.3,0-2.6,0-3.9,0
			c-3.3,0-6.6,0-9.9,0c-3.6,0-7.2,0-10.8,0.1C103.1,75.2,102.3,75.2,101.4,75.2z M112.5,67C112.5,67.1,112.5,67.1,112.5,67
			c5.4-0.4,10.7-0.8,16.2-1.2c0-0.3-0.1-0.5-0.1-0.8C123.2,65.7,117.9,66.3,112.5,67z M128.6,66.4c-4.6,0.5-9.1,0.9-13.6,1.4
			c0,0,0,0.1,0,0.1c4.5-0.2,9-0.4,13.6-0.7C128.6,67,128.6,66.7,128.6,66.4z M128.6,67.8c-4.2,0.4-8.3,0.7-12.4,1.1c0,0,0,0,0,0.1
			c4.1-0.1,8.3-0.2,12.4-0.3C128.6,68.4,128.6,68.1,128.6,67.8z M119.3,70C119.3,70,119.3,70,119.3,70c3.1,0.1,6.2,0.1,9.3,0.1
			c0-0.3,0-0.5,0-0.8C125.5,69.5,122.4,69.7,119.3,70z M121,71.2C121,71.3,121,71.3,121,71.2c2.5,0.1,5.1,0.1,7.7,0.1
			c0-0.3,0-0.5-0.1-0.8C126,70.8,123.5,71,121,71.2z M123.8,72.7C123.8,72.7,123.8,72.7,123.8,72.7c1.6,0.1,3.2,0.2,4.8,0.2
			c0-0.3,0-0.5,0-0.8C127,72.3,125.4,72.5,123.8,72.7z M128.7,74.3c0-0.3,0-0.6,0-0.8c-1.1,0.2-2.2,0.3-3.2,0.5c0,0,0,0,0,0.1
			C126.5,74.1,127.5,74.2,128.7,74.3z"/>
		<path class="st1" d="M160.1,52.9c-1.7,0.4-3.4,0.9-5.2,1.3c0.3,0.1,0.6,0.2,0.8,0.3c1.4,0.5,2.9,1.1,4.3,1.6
			c0.2,0.1,0.4,0.1,0.4,0.4c0,7.4-2.5,13.6-8.5,18.1c-0.3,0.2-0.7,0.3-1,0.3c-0.6,0-1.3,0-1.9,0c0,0-0.1,0-0.1-0.1
			c0.3-0.9,0.2-1.9-0.1-2.8c-0.4-1.2-1-2.1-2.2-2.5c-0.7-0.2-1.4-0.6-2-1c1-0.1,1.9-0.3,2.9-0.4c1.8-0.3,3.6-0.5,5.4-0.8
			c0.2,0,0.3-0.1,0.5-0.2c0.8-0.8,1.1-1.8,1.3-2.9c0.3-1.8,0.3-3.6-0.5-5.3c-0.5-1-1.2-1.7-2.3-2c-4.6-1.5-9.2-3-13.9-4.5
			c-0.1,0-0.3-0.1-0.4-0.1c1.1,0,2.2,0,3.3,0c2.3,0.1,4.7,0.2,7,0.3c2.3,0.1,4.2-1.6,4.3-3.8c0.1-0.9,0-1.7-0.4-2.5
			c-0.4-0.8-0.9-1.2-1.9-1.2c-1.7,0.1-3.3,0-5.2,0c0.4-0.6,0.7-1.1,1.2-1.5c1.8-1.3,3.7-2.1,5.9-1.5c1.5,0.4,2.7,1.3,3.8,2.3
			C158,46.8,159.6,49.5,160.1,52.9z"/>
		<path class="st1" d="M145.4,42c-3.1,2.9-3.6,5.7-1.5,8.8c-0.7,0-1.4,0-2.2,0c-3.4-0.1-6.7-0.3-10.1-0.4c-4.7-0.2-9.4-0.4-14.1-0.6
			c-0.5,0-0.9,0-1.4-0.1c-1.7-0.3-2.7-1.4-2.7-3.2c0-1.8,0.7-3.2,2.2-4.1c0.5-0.3,1.1-0.5,1.7-0.5c9.1,0,18.2,0,27.3,0
			C144.9,42,145.1,42,145.4,42z"/>
		<path class="st1" d="M135,56.4c0,0.3,0,0.5,0.1,0.7c-3,0.6-5.9,1.3-8.9,1.9c0,0,0,0,0,0.1c2.9-0.4,5.8-0.8,8.8-1.2
			c0,0.2,0,0.3,0,0.5c-2.4,0.4-4.7,0.9-7.1,1.3c0,0,0,0,0,0.1c2.3-0.2,4.6-0.4,6.9-0.6c0.1,0.4-0.1,0.6-0.5,0.6
			c-1.1,0.2-2.2,0.4-3.3,0.6c1.1,0,2.3,0,3.6,0c-0.2,0.2-0.4,0.4-0.6,0.4c-1.8,0.3-3.5,0.6-5.3,0.8c-4.8,0.8-9.6,1.5-14.5,2.3
			c-2.8,0.4-5.6,0.9-8.4,1.3c0.5-2.1,1.2-4.1-0.2-6.2c9.4-2.1,18.8-4.2,28.2-6.3c0,0.1,0,0.1,0,0.2c-5.4,1.4-10.7,2.8-16.1,4.2
			c0,0,0,0.1,0,0.1c0.8-0.2,1.7-0.4,2.5-0.5c4.5-1,9-1.9,13.5-2.9c0.5-0.1,0.5-0.1,0.7,0.5c-4.2,1-8.4,1.9-12.7,2.9c0,0,0,0.1,0,0.1
			c4.3-0.7,8.6-1.5,12.9-2.2c0,0.2,0.1,0.3,0.2,0.6c-4,0.9-7.9,1.8-11.9,2.7c0,0,0,0.1,0,0.1C127,57.8,130.9,57.1,135,56.4z"/>
		<path class="st1" d="M136.4,54.8c1.6,0.5,3.2,0.9,4.7,1.4c-1.7-0.9-3.5-1.5-5.2-2.4c0-0.1,0.1-0.1,0.1-0.2
			c0.4,0.1,0.8,0.2,1.1,0.4c4.7,1.6,9.5,3.1,14.2,4.7c0.5,0.2,0.8,0.4,1,0.9c0.5,0.8,0.6,1.8,0.6,2.7c0,1.1-0.1,2.2-0.7,3.3
			c-5.5-1.5-10.9-3-16.4-4.5c0.1-0.4,0.2-0.8,0.3-1.1c0-0.1,0.2-0.2,0.3-0.3c0.3,0,0.6,0,0.9-0.1c-0.4-0.1-0.7-0.3-1.1-0.4
			c0-0.2,0.1-0.3,0.1-0.5c0.6,0,1.3-0.1,1.9-0.1c0,0,0-0.1,0-0.1c-0.5-0.2-1-0.3-1.5-0.5c-0.3-0.1-0.5-0.2-0.3-0.6
			c0.8,0.1,1.7,0.2,2.6,0.3c0,0,0,0,0-0.1c-0.7-0.3-1.5-0.6-2.2-0.8c-0.4-0.1-0.6-0.4-0.4-0.8c1.1,0.2,2.2,0.4,3.3,0.6
			c0,0,0,0,0-0.1c-1.1-0.4-2.2-0.8-3.2-1.3c-0.2-0.1-0.3-0.2-0.4-0.4C136.4,54.8,136.4,54.8,136.4,54.8z"/>
		<path class="st1" d="M131.2,75.2c2-3.1,2.5-6.3,1.3-9.8c0.2,0.1,0.4,0.1,0.5,0.2c4.2,1.9,8.4,3.7,12.7,5.6
			c1.1,0.5,1.5,1.4,1.6,2.5c0,0.3,0,0.6-0.1,0.9c-0.1,0.5-0.4,0.7-1,0.7c-2.9,0-5.7,0-8.6,0c-1.9,0-3.9,0-5.8,0
			C131.7,75.2,131.5,75.2,131.2,75.2z"/>
		<path class="st1" d="M131.4,63c1.1-0.2,2.1-0.3,3.2-0.5c0.2,0,0.4,0,0.6,0c4.5,1.2,9,2.4,13.5,3.7c0.1,0,0.2,0.1,0.4,0.1
			c-1.3,0.2-2.4,0.4-3.6,0.5c-1.3,0.2-2.5,0.4-3.8,0.5c-0.2,0-0.4,0-0.5,0c-3.2-1.4-6.4-2.8-9.6-4.2C131.5,63.1,131.5,63,131.4,63z"
			/>
		<path class="st1" d="M144.2,46.8c1.9,0,3.8,0,5.7,0c0.1,0,0.3,0.1,0.3,0.2c0.8,1.3,0,3.5-1.4,3.9c-0.4,0.1-0.8,0.1-1.3,0.1
			C145.7,50.9,143.9,48.7,144.2,46.8z"/>
		<path class="st1" d="M104.8,85.4c0.5-1.3,1-2.6,1.6-4c0.6,1.4,1.1,2.6,1.7,4C107,85.4,105.9,85.4,104.8,85.4z"/>
		<path class="st1" d="M133.5,98.2c-0.1,0.7-0.1,1.3-0.2,1.9c-0.1,0.7-0.6,1.1-1.2,1.1c-0.7,0.1-1.3-0.2-1.5-0.9
			c-0.5-1.4-0.6-2.8-0.2-4.3c0.2-0.7,0.7-1.1,1.3-1.1c0.7,0,1.2,0.3,1.4,1C133.3,96.7,133.4,97.5,133.5,98.2z"/>
		<path class="st1" d="M160.9,98.2c-0.1,0.7-0.1,1.3-0.2,1.9c-0.1,0.7-0.6,1.1-1.2,1.1c-0.7,0.1-1.2-0.2-1.5-0.9
			c-0.5-1.4-0.6-2.8-0.2-4.3c0.2-0.7,0.7-1,1.3-1c0.7,0,1.2,0.3,1.4,1C160.7,96.7,160.7,97.5,160.9,98.2z"/>
		<path class="st1" d="M156.5,86c-0.1,0.7-0.1,1.4-0.2,2c-0.1,0.7-0.6,1.1-1.2,1.2c-0.7,0.1-1.2-0.3-1.5-0.9
			c-0.5-1.4-0.6-2.8-0.2-4.3c0.2-0.7,0.7-1,1.3-1c0.7,0,1.2,0.3,1.4,1C156.3,84.6,156.4,85.3,156.5,86z"/>
		<path class="st1" d="M124.7,107.5c0,0.1,0,0.3,0,0.4c0,0.3-0.2,0.5-0.5,0.6c-0.3,0.1-0.6-0.1-0.7-0.4c-0.1-0.4-0.1-0.8-0.1-1.1
			c0-0.3,0.3-0.5,0.6-0.4c0.3,0,0.6,0.2,0.6,0.6C124.7,107.2,124.7,107.3,124.7,107.5C124.7,107.5,124.7,107.5,124.7,107.5z"/>
		<path class="st1" d="M136.6,107.5c0,0.1,0,0.3,0,0.4c-0.1,0.2-0.3,0.5-0.5,0.5c-0.2,0-0.6-0.1-0.6-0.2c-0.1-0.4-0.1-0.9-0.1-1.4
			c0-0.1,0.4-0.3,0.6-0.3c0.2,0.1,0.4,0.3,0.6,0.5C136.6,107.1,136.6,107.3,136.6,107.5z"/>
		<path class="st1" d="M131.4,107.5c0,0.1,0,0.2,0,0.3c0,0.3-0.2,0.6-0.5,0.6c-0.2,0-0.6-0.2-0.7-0.3c-0.1-0.4-0.1-0.8,0-1.3
			c0-0.1,0.4-0.3,0.6-0.3c0.2,0,0.4,0.3,0.6,0.5C131.5,107.2,131.4,107.4,131.4,107.5z"/>
		<path class="st1" d="M99.9,107.5c0,0.1,0,0.2,0,0.3c0,0.3-0.1,0.5-0.4,0.6c-0.2,0-0.6-0.1-0.7-0.3c-0.1-0.4-0.1-0.9-0.1-1.3
			c0-0.1,0.4-0.3,0.6-0.3c0.2,0,0.4,0.3,0.5,0.5C100,107.2,99.9,107.4,99.9,107.5z"/>
		<path class="st1" d="M161.5,107.7c0,0.3,0,0.5-0.1,0.7c-0.1,0.1-0.3,0.3-0.4,0.3c-0.2,0-0.4-0.1-0.5-0.2c-0.3-0.5-0.3-1.2-0.1-1.7
			c0.1-0.1,0.3-0.3,0.5-0.3c0.2,0,0.4,0.2,0.5,0.3C161.4,107.1,161.4,107.4,161.5,107.7z"/>
		<path class="st1" d="M109.5,107.6c0,0.4,0.1,0.8-0.4,0.9c-0.1,0-0.4-0.2-0.4-0.3C108.7,107.7,109.1,107.7,109.5,107.6z"/>
		<path class="st1" d="M127.7,107.6c0,0.4,0.1,0.8-0.4,0.9c-0.1,0-0.4-0.2-0.4-0.3C127,107.7,127.4,107.7,127.7,107.6z"/>
		<path class="st1" d="M139.9,107.3c-0.3,0-0.6,0-0.9,0c0-0.4,0-0.7,0.4-0.8C139.7,106.4,139.9,106.7,139.9,107.3z"/>
		<path class="st1" d="M102.2,107.2c0-0.4,0.1-0.8,0.5-0.8c0.4,0,0.5,0.4,0.4,0.8C102.9,107.2,102.6,107.2,102.2,107.2z"/>
		<path class="st1" d="M149.5,107.3c0-0.4,0-0.8,0.5-0.8c0.5,0,0.5,0.4,0.5,0.8C150.1,107.3,149.8,107.3,149.5,107.3z"/>
		<path d="M112.5,67c5.3-0.7,10.7-1.4,16.1-2.1c0,0.3,0.1,0.5,0.1,0.8C123.3,66.2,117.9,66.7,112.5,67
			C112.5,67.1,112.5,67.1,112.5,67z"/>
		<path d="M128.6,66.4c0,0.3,0,0.6,0,0.8c-4.6,0.2-9.1,0.4-13.6,0.7c0,0,0-0.1,0-0.1C119.5,67.4,124,66.9,128.6,66.4z"/>
		<path d="M128.6,67.8c0,0.3,0,0.6,0,0.8c-4.1,0.1-8.3,0.2-12.4,0.3c0,0,0,0,0-0.1C120.3,68.5,124.4,68.2,128.6,67.8z"/>
		<path d="M119.3,70c3.1-0.2,6.2-0.5,9.3-0.7c0,0.3,0,0.5,0,0.8C125.5,70,122.4,70,119.3,70C119.3,70,119.3,70,119.3,70z"/>
		<path d="M121,71.2c2.5-0.2,5-0.4,7.6-0.7c0,0.3,0,0.5,0.1,0.8C126.1,71.3,123.5,71.3,121,71.2C121,71.3,121,71.3,121,71.2z"/>
		<path d="M123.8,72.7c1.6-0.2,3.2-0.4,4.8-0.6c0,0.3,0,0.5,0,0.8C127,72.8,125.4,72.8,123.8,72.7C123.8,72.7,123.8,72.7,123.8,72.7
			z"/>
		<path d="M128.7,74.3c-1.2-0.1-2.2-0.2-3.3-0.3c0,0,0,0,0-0.1c1.1-0.1,2.1-0.3,3.2-0.5C128.6,73.8,128.7,74,128.7,74.3z"/>
	</g>
</g>
</svg>
