<?xml version="1.0" encoding="utf-8"?>
<!-- Generator: Adobe Illustrator 23.1.0, SVG Export Plug-In . SVG Version: 6.00 Build 0)  -->
<svg version="1.1" id="Capa_1" xmlns="http://www.w3.org/2000/svg" xmlns:xlink="http://www.w3.org/1999/xlink" x="0px" y="0px"
	 viewBox="0 0 266 155" style="enable-background:new 0 0 266 155;" xml:space="preserve">
<style type="text/css">
	.st0{fill:#347B98;}
	.st1{fill:#4D525A;}
	.st2{fill:#EC1C24;}
	.st3{fill:#7F7F80;}
</style>
<g>
	<rect x="70.8" y="14" class="st0" width="124.4" height="3.3"/>
	<rect x="70.8" y="137.7" class="st0" width="124.4" height="3.3"/>
	<g>
		<g>
			<g>
				<path class="st1" d="M114.1,67.2c0-3.6,2.2-6,4.8-6c1.4,0,2.2,0.6,2.8,1.2c0.2-0.1,0.4-0.5,0.4-0.8c0-0.1,0-0.3,0.2-0.3
					c0.3,0,0.3,0.2,0.3,0.3v3.7c0,0.1-0.1,0.3-0.3,0.3c-0.2,0-0.3-0.2-0.3-0.3c0-1.9-1.3-3.4-3-3.4c-2,0-3.3,1.3-3.3,5.3
					c0,4,1.3,5.3,3.3,5.3c1.7,0,3-1.4,3-3.4c0-0.1,0-0.3,0.3-0.3c0.2,0,0.3,0.1,0.3,0.3v3.7c0,0.1,0,0.3-0.3,0.3
					c-0.2,0-0.2-0.2-0.2-0.3c0-0.2-0.1-0.7-0.4-0.8c-0.7,0.7-1.4,1.2-2.8,1.2C116.3,73.2,114.1,70.8,114.1,67.2z"/>
				<path class="st1" d="M128.2,72.3c0.1,0,0.3,0.1,0.3,0.3c0,0.2-0.1,0.3-0.3,0.3c-0.2,0-0.4-0.1-1.8-0.1h-0.2
					c-1.4,0-1.6,0.1-1.8,0.1c-0.1,0-0.3-0.1-0.3-0.3c0-0.2,0.1-0.3,0.3-0.3c0.2,0,0.4,0,1.2,0V62.1c-0.8,0-1,0-1.2,0
					c-0.1,0-0.3-0.1-0.3-0.3c0-0.2,0.1-0.3,0.3-0.3c0.2,0,0.4,0.1,1.8,0.1h0.2c1.5,0,1.6-0.1,1.8-0.1c0.1,0,0.3,0.1,0.3,0.3
					c0,0.2-0.1,0.3-0.3,0.3c-0.2,0-0.4,0-1.2,0v10.3C127.9,72.3,128.1,72.3,128.2,72.3z"/>
				<path class="st1" d="M132.3,72.3c0.8,0,1,0,1.2,0c0.1,0,0.3,0.1,0.3,0.3c0,0.2-0.1,0.3-0.3,0.3c-0.2,0-0.3-0.1-1.5-0.1
					c-1.2,0-1.4,0.1-1.5,0.1c-0.1,0-0.3-0.1-0.3-0.3c0-0.2,0.1-0.3,0.3-0.3c0.2,0,0.4,0,1.2,0V62.1c-0.8,0-1,0-1.2,0
					c-0.1,0-0.3-0.1-0.3-0.3c0-0.2,0.1-0.3,0.3-0.3c0.2,0,0.3,0.1,1.5,0.1c0.3,0,0.5,0,0.7,0c0.3,0,0.4,0.2,0.7,0.7l5,8v-8.1
					c-0.9,0-1,0-1.2,0c-0.1,0-0.3-0.1-0.3-0.3c0-0.2,0.1-0.3,0.3-0.3c0.2,0,0.3,0.1,1.5,0.1c1.2,0,1.4-0.1,1.5-0.1
					c0.1,0,0.3,0.1,0.3,0.3c0,0.2-0.1,0.3-0.3,0.3c-0.2,0-0.4,0-1.2,0v10.6c0,0.4-0.1,0.5-0.2,0.5c-0.2,0-0.3-0.1-0.4-0.4l-6-9.6
					V72.3z"/>
				<path class="st1" d="M150.1,72.1v0.5c0,0.2-0.1,0.3-0.3,0.3c-0.2,0-0.7-0.1-1-0.1c-0.7,0-4.2,0-4.8,0c-1.4,0-1.6,0.1-1.8,0.1
					c-0.1,0-0.3-0.1-0.3-0.3c0-0.2,0.1-0.3,0.3-0.3c0.2,0,0.4,0,1.2,0V62.1c-0.8,0-1,0-1.2,0c-0.1,0-0.3-0.1-0.3-0.3
					c0-0.2,0.1-0.3,0.3-0.3c0.2,0,0.4,0.1,1.8,0.1c0.8,0,3.9,0,4.4,0c0.3,0,0.8-0.1,1-0.1c0.1,0,0.3,0.1,0.3,0.3v0.5
					c0,0.7,0.1,2,0.1,2.1c0,0.1-0.1,0.3-0.3,0.3c-0.2,0-0.3-0.1-0.3-0.3c0-1.4-0.4-2.3-1.5-2.3h-2.9v4.5h1.7c0.6,0,0.9-0.5,0.9-1.4
					c0-0.1,0.1-0.3,0.2-0.3c0.2,0,0.2,0.1,0.2,0.3c0,0.2,0,0.5,0,1.7c0,1.2,0,1.5,0,1.7c0,0.1-0.1,0.3-0.2,0.3
					c-0.2,0-0.2-0.1-0.2-0.3c0-0.9-0.4-1.4-0.9-1.4h-1.7v5h3.3c1,0,1.4-0.9,1.4-2.3c0-0.1,0.1-0.3,0.3-0.3c0.2,0,0.3,0.1,0.3,0.3
					C150.2,70.1,150.1,71.4,150.1,72.1z"/>
				<path class="st1" d="M159.7,64.7c-0.2,0-0.3-0.1-0.3-0.3c0-1.4-0.4-2.3-1.5-2.3h-1.7v10.2c0.9,0,1,0,1.2,0
					c0.1,0,0.3,0.1,0.3,0.3c0,0.2-0.1,0.3-0.3,0.3c-0.2,0-0.4-0.1-1.8-0.1h-0.2c-1.5,0-1.6,0.1-1.8,0.1c-0.1,0-0.3-0.1-0.3-0.3
					c0-0.2,0.1-0.3,0.3-0.3c0.2,0,0.4,0,1.2,0V62.2h-1.7c-1,0-1.5,0.9-1.5,2.3c0,0.1-0.1,0.3-0.3,0.3c-0.2,0-0.3-0.1-0.3-0.3
					c0-0.2,0.1-1.4,0.1-2.1v-0.5c0-0.2,0.1-0.3,0.3-0.3c0.2,0,0.7,0.1,1,0.1l2.8,0h0.7l2.8,0c0.3,0,0.8-0.1,1-0.1
					c0.1,0,0.3,0.1,0.3,0.3v0.5c0,0.7,0.1,2,0.1,2.1C159.9,64.6,159.8,64.7,159.7,64.7z"/>
				<path class="st1" d="M169.2,72.1v0.5c0,0.2-0.1,0.3-0.3,0.3c-0.2,0-0.7-0.1-1-0.1c-0.7,0-4.2,0-4.8,0c-1.4,0-1.6,0.1-1.8,0.1
					c-0.1,0-0.3-0.1-0.3-0.3c0-0.2,0.1-0.3,0.3-0.3c0.2,0,0.4,0,1.2,0V62.1c-0.8,0-1,0-1.2,0c-0.1,0-0.3-0.1-0.3-0.3
					c0-0.2,0.1-0.3,0.3-0.3c0.2,0,0.4,0.1,1.8,0.1c0.8,0,3.9,0,4.4,0c0.3,0,0.8-0.1,1-0.1c0.1,0,0.3,0.1,0.3,0.3v0.5
					c0,0.7,0.1,2,0.1,2.1c0,0.1-0.1,0.3-0.3,0.3c-0.2,0-0.3-0.1-0.3-0.3c0-1.4-0.4-2.3-1.5-2.3h-2.9v4.5h1.7c0.6,0,0.9-0.5,0.9-1.4
					c0-0.1,0.1-0.3,0.2-0.3c0.2,0,0.2,0.1,0.2,0.3c0,0.2,0,0.5,0,1.7c0,1.2,0,1.5,0,1.7c0,0.1-0.1,0.3-0.2,0.3
					c-0.2,0-0.2-0.1-0.2-0.3c0-0.9-0.4-1.4-0.9-1.4h-1.7v5h3.3c1,0,1.4-0.9,1.4-2.3c0-0.1,0.1-0.3,0.3-0.3c0.2,0,0.3,0.1,0.3,0.3
					C169.3,70.1,169.2,71.4,169.2,72.1z"/>
				<path class="st1" d="M170.7,67.2c0-3.6,2.2-6,4.8-6c1.5,0,2.2,0.6,2.8,1.2c0.2-0.1,0.4-0.5,0.4-0.8c0-0.1,0-0.3,0.2-0.3
					c0.3,0,0.3,0.2,0.3,0.3v3.7c0,0.1-0.1,0.3-0.3,0.3c-0.2,0-0.3-0.2-0.3-0.3c0-1.9-1.3-3.4-3-3.4c-2,0-3.3,1.3-3.3,5.3
					c0,4,1.3,5.3,3.3,5.3c1.7,0,3-1.4,3-3.4c0-0.1,0-0.3,0.3-0.3c0.2,0,0.3,0.1,0.3,0.3v3.7c0,0.1,0,0.3-0.3,0.3
					c-0.2,0-0.2-0.2-0.2-0.3c0-0.2-0.1-0.7-0.4-0.8c-0.7,0.7-1.4,1.2-2.8,1.2C172.9,73.2,170.7,70.8,170.7,67.2z"/>
				<path class="st1" d="M191.2,72.3c0.1,0,0.3,0.1,0.3,0.3c0,0.2-0.1,0.3-0.3,0.3c-0.2,0-0.4-0.1-1.8-0.1h-0.2
					c-1.4,0-1.6,0.1-1.8,0.1c-0.1,0-0.3-0.1-0.3-0.3c0-0.2,0.1-0.3,0.3-0.3c0.2,0,0.4,0,1.2,0l-1.1-3h-4.3l-1.1,3h0.1
					c0.8,0,0.9,0,1.1,0c0.1,0,0.3,0.1,0.3,0.3c0,0.2-0.1,0.3-0.3,0.3c-0.2,0-0.2-0.1-1.5-0.1h-0.1c-1.3,0-1.3,0.1-1.5,0.1
					c-0.1,0-0.3-0.1-0.3-0.3c0-0.2,0.1-0.3,0.3-0.3c0.2,0,0.2,0,1,0h0.1l4.1-11c0.1-0.1,0.1-0.2,0.3-0.2c0.2,0,0.2,0.1,0.3,0.2l4,11
					C190.9,72.3,191,72.3,191.2,72.3z M185.3,63.5l-2,5.2h3.9L185.3,63.5z"/>
				<path class="st1" d="M116.2,85.8c0.8,0,1,0,1.2,0c0.1,0,0.3,0.1,0.3,0.3c0,0.2-0.1,0.3-0.3,0.3c-0.2,0-0.3-0.1-1.5-0.1
					c-1.2,0-1.3,0.1-1.5,0.1c-0.1,0-0.3-0.1-0.3-0.3c0-0.2,0.1-0.3,0.3-0.3c0.2,0,0.3,0,1.2,0V75.5c-0.8,0-1,0-1.2,0
					c-0.1,0-0.3-0.1-0.3-0.3c0-0.2,0.1-0.3,0.3-0.3c0.2,0,0.3,0.1,1.5,0.1c0.3,0,0.5,0,0.7,0c0.3,0,0.3,0.2,0.7,0.7l4.8,8v-8.1
					c-0.8,0-1,0-1.2,0c-0.1,0-0.3-0.1-0.3-0.3c0-0.2,0.1-0.3,0.3-0.3c0.2,0,0.3,0.1,1.5,0.1c1.2,0,1.3-0.1,1.5-0.1
					c0.1,0,0.3,0.1,0.3,0.3c0,0.2-0.1,0.3-0.3,0.3c-0.2,0-0.3,0-1.2,0v10.6c0,0.4-0.1,0.5-0.2,0.5c-0.2,0-0.3-0.1-0.4-0.4l-5.8-9.6
					V85.8z"/>
				<path class="st1" d="M135.2,85.8c0.1,0,0.3,0.1,0.3,0.3c0,0.2-0.1,0.3-0.3,0.3c-0.2,0-0.3-0.1-1.8-0.1h-0.2
					c-1.4,0-1.6,0.1-1.8,0.1c-0.1,0-0.3-0.1-0.3-0.3c0-0.2,0.1-0.3,0.3-0.3c0.2,0,0.3,0,1.1,0l-1.1-3h-4.2l-1.1,3h0.1
					c0.8,0,0.9,0,1.1,0c0.1,0,0.3,0.1,0.3,0.3c0,0.2-0.1,0.3-0.3,0.3c-0.2,0-0.2-0.1-1.4-0.1h-0.1c-1.2,0-1.3,0.1-1.5,0.1
					c-0.1,0-0.3-0.1-0.3-0.3c0-0.2,0.1-0.3,0.3-0.3c0.2,0,0.2,0,1,0h0.1l4-11c0.1-0.1,0.1-0.2,0.3-0.2c0.2,0,0.2,0.1,0.3,0.2l3.9,11
					C134.9,85.8,135,85.8,135.2,85.8z M129.5,76.9l-1.9,5.2h3.7L129.5,76.9z"/>
				<path class="st1" d="M135.4,80.7c0-3.6,2.1-6,4.6-6c1.4,0,2.1,0.6,2.7,1.2c0.2-0.1,0.3-0.5,0.3-0.8c0-0.1,0-0.3,0.2-0.3
					c0.3,0,0.3,0.2,0.3,0.3v3.7c0,0.1-0.1,0.3-0.3,0.3c-0.2,0-0.3-0.2-0.3-0.3c0-1.9-1.3-3.4-3-3.4c-2,0-3.2,1.3-3.2,5.3
					c0,4,1.2,5.3,3.2,5.3c1.7,0,3-1.4,3-3.4c0-0.1,0-0.3,0.3-0.3c0.2,0,0.3,0.1,0.3,0.3v3.7c0,0.1,0,0.3-0.3,0.3
					c-0.2,0-0.2-0.2-0.2-0.3c0-0.2-0.1-0.7-0.3-0.8c-0.7,0.7-1.3,1.2-2.7,1.2C137.5,86.7,135.4,84.2,135.4,80.7z"/>
				<path class="st1" d="M149.1,85.8c0.1,0,0.3,0.1,0.3,0.3c0,0.2-0.1,0.3-0.3,0.3c-0.2,0-0.3-0.1-1.8-0.1h-0.2
					c-1.4,0-1.6,0.1-1.8,0.1c-0.1,0-0.3-0.1-0.3-0.3c0-0.2,0.1-0.3,0.3-0.3c0.2,0,0.3,0,1.2,0V75.5c-0.8,0-1,0-1.2,0
					c-0.1,0-0.3-0.1-0.3-0.3c0-0.2,0.1-0.3,0.3-0.3c0.2,0,0.3,0.1,1.8,0.1h0.2c1.4,0,1.6-0.1,1.8-0.1c0.1,0,0.3,0.1,0.3,0.3
					c0,0.2-0.1,0.3-0.3,0.3c-0.2,0-0.3,0-1.2,0v10.3C148.8,85.8,149,85.8,149.1,85.8z"/>
				<path class="st1" d="M155.8,86.7c-2.6,0-4.7-2.4-4.7-6c0-3.6,2.1-6,4.7-6c2.6,0,4.7,2.4,4.7,6C160.5,84.2,158.3,86.7,155.8,86.7
					z M155.8,75.4c-2.1,0-3.1,1.3-3.1,5.3c0,4,1.1,5.3,3.1,5.3c2.1,0,3.1-1.3,3.1-5.3C158.9,76.7,157.8,75.4,155.8,75.4z"/>
				<path class="st1" d="M164.1,85.8c0.8,0,1,0,1.2,0c0.1,0,0.3,0.1,0.3,0.3c0,0.2-0.1,0.3-0.3,0.3c-0.2,0-0.3-0.1-1.5-0.1
					c-1.2,0-1.3,0.1-1.5,0.1c-0.1,0-0.3-0.1-0.3-0.3c0-0.2,0.1-0.3,0.3-0.3c0.2,0,0.3,0,1.2,0V75.5c-0.8,0-1,0-1.2,0
					c-0.1,0-0.3-0.1-0.3-0.3c0-0.2,0.1-0.3,0.3-0.3c0.2,0,0.3,0.1,1.5,0.1c0.3,0,0.5,0,0.7,0c0.3,0,0.3,0.2,0.7,0.7l4.8,8v-8.1
					c-0.8,0-1,0-1.2,0c-0.1,0-0.3-0.1-0.3-0.3c0-0.2,0.1-0.3,0.3-0.3c0.2,0,0.3,0.1,1.5,0.1c1.2,0,1.3-0.1,1.5-0.1
					c0.1,0,0.3,0.1,0.3,0.3c0,0.2-0.1,0.3-0.3,0.3c-0.2,0-0.3,0-1.2,0v10.6c0,0.4-0.1,0.5-0.2,0.5c-0.2,0-0.3-0.1-0.4-0.4l-5.8-9.6
					V85.8z"/>
				<path class="st1" d="M183.1,85.8c0.1,0,0.3,0.1,0.3,0.3c0,0.2-0.1,0.3-0.3,0.3c-0.2,0-0.3-0.1-1.8-0.1h-0.2
					c-1.4,0-1.6,0.1-1.8,0.1c-0.1,0-0.3-0.1-0.3-0.3c0-0.2,0.1-0.3,0.3-0.3c0.2,0,0.3,0,1.1,0l-1.1-3h-4.2l-1.1,3h0.1
					c0.8,0,0.9,0,1.1,0c0.1,0,0.3,0.1,0.3,0.3c0,0.2-0.1,0.3-0.3,0.3c-0.2,0-0.2-0.1-1.4-0.1h-0.1c-1.2,0-1.3,0.1-1.5,0.1
					c-0.1,0-0.3-0.1-0.3-0.3c0-0.2,0.1-0.3,0.3-0.3c0.2,0,0.2,0,1,0h0.1l4-11c0.1-0.1,0.1-0.2,0.3-0.2c0.2,0,0.2,0.1,0.3,0.2l3.9,11
					C182.8,85.8,182.9,85.8,183.1,85.8z M177.4,76.9l-1.9,5.2h3.8L177.4,76.9z"/>
				<path class="st1" d="M189.5,85.7c1,0,1.4-0.9,1.4-2.3c0-0.1,0.1-0.3,0.3-0.3c0.2,0,0.3,0.1,0.3,0.3c0,0.2-0.1,1.4-0.1,2.1v0.6
					c0,0.2-0.1,0.3-0.3,0.3c-0.2,0-0.6-0.1-1-0.1c-1.5,0-3.9,0-4.6,0c-1.4,0-1.6,0.1-1.8,0.1c-0.1,0-0.3-0.1-0.3-0.3
					c0-0.2,0.1-0.3,0.3-0.3c0.2,0,0.3,0,1.2,0V75.5c-0.8,0-1,0-1.2,0c-0.1,0-0.3-0.1-0.3-0.3c0-0.2,0.1-0.3,0.3-0.3
					c0.2,0,0.3,0.1,1.8,0.1h0.2c1.4,0,1.6-0.1,1.8-0.1c0.1,0,0.3,0.1,0.3,0.3c0,0.2-0.1,0.3-0.3,0.3c-0.2,0-0.3,0-1.2,0v10.2H189.5z
					"/>
			</g>
		</g>
		<g>
			<g>
				<path class="st2" d="M88,66.9c0-2,1.6-3.5,3.5-3.5c2,0,3.5,1.6,3.5,3.5c0,2-1.6,3.5-3.5,3.5C89.5,70.4,88,68.8,88,66.9z"/>
			</g>
			<g>
				<path class="st2" d="M83.7,75.1c-1.9-0.6-2.9-2.6-2.3-4.5c0.6-1.9,2.6-2.9,4.5-2.3c1.9,0.6,2.9,2.6,2.3,4.5
					C87.5,74.7,85.5,75.7,83.7,75.1z"/>
			</g>
			<g>
				<path class="st2" d="M90.2,81.7c-1.1,1.6-3.4,1.9-4.9,0.8c-1.6-1.1-1.9-3.4-0.8-4.9c1.1-1.6,3.4-1.9,4.9-0.8
					C91,77.9,91.3,80.1,90.2,81.7z"/>
			</g>
			<g>
				<path class="st2" d="M98.5,77.6c1.1,1.6,0.8,3.8-0.8,4.9c-1.6,1.1-3.8,0.8-4.9-0.8c-1.1-1.6-0.8-3.8,0.8-4.9
					C95.1,75.6,97.4,76,98.5,77.6z"/>
			</g>
			<g>
				<path class="st2" d="M97.1,68.4c1.9-0.6,3.9,0.4,4.5,2.3c0.6,1.9-0.4,3.9-2.3,4.5c-1.9,0.6-3.9-0.4-4.5-2.3
					C94.2,71,95.3,69,97.1,68.4z"/>
			</g>
			<path class="st2" d="M91.5,86.7c-7,0-12.7-5.7-12.7-12.7c0-7,5.7-12.7,12.7-12.7c3.5,0,6.7,1.4,9,3.7l3-3c-3.1-3.1-7.3-5-12-5
				c-9.4,0-17,7.6-17,17c0,9.4,7.6,17,17,17c4.7,0,8.9-1.9,12-5l-3-3C98.2,85.2,95,86.7,91.5,86.7z"/>
			<g>
				<circle class="st2" cx="91.5" cy="73.9" r="1.8"/>
			</g>
		</g>
		<g>
			<path class="st3" d="M120.9,97.9v-6.5h0l-2,6.5h-0.6l-2-6.5h0v6.5h-0.7v-7.1h1.2l1.8,5.7h0l1.8-5.7h1.2v7.1H120.9z"/>
			<path class="st3" d="M127.3,90.9v0.7h-3.5v2.4h2.5v0.7h-2.5v2.7h3.7v0.7h-4.4v-7.1H127.3z M126.6,89.1l-1.3,1.4h-0.7l0.9-1.4
				H126.6z"/>
			<path class="st3" d="M129.1,97.9h-0.9l2.1-3.7l-2-3.4h0.9l1.5,2.6l1.5-2.6h0.9l-1.9,3.4l2.2,3.7h-0.9l-1.7-2.9L129.1,97.9z"/>
			<path class="st3" d="M135.5,90.9v7.1h-0.8v-7.1H135.5z"/>
			<path class="st3" d="M142,95.8c-0.3,1.3-1,2.2-2.5,2.2c-1.6,0-2.7-1.2-2.7-3.6c0-2.3,1-3.6,2.7-3.6c1.3,0,2.1,0.8,2.4,2.1
				l-0.7,0.2c-0.3-1-0.7-1.6-1.8-1.6c-1,0-1.8,0.9-1.8,3c0,2,0.8,3,2,3c1.1,0,1.5-0.8,1.7-1.7L142,95.8z"/>
			<path class="st3" d="M145.7,90.8c1.7,0,2.8,1.3,2.8,3.6c0,2.4-1,3.6-2.8,3.6c-1.7,0-2.8-1.3-2.8-3.6
				C142.9,92.1,143.9,90.8,145.7,90.8z M145.7,97.4c1.2,0,2-1,2-3c0-2-0.7-3-2-3c-1.2,0-2,1-2,3C143.7,96.4,144.4,97.4,145.7,97.4z"
				/>
		</g>
	</g>
</g>
</svg>
