<?xml version="1.0" encoding="utf-8"?>
<!-- Generator: Adobe Illustrator 23.1.0, SVG Export Plug-In . SVG Version: 6.00 Build 0)  -->
<svg version="1.1" id="Capa_1" xmlns="http://www.w3.org/2000/svg" xmlns:xlink="http://www.w3.org/1999/xlink" x="0px" y="0px"
	 viewBox="0 0 266 155" style="enable-background:new 0 0 266 155;" xml:space="preserve">
<style type="text/css">
	.st0{fill:#347B98;}
	.st1{fill:#656261;}
	.st2{fill-rule:evenodd;clip-rule:evenodd;fill:#656261;}
</style>
<g>
	<rect x="70.8" y="14" class="st0" width="124.4" height="3.3"/>
	<rect x="70.8" y="137.7" class="st0" width="124.4" height="3.3"/>
	<g>
		<g>
			<path class="st1" d="M175.9,83.8V69h3.6v14.8H175.9z"/>
			<path class="st1" d="M191.4,83.8l-5.9-9.7h-0.1l0.1,9.7H182V69h4.1l5.9,9.6h0.1L192,69h3.5v14.8H191.4z"/>
			<path class="st1" d="M208,83.8l-1.1-2.9h-5.7l-1.1,2.9h-3.9l6.2-14.8h3.5l6.1,14.8H208z M204,72.9l-1.9,5.1h3.7L204,72.9z"/>
			<path class="st1" d="M222,83.8v-6.2h-5.8v6.2h-3.6V69h3.6v5.6h5.8V69h3.6v14.8H222z"/>
		</g>
		<path class="st2" d="M158.1,65c0,0,0.2,0.1,0.3,0.5l2.1,3.8c0,0,0.1,0.2,0.4-0.4l0.9-1.8c0,0,0.1-0.4,0.8-0.1l5.3,2.5
			c0,0,0.5,0.3,0.2,0.9l-1.9,3.3c0,0,4.4-1.1,4.4,3.7c0,0,0.5,3.9-4.3,3.7c0,0,0,0.2,0.1,0.4l1.5,2.8c0,0,0.2,0.6-0.1,0.8l-4.7,2.4
			c0,0-1.1,0.5-1.3,0.1l-1.4-2.7c0,0-1.5,0.4-2.4,0.3c-0.9,0.1-2.4-0.3-2.4-0.3l-1.4,2.7c-0.2,0.4-1.3-0.1-1.3-0.1l-4.7-2.4
			c-0.3-0.2-0.1-0.8-0.1-0.8l1.5-2.8c0.1-0.2,0.1-0.4,0.1-0.4c-4.8,0.2-4.3-3.7-4.3-3.7c0-4.8,4.4-3.7,4.4-3.7l-1.9-3.3
			c-0.3-0.6,0.2-0.9,0.2-0.9l5.3-2.5c0.7-0.3,0.8,0.1,0.8,0.1l0.9,1.8c0.2,0.7,0.4,0.4,0.4,0.4l2.1-3.8
			C157.9,65.1,158.1,65,158.1,65L158.1,65z M159.4,82.9c-0.4,0.1-0.9,0.2-1.4,0.2c-0.5,0-0.9-0.1-1.4-0.2l-0.3,0.7
			c0,0,0.7,0.4,1.6,0.3c0.9,0,1.6-0.3,1.6-0.3L159.4,82.9L159.4,82.9z M160.6,72.2c1.9,0.9,3.2,2.9,3.2,5.1c0,2.2-1.3,4.1-3.1,5.1
			l1.7,3.2c0,0,0.3,0.6,0.8,0.3l3.1-1.4c0,0,0.3-0.1,0.2-0.6l-2.6-4.8c0,0-0.3-1.2,0.7-0.9l0.9,0.7c0,0,1.2,1.3,2.8,0.4
			c0,0,1.4-0.9,1-2.8c0,0-0.5-2.1-2.9-1.5c0,0-0.8,0.2-1.4,1c0,0-0.7,0.4-0.9,0c0,0-0.3-0.5,0-1.2l2-3.9c0,0,0.4-0.6,0-0.8l-3.1-1.5
			c0,0-0.5-0.3-0.7,0.2L160.6,72.2L160.6,72.2z M156.6,71.8c0.5-0.1,0.9-0.2,1.4-0.2c0.5,0,1,0.1,1.4,0.2l0.1-0.9c0,0,0-0.3-0.1-0.6
			l-1.4-2.5l-1.4,2.5c-0.2,0.3-0.1,0.6-0.1,0.6L156.6,71.8L156.6,71.8z M152.4,77.3c0-2.2,1.3-4.2,3.2-5.1l-1.8-3.5
			c-0.2-0.5-0.7-0.2-0.7-0.2L150,70c-0.4,0.3,0,0.8,0,0.8l2,3.9c0.3,0.7,0,1.2,0,1.2c-0.3,0.4-0.9,0-0.9,0c-0.5-0.7-1.4-1-1.4-1
			c-2.4-0.6-2.9,1.5-2.9,1.5c-0.4,1.9,1,2.8,1,2.8c1.7,0.9,2.8-0.4,2.8-0.4l0.9-0.7c1-0.3,0.7,0.9,0.7,0.9l-2.6,4.8
			c-0.2,0.5,0.2,0.6,0.2,0.6L153,86c0.5,0.2,0.8-0.3,0.8-0.3l1.7-3.2C153.6,81.5,152.4,79.5,152.4,77.3L152.4,77.3z M153.9,75.8h8.4
			c-0.6-1.7-2.3-2.9-4.2-2.9C156.1,72.9,154.5,74.1,153.9,75.8L153.9,75.8z M161.3,77.3c0,1.8-1.5,3.2-3.2,3.2
			c-1.8,0-3.2-1.4-3.2-3.2h-1.2c0,2.4,2,4.4,4.4,4.4c2.4,0,4.4-2,4.4-4.4H161.3L161.3,77.3z M156.2,77.3c0,1,0.8,1.8,1.8,1.8
			c1,0,1.8-0.8,1.8-1.8H156.2L156.2,77.3z M155.8,87.7c0-1.3,1-2.3,2.3-2.3c1.3,0,2.3,1,2.3,2.3c0,1.3-1,2.3-2.3,2.3
			C156.8,90,155.8,89,155.8,87.7L155.8,87.7z M157,87.7c0,0.6,0.5,1.1,1.1,1.1c0.6,0,1.1-0.5,1.1-1.1c0-0.6-0.5-1.1-1.1-1.1
			C157.4,86.6,157,87.1,157,87.7L157,87.7z"/>
		<g>
			<path class="st1" d="M46.4,83.9l-4.6-12h-0.1c0.1,0.9,0.1,2.1,0.1,3.4v8.6h-1.4V70.4h2.4L47,81.5h0.1l4.3-11.1h2.3v13.5h-1.6
				v-8.7c0-1,0-2.1,0.1-3.2h-0.1l-4.6,11.9H46.4z"/>
			<path class="st1" d="M65,83.9h-7.5V70.4H65v1.4H59v4.3h5.6v1.4H59v5H65V83.9z"/>
			<path class="st1" d="M78.7,77c0,2.2-0.6,3.9-1.8,5.1c-1.2,1.2-2.9,1.8-5.2,1.8H68V70.4h4.1c2.1,0,3.7,0.6,4.9,1.7
				C78.1,73.3,78.7,74.9,78.7,77z M77.1,77c0-1.8-0.4-3.1-1.3-4c-0.9-0.9-2.2-1.3-3.9-1.3h-2.3v10.8h1.9c1.9,0,3.3-0.5,4.2-1.4
				C76.6,80.2,77.1,78.8,77.1,77z"/>
			<path class="st1" d="M81.7,83.9V70.4h1.6v13.5H81.7z"/>
			<path class="st1" d="M95.5,83.9l-1.7-4.3h-5.4l-1.7,4.3h-1.6l5.3-13.5h1.3l5.3,13.5H95.5z M93.3,78.2L91.7,74
				c-0.2-0.5-0.4-1.2-0.6-1.9c-0.1,0.6-0.3,1.2-0.6,1.9l-1.6,4.2H93.3z"/>
			<path class="st1" d="M103.1,83.9h-1.6V71.8h-4.3v-1.4h10.1v1.4h-4.3V83.9z"/>
			<path class="st1" d="M116.9,83.9h-7.5V70.4h7.5v1.4H111v4.3h5.6v1.4H111v5h5.9V83.9z"/>
			<path class="st1" d="M125.7,71.6c-1.5,0-2.7,0.5-3.5,1.5c-0.9,1-1.3,2.3-1.3,4.1c0,1.8,0.4,3.1,1.2,4.1c0.8,1,2,1.4,3.5,1.4
				c0.9,0,2-0.2,3.2-0.5v1.4c-0.9,0.3-2.1,0.5-3.5,0.5c-2,0-3.5-0.6-4.6-1.8c-1.1-1.2-1.6-2.9-1.6-5.1c0-1.4,0.3-2.6,0.8-3.7
				c0.5-1,1.3-1.9,2.3-2.4c1-0.6,2.1-0.8,3.5-0.8c1.4,0,2.6,0.3,3.7,0.8l-0.7,1.3C127.7,71.8,126.7,71.6,125.7,71.6z"/>
			<path class="st1" d="M140.3,83.9l-1.7-4.3h-5.4l-1.7,4.3H130l5.3-13.5h1.3l5.3,13.5H140.3z M138.1,78.2l-1.6-4.2
				c-0.2-0.5-0.4-1.2-0.6-1.9c-0.1,0.6-0.3,1.2-0.6,1.9l-1.6,4.2H138.1z"/>
		</g>
	</g>
</g>
</svg>
