<?xml version="1.0" encoding="utf-8"?>
<!-- Generator: Adobe Illustrator 23.1.0, SVG Export Plug-In . SVG Version: 6.00 Build 0)  -->
<svg version="1.1" id="Capa_1" xmlns="http://www.w3.org/2000/svg" xmlns:xlink="http://www.w3.org/1999/xlink" x="0px" y="0px"
	 viewBox="0 0 18.9 12.8" style="enable-background:new 0 0 18.9 12.8;" xml:space="preserve">
<style type="text/css">
	.st0{fill:#002433;}
</style>
<g>
	<path class="st0" d="M9.5,10.9c-4.5,0-8.1-4.1-8.2-4.3L1,6.4l0.2-0.3C1.4,6,5,1.9,9.5,1.9c4.5,0,8.1,4.1,8.2,4.3l0.2,0.3l-0.2,0.3
		C17.5,6.8,13.9,10.9,9.5,10.9z M2.1,6.4C3,7.3,6,10.1,9.5,10.1c3.5,0,6.5-2.8,7.3-3.7c-0.9-0.9-3.8-3.7-7.3-3.7
		C6,2.7,3,5.5,2.1,6.4z"/>
	<g>
		<ellipse class="st0" cx="9.5" cy="6.4" rx="2.8" ry="2.9"/>
		<path class="st0" d="M9.5,9.7c-1.8,0-3.3-1.5-3.3-3.3s1.5-3.3,3.3-3.3c1.8,0,3.3,1.5,3.3,3.3S11.2,9.7,9.5,9.7z M9.5,3.9
			C8.1,3.9,7,5,7,6.4s1.1,2.5,2.4,2.5s2.4-1.1,2.4-2.5S10.8,3.9,9.5,3.9z"/>
	</g>
</g>
</svg>
