<?xml version="1.0" encoding="utf-8"?>
<!-- Generator: Adobe Illustrator 23.0.6, SVG Export Plug-In . SVG Version: 6.00 Build 0)  -->
<svg version="1.1" id="Capa_1" xmlns="http://www.w3.org/2000/svg" xmlns:xlink="http://www.w3.org/1999/xlink" x="0px" y="0px"
	 viewBox="0 0 21.2 23.2" style="enable-background:new 0 0 21.2 23.2;" xml:space="preserve">
<style type="text/css">
	.st0{fill:#fff;}
</style>
<g>
	<path class="st0" d="M0.7,11.6c0.2,2.2,1.1,4.2,2.5,5.8l-2.6,3.2l2.2,1.8l2.5-3.2c1.8,1.1,3.9,1.7,6.1,1.5
		c5.5-0.5,9.6-5.3,9.1-10.8c-0.4-4.8-4.2-8.5-8.8-9.1c-0.7-0.1-1.4-0.1-2.1,0C7.1,1,4.7,2.3,3,4.3C1.3,6.3,0.4,8.9,0.7,11.6z
		 M5.1,6.1c1.2-1.5,3-2.4,4.9-2.5c3.9-0.3,7.4,2.6,7.8,6.5c0.3,3.9-2.6,7.4-6.5,7.8c-0.5,0-1,0-1.5,0c-1.4-0.2-2.7-0.7-3.7-1.6
		c-1.5-1.2-2.4-3-2.5-4.9C3.3,9.4,3.9,7.6,5.1,6.1z"/>
</g>
</svg>
